<?xml version="1.0" encoding="UTF-8"?>
<svg id="_圖層_1" data-name="圖層 1" xmlns="http://www.w3.org/2000/svg" viewBox="0 0 197.63 92.21">
  <defs>
    <style>
      .cls-1 {
        fill: #00effe;
      }
    </style>
  </defs>
  <g>
    <path class="cls-1" d="M181.88,67.12c-2.22-1.17-4.89-2.53-8-4.09-3.13-1.55-6.51-2.34-10.14-2.34s-6.7,.65-9.55,1.95c-2.86,1.3-5.92,2.79-9.17,4.48-1.3,.79-3.05,1.75-5.27,2.93-2.21,1.17-5,1.75-8.38,1.75s-6.2-.59-8.47-1.75c-2.28-1.17-4.06-2.14-5.36-2.93-3.25-1.69-6.27-3.18-9.08-4.48-2.79-1.3-6.01-1.95-9.65-1.95s-7.01,.75-10.14,2.25c-3.13,1.49-5.78,2.89-8,4.19-2.73,1.43-5.22,2.57-7.51,3.41-2.27,.85-4.51,1.27-6.73,1.27s-4.44-.42-6.73-1.27c-2.27-.84-4.78-1.98-7.51-3.41-2.21-1.17-4.87-2.53-8-4.09-3.11-1.55-6.49-2.34-10.14-2.34s-6.85,.65-9.65,1.95c-2.79,1.3-5.81,2.79-9.06,4.48-1.43,.79-3.28,1.75-5.55,2.93-2.28,1.17-5.11,1.75-8.49,1.75v17.74c4.16,0,7.63-.75,10.42-2.24,2.81-1.5,5.36-2.9,7.71-4.2,2.73-1.43,5.27-2.56,7.6-3.41,2.33-.84,4.68-1.26,7.01-1.26s4.95,.58,7.81,1.75c2.86,1.17,5,2.14,6.43,2.92,2.48,1.44,5.24,2.86,8.3,4.29,3.05,1.43,6.33,2.14,9.84,2.14s6.79-.71,9.85-2.14c3.05-1.43,5.81-2.86,8.28-4.29,1.3-.78,3.41-1.75,6.33-2.92,2.94-1.17,5.57-1.75,7.9-1.75s4.68,.42,7.01,1.26c2.35,.85,4.89,1.98,7.62,3.41,2.33,1.3,4.84,2.7,7.51,4.2,2.67,1.49,6.14,2.24,10.42,2.24s7.6-.75,10.33-2.24c2.73-1.5,5.2-2.9,7.41-4.2,2.73-1.43,5.27-2.56,7.62-3.41,2.33-.84,4.67-1.26,7.01-1.26,2.48,0,5.11,.58,7.9,1.75,2.79,1.17,4.9,2.14,6.33,2.92,2.48,1.44,5.27,2.86,8.38,4.29,3.13,1.43,6.44,2.14,9.95,2.14v-17.74c-2.33,0-4.65-.42-6.92-1.27-2.27-.84-4.78-1.98-7.5-3.41Z"/>
    <path class="cls-1" d="M196.09,40.58c-2.26-.03-4.5-.43-6.7-1.25-2.27-.85-4.78-1.98-7.5-3.41-.84-.44-1.8-.94-2.77-1.43-1.59-.82-3.29-1.69-5.23-2.66-3.13-1.56-6.51-2.34-10.14-2.34-.09,0-.18,.03-.27,.03-3.4,.03-6.5,.66-9.28,1.93-2.4,1.09-5.02,2.39-7.69,3.76-.51,.26-.95,.45-1.48,.72-1.3,.78-3.05,1.75-5.27,2.93-1.85,.98-4.22,1.46-6.9,1.61-.51,.03-.94,.14-1.48,.14-3.38,0-6.2-.59-8.47-1.75-2.28-1.17-4.06-2.15-5.36-2.93-.6-.31-1.08-.52-1.66-.82-2.59-1.32-5.12-2.61-7.41-3.66-2.79-1.3-6.01-1.95-9.65-1.95s-7.01,.75-10.14,2.25c-3.13,1.49-5.78,2.89-8,4.19-2.73,1.43-5.22,2.56-7.51,3.41-2.12,.79-4.21,1.17-6.28,1.23-.15,0-.3,.04-.45,.04-2.21,0-4.44-.42-6.73-1.27-2.27-.85-4.78-1.98-7.51-3.41-2.21-1.17-4.87-2.53-8-4.09-1.95-.98-4.03-1.54-6.19-1.9-1.29-.22-2.58-.44-3.95-.44-3.63,0-6.85,.65-9.65,1.95-1.89,.87-4.03,1.97-6.13,3.03-1,.51-1.88,.9-2.93,1.45-1.43,.78-3.28,1.75-5.55,2.93-2.28,1.17-5.11,1.75-8.49,1.75v17.74c4.16,0,7.63-.75,10.42-2.24,2.81-1.5,5.36-2.9,7.71-4.2,2.73-1.43,5.27-2.56,7.6-3.41s4.68-1.27,7.01-1.27,4.95,.59,7.81,1.76c2.86,1.17,5,2.14,6.43,2.92,2.48,1.43,5.24,2.86,8.3,4.29,3.05,1.43,6.33,2.14,9.84,2.14s6.79-.71,9.85-2.14c3.05-1.43,5.81-2.86,8.28-4.29,1.3-.78,3.41-1.75,6.33-2.92,2.94-1.17,5.57-1.76,7.9-1.76s4.68,.42,7.01,1.27c2.35,.85,4.89,1.98,7.62,3.41,2.33,1.3,4.84,2.7,7.51,4.2,2.67,1.49,6.14,2.24,10.42,2.24s7.6-.75,10.33-2.24c2.73-1.5,5.2-2.9,7.41-4.2,2.14-1.12,4.07-1.91,5.98-2.68,.52-.21,1.13-.55,1.64-.73,2.24-.82,4.49-1.21,6.74-1.24,.09,0,.18-.02,.27-.02,2.48,0,5.11,.59,7.9,1.76,2.79,1.17,4.9,2.14,6.33,2.92,2.48,1.43,5.27,2.86,8.38,4.29,3.13,1.43,6.44,2.14,9.95,2.14v-17.74c-.07,0-.14-.02-.22-.02Z"/>
  </g>
  <path class="cls-1" d="M105.07,12.2c0,3.45-2.8,6.26-6.26,6.26s-6.26-2.8-6.26-6.26c0-4.49,6.26-9.53,6.26-9.53,0,0,6.26,5.04,6.26,9.53Z"/>
</svg>