<?xml version="1.0" encoding="UTF-8"?>
<svg id="_圖層_1" data-name="圖層 1" xmlns="http://www.w3.org/2000/svg" viewBox="0 0 375.65 164.6">
  <defs>
    <style>
      .cls-1 {
        fill: #00effe;
      }

      .cls-2 {
        fill: none;
      }
    </style>
  </defs>
  <path class="cls-1" d="M196.18,73.4c0,3.9-3.16,7.06-7.06,7.06s-7.06-3.16-7.06-7.06c0-5.07,7.06-10.75,7.06-10.75,0,0,7.06,5.68,7.06,10.75Z"/>
  <path class="cls-2" d="M277.98,49.27c-1.16-1.51-2.94-2.26-5.38-2.26-2.15,0-3.97,.46-5.48,1.4s-3.2,2.3-5.06,4.09v23.99c.11,0,.2-.03,.31-.03,4.1,0,7.91,.88,11.44,2.64,2.18,1.1,4.1,2.08,5.9,3v-24.23c0-4.23-.57-7.1-1.72-8.61Z"/>
  <path class="cls-2" d="M333.21,61.42c1.18,.72,2.5,1.08,3.93,1.08s2.85-.36,4.03-1.08,2.12-1.79,2.8-3.23,1.02-3.23,1.02-5.38-.34-3.8-1.02-5.17c-.68-1.36-1.62-2.4-2.8-3.12-1.18-.71-2.52-1.07-4.03-1.07s-2.75,.36-3.93,1.07c-1.18,.72-2.12,1.76-2.79,3.12-.68,1.37-1.02,3.09-1.02,5.17s.34,3.94,1.02,5.38c.67,1.44,1.61,2.51,2.79,3.23Z"/>
  <path class="cls-2" d="M35.07,46.25c-1.72,0-3.35,.57-4.89,1.72s-2.79,2.9-3.76,5.27-1.45,5.45-1.45,9.25,.41,7.04,1.23,9.52c.82,2.47,2.03,4.29,3.61,5.43s3.44,1.72,5.59,1.72c1.86,0,3.53-.36,5-1.08,1.47-.71,2.89-2.08,4.25-4.09v-24.1c-1.44-1.36-2.98-2.31-4.63-2.85-1.65-.54-3.29-.81-4.95-.81Z"/>
  <path class="cls-2" d="M349.67,96.76c-1.54-.54-3.75-.81-6.62-.81h-5.8c-2.22,0-3.98-.05-5.27-.16-1.3-.11-2.44-.31-3.45-.59-.93,.86-1.63,1.74-2.09,2.64-.47,.9-.7,1.85-.7,2.85,0,2.15,1.18,3.76,3.55,4.84,2.37,1.08,5.49,1.62,9.37,1.62,2.65,0,4.96-.31,6.93-.91,1.97-.61,3.54-1.42,4.68-2.42,1.15-1.01,1.72-2.15,1.72-3.44,0-1.86-.77-3.06-2.31-3.6Z"/>
  <path class="cls-1" d="M282.82,135.34c-2.51-1.32-5.51-2.85-9.02-4.62-3.53-1.75-7.34-2.64-11.44-2.64s-7.55,.73-10.77,2.2c-3.22,1.47-6.68,3.15-10.34,5.06-1.47,.89-3.44,1.98-5.94,3.3-2.49,1.32-5.64,1.98-9.45,1.98s-7-.66-9.56-1.98c-2.58-1.32-4.58-2.42-6.05-3.3-3.67-1.91-7.07-3.59-10.24-5.06-3.15-1.47-6.78-2.2-10.88-2.2s-7.91,.84-11.44,2.53c-3.53,1.68-6.51,3.26-9.02,4.72-3.08,1.61-5.89,2.9-8.47,3.85-2.56,.96-5.08,1.43-7.59,1.43s-5.01-.47-7.59-1.43c-2.56-.95-5.39-2.24-8.47-3.85-2.49-1.32-5.49-2.85-9.02-4.62-3.51-1.75-7.32-2.64-11.44-2.64s-7.73,.73-10.88,2.2c-3.15,1.47-6.55,3.15-10.22,5.06-1.61,.89-3.7,1.98-6.26,3.3-2.58,1.32-5.76,1.98-9.57,1.98v20.01c4.69,0,8.61-.84,11.76-2.52,3.17-1.69,6.05-3.27,8.7-4.73,3.08-1.61,5.94-2.89,8.57-3.85,2.63-.95,5.28-1.42,7.91-1.42s5.58,.65,8.81,1.98c3.22,1.32,5.64,2.42,7.25,3.29,2.79,1.62,5.91,3.23,9.36,4.84,3.44,1.61,7.14,2.42,11.1,2.42s7.66-.81,11.11-2.42c3.44-1.61,6.55-3.22,9.34-4.84,1.47-.88,3.85-1.98,7.14-3.29,3.31-1.32,6.28-1.98,8.91-1.98s5.28,.47,7.91,1.42c2.65,.96,5.51,2.24,8.59,3.85,2.63,1.47,5.46,3.04,8.47,4.73,3.01,1.68,6.93,2.52,11.76,2.52s8.57-.84,11.65-2.52c3.08-1.69,5.87-3.27,8.36-4.73,3.08-1.61,5.94-2.89,8.59-3.85,2.63-.95,5.26-1.42,7.91-1.42,2.79,0,5.76,.65,8.91,1.98,3.15,1.32,5.53,2.42,7.14,3.29,2.79,1.62,5.94,3.23,9.45,4.84,3.53,1.61,7.27,2.42,11.22,2.42v-20.01c-2.63,0-5.24-.47-7.8-1.43-2.56-.95-5.39-2.24-8.46-3.85Z"/>
  <path class="cls-1" d="M44.65,27.86l.65,9.14c-2.01-1.93-4.13-3.48-6.35-4.63-2.22-1.14-5.03-1.72-8.4-1.72-4.23,0-8.28,1.29-12.15,3.87-3.88,2.58-7.03,6.26-9.47,11.03-2.43,4.77-3.66,10.49-3.66,17.16s1.02,12.41,3.07,17.21c2.04,4.81,4.95,8.5,8.71,11.08,3.76,2.58,8.19,3.87,13.28,3.87,2.94,0,5.81-.7,8.61-2.1,2.79-1.4,5.27-3.17,7.42-5.33h.44l1.39,5.92h15.6V7.42h-19.15V27.86Zm0,46.15c-1.37,2.01-2.78,3.37-4.25,4.09-1.47,.72-3.13,1.08-5,1.08-2.15,0-4.02-.57-5.59-1.72s-2.78-2.96-3.61-5.43c-.82-2.48-1.23-5.65-1.23-9.52s.48-6.89,1.45-9.25,2.22-4.12,3.76-5.27,3.18-1.72,4.89-1.72,3.3,.27,4.95,.81c1.65,.54,3.2,1.49,4.63,2.85v24.1Z"/>
  <path class="cls-1" d="M95.01,83.71c1.19-.62,2.18-1.07,3.31-1.64V32.16h-19.15v56.83c3.81,0,7-.66,9.57-1.98,2.56-1.32,4.65-2.43,6.26-3.3Z"/>
  <path class="cls-1" d="M88.74,23.66c3.16,0,5.73-.9,7.7-2.69,1.97-1.79,2.96-4.19,2.96-7.2s-.99-5.31-2.96-7.1c-1.97-1.79-4.53-2.69-7.7-2.69s-5.8,.9-7.74,2.69c-1.94,1.79-2.91,4.16-2.91,7.1s.96,5.41,2.91,7.2c1.93,1.79,4.52,2.69,7.74,2.69Z"/>
  <path class="cls-1" d="M136.57,83.71c3.08,1.61,5.91,2.89,8.47,3.85,2.16,.8,4.28,1.19,6.38,1.32l18.34-56.72h-18.39l-7.54,28.19c-.72,3.01-1.45,6.1-2.21,9.25-.75,3.16-1.52,6.35-2.31,9.57h-.53c-.79-3.23-1.56-6.42-2.31-9.57-.75-3.16-1.52-6.24-2.32-9.25l-7.42-28.19h-19.26l15.02,45.23c1.74,.4,3.45,.9,5.06,1.71,3.53,1.76,6.53,3.3,9.02,4.62Z"/>
  <path class="cls-1" d="M216.3,87.02c2.56,1.32,5.74,1.98,9.56,1.98,.61,0,1.09-.12,1.67-.16V32.16h-19.15v50.63c.65,.33,1.2,.58,1.87,.93,1.47,.88,3.47,1.98,6.05,3.3Z"/>
  <path class="cls-1" d="M217.94,23.66c3.16,0,5.73-.9,7.7-2.69,1.97-1.79,2.96-4.19,2.96-7.2s-.99-5.31-2.96-7.1c-1.97-1.79-4.53-2.69-7.7-2.69s-5.8,.9-7.74,2.69c-1.94,1.79-2.91,4.16-2.91,7.1s.96,5.41,2.91,7.2c1.93,1.79,4.52,2.69,7.74,2.69Z"/>
  <path class="cls-1" d="M262.06,76.49v-23.99c1.86-1.79,3.55-3.16,5.06-4.09s3.33-1.4,5.48-1.4c2.44,0,4.23,.75,5.38,2.26,1.15,1.51,1.72,4.37,1.72,8.61v24.23c1.09,.56,2.18,1.12,3.12,1.62,3.08,1.61,5.91,2.89,8.46,3.85,2.48,.93,5.01,1.38,7.56,1.41V55.5c0-7.67-1.51-13.73-4.52-18.18-3.01-4.45-7.85-6.67-14.51-6.67-4.17,0-7.84,.9-11.03,2.69-3.2,1.79-6.04,3.94-8.55,6.45h-.32l-1.4-7.64h-15.59v50.74c3.02-1.54,5.98-3.02,8.68-4.24,3.13-1.43,6.64-2.13,10.47-2.17Z"/>
  <path class="cls-1" d="M298.84,105.41c-2.55-.03-5.08-.48-7.56-1.41-2.56-.96-5.39-2.24-8.46-3.85-.95-.5-2.03-1.06-3.12-1.62-1.8-.92-3.71-1.9-5.9-3-3.53-1.76-7.34-2.64-11.44-2.64-.11,0-.2,.03-.31,.03-3.83,.04-7.33,.74-10.47,2.17-2.7,1.22-5.66,2.7-8.68,4.24-.58,.3-1.07,.51-1.67,.81-1.47,.88-3.44,1.98-5.94,3.3-2.09,1.11-4.76,1.64-7.78,1.82-.57,.03-1.06,.16-1.67,.16-3.81,0-7-.66-9.56-1.98-2.58-1.32-4.58-2.43-6.05-3.3-.67-.35-1.22-.59-1.87-.93-2.92-1.49-5.77-2.94-8.36-4.13-3.15-1.47-6.78-2.2-10.88-2.2s-7.91,.84-11.44,2.53c-3.53,1.68-6.51,3.26-9.02,4.72-3.08,1.61-5.89,2.89-8.47,3.85-2.39,.89-4.74,1.33-7.08,1.38-.17,0-.34,.05-.5,.05-.4,0-.8-.09-1.21-.11-2.1-.13-4.22-.51-6.38-1.32-2.56-.96-5.39-2.24-8.47-3.85-2.49-1.32-5.49-2.85-9.02-4.62-1.61-.81-3.32-1.31-5.06-1.71-.64-.15-1.27-.33-1.92-.44-1.46-.25-2.91-.49-4.45-.49-4.1,0-7.73,.73-10.88,2.2-2.13,.99-4.55,2.23-6.91,3.42-1.13,.57-2.12,1.02-3.31,1.64-1.61,.88-3.7,1.98-6.26,3.3-2.58,1.32-5.76,1.98-9.57,1.98v20.01c4.69,0,8.61-.84,11.76-2.52,3.17-1.69,6.05-3.27,8.7-4.73,3.08-1.61,5.94-2.89,8.57-3.85s5.28-1.43,7.91-1.43,5.58,.66,8.81,1.99c3.22,1.32,5.64,2.42,7.25,3.29,2.79,1.61,5.91,3.23,9.36,4.84,3.44,1.61,7.14,2.42,11.1,2.42s7.66-.81,11.11-2.42c3.44-1.61,6.55-3.23,9.34-4.84,1.47-.88,3.85-1.98,7.14-3.29,3.31-1.32,6.28-1.99,8.91-1.99s5.28,.47,7.91,1.43c2.65,.96,5.51,2.24,8.59,3.85,2.63,1.47,5.46,3.04,8.47,4.73,3.01,1.68,6.93,2.52,11.76,2.52s8.57-.84,11.65-2.52c3.08-1.69,5.87-3.27,8.36-4.73,2.42-1.26,4.59-2.16,6.74-3.02,.59-.24,1.28-.62,1.85-.83,2.53-.92,5.06-1.37,7.6-1.4,.1,0,.2-.03,.31-.03,2.79,0,5.76,.66,8.91,1.99,3.15,1.32,5.53,2.42,7.14,3.29,2.79,1.61,5.94,3.23,9.45,4.84,3.53,1.61,7.27,2.42,11.22,2.42v-20.01c-.08,0-.16-.02-.24-.02Z"/>
  <path class="cls-1" d="M364.19,85.03c-4.12-2.47-9.95-3.71-17.48-3.71h-9.68c-3.3,0-5.63-.34-6.99-1.02-1.37-.68-2.05-1.7-2.05-3.06,0-1.08,.16-1.9,.48-2.48,.32-.57,.81-1.18,1.45-1.83,1.37,.36,2.65,.63,3.88,.81,1.22,.18,2.33,.27,3.34,.27,4.52,0,8.61-.71,12.31-2.15,3.69-1.44,6.64-3.68,8.82-6.72s3.28-6.94,3.28-11.67c0-1.43-.17-2.81-.48-4.14-.32-1.33-.7-2.42-1.13-3.28h9.36v-13.88h-22.49c-1.36-.5-2.86-.88-4.52-1.13-1.65-.25-3.37-.38-5.16-.38-4.38,0-8.52,.81-12.43,2.42-3.9,1.62-7.08,4.07-9.52,7.37-2.44,3.3-3.66,7.42-3.66,12.37,0,3.58,.84,6.76,2.53,9.52,1.68,2.76,3.63,4.89,5.86,6.4v.43c-2,1.37-3.65,3.07-4.95,5.11-1.29,2.04-1.93,4.14-1.93,6.29,0,2.58,.53,4.72,1.61,6.4s2.41,3.06,3.98,4.14v.54c-2.87,1.44-5.03,3.17-6.45,5.22-1.44,2.04-2.15,4.32-2.15,6.83,0,3.66,1.15,6.62,3.44,8.88s5.39,3.91,9.31,4.95c3.9,1.04,8.19,1.56,12.85,1.56,7.1,0,13.25-.95,18.45-2.85s9.21-4.5,12.05-7.8c2.84-3.3,4.25-7.1,4.25-11.4,0-5.52-2.07-9.52-6.19-12Zm-33.77-37.38c.67-1.36,1.61-2.4,2.79-3.12,1.18-.71,2.5-1.07,3.93-1.07s2.85,.36,4.03,1.07c1.18,.72,2.12,1.76,2.8,3.12,.68,1.37,1.02,3.09,1.02,5.17s-.34,3.94-1.02,5.38-1.62,2.51-2.8,3.23-2.52,1.08-4.03,1.08-2.75-.36-3.93-1.08-2.12-1.79-2.79-3.23c-.68-1.44-1.02-3.23-1.02-5.38s.34-3.8,1.02-5.17Zm19.85,56.16c-1.15,1-2.71,1.81-4.68,2.42-1.97,.61-4.28,.91-6.93,.91-3.88,0-6.99-.54-9.37-1.62-2.36-1.08-3.55-2.69-3.55-4.84,0-1,.23-1.95,.7-2.85,.46-.9,1.16-1.78,2.09-2.64,1.01,.28,2.15,.48,3.45,.59,1.29,.11,3.05,.16,5.27,.16h5.8c2.87,0,5.08,.27,6.62,.81s2.31,1.74,2.31,3.6c0,1.29-.57,2.44-1.72,3.44Z"/>
</svg>