<svg width="18" height="12" viewBox="0 0 18 12" fill="none" xmlns="http://www.w3.org/2000/svg">
<path d="M10.748 11.6771C10.5168 11.4619 10.4059 11.2018 10.4151 10.8969C10.4244 10.5919 10.545 10.3318 10.7769 10.1166L14.0417 7.07623H1.1557C0.828253 7.07623 0.553583 6.97291 0.331689 6.76628C0.109795 6.55964 -0.000766466 6.30421 3.99894e-06 6C3.99894e-06 5.69507 0.110951 5.43928 0.332845 5.23264C0.554739 5.02601 0.829024 4.92305 1.1557 4.92377H14.0417L10.748 1.8565C10.5168 1.64125 10.4013 1.38547 10.4013 1.08915C10.4013 0.792825 10.5168 0.537399 10.748 0.32287C10.9791 0.107623 11.2538 0 11.572 0C11.8902 0 12.1645 0.107623 12.3949 0.32287L17.6822 5.24664C17.7977 5.35426 17.8798 5.47085 17.9283 5.59641C17.9769 5.72197 18.0008 5.8565 18 6C18 6.1435 17.9757 6.27803 17.9272 6.40359C17.8786 6.52915 17.797 6.64574 17.6822 6.75336L12.366 11.704C12.1541 11.9013 11.8894 12 11.572 12C11.2546 12 10.9799 11.8924 10.748 11.6771Z" fill="#0BC6D6"/>
</svg>
