<svg width="27" height="19" viewBox="0 0 27 19" fill="none" xmlns="http://www.w3.org/2000/svg">
<path d="M26.9916 9.8138C25.2793 6.61009 22.4916 4.91051 19.1619 3.99377C18.5578 3.82748 17.9125 3.82208 17.2957 3.69251C17.0089 3.63204 16.6926 3.51111 16.4807 3.31459C15.4527 2.36222 14.4595 1.37097 13.4473 0.401328C12.7778 -0.240063 12.2052 -0.10725 11.8784 0.760896C11.6528 1.36126 11.4313 1.9627 11.2321 2.57277C11.0307 3.18933 11.385 3.77997 12.0123 3.88147C12.4024 3.94518 12.7925 4.00457 13.189 4.17949C12.8653 4.27991 12.5416 4.37709 12.219 4.47967C10.3675 5.07355 8.72376 6.04428 7.24766 7.32598C6.90077 7.62724 6.52437 7.89395 6.16483 8.18009C5.87172 8.41333 5.61973 8.38309 5.31713 8.14878C3.79042 6.96965 2.25422 5.80349 0.703257 4.65892C0.563026 4.55526 0.342665 4.56497 0.138121 4.55202L0.0084343 4.75502C0.0896206 4.90835 0.186621 5.05628 0.247774 5.21716C0.694822 6.38549 1.07861 7.58297 1.59419 8.7189C2.01804 9.65184 2.02437 10.4779 1.59841 11.4151C1.00059 12.7346 0.52718 14.1124 0 15.4654L0.014761 15.5604C0.278349 15.8682 0.498711 15.6662 0.726452 15.4935C2.12137 14.431 3.51628 13.3695 4.91225 12.3081C5.81373 11.6235 5.88226 11.6257 6.7384 12.3675C6.77847 12.402 6.81642 12.4409 6.85438 12.4776C8.60672 14.1286 10.6311 15.2689 12.937 15.8843C13.1268 15.9351 13.3102 16.0064 13.5717 16.0938C13.3556 16.285 13.2343 16.4145 13.093 16.5149C11.8373 17.4144 11.9712 18.0688 13.2491 18.7965C13.868 19.1496 14.2518 19.0568 14.5892 18.411C14.8717 17.8722 15.1437 17.328 15.3978 16.7752C15.5307 16.4869 15.7152 16.4016 16.0199 16.4134C16.5977 16.435 17.1797 16.4458 17.7543 16.3929C18.3479 16.3389 18.9331 16.2029 19.4961 16.1079C19.1039 15.2559 18.717 14.5087 18.4123 13.7291C17.9178 12.4636 17.651 11.1473 17.8271 9.77277C17.8819 9.34626 18.0559 8.99965 18.562 9.0396C18.9626 9.07199 19.1229 9.39485 19.0986 9.92718C19.0744 10.4617 19.0522 11.008 19.125 11.5339C19.3359 13.0553 19.9506 14.4083 20.8341 15.623C20.9142 15.6047 20.9501 15.6014 20.9817 15.5874C23.5522 14.432 25.739 12.8307 27 10.1539L26.9916 9.81273V9.8138ZM22.0951 9.31602C22.1689 9.0396 22.3714 8.80961 22.6318 8.70595C23.2539 8.4576 23.8896 8.96941 23.8833 9.57193C23.878 10.0676 23.4563 10.4908 22.966 10.493C22.3988 10.4962 21.9328 9.92286 22.0951 9.31602Z" fill="#00EFFE"/>
</svg>
