<svg width="163" height="92" viewBox="0 0 163 92" fill="none" xmlns="http://www.w3.org/2000/svg">
<g filter="url(#filter0_d_419_569)">
<path fill-rule="evenodd" clip-rule="evenodd" d="M48.3389 7.90216C61.9684 10.7026 71.9245 20.036 83.1856 40.5698C90.2235 53.4024 94.888 59.0525 101.875 63.2101C107.764 66.714 112.448 67.9466 118.828 67.671C125.107 67.3995 128.784 65.9864 132.719 62.3332C141.74 53.9567 141.843 32.948 132.906 24.1725C129.856 21.1789 124.186 18.6397 118.703 17.8134C115.052 17.2627 113.632 17.3126 110.498 18.1011C103.29 19.9138 97.2522 24.0449 91.3158 31.2243C90.0157 32.797 88.7634 34.0831 88.5324 34.0831C88.3019 34.0831 86.9497 32.0416 85.5283 29.5458L82.9441 25.0091L84.604 22.8725C87.4566 19.2 94.1188 13.71 98.4082 11.497C103.181 9.03364 110.671 7 114.968 7C124.061 7 134.419 11.039 140.295 16.8751C147.299 23.8319 150 31.1334 150 43.1108C150 55.0906 147.249 62.5607 140.338 69.3471C130.093 79.4064 115.455 81.2896 100.873 74.4237C89.2317 68.9427 82.979 62.2778 73.8927 45.668C63.9587 27.5067 57.0005 20.6433 45.9815 18.1336C35.7765 15.8098 23.7456 21.2909 19.8442 30.0405C16.6237 37.2639 16.6054 48.4925 19.8037 54.8721C22.0477 59.348 26.0129 63.1059 30.7626 65.2576C35.7447 67.5145 44.3731 67.8575 49.3999 65.9984C51.3319 65.284 53.0874 64.4216 53.3013 64.0821C53.5146 63.7427 52.6418 62.4108 51.3607 61.1229C50.0797 59.8349 49.1891 58.6258 49.3821 58.4368C50.1673 57.6653 71.056 52.2522 71.5194 52.7C72.0097 53.1725 68.6777 74.7992 68.0145 75.4504C67.83 75.631 66.568 74.7932 65.2097 73.5883C63.8508 72.3834 62.4741 71.3976 62.1498 71.3976C61.8256 71.3976 60.2399 72.2215 58.6272 73.2284C51.7077 77.5467 39.5547 79.0308 31.1764 76.5795C19.5634 73.1821 10.5127 64.1339 7.91866 53.329C6.69521 48.2313 6.69337 37.714 7.91559 32.54C9.89787 24.1478 14.6887 17.111 21.2589 12.9414C29.5202 7.69814 38.8738 5.9576 48.3389 7.90216Z" fill="white"/>
</g>
<defs>
<filter id="filter0_d_419_569" x="0" y="0" width="163" height="91.5" filterUnits="userSpaceOnUse" color-interpolation-filters="sRGB">
<feFlood flood-opacity="0" result="BackgroundImageFix"/>
<feColorMatrix in="SourceAlpha" type="matrix" values="0 0 0 0 0 0 0 0 0 0 0 0 0 0 0 0 0 0 127 0" result="hardAlpha"/>
<feOffset dx="3" dy="3"/>
<feGaussianBlur stdDeviation="5"/>
<feComposite in2="hardAlpha" operator="out"/>
<feColorMatrix type="matrix" values="0 0 0 0 0 0 0 0 0 0 0 0 0 0 0 0 0 0 0.3 0"/>
<feBlend mode="normal" in2="BackgroundImageFix" result="effect1_dropShadow_419_569"/>
<feBlend mode="normal" in="SourceGraphic" in2="effect1_dropShadow_419_569" result="shape"/>
</filter>
</defs>
</svg>
