<svg width="110" height="95" viewBox="0 0 110 95" fill="none" xmlns="http://www.w3.org/2000/svg">
<g filter="url(#filter0_d_416_681)">
<path d="M31.2594 2.42618C34.6332 4.39383 38.1725 5.43785 41.6183 5.4814C45.6341 5.53235 48.6586 4.57339 51.7932 2.25485C53.17 1.23631 54.4388 0.403064 54.613 0.403064C54.7868 0.403064 55.8924 1.1299 57.0688 2.0186C59.5729 3.90901 62.611 5.13833 65.7504 5.53112C69.6108 6.0143 75.5226 4.21633 79.8029 1.25726L81.6217 0L83.3938 1.4968C84.3682 2.32018 86.3616 3.56059 87.8234 4.25372C90.0985 5.33184 91.0406 5.53194 94.3657 5.64288C97.7755 5.7571 98.6632 5.62973 101.63 4.6005C103.489 3.95585 105.099 3.51827 105.208 3.62797C105.317 3.73727 105.406 4.90455 105.406 6.22097C105.406 8.56251 105.367 8.64345 103.668 9.89948C100.228 12.4411 96.6007 13.373 92.8413 12.6806C90.1946 12.1934 85.8738 10.0581 83.7811 8.20382C83.0197 7.52917 82.3188 6.97697 82.2232 6.97697C82.1279 6.97697 81.2087 7.62244 80.1803 8.41131C73.0087 13.9137 65.5533 13.9753 57.3321 8.5999C55.9672 7.70708 54.7127 6.97697 54.5451 6.97697C54.377 6.97697 53.6521 7.42728 52.934 7.97743C50.7048 9.68583 45.5654 11.9099 42.8188 12.3544C38.1145 13.1158 33.1284 11.6687 29.0783 8.36653C28.1407 7.60231 27.2502 6.97697 27.0989 6.97697C26.9476 6.97697 26.0582 7.63518 25.1231 8.43966C24.1879 9.24414 22.3185 10.4451 20.9691 11.1082C15.3223 13.8833 10.9717 13.5546 5.53335 9.94098C4.03516 8.94544 4 8.86327 4 6.37463C4 4.97357 4.09855 3.72781 4.21917 3.60661C4.33979 3.48581 5.58161 3.8519 6.97921 4.42054C10.5333 5.86639 15.9086 6.12688 19.3761 5.02082C21.7853 4.25208 25.8767 1.84522 26.9189 0.583026C27.3671 0.0406756 27.5233 0.0406819 28.2859 0.582204C28.7594 0.918706 30.0977 1.74866 31.2594 2.42618Z" fill="white"/>
<path d="M30.4968 17.6743C35.4792 20.6938 40.5245 21.7687 45.1577 20.7982C48.4669 20.1046 50.7824 19.029 52.8032 17.2462C53.5703 16.5695 54.3108 16.0161 54.4494 16.0161C54.5876 16.0161 55.5755 16.641 56.6444 17.4048C59.563 19.4912 61.6251 20.4198 64.5037 20.944C68.8605 21.7383 74.5 20.3848 79.0657 17.4504C80.2928 16.6616 81.452 16.0161 81.6417 16.0161C81.8314 16.0161 82.7016 16.5958 83.5758 17.3042C84.4504 18.0129 86.3616 19.1683 87.8234 19.8721C90.3136 21.071 90.765 21.1507 94.979 21.1314C98.5663 21.1154 99.9708 20.928 101.916 20.2069C105.394 18.9181 105.406 18.9234 105.406 21.7317C105.406 23.9664 105.3 24.2507 104.077 25.289C101.162 27.7649 96.5844 28.9687 92.7522 28.2674C89.8527 27.7369 87.3511 26.5545 84.4664 24.351L82.1316 22.5674L79.6516 24.4019C76.1233 27.0118 73.2258 28.0233 69.2187 28.0443C64.6538 28.0681 60.8797 26.8018 56.4694 23.7663C55.5293 23.1192 54.6633 22.59 54.5451 22.59C54.4269 22.59 53.2853 23.3259 52.0079 24.2248C44.5681 29.4614 35.2845 29.3874 29.0697 24.042C28.1411 23.2433 27.2702 22.59 27.134 22.59C26.9979 22.59 25.9208 23.3805 24.7408 24.346C18.5554 29.4088 11.3474 29.79 5.12446 25.3843C4.0965 24.6567 4 24.3617 4 21.9457C4 18.9119 4.02045 18.9012 7.27116 20.2065C9.10014 20.9412 10.3595 21.1121 14.0179 21.1224C19.2428 21.1371 21.6393 20.3931 25.0581 17.6957C26.1825 16.8086 27.2506 16.0674 27.4317 16.0494C27.6124 16.0309 28.992 16.7622 30.4968 17.6743Z" fill="white"/>
<path fill-rule="evenodd" clip-rule="evenodd" d="M7.68005 40.8856C10.216 41.2681 15.5509 43.8516 18.6008 46.1743C21.2999 48.2298 24.6156 51.942 26.6196 55.1513C27.2898 56.2249 27.9485 57.1026 28.0835 57.1021C28.2188 57.1017 29.7763 56.0121 31.5448 54.6805C41.4547 47.2203 53.4775 41.8359 62.9516 40.6148C72.4113 39.3957 83.7054 43.0849 93.0953 50.46C98.0952 54.3875 99.9348 56.1341 103.448 60.2893C106.288 63.6485 106.309 63.6904 105.639 64.7188C104.135 67.0234 96.3885 74.6319 92.7084 77.4176C88.0156 80.9695 80.6743 84.7236 76.1699 85.8749C69.0829 87.686 61.0093 87.2998 53.5858 84.7943C46.9499 82.5551 37.1442 77.1452 30.4354 72.022C29.1196 71.0175 28.0021 70.2541 27.9518 70.326C27.9011 70.3975 26.9958 71.7809 25.9392 73.4005C23.2655 77.4997 18.3387 82.0435 14.2506 84.1805C11.0469 85.8556 5.69405 87.3643 4.5377 86.9185C4.11572 86.7558 4.47759 85.7147 6.00767 82.6882C12.8877 69.0777 13.0006 59.3184 6.43456 45.7162C4.24738 41.1855 3.97465 40.0786 5.12446 40.4053C5.51822 40.5166 6.66804 40.7331 7.68005 40.8856ZM75.0986 54.8165C72.4089 56.6531 71.6843 60.6981 73.5509 63.4538C76.3232 67.5469 82.4117 66.8143 84.3981 62.1493C85.1668 60.3439 85.1071 59.3089 84.1143 57.248C82.4771 53.8497 78.2029 52.6972 75.0986 54.8165Z" fill="white"/>
</g>
<defs>
<filter id="filter0_d_416_681" x="0" y="0" width="110" height="95" filterUnits="userSpaceOnUse" color-interpolation-filters="sRGB">
<feFlood flood-opacity="0" result="BackgroundImageFix"/>
<feColorMatrix in="SourceAlpha" type="matrix" values="0 0 0 0 0 0 0 0 0 0 0 0 0 0 0 0 0 0 127 0" result="hardAlpha"/>
<feOffset dy="4"/>
<feGaussianBlur stdDeviation="2"/>
<feComposite in2="hardAlpha" operator="out"/>
<feColorMatrix type="matrix" values="0 0 0 0 0 0 0 0 0 0 0 0 0 0 0 0 0 0 0.25 0"/>
<feBlend mode="normal" in2="BackgroundImageFix" result="effect1_dropShadow_416_681"/>
<feBlend mode="normal" in="SourceGraphic" in2="effect1_dropShadow_416_681" result="shape"/>
</filter>
</defs>
</svg>
