<svg width="151" height="80" viewBox="0 0 151 80" fill="none" xmlns="http://www.w3.org/2000/svg">
<g filter="url(#filter0_d_416_669)">
<path fill-rule="evenodd" clip-rule="evenodd" d="M83.7052 0.476804C104.758 2.43157 123.493 11.3563 138.286 26.4766C140.995 29.2449 144.064 32.5745 145.105 33.875L147 36.2396L145.073 38.7031C132.578 54.6805 113.327 66.4 92.2653 70.8521C85.0111 72.385 66.2325 72.382 58.5521 70.8467C43.0855 67.7543 30.5638 61.7789 18.1163 51.5507C13.0704 47.4039 4.02685 37.583 4.00006 36.2197C3.97388 34.9227 12.327 25.5683 17.0965 21.5526C28.5759 11.888 40.4176 5.79252 54.0133 2.55107C64.5807 0.0314114 72.7561 -0.539507 83.7052 0.476804ZM68.2112 7.62779C67.2042 7.86739 64.8754 8.79076 63.0361 9.68033L59.6931 11.2971L62.8194 10.9821C66.9332 10.5669 69.1299 11.3979 69.1299 13.369C69.1299 14.2537 69.6303 15.1373 70.3475 15.5175C71.0172 15.873 71.5634 16.3576 71.5603 16.5947C71.5548 17.118 67.0166 19.7421 66.1174 19.7421C64.9284 19.7421 65.4666 18.7336 67.0331 18.0257C68.6976 17.2743 68.493 15.8609 66.7956 16.3847C66.2379 16.5573 63.9037 16.9593 61.6084 17.2779C55.1031 18.1826 53.301 20.9322 58.5704 21.9117C60.2447 22.2231 60.9649 22.0324 62.0979 20.9774C62.8815 20.2478 63.6797 19.9038 63.8721 20.2122C64.0644 20.5212 63.5859 21.3661 62.8084 22.0897C61.631 23.1863 60.9698 23.3384 58.8438 23.0016C55.936 22.5405 52.3701 24.0203 51.8757 25.893C51.6651 26.6927 50.9978 26.9842 49.3808 26.9842C47.9385 26.9842 47.0471 27.3119 46.8079 27.9299C46.0383 29.9172 47.5975 30.1393 51.4605 28.5925L55.2389 27.0795L56.2483 28.8388C57.2973 30.6668 58.395 31.283 57.7826 29.7C57.3941 28.6969 58.4888 28.4429 59.0842 29.3982C59.2912 29.7301 59.992 30.0017 60.6422 30.0017C61.9676 30.0017 62.2026 31.1955 61.0934 32.2951C60.0529 33.3265 58.4444 33.1647 53.7113 31.5533C48.8602 29.9015 47.8112 30.0403 46.3275 32.5298C45.4343 34.0289 45.3059 35.1074 45.631 38.3712C46.1077 43.1528 47.6401 48.1155 48.6307 48.0859C49.0228 48.0738 50.0139 47.696 50.8346 47.2452C52.1077 46.5464 52.5308 46.5596 53.7266 47.3364C54.4967 47.8367 55.1269 48.6218 55.1269 49.0817C55.1269 49.5416 55.4696 49.9188 55.8879 49.92C56.7336 49.9224 58.7743 54.3835 58.789 56.2611C58.8103 59.0004 60.9892 59.6075 63.536 57.5845C64.8346 56.5531 67.9122 49.5132 67.9122 47.5747C67.9122 46.547 68.5594 45.0231 69.4343 43.9923C71.3247 41.7654 71.3326 41.2687 69.4909 40.2916C67.8599 39.4261 65.5896 35.7242 66.2739 35.0459C66.515 34.8063 67.6784 35.5383 68.8583 36.6717C70.9046 38.638 71.0769 38.6917 72.6051 37.8377C74.971 36.5154 74.9143 35.8461 72.1996 33.0452C70.8462 31.6493 69.7387 30.2419 69.7387 29.9184C69.7387 28.852 74.5484 32.149 75.9633 34.1847C76.7919 35.3772 78.2836 36.4919 79.6723 36.956C80.9502 37.3833 82.479 38.166 83.069 38.6953C83.6589 39.2246 84.2927 39.6579 84.4766 39.6579C85.0178 39.6579 86.2598 36.309 86.0577 35.3947C85.9524 34.9173 86.4516 34.4689 87.2187 34.3524C88.3481 34.1816 88.8479 34.7622 90.325 37.9596C91.5377 40.5855 92.6805 42.1087 94.0017 42.8607C96.0431 44.0219 96.3347 43.638 95.2321 41.2397C94.2458 39.0942 95.0379 36.7128 96.9806 35.9807C99.7368 34.9421 100.198 34.321 99.4385 32.6692C98.6032 30.8521 99.2418 30.111 100.808 31.0808C106.891 34.8461 104.005 23.6781 96.9965 16.3334C90.8382 9.87829 84.1478 7.02911 75.3898 7.1299C72.4492 7.1643 69.2188 7.3882 68.2112 7.62779ZM52.694 16.4203C50.9948 18.2128 51.4648 18.9828 53.7692 18.1826C54.7902 17.8277 55.5062 17.0866 55.6261 16.2598C55.8879 14.4456 54.4931 14.5217 52.694 16.4203ZM50.7129 20.3938C49.7747 20.9358 47.821 23.9407 47.821 24.8417C47.821 25.5514 48.8109 25.1067 50.5607 23.6118C51.5652 22.7542 52.7683 21.8393 53.2334 21.5797C54.1728 21.0565 53.6413 19.7318 52.5034 19.7602C52.1047 19.7704 51.2986 20.0553 50.7129 20.3938ZM102.791 33.207C102.99 33.7193 102.838 34.962 102.455 35.9686C101.881 37.4756 101.949 38.1974 102.841 40.0496C104.237 42.9537 105.028 41.8981 105.042 37.1141C105.049 34.1967 104.849 33.5582 103.74 32.9704C102.64 32.3862 102.488 32.4242 102.791 33.207ZM80.6976 39.9156C80.6976 40.475 81.2181 40.8649 81.9658 40.8649C83.4495 40.8649 83.24 39.4545 81.7125 39.1612C81.1116 39.0453 80.6976 39.3531 80.6976 39.9156ZM96.0327 39.6959C96.1788 40.131 96.6586 40.6066 97.0981 40.7521C97.5548 40.9029 97.7831 40.6766 97.6309 40.224C97.4841 39.7882 97.0044 39.3127 96.5654 39.1678C96.1088 39.017 95.8805 39.2433 96.0327 39.6959ZM97.2881 42.8263C97.6716 43.9682 99.5712 44.1305 99.5712 43.0213C99.5712 42.4618 99.0507 42.0719 98.303 42.0719C97.559 42.0719 97.1389 42.3839 97.2881 42.8263ZM70.2057 44.9531C69.1707 46.1329 68.2252 51.1246 69.0367 51.1246C69.7503 51.1246 72.1612 44.5493 71.5786 44.1927C71.3259 44.0376 70.708 44.3798 70.2057 44.9531ZM99.9755 44.8692C99.0251 45.3737 96.7048 46.1848 94.8181 46.6719C89.4178 48.066 87.9743 50.1566 89.2272 54.768C89.9414 57.3969 89.9968 57.4367 91.6966 56.535C92.3596 56.1832 92.8741 56.1524 92.8741 56.4644C92.8741 57.5453 96.471 56.8193 97.9529 55.4385C99.4123 54.08 103.224 47.5995 103.224 46.4782C103.224 46.1734 102.882 45.4799 102.463 44.938C101.775 44.0454 101.538 44.0394 99.9755 44.8692ZM88.6129 59.648C87.7758 59.9793 86.5094 60.791 85.7989 61.4531C84.5076 62.6552 84.5046 62.6552 80.6233 61.3444C75.4306 59.5906 70.9125 59.523 68.6915 61.1676C64.5223 64.2527 67.7649 65.9148 77.0446 65.4489C83.0751 65.1459 87.6278 63.7983 91.2467 61.2436C92.9118 60.0686 92.9685 59.9201 91.9055 59.5067C90.4266 58.9322 90.4242 58.9322 88.6129 59.648Z" fill="white"/>
</g>
<defs>
<filter id="filter0_d_416_669" x="0" y="0" width="151" height="80" filterUnits="userSpaceOnUse" color-interpolation-filters="sRGB">
<feFlood flood-opacity="0" result="BackgroundImageFix"/>
<feColorMatrix in="SourceAlpha" type="matrix" values="0 0 0 0 0 0 0 0 0 0 0 0 0 0 0 0 0 0 127 0" result="hardAlpha"/>
<feOffset dy="4"/>
<feGaussianBlur stdDeviation="2"/>
<feComposite in2="hardAlpha" operator="out"/>
<feColorMatrix type="matrix" values="0 0 0 0 0 0 0 0 0 0 0 0 0 0 0 0 0 0 0.25 0"/>
<feBlend mode="normal" in2="BackgroundImageFix" result="effect1_dropShadow_416_669"/>
<feBlend mode="normal" in="SourceGraphic" in2="effect1_dropShadow_416_669" result="shape"/>
</filter>
</defs>
</svg>
