<svg width="20" height="9" viewBox="0 0 20 9" fill="none" xmlns="http://www.w3.org/2000/svg">
<path d="M0.904982 5.91567C0.884914 6.01955 0.87429 6.07464 0.863666 6.12933C0.839664 5.80707 0.511106 5.83304 0.356073 5.6599C0.283671 5.70948 0.221106 5.75237 0.158149 5.79526C0.391485 5.55012 0.0243641 5.45569 0.0204292 5.24281C0.130998 5.23652 0.234091 5.23061 0.384009 5.22196C0.28367 5.14837 0.219927 5.08306 0.142411 5.04843C-0.00947417 4.98114 -0.0362327 4.87333 0.0448251 4.75017C0.158542 4.57743 0.261634 4.37439 0.422963 4.26028C1.33978 3.61103 2.25936 2.96375 3.2049 2.35739C3.84746 1.94541 4.60531 1.82225 5.34231 1.67194C5.94552 1.54878 6.55385 1.46103 7.17437 1.52123C7.23418 1.52714 7.31484 1.46772 7.36285 1.41696C7.70046 1.06125 8.03099 0.699245 8.36584 0.341174C8.43706 0.264838 8.51222 0.19165 8.5917 0.123184C8.78844 -0.0460143 8.89233 -0.0464079 9.05129 0.156237C9.50813 0.739381 10.1334 1.06755 10.7988 1.34141C11.8564 1.777 12.913 2.21573 13.9699 2.65408C14.0352 2.68123 14.0973 2.71585 14.1611 2.74694C14.1638 2.76661 14.1666 2.78629 14.1693 2.80557C13.875 2.88584 13.5811 2.96611 13.2388 3.05937C13.3694 3.11799 13.4603 3.17269 13.5591 3.20141C14.1705 3.37966 14.7938 3.49968 15.4324 3.50676C15.7925 3.51069 16.1037 3.38911 16.4193 3.19079C16.932 2.86931 17.4825 2.59938 18.0389 2.35857C18.4678 2.17284 18.9285 2.05795 19.3795 1.92692C19.4908 1.89465 19.6199 1.9222 19.7635 1.9222C19.6726 2.24564 19.527 2.50888 19.324 2.74261C18.9817 3.13728 18.6397 3.53312 18.2978 3.92857C18.2679 3.9632 18.2384 3.99861 18.2116 4.03521C17.9854 4.34409 18.0086 4.42672 18.2844 4.69154C18.5661 4.96186 18.8302 5.25225 19.0855 5.54776C19.346 5.84878 19.5884 6.16593 19.8347 6.47875C19.893 6.55311 19.9351 6.64007 20 6.74671C19.6258 6.88167 19.2791 6.89269 18.9388 6.77032C18.1199 6.47639 17.2991 6.18639 16.4925 5.86176C15.8062 5.58554 15.1161 5.59341 14.4121 5.73152C14.217 5.76969 14.0257 5.82714 13.8345 5.91764C14.0033 5.95069 14.1741 5.97784 14.3409 6.01876C14.5251 6.06401 14.6136 6.18127 14.5306 6.33316C14.3275 6.70421 14.3921 7.12564 14.2681 7.50889C14.2162 7.66982 14.1784 7.83548 14.1292 7.9976C14.0934 8.11643 14.0163 8.15184 13.9041 8.0881C13.2675 7.72806 12.7099 7.28814 12.4132 6.59089C12.3707 6.49134 12.3322 6.42799 12.1992 6.45907C11.1336 6.70972 10.0574 6.89033 8.96118 6.93361C8.92616 6.93519 8.89115 6.94857 8.85652 6.99106C8.96984 7.01152 9.08317 7.03041 9.1961 7.05284C9.43612 7.10045 9.57148 7.2488 9.55141 7.49197C9.50852 8.01688 9.23151 8.40761 8.79789 8.68816C8.65781 8.77866 8.49451 8.76489 8.39614 8.61615C8.22065 8.35016 8.0483 8.07983 7.90389 7.79653C7.78034 7.55414 7.6977 7.2909 7.5891 7.01585C5.33562 6.90528 3.07348 6.73215 0.903409 5.91449L0.904982 5.91567ZM1.58296 4.04308C1.54518 4.0958 1.50741 4.14853 1.46963 4.20126C1.38858 4.35275 1.45429 4.48181 1.54203 4.59868C1.68329 4.78676 1.97054 4.80644 2.15233 4.64904C2.33805 4.48811 2.35143 4.19339 2.18105 4.01829C2.01107 3.84358 1.74507 3.8546 1.58296 4.04347V4.04308ZM3.56612 6.37369C4.43218 5.88891 4.79655 4.72813 3.76444 3.51817C3.80811 3.62952 3.83487 3.68579 3.85258 3.74521C3.93757 4.03167 4.04027 4.31498 4.0989 4.60694C4.23426 5.28098 4.19451 5.9137 3.56612 6.37369Z" fill="#333333"/>
<path d="M1.47005 4.2012C1.50782 4.14848 1.5456 4.09575 1.58337 4.04302C1.63217 4.02571 1.6904 3.98282 1.72818 3.9962C1.83638 4.03476 1.98158 4.07175 2.02683 4.15556C2.07247 4.24055 2.05437 4.41014 1.99338 4.48727C1.93948 4.55573 1.78169 4.58524 1.68253 4.56596C1.49956 4.53055 1.45982 4.37079 1.47005 4.2012Z" fill="#333333"/>
</svg>
