<svg width="32" height="14" viewBox="0 0 32 14" fill="none" xmlns="http://www.w3.org/2000/svg">
<path d="M1.41868 9.27358C1.38722 9.43642 1.37056 9.52278 1.35391 9.60852C1.31628 9.10333 0.801224 9.14404 0.55819 8.87263C0.444692 8.95035 0.346613 9.01759 0.247919 9.08483C0.613704 8.70053 0.0381938 8.55249 0.0320254 8.21878C0.205357 8.20891 0.366968 8.19966 0.601983 8.18609C0.444689 8.07074 0.344765 7.96835 0.223247 7.91407C-0.014852 7.80859 -0.0567995 7.63957 0.0702691 7.4465C0.248535 7.17571 0.410146 6.85742 0.663049 6.67854C2.10028 5.66076 3.54184 4.64606 5.0241 3.69551C6.03139 3.04968 7.21942 2.85661 8.37476 2.62098C9.32037 2.42791 10.274 2.29036 11.2468 2.38473C11.3405 2.39398 11.467 2.30084 11.5422 2.22127C12.0715 1.66365 12.5896 1.09616 13.1145 0.534835C13.2262 0.415168 13.344 0.300437 13.4686 0.193107C13.777 -0.0721333 13.9399 -0.0727504 14.1891 0.244921C14.9052 1.15907 15.8854 1.67352 16.9285 2.10284C18.5865 2.78568 20.2427 3.47345 21.8995 4.16061C22.0019 4.20317 22.0994 4.25745 22.1993 4.30618C22.2036 4.33702 22.208 4.36787 22.2123 4.39809C21.7509 4.52393 21.2901 4.64976 20.7535 4.79595C20.9583 4.88786 21.1007 4.9736 21.2556 5.01863C22.2141 5.29806 23.1912 5.48619 24.1923 5.4973C24.7567 5.50346 25.2447 5.31286 25.7394 5.00197C26.5431 4.49802 27.4061 4.07487 28.2783 3.69736C28.9506 3.40622 29.6729 3.2261 30.3798 3.02069C30.5544 2.97011 30.7567 3.01329 30.9819 3.01329C30.8394 3.52033 30.6111 3.93299 30.2929 4.2994C29.7562 4.91808 29.2202 5.53862 28.6841 6.15855C28.6373 6.21283 28.591 6.26834 28.5491 6.32571C28.1944 6.80993 28.2308 6.93946 28.6632 7.3546C29.1048 7.77836 29.5187 8.23359 29.9191 8.69683C30.3274 9.16871 30.7074 9.66589 31.0935 10.1563C31.1848 10.2729 31.2508 10.4092 31.3526 10.5763C30.766 10.7879 30.2225 10.8052 29.689 10.6133C28.4053 10.1526 27.1186 9.69796 25.8541 9.18907C24.7783 8.75605 23.6964 8.76839 22.5929 8.9849C22.2869 9.04473 21.9871 9.13479 21.6874 9.27666C21.952 9.32848 22.2197 9.37104 22.4812 9.43519C22.7699 9.50612 22.9087 9.68994 22.7785 9.92804C22.4603 10.5097 22.5614 11.1704 22.3671 11.7712C22.2857 12.0234 22.2265 12.2831 22.1494 12.5373C22.0932 12.7236 21.9723 12.7791 21.7965 12.6791C20.7985 12.1147 19.9244 11.4251 19.4593 10.3321C19.3927 10.176 19.3323 10.0767 19.1238 10.1254C17.4534 10.5184 15.7663 10.8015 14.0478 10.8693C13.9929 10.8718 13.938 10.8928 13.8837 10.9594C14.0614 10.9915 14.239 11.0211 14.4161 11.0562C14.7923 11.1309 15.0045 11.3634 14.9731 11.7446C14.9058 12.5675 14.4716 13.18 13.7918 13.6198C13.5722 13.7617 13.3162 13.7401 13.162 13.5069C12.8869 13.09 12.6167 12.6662 12.3904 12.2221C12.1967 11.8421 12.0671 11.4294 11.8969 10.9983C8.36427 10.8249 4.81807 10.5535 1.41621 9.27173L1.41868 9.27358ZM2.48149 6.33805C2.42227 6.4207 2.36306 6.50336 2.30384 6.58601C2.17677 6.8235 2.27978 7.02582 2.41734 7.20902C2.63878 7.50387 3.08907 7.53471 3.37405 7.28798C3.6652 7.03569 3.68618 6.57368 3.41908 6.29919C3.15261 6.02531 2.73563 6.04258 2.48149 6.33866V6.33805ZM5.59035 9.99158C6.94801 9.23163 7.51921 7.41196 5.90124 5.51518C5.96971 5.68975 6.01165 5.77796 6.03941 5.8711C6.17265 6.32016 6.33364 6.76428 6.42555 7.22198C6.63774 8.27862 6.57544 9.27049 5.59035 9.99158Z" fill="#333333"/>
<path d="M2.30445 6.58598C2.36367 6.50333 2.42288 6.42067 2.4821 6.33801C2.55859 6.31087 2.64988 6.24364 2.70909 6.26461C2.87872 6.32506 3.10634 6.38304 3.17727 6.51443C3.24883 6.64767 3.22045 6.91352 3.12484 7.03442C3.04034 7.14175 2.79298 7.18802 2.63754 7.15779C2.35071 7.10228 2.28841 6.85184 2.30445 6.58598Z" fill="#333333"/>
</svg>
