<svg width="29" height="12" viewBox="0 0 29 12" fill="none" xmlns="http://www.w3.org/2000/svg">
<path d="M27.7852 6.23776C28.0101 5.92251 28.3453 5.77905 28.693 5.65813C28.9341 5.57416 28.9752 5.46956 28.7806 5.31602C27.4633 4.27577 26.1277 3.24128 24.4613 2.77873C23.4124 2.48748 22.3254 2.32051 21.2513 2.11898C20.9522 2.06284 20.7462 1.97072 20.5793 1.6929C20.2317 1.11184 19.7696 0.609948 19.2288 0.182429C19.1595 0.127729 19.0828 0.0778278 19.003 0.0384825C18.8535 -0.0349299 18.7708 -0.00806105 18.6826 0.160356C18.5633 0.386831 18.4018 0.608509 18.2082 0.779325C17.6734 1.25099 16.9989 1.40501 16.3056 1.54368C15.7579 1.65308 15.228 1.85604 14.7006 2.04509C14.2643 2.20199 13.8433 2.39968 13.3882 2.59113C13.0119 2.02206 12.5152 1.54656 11.8293 1.28889C11.6797 1.23275 11.5232 1.19485 11.3152 1.13151C11.596 1.68906 11.6485 2.21734 11.5609 2.76338C11.5044 3.11413 11.3375 3.37083 10.9631 3.47543C10.8057 3.51958 10.6601 3.6237 10.5021 3.64193C10.2203 3.67456 9.96429 3.68368 9.75481 3.93798C9.66518 4.04642 9.39925 4.01907 9.18185 4.05937C8.98822 4.39285 8.62572 4.44899 8.22806 4.40724C8.06711 4.73736 7.88784 4.79974 7.42134 4.69609C7.33418 4.97199 7.30101 5.12121 6.73893 4.99886C6.70724 5.28963 6.50123 5.32658 6.24916 5.32034C6.17537 5.31842 6.09862 5.3856 6.02532 5.42494C5.97035 5.45469 5.92232 5.50939 5.86438 5.51946C5.53357 5.57896 5.20227 5.66053 4.86849 5.67493C4.32276 5.69796 3.89489 5.44797 3.60469 5.0099C2.83215 3.84297 1.84519 2.86846 0.74382 1.99423C0.46006 1.76871 0.31694 1.71161 0 1.70729C0.119843 1.85172 0.237209 1.97024 0.326843 2.10555C1.05085 3.20482 1.60896 4.38373 2.10765 5.59096C2.12003 5.62023 2.13439 5.65142 2.13637 5.68212C2.21363 6.89175 2.23046 8.09658 1.33462 9.08165C0.99539 9.45495 0.58287 9.76635 0.203039 10.1046C0.155993 10.1464 0.101521 10.1804 0.0430832 10.2879C0.13866 10.3071 0.237705 10.3541 0.328827 10.3417C1.0984 10.2361 1.73475 9.88391 2.20521 9.29229C2.57563 8.82638 2.89505 8.32209 3.2422 7.83844C3.44375 7.55774 3.63094 7.26217 3.86716 7.01075C4.28859 6.56163 4.7947 6.51029 5.34638 6.81018C5.37857 6.82793 5.43502 6.81018 5.47811 6.80203C5.71383 6.75692 6.16002 6.95365 6.2655 7.15133C6.55075 7.04385 6.88849 7.16285 6.99199 7.40756C7.26535 7.31591 7.5912 7.45842 7.66054 7.69977C7.96906 7.58077 8.38207 7.80821 8.4514 8.15224C8.75299 7.95935 8.96296 8.17383 9.15411 8.33073C9.29179 8.44349 9.4042 8.45069 9.52602 8.37583C9.70529 8.26548 9.80533 8.33265 9.90833 8.47708C10.201 8.88636 10.2654 9.34171 10.2164 9.82201C10.2074 9.90838 10.1881 9.99331 10.1649 10.1301C10.3218 10.0926 10.461 10.0826 10.5784 10.0279C11.0458 9.8105 11.5089 9.5845 11.9679 9.35131C12.1329 9.26734 12.274 9.26686 12.4552 9.32492C13.4917 9.65743 14.5644 9.83305 15.6469 9.94437C16.4824 10.0303 17.3198 10.1003 18.1577 10.1555C18.3979 10.1713 18.487 10.262 18.4608 10.4736C18.4098 10.891 18.3503 11.3075 18.2914 11.724C18.2795 11.8075 18.2538 11.8891 18.228 11.9999C18.59 12.0042 18.853 11.8488 19.058 11.6381C19.4175 11.2677 19.7543 10.8743 20.0772 10.4731C20.2683 10.2361 20.4634 10.0931 20.7977 10.0538C21.6237 9.95636 22.4374 9.78075 23.1975 9.43048C23.2644 9.39977 23.3278 9.36138 23.3946 9.33115C23.5863 9.24431 23.5843 9.14594 23.461 8.98376C22.6785 7.95407 22.371 6.8049 22.5681 5.53626C22.5795 5.46285 22.6067 5.39135 22.6414 5.32178C22.6652 6.21328 22.7825 7.08608 23.1143 7.91808C23.2347 8.21989 23.3951 8.51402 23.5833 8.78128C23.8794 9.2016 24.2325 9.30812 24.698 9.07301C25.375 8.7309 26.0386 8.35808 26.6789 7.95599C27.397 7.50544 28.0853 7.01074 28.7806 6.52709C28.8722 6.46327 28.9277 6.35051 29 6.26031C28.896 6.19361 28.7935 6.07462 28.687 6.07078C28.4706 6.0631 28.2512 6.11252 28.0348 6.14947C27.9487 6.16386 27.8674 6.20705 27.7837 6.23728L27.7852 6.23776ZM27.032 5.46285C26.8854 5.43933 26.7071 5.44317 26.7101 5.22726C26.7126 5.05212 26.8106 4.93984 26.9963 4.936C27.1712 4.93217 27.3004 5.00846 27.3108 5.19559C27.3212 5.37504 27.2088 5.44893 27.032 5.46285Z" fill="#333333"/>
</svg>
