<svg width="19" height="8" viewBox="0 0 19 8" fill="none" xmlns="http://www.w3.org/2000/svg">
<path d="M18.2041 4.1585C18.3514 3.94834 18.5711 3.8527 18.7988 3.77209C18.9568 3.71611 18.9838 3.64638 18.8563 3.54401C17.9932 2.85051 17.1182 2.16085 16.0264 1.85249C15.3392 1.65832 14.627 1.547 13.9233 1.41265C13.7273 1.37523 13.5923 1.31381 13.483 1.1286C13.2552 0.741226 12.9525 0.406632 12.5982 0.121619C12.5528 0.0851527 12.5025 0.0518852 12.4503 0.025655C12.3523 -0.0232866 12.2981 -0.00537404 12.2403 0.106904C12.1621 0.257887 12.0564 0.405672 11.9295 0.51955C11.5791 0.833992 11.1372 0.936673 10.683 1.02912C10.3241 1.10205 9.97695 1.23736 9.6314 1.36339C9.34556 1.46799 9.06977 1.59978 8.7716 1.72742C8.52502 1.34804 8.19959 1.03104 7.75022 0.859262C7.65224 0.821836 7.54971 0.796565 7.41344 0.754341C7.5974 1.12604 7.63179 1.47823 7.57437 1.84225C7.53738 2.07608 7.42804 2.24722 7.18275 2.31696C7.07958 2.34638 6.98419 2.4158 6.88069 2.42795C6.69607 2.4497 6.52833 2.45578 6.39108 2.62532C6.33236 2.69761 6.15813 2.67938 6.01569 2.70625C5.88883 2.92857 5.65133 2.96599 5.39079 2.93816C5.28535 3.15824 5.1679 3.19982 4.86226 3.13073C4.80516 3.31466 4.78342 3.41414 4.41516 3.33257C4.3944 3.52642 4.25943 3.55105 4.09428 3.54689C4.04594 3.54561 3.99564 3.5904 3.94763 3.61663C3.91161 3.63646 3.88014 3.67293 3.84218 3.67964C3.62544 3.71931 3.40838 3.77369 3.1897 3.78328C2.83215 3.79864 2.55183 3.63198 2.3617 3.33993C1.85555 2.56198 1.20892 1.91231 0.487329 1.32949C0.301418 1.17914 0.207651 1.14108 0 1.1382C0.0785179 1.23448 0.155413 1.31349 0.214138 1.4037C0.68849 2.13654 1.05415 2.92249 1.38087 3.7273C1.38899 3.74682 1.3984 3.76761 1.39969 3.78808C1.45031 4.5945 1.46134 5.39772 0.874403 6.05443C0.652153 6.3033 0.381882 6.5109 0.133026 6.73642C0.102201 6.76425 0.0665131 6.78696 0.0282269 6.85861C0.090847 6.87141 0.155739 6.90275 0.215437 6.89444C0.719639 6.82406 1.13656 6.58927 1.44479 6.19486C1.68748 5.88426 1.89676 5.54806 2.1242 5.22562C2.25625 5.03849 2.37889 4.84145 2.53366 4.67383C2.80977 4.37442 3.14136 4.3402 3.5028 4.54012C3.52389 4.55196 3.56088 4.54012 3.5891 4.53468C3.74354 4.50461 4.03588 4.63576 4.10499 4.76755C4.29187 4.6959 4.51315 4.77523 4.58096 4.93837C4.76006 4.87727 4.97355 4.97228 5.01897 5.13318C5.22111 5.05385 5.4917 5.20547 5.53712 5.43482C5.73472 5.30623 5.87228 5.44922 5.99752 5.55382C6.08772 5.62899 6.16137 5.63379 6.24119 5.58389C6.35864 5.51032 6.42418 5.5551 6.49167 5.65138C6.68342 5.92424 6.7256 6.22781 6.69348 6.54801C6.68764 6.60559 6.67498 6.6622 6.65973 6.75337C6.76258 6.72842 6.85376 6.7217 6.93065 6.68524C7.23694 6.54033 7.5403 6.38967 7.84107 6.23421C7.94911 6.17823 8.04158 6.17791 8.16033 6.21661C8.83941 6.43829 9.54218 6.55536 10.2514 6.62958C10.7988 6.68684 11.3474 6.73354 11.8964 6.77032C12.0538 6.78088 12.1122 6.84134 12.095 6.9824C12.0616 7.2607 12.0226 7.53835 11.984 7.81601C11.9762 7.87167 11.9594 7.92605 11.9425 7.99994C12.1797 8.00282 12.3519 7.89918 12.4863 7.75875C12.7218 7.51181 12.9425 7.2495 13.154 6.98208C13.2792 6.82406 13.4071 6.72874 13.6261 6.70251C14.1673 6.63757 14.7003 6.5205 15.1984 6.28698C15.2422 6.26651 15.2837 6.24092 15.3275 6.22077C15.4531 6.16287 15.4518 6.0973 15.371 5.98918C14.8584 5.30271 14.6569 4.5366 14.786 3.69084C14.7935 3.6419 14.8113 3.59424 14.834 3.54785C14.8496 4.14219 14.9265 4.72405 15.1439 5.27872C15.2227 5.47993 15.3278 5.67601 15.4511 5.85419C15.6451 6.1344 15.8765 6.20541 16.1815 6.04867C16.625 5.8206 17.0598 5.57205 17.4793 5.30399C17.9497 5.00363 18.4007 4.67383 18.8563 4.35139C18.9163 4.30885 18.9526 4.23368 19 4.17354C18.9319 4.12907 18.8647 4.04974 18.7949 4.04718C18.6532 4.04207 18.5094 4.07501 18.3676 4.09965C18.3112 4.10924 18.258 4.13803 18.2031 4.15818L18.2041 4.1585ZM17.7106 3.6419C17.6146 3.62622 17.4978 3.62878 17.4997 3.48484C17.5013 3.36808 17.5656 3.29323 17.6873 3.29067C17.8018 3.28811 17.8865 3.33897 17.8933 3.46372C17.9001 3.58336 17.8265 3.63262 17.7106 3.6419Z" fill="#333333"/>
</svg>
