<svg width="1920" height="1200" viewBox="0 0 1920 1200" fill="none" xmlns="http://www.w3.org/2000/svg">
<path d="M1507.32 1032.55C1507.96 1034.12 1508.6 1035.67 1509.23 1037.24C1513.4 1047.58 1512.86 1057.91 1508.42 1067.99C1504.05 1077.91 1497.56 1086.27 1488.17 1092.1C1478.65 1098.01 1468.07 1100.27 1457.02 1100.72C1454.56 1100.83 1452.05 1100.9 1449.63 1100.58C1447.17 1100.25 1444.7 1099.62 1442.38 1098.73C1439.46 1097.6 1436.64 1097.5 1433.65 1098.26C1432.75 1098.49 1431.67 1098.19 1430.71 1097.99C1428.98 1097.62 1427.28 1096.8 1425.56 1096.77C1422.41 1096.73 1421.58 1097.84 1421.83 1101.05C1416.85 1102.88 1411.83 1104.76 1406.78 1106.56C1394.58 1110.9 1382.65 1115.87 1371.46 1122.44C1369.33 1123.69 1367.62 1122.82 1365.72 1122.05C1364.76 1121.66 1363.23 1121.25 1362.62 1121.71C1361.35 1122.66 1360.62 1124.29 1361.46 1125.95C1362.04 1127.09 1362.81 1128.17 1363.67 1129.11C1366.55 1132.19 1366.59 1134.67 1363.3 1137.41C1361.03 1139.31 1358.46 1140.86 1355.97 1142.48C1353.66 1143.97 1351.17 1145.22 1348.93 1146.82C1347.01 1148.19 1345.14 1148.15 1342.98 1147.68C1329.61 1144.76 1321.9 1136.07 1317.93 1123.55C1317.16 1121.12 1316.52 1118.64 1315.82 1116.17C1314.18 1119.75 1314.51 1123.51 1315.1 1127.29C1316.15 1134.12 1318.19 1140.6 1321.8 1146.57C1324.47 1150.99 1328.3 1153.61 1333.35 1154.62C1344.12 1156.8 1354.98 1156.92 1365.88 1155.91C1369.41 1155.59 1372.87 1155.76 1376.39 1155.84C1386.02 1156.03 1395.69 1155.74 1405.31 1155.07C1412.6 1154.57 1419.85 1153.19 1427.11 1152.23C1427.66 1152.15 1428.28 1152.18 1428.77 1152.38C1431.46 1153.5 1434.07 1153.4 1436.8 1152.36C1438.4 1151.75 1440.2 1151.55 1441.92 1151.43C1442.55 1151.39 1443.35 1152 1443.86 1152.52C1447.55 1156.28 1451.17 1160.12 1454.86 1163.89C1455.39 1164.42 1456.17 1164.7 1456.84 1165.09C1456.99 1164.87 1457.14 1164.65 1457.29 1164.43C1454.18 1161.13 1451.06 1157.83 1447.95 1154.53C1447.26 1153.79 1446.45 1153.12 1445.92 1152.28C1445.18 1151.1 1444.93 1150.01 1446.69 1149.19C1447.88 1148.64 1448.88 1147.59 1449.83 1146.63C1451.81 1144.64 1453.44 1142.17 1455.69 1140.56C1469.84 1130.44 1480.66 1117.25 1490.81 1103.41C1495.78 1096.64 1500.98 1090.04 1505.85 1083.2C1511.9 1074.69 1516.32 1065.45 1516.66 1054.82C1516.9 1047.28 1515.37 1040.17 1510.28 1034.23C1509.59 1033.43 1508.66 1032.82 1507.84 1032.12C1507.66 1032.27 1507.49 1032.41 1507.32 1032.55L1507.32 1032.55Z" fill="#F2F2F2"/>
<path d="M303.094 886.567C300.458 875.673 292.11 871.767 282.955 868.911C273.892 866.075 264.532 863.984 255.786 860.383C250.523 858.22 246.171 853.834 241.46 850.387C240.152 849.428 239.028 848.244 237.639 847C233.96 851.039 234.584 855.211 236.74 858.628C242.513 867.748 247.938 877.346 255.162 885.231C262.509 893.249 271.838 899.471 280.339 906.428C282.168 907.927 284.181 909.202 286.082 910.63C293.98 916.546 297.71 923.697 296.432 934.224C294.174 952.819 295.012 971.425 301.173 989.449C304.3 998.589 309.48 1006.36 316.143 1013.36C321.282 1018.74 325.758 1024.74 330.703 1030.31C357.801 1060.9 390.723 1081.85 431.073 1090.38C445.961 1093.53 461.011 1094.17 476.165 1093.08C481.457 1092.7 485.299 1095.87 485.493 1101.15C485.545 1102.59 484.206 1104.34 483.062 1105.5C481.897 1106.68 480.17 1107.31 478.688 1108.19C478.811 1108.71 478.934 1109.24 479.056 1109.76C482.295 1109.76 485.667 1110.36 488.732 1109.65C497.295 1107.64 505.939 1105.66 514.155 1102.61C526.12 1098.18 528.02 1092 521.746 1080.66C529.798 1078.09 537.788 1075.53 545.779 1072.97C551.378 1071.17 555.394 1067.48 558.52 1062.61C565.673 1051.44 569.689 1038.98 572.253 1026.21C576.218 1006.41 564.048 989.316 543.991 985.777C527.755 982.91 511.477 984.43 495.272 986.277C483.603 987.603 472.374 987.174 461.328 982.513C436.56 972.047 410.137 968.069 383.897 963.407C359.844 959.133 337.947 950.198 320.015 933.112C316.98 930.225 314.211 926.869 312.066 923.279C308.704 917.689 310.134 914.976 316.531 913.629C323.336 912.191 330.213 911.059 336.977 909.447C351.507 905.979 362.675 897.543 371.135 885.456C372.198 883.936 372.331 881.763 372.893 879.896C370.839 879.641 368.632 878.764 366.762 879.233C353.407 882.599 340.144 883.813 326.534 880.294C319.402 878.448 312.352 879.448 306.476 884.66C305.649 885.394 304.515 885.772 303.074 886.557L303.094 886.567Z" fill="#F2F2F2"/>
<path d="M1068.11 148.036C1070.72 148.518 1073.04 148.972 1075.36 149.369C1081.43 150.408 1087.45 151.883 1093.68 151.862C1093.96 151.861 1094.33 152.166 1094.52 152.429C1096.79 155.609 1099.56 158.418 1101.22 162.042C1102.63 165.123 1105.29 166.626 1108.71 166.682C1111.11 166.722 1112.14 165.798 1112.52 163.469C1112.61 162.889 1112.74 162.291 1112.99 161.765C1114.15 159.269 1113.67 156.355 1111.72 154.411C1110.49 153.176 1109.26 151.931 1107.88 150.552C1109.04 150.33 1109.97 150.109 1110.91 149.992C1111.22 149.953 1111.65 150.088 1111.89 150.297C1118.1 155.625 1125.35 159.303 1132.55 163.062C1135.67 164.688 1138.85 165.769 1142.4 165.543C1142.81 165.516 1143.24 165.478 1143.63 165.354C1144.64 165.031 1144.8 164.348 1144.11 163.457C1143.32 162.427 1142.57 161.356 1141.72 160.372C1141.31 159.905 1140.76 159.5 1140.2 159.237C1132.99 155.862 1126.17 151.84 1119.58 147.414C1119.51 147.368 1119.47 147.272 1119.42 147.199C1120.58 146.105 1120.68 145.386 1119.63 144.205C1112.88 136.603 1106.27 128.881 1099.29 121.486C1094.6 116.508 1089.37 112.016 1083.08 108.995C1075.24 105.235 1066.89 104.008 1058.3 104.096C1054.55 104.134 1050.78 104.229 1047.21 105.606C1046.65 105.823 1046.11 106.085 1045.56 106.315C1044.51 106.749 1043.37 107.681 1042.45 107.496C1040.63 107.132 1038.83 106.318 1037.62 104.702C1035.91 102.433 1033.69 100.794 1031.13 99.5927C1027.8 98.0315 1024.28 97.2527 1020.6 97.3012C1017.36 97.3445 1015.44 98.8076 1014.43 101.818C1014.19 102.512 1013.92 103.197 1013.74 103.905C1013.47 104.925 1013.37 105.845 1014.66 106.426C1015.24 106.692 1015.67 107.361 1016.1 107.9C1018.98 111.497 1022.83 113.635 1027.09 115.166C1027.31 115.246 1027.52 115.336 1027.75 115.394C1030.53 116.116 1032.85 117.396 1034.24 120.087C1034.73 121.028 1035.67 121.747 1036.57 122.755C1036.04 122.86 1035.62 122.917 1035.22 123.024C1032.82 123.647 1030.32 124.036 1028.05 124.973C1024.7 126.356 1023.64 129.609 1022.62 132.709C1021.02 137.558 1021.47 142.261 1023.94 146.805C1025.24 149.193 1026.27 151.722 1027.63 154.075C1032.33 162.196 1039.15 168.022 1047.73 171.863C1048.73 172.31 1049.85 172.534 1050.95 172.698C1052.38 172.916 1053.08 172.21 1052.59 170.879C1051.98 169.208 1051.15 167.61 1050.33 166.026C1048.29 162.119 1045.97 158.342 1044.2 154.326C1041.82 148.902 1039.39 143.432 1038.85 137.439C1038.75 136.237 1039.12 134.997 1039.3 133.581C1041.51 135.655 1043.36 137.451 1045.27 139.174C1046.1 139.911 1046.98 140.668 1047.98 141.106C1049.85 141.929 1050.7 143.379 1051.41 145.157C1052.88 148.89 1054.42 152.571 1054.32 156.684C1054.3 157.765 1054.34 158.954 1056.06 158.89C1056.33 158.881 1056.7 159.687 1056.9 160.167C1059.82 167.114 1064.06 173.124 1069.95 177.945C1070.84 178.671 1071.82 179.332 1072.85 179.828C1074.36 180.549 1075.31 180.094 1075.56 178.458C1075.72 177.461 1075.58 176.357 1075.31 175.365C1073.81 169.686 1071.87 164.087 1070.8 158.336C1070.17 154.916 1069.23 151.627 1068.12 148.043L1068.11 148.036Z" fill="#F2F2F2"/>
<path d="M399.581 81.2736C399.613 81.4364 399.629 81.5228 399.646 81.6085C399.684 81.1033 400.199 81.144 400.442 80.8726C400.555 80.9504 400.653 81.0176 400.752 81.0848C400.386 80.7005 400.962 80.5525 400.968 80.2188C400.795 80.2089 400.633 80.1997 400.398 80.1861C400.555 80.0707 400.655 79.9683 400.777 79.9141C401.015 79.8086 401.057 79.6396 400.93 79.4465C400.751 79.1757 400.59 78.8574 400.337 78.6785C398.9 77.6608 397.458 76.6461 395.976 75.6955C394.969 75.0497 393.781 74.8566 392.625 74.621C391.68 74.4279 390.726 74.2904 389.753 74.3847C389.659 74.394 389.533 74.3008 389.458 74.2213C388.929 73.6636 388.41 73.0962 387.885 72.5348C387.774 72.4152 387.656 72.3004 387.531 72.1931C387.223 71.9279 387.06 71.9272 386.811 72.2449C386.095 73.1591 385.115 73.6735 384.072 74.1028C382.413 74.7857 380.757 75.4735 379.1 76.1606C378.998 76.2032 378.901 76.2575 378.801 76.3062C378.796 76.337 378.792 76.3679 378.788 76.3981C379.249 76.5239 379.71 76.6498 380.247 76.796C380.042 76.8879 379.899 76.9736 379.744 77.0186C378.786 77.2981 377.809 77.4862 376.808 77.4973C376.243 77.5035 375.755 77.3129 375.261 77.002C374.457 76.498 373.594 76.0749 372.722 75.6974C372.049 75.4062 371.327 75.2261 370.62 75.0207C370.446 74.9701 370.243 75.0133 370.018 75.0133C370.161 75.5203 370.389 75.933 370.707 76.2994C371.244 76.9181 371.78 77.5386 372.316 78.1585C372.363 78.2128 372.409 78.2683 372.451 78.3257C372.806 78.8099 372.769 78.9395 372.337 79.3546C371.895 79.7784 371.481 80.2336 371.081 80.6968C370.673 81.1687 370.293 81.6659 369.906 82.1563C369.815 82.2729 369.749 82.4092 369.647 82.5763C370.234 82.7879 370.777 82.8052 371.311 82.6133C372.595 82.1526 373.881 81.698 375.146 81.1891C376.222 80.7561 377.304 80.7684 378.407 80.9849C378.713 81.0447 379.013 81.1348 379.313 81.2767C379.048 81.3285 378.78 81.371 378.519 81.4352C378.23 81.5061 378.091 81.6899 378.221 81.928C378.54 82.5097 378.439 83.1704 378.633 83.7712C378.714 84.0234 378.774 84.2831 378.851 84.5373C378.907 84.7236 379.028 84.7791 379.203 84.6791C380.202 84.1147 381.076 83.4251 381.541 82.3321C381.607 82.176 381.668 82.0767 381.876 82.1254C383.547 82.5184 385.234 82.8015 386.952 82.8693C387.007 82.8718 387.062 82.8928 387.116 82.9594C386.939 82.9915 386.761 83.0211 386.584 83.0562C386.208 83.1309 385.995 83.3634 386.027 83.7446C386.094 84.5675 386.528 85.18 387.208 85.6198C387.428 85.7617 387.684 85.7401 387.838 85.5069C388.113 85.09 388.383 84.6662 388.61 84.2221C388.803 83.8421 388.933 83.4294 389.103 82.9983C392.636 82.8249 396.182 82.5535 399.584 81.2717L399.581 81.2736ZM398.519 78.338C398.578 78.4207 398.637 78.5034 398.696 78.586C398.823 78.8235 398.72 79.0258 398.583 79.209C398.361 79.5039 397.911 79.5347 397.626 79.288C397.335 79.0357 397.314 78.5737 397.581 78.2992C397.847 78.0253 398.264 78.0426 398.519 78.3387V78.338ZM395.41 81.9916C394.052 81.2316 393.481 79.412 395.099 77.5152C395.03 77.6897 394.988 77.778 394.961 77.8711C394.827 78.3202 394.666 78.7643 394.574 79.222C394.362 80.2786 394.425 81.2705 395.41 81.9916Z" fill="#F2F2F2"/>
<path d="M398.696 78.5861C398.636 78.5034 398.577 78.4208 398.518 78.3381C398.441 78.311 398.35 78.2438 398.291 78.2647C398.121 78.3252 397.894 78.3832 397.823 78.5146C397.751 78.6478 397.78 78.9136 397.875 79.0345C397.96 79.1419 398.207 79.1881 398.362 79.1579C398.649 79.1024 398.712 78.852 398.696 78.5861Z" fill="#F2F2F2"/>
<path d="M426.288 100.192C426.326 100.388 426.346 100.493 426.366 100.596C426.411 99.9863 427.033 100.035 427.326 99.7079C427.463 99.8017 427.582 99.8829 427.701 99.964C427.259 99.5002 427.954 99.3216 427.961 98.9188C427.752 98.9069 427.557 98.8958 427.273 98.8794C427.463 98.7402 427.584 98.6166 427.731 98.5511C428.018 98.4238 428.069 98.2198 427.915 97.9868C427.7 97.66 427.505 97.2759 427.2 97.06C425.465 95.8317 423.726 94.6071 421.937 93.4599C420.721 92.6805 419.287 92.4475 417.893 92.1631C416.752 91.9301 415.601 91.7641 414.427 91.878C414.314 91.8892 414.161 91.7768 414.07 91.6807C413.432 91.0078 412.806 90.3229 412.173 89.6455C412.038 89.501 411.896 89.3626 411.745 89.2331C411.373 88.9129 411.177 88.9122 410.876 89.2956C410.012 90.3988 408.829 91.0197 407.57 91.5378C405.569 92.3619 403.57 93.1919 401.571 94.0212C401.447 94.0726 401.329 94.1381 401.209 94.1969C401.204 94.2341 401.198 94.2714 401.193 94.3078C401.75 94.4597 402.306 94.6116 402.954 94.788C402.707 94.8989 402.535 95.0024 402.348 95.0567C401.191 95.394 400.012 95.621 398.804 95.6344C398.122 95.6418 397.534 95.4118 396.936 95.0366C395.966 94.4284 394.925 93.9177 393.872 93.4622C393.061 93.1108 392.189 92.8934 391.336 92.6455C391.125 92.5845 390.881 92.6366 390.61 92.6366C390.782 93.2485 391.057 93.7465 391.441 94.1887C392.089 94.9354 392.736 95.6843 393.383 96.4324C393.439 96.4979 393.495 96.5649 393.546 96.6342C393.974 97.2186 393.93 97.3749 393.408 97.8759C392.875 98.3873 392.375 98.9367 391.892 99.4958C391.399 100.065 390.941 100.665 390.475 101.257C390.365 101.398 390.285 101.562 390.162 101.764C390.87 102.019 391.526 102.04 392.17 101.809C393.719 101.253 395.272 100.704 396.798 100.09C398.096 99.5672 399.402 99.5821 400.734 99.8434C401.103 99.9156 401.465 100.024 401.827 100.196C401.507 100.258 401.184 100.309 400.869 100.387C400.52 100.472 400.353 100.694 400.51 100.982C400.894 101.684 400.772 102.481 401.006 103.206C401.105 103.51 401.176 103.824 401.269 104.131C401.337 104.355 401.483 104.422 401.695 104.302C402.899 103.621 403.954 102.788 404.516 101.469C404.596 101.281 404.669 101.161 404.92 101.22C406.936 101.694 408.972 102.036 411.046 102.118C411.113 102.121 411.179 102.146 411.244 102.226C411.03 102.265 410.816 102.301 410.602 102.343C410.148 102.433 409.892 102.714 409.93 103.174C410.011 104.167 410.535 104.906 411.355 105.437C411.62 105.608 411.929 105.582 412.115 105.301C412.447 104.798 412.773 104.286 413.047 103.75C413.28 103.292 413.437 102.794 413.642 102.273C417.906 102.064 422.185 101.736 426.291 100.19L426.288 100.192ZM425.005 96.6491C425.077 96.7488 425.148 96.8486 425.22 96.9483C425.373 97.2349 425.249 97.4791 425.083 97.7002C424.815 98.056 424.272 98.0933 423.928 97.7955C423.577 97.491 423.551 96.9334 423.874 96.6022C424.195 96.2716 424.699 96.2925 425.005 96.6498V96.6491ZM421.253 101.058C419.615 100.141 418.925 97.9451 420.878 95.656C420.795 95.8667 420.745 95.9731 420.711 96.0855C420.551 96.6275 420.356 97.1635 420.245 97.7158C419.989 98.991 420.064 100.188 421.253 101.058Z" fill="#E0E0E0"/>
<path d="M425.219 96.9483C425.147 96.8486 425.076 96.7488 425.004 96.6491C424.912 96.6163 424.802 96.5352 424.731 96.5605C424.526 96.6334 424.251 96.7034 424.166 96.862C424.079 97.0228 424.113 97.3436 424.229 97.4895C424.331 97.6191 424.629 97.6749 424.817 97.6384C425.163 97.5714 425.238 97.2692 425.219 96.9483Z" fill="#E0E0E0"/>
<path d="M374.914 117.099C374.938 117.223 374.951 117.29 374.964 117.355C374.992 116.968 375.387 117 375.573 116.792C375.66 116.851 375.735 116.903 375.81 116.954C375.53 116.66 375.971 116.547 375.975 116.291C375.843 116.284 375.719 116.277 375.539 116.266C375.66 116.178 375.736 116.1 375.829 116.058C376.011 115.977 376.043 115.848 375.946 115.7C375.81 115.493 375.686 115.249 375.492 115.112C374.392 114.333 373.289 113.556 372.154 112.829C371.383 112.334 370.474 112.187 369.589 112.006C368.865 111.859 368.135 111.753 367.391 111.825C367.319 111.833 367.222 111.761 367.165 111.7C366.759 111.274 366.363 110.839 365.961 110.409C365.876 110.318 365.785 110.23 365.69 110.148C365.454 109.945 365.329 109.944 365.138 110.187C364.59 110.887 363.84 111.281 363.041 111.61C361.772 112.132 360.504 112.659 359.236 113.185C359.158 113.217 359.083 113.259 359.007 113.296C359.003 113.32 359 113.344 358.997 113.367C359.35 113.463 359.703 113.559 360.113 113.671C359.957 113.742 359.848 113.807 359.729 113.842C358.995 114.056 358.247 114.2 357.481 114.208C357.049 114.213 356.676 114.067 356.297 113.829C355.682 113.443 355.021 113.119 354.353 112.83C353.839 112.607 353.286 112.47 352.745 112.312C352.611 112.274 352.456 112.307 352.284 112.307C352.393 112.695 352.568 113.011 352.811 113.291C353.222 113.765 353.632 114.24 354.043 114.714C354.079 114.756 354.114 114.798 354.146 114.842C354.418 115.213 354.39 115.312 354.059 115.63C353.721 115.954 353.404 116.303 353.097 116.657C352.785 117.019 352.494 117.399 352.198 117.774C352.128 117.864 352.078 117.968 352 118.096C352.449 118.258 352.865 118.271 353.273 118.124C354.256 117.772 355.241 117.424 356.209 117.034C357.033 116.703 357.861 116.712 358.705 116.878C358.94 116.924 359.169 116.993 359.399 117.101C359.196 117.141 358.991 117.173 358.791 117.223C358.57 117.277 358.464 117.418 358.563 117.6C358.807 118.045 358.73 118.551 358.878 119.011C358.941 119.204 358.986 119.403 359.045 119.597C359.088 119.74 359.18 119.782 359.315 119.706C360.079 119.274 360.748 118.746 361.104 117.909C361.155 117.79 361.201 117.714 361.361 117.751C362.64 118.052 363.931 118.268 365.247 118.32C365.289 118.322 365.331 118.338 365.372 118.389C365.236 118.414 365.1 118.436 364.965 118.463C364.677 118.521 364.514 118.699 364.538 118.99C364.59 119.62 364.922 120.089 365.443 120.426C365.611 120.534 365.807 120.518 365.925 120.339C366.135 120.02 366.342 119.696 366.515 119.356C366.664 119.065 366.763 118.749 366.893 118.419C369.597 118.286 372.312 118.079 374.916 117.097L374.914 117.099ZM374.1 114.852C374.146 114.915 374.191 114.978 374.236 115.042C374.334 115.223 374.255 115.378 374.15 115.518C373.98 115.744 373.635 115.768 373.417 115.579C373.194 115.386 373.178 115.032 373.383 114.822C373.587 114.612 373.906 114.626 374.1 114.852V114.852ZM371.721 117.648C370.681 117.067 370.244 115.674 371.483 114.222C371.43 114.355 371.398 114.423 371.377 114.494C371.275 114.838 371.152 115.178 371.081 115.528C370.919 116.337 370.967 117.096 371.721 117.648Z" fill="#F2F2F2"/>
<path d="M390.236 119.042C390.191 118.978 390.145 118.915 390.1 118.852C390.041 118.831 389.972 118.779 389.926 118.796C389.796 118.842 389.622 118.886 389.568 118.987C389.513 119.089 389.535 119.292 389.608 119.385C389.673 119.467 389.862 119.502 389.981 119.479C390.201 119.437 390.248 119.245 390.236 119.042Z" fill="#F2F2F2"/>
<path d="M467.713 70.9523C467.763 71.2149 467.79 71.3541 467.817 71.4924C467.878 70.6778 468.708 70.7435 469.1 70.3059C469.283 70.4312 469.441 70.5396 469.6 70.648C469.01 70.0284 469.938 69.7897 469.948 69.2516C469.669 69.2357 469.408 69.2208 469.029 69.1989C469.283 69.0129 469.444 68.8478 469.64 68.7603C470.024 68.5903 470.092 68.3177 469.887 68.0064C469.599 67.5698 469.339 67.0566 468.931 66.7682C466.614 65.1272 464.289 63.4911 461.899 61.9585C460.275 60.9172 458.36 60.6059 456.497 60.226C454.972 59.9147 453.435 59.6929 451.866 59.845C451.715 59.86 451.511 59.7098 451.39 59.5815C450.536 58.6824 449.701 57.7674 448.855 56.8623C448.675 56.6694 448.485 56.4844 448.284 56.3114C447.786 55.8837 447.524 55.8827 447.122 56.3949C445.967 57.8688 444.387 58.6983 442.705 59.3905C440.032 60.4915 437.361 61.6005 434.69 62.7084C434.525 62.777 434.368 62.8645 434.207 62.9431C434.2 62.9928 434.193 63.0426 434.186 63.0913C434.93 63.2942 435.673 63.4971 436.538 63.7328C436.208 63.881 435.978 64.0192 435.728 64.0918C434.183 64.5424 432.607 64.8457 430.993 64.8636C430.083 64.8736 429.297 64.5662 428.499 64.065C427.203 63.2524 425.812 62.5702 424.405 61.9615C423.321 61.492 422.157 61.2016 421.017 60.8704C420.735 60.7889 420.409 60.8585 420.046 60.8585C420.276 61.676 420.644 62.3414 421.157 62.9322C422.022 63.9297 422.887 64.9303 423.751 65.9298C423.826 66.0173 423.901 66.1068 423.969 66.1993C424.541 66.9801 424.482 67.1889 423.785 67.8583C423.073 68.5415 422.405 69.2755 421.76 70.0224C421.101 70.7833 420.489 71.5849 419.866 72.3756C419.719 72.5635 419.612 72.7833 419.448 73.0529C420.394 73.394 421.27 73.4218 422.131 73.1125C424.2 72.3696 426.275 71.6366 428.314 70.8161C430.048 70.1179 431.793 70.1378 433.572 70.4869C434.065 70.5834 434.549 70.7286 435.032 70.9573C434.606 71.0409 434.174 71.1095 433.752 71.2129C433.287 71.3273 433.063 71.6237 433.273 72.0076C433.786 72.9454 433.623 74.0106 433.936 74.9793C434.067 75.3861 434.163 75.8048 434.287 76.2146C434.378 76.5149 434.573 76.6045 434.856 76.4433C436.465 75.5333 437.875 74.4214 438.625 72.659C438.732 72.4074 438.829 72.2473 439.166 72.3258C441.859 72.9594 444.579 73.4159 447.35 73.5253C447.438 73.5293 447.527 73.5631 447.614 73.6705C447.328 73.7222 447.042 73.7699 446.756 73.8266C446.149 73.947 445.807 74.3219 445.858 74.9366C445.966 76.2633 446.667 77.2509 447.763 77.96C448.117 78.1888 448.529 78.154 448.778 77.778C449.222 77.1057 449.657 76.4224 450.022 75.7064C450.335 75.0937 450.543 74.4283 450.818 73.7331C456.514 73.4537 462.232 73.0161 467.717 70.9494L467.713 70.9523ZM465.999 66.2192C466.094 66.3525 466.19 66.4857 466.285 66.619C466.49 67.0019 466.324 67.3281 466.102 67.6235C465.745 68.0989 465.019 68.1487 464.56 67.7508C464.09 67.3441 464.057 66.5991 464.487 66.1566C464.917 65.715 465.589 65.7428 465.999 66.2202V66.2192ZM460.986 72.11C458.797 70.8847 457.876 67.9507 460.485 64.8925C460.375 65.1739 460.307 65.3161 460.262 65.4663C460.047 66.1904 459.788 66.9065 459.64 67.6444C459.298 69.3481 459.398 70.9474 460.986 72.11Z" fill="#F2F2F2"/>
<path d="M466.284 66.6188C466.189 66.4856 466.093 66.3523 465.998 66.219C465.875 66.1753 465.727 66.0669 465.632 66.1007C465.358 66.1981 464.991 66.2916 464.877 66.5035C464.762 66.7183 464.807 67.147 464.962 67.3419C465.098 67.5149 465.497 67.5895 465.747 67.5408C466.21 67.4513 466.31 67.0475 466.284 66.6188Z" fill="#F2F2F2"/>
<path d="M492.581 119.274C492.613 119.436 492.629 119.523 492.646 119.609C492.684 119.103 493.199 119.144 493.442 118.873C493.555 118.95 493.653 119.018 493.752 119.085C493.386 118.701 493.962 118.552 493.968 118.219C493.795 118.209 493.633 118.2 493.398 118.186C493.555 118.071 493.655 117.968 493.777 117.914C494.015 117.809 494.057 117.64 493.93 117.447C493.751 117.176 493.59 116.857 493.337 116.679C491.9 115.661 490.458 114.646 488.976 113.696C487.969 113.05 486.781 112.857 485.625 112.621C484.68 112.428 483.726 112.29 482.753 112.385C482.659 112.394 482.533 112.301 482.458 112.221C481.929 111.664 481.41 111.096 480.885 110.535C480.774 110.415 480.656 110.3 480.531 110.193C480.223 109.928 480.06 109.927 479.811 110.245C479.095 111.159 478.115 111.674 477.072 112.103C475.413 112.786 473.757 113.473 472.1 114.161C471.998 114.203 471.901 114.257 471.801 114.306C471.796 114.337 471.792 114.368 471.788 114.398C472.249 114.524 472.71 114.65 473.247 114.796C473.042 114.888 472.899 114.974 472.744 115.019C471.786 115.298 470.809 115.486 469.808 115.497C469.243 115.503 468.755 115.313 468.261 115.002C467.457 114.498 466.594 114.075 465.722 113.697C465.049 113.406 464.327 113.226 463.62 113.021C463.446 112.97 463.243 113.013 463.018 113.013C463.161 113.52 463.389 113.933 463.707 114.299C464.244 114.918 464.78 115.539 465.316 116.159C465.363 116.213 465.409 116.268 465.451 116.326C465.806 116.81 465.769 116.939 465.337 117.355C464.895 117.778 464.481 118.234 464.081 118.697C463.673 119.169 463.293 119.666 462.906 120.156C462.815 120.273 462.749 120.409 462.647 120.576C463.234 120.788 463.777 120.805 464.311 120.613C465.595 120.153 466.881 119.698 468.146 119.189C469.222 118.756 470.304 118.768 471.407 118.985C471.713 119.045 472.013 119.135 472.313 119.277C472.048 119.328 471.78 119.371 471.519 119.435C471.23 119.506 471.091 119.69 471.221 119.928C471.54 120.51 471.439 121.17 471.633 121.771C471.714 122.023 471.774 122.283 471.851 122.537C471.907 122.724 472.028 122.779 472.203 122.679C473.202 122.115 474.076 121.425 474.541 120.332C474.607 120.176 474.668 120.077 474.876 120.125C476.547 120.518 478.234 120.801 479.952 120.869C480.007 120.872 480.062 120.893 480.116 120.959C479.939 120.991 479.761 121.021 479.584 121.056C479.208 121.131 478.995 121.363 479.027 121.745C479.094 122.567 479.528 123.18 480.208 123.62C480.428 123.762 480.684 123.74 480.838 123.507C481.113 123.09 481.383 122.666 481.61 122.222C481.803 121.842 481.933 121.429 482.103 120.998C485.636 120.825 489.182 120.554 492.584 119.272L492.581 119.274ZM491.519 116.338C491.578 116.421 491.637 116.503 491.696 116.586C491.823 116.823 491.72 117.026 491.583 117.209C491.361 117.504 490.911 117.535 490.626 117.288C490.335 117.036 490.314 116.574 490.581 116.299C490.847 116.025 491.264 116.043 491.519 116.339V116.338ZM488.41 119.992C487.052 119.232 486.481 117.412 488.099 115.515C488.03 115.69 487.988 115.778 487.961 115.871C487.827 116.32 487.666 116.764 487.574 117.222C487.362 118.279 487.425 119.27 488.41 119.992Z" fill="#F2F2F2"/>
<path d="M491.696 116.586C491.636 116.503 491.577 116.421 491.518 116.338C491.441 116.311 491.35 116.244 491.291 116.265C491.121 116.325 490.894 116.383 490.823 116.515C490.751 116.648 490.78 116.914 490.875 117.035C490.96 117.142 491.207 117.188 491.362 117.158C491.649 117.102 491.712 116.852 491.696 116.586Z" fill="#F2F2F2"/>
<path d="M528.126 151.192C528.164 151.388 528.184 151.493 528.204 151.596C528.249 150.986 528.871 151.035 529.164 150.708C529.301 150.802 529.42 150.883 529.539 150.964C529.097 150.5 529.792 150.322 529.799 149.919C529.59 149.907 529.395 149.896 529.111 149.879C529.301 149.74 529.422 149.617 529.568 149.551C529.856 149.424 529.906 149.22 529.753 148.987C529.538 148.66 529.343 148.276 529.038 148.06C527.303 146.832 525.563 145.607 523.775 144.46C522.559 143.681 521.125 143.447 519.731 143.163C518.59 142.93 517.439 142.764 516.265 142.878C516.152 142.889 515.999 142.777 515.908 142.681C515.269 142.008 514.644 141.323 514.011 140.645C513.876 140.501 513.734 140.363 513.583 140.233C513.211 139.913 513.015 139.912 512.714 140.296C511.849 141.399 510.667 142.02 509.408 142.538C507.407 143.362 505.408 144.192 503.408 145.021C503.285 145.073 503.167 145.138 503.047 145.197C503.041 145.234 503.036 145.271 503.031 145.308C503.588 145.46 504.144 145.612 504.792 145.788C504.544 145.899 504.372 146.002 504.186 146.057C503.029 146.394 501.85 146.621 500.641 146.634C499.96 146.642 499.371 146.412 498.774 146.037C497.804 145.428 496.763 144.918 495.71 144.462C494.899 144.111 494.027 143.893 493.174 143.646C492.963 143.584 492.719 143.637 492.447 143.637C492.619 144.249 492.895 144.747 493.279 145.189C493.927 145.935 494.573 146.684 495.22 147.432C495.277 147.498 495.333 147.565 495.383 147.634C495.811 148.219 495.768 148.375 495.246 148.876C494.713 149.387 494.213 149.937 493.73 150.496C493.237 151.065 492.779 151.665 492.313 152.257C492.202 152.398 492.123 152.562 492 152.764C492.708 153.019 493.364 153.04 494.008 152.809C495.557 152.253 497.11 151.704 498.636 151.09C499.934 150.567 501.24 150.582 502.572 150.843C502.941 150.916 503.303 151.024 503.664 151.196C503.345 151.258 503.022 151.309 502.706 151.387C502.358 151.472 502.191 151.694 502.348 151.982C502.732 152.684 502.61 153.481 502.844 154.206C502.942 154.51 503.014 154.824 503.107 155.131C503.175 155.355 503.321 155.422 503.533 155.302C504.737 154.621 505.792 153.788 506.353 152.469C506.434 152.281 506.507 152.161 506.758 152.22C508.774 152.694 510.81 153.036 512.884 153.118C512.95 153.121 513.017 153.146 513.082 153.226C512.868 153.265 512.653 153.301 512.44 153.343C511.986 153.433 511.73 153.714 511.768 154.174C511.849 155.167 512.373 155.906 513.193 156.437C513.458 156.608 513.767 156.582 513.953 156.301C514.285 155.798 514.611 155.286 514.885 154.75C515.118 154.292 515.275 153.794 515.48 153.273C519.743 153.064 524.023 152.736 528.129 151.19L528.126 151.192ZM526.843 147.649C526.915 147.749 526.986 147.849 527.057 147.948C527.211 148.235 527.086 148.479 526.92 148.7C526.653 149.056 526.11 149.093 525.766 148.795C525.414 148.491 525.389 147.933 525.712 147.602C526.033 147.272 526.536 147.292 526.843 147.65V147.649ZM523.091 152.058C521.453 151.141 520.763 148.945 522.716 146.656C522.633 146.867 522.583 146.973 522.549 147.086C522.388 147.627 522.194 148.163 522.083 148.716C521.827 149.991 521.902 151.188 523.091 152.058Z" fill="#E0E0E0"/>
<path d="M527.057 147.948C526.985 147.849 526.914 147.749 526.842 147.649C526.75 147.616 526.64 147.535 526.568 147.56C526.364 147.633 526.089 147.703 526.003 147.862C525.917 148.023 525.951 148.344 526.067 148.49C526.169 148.619 526.467 148.675 526.655 148.638C527.001 148.571 527.076 148.269 527.057 147.948Z" fill="#E0E0E0"/>
<path d="M571.713 124.952C571.763 125.215 571.79 125.354 571.817 125.492C571.878 124.678 572.708 124.743 573.1 124.306C573.283 124.431 573.441 124.54 573.6 124.648C573.01 124.028 573.938 123.79 573.948 123.252C573.669 123.236 573.408 123.221 573.029 123.199C573.283 123.013 573.444 122.848 573.64 122.76C574.024 122.59 574.092 122.318 573.887 122.006C573.599 121.57 573.339 121.057 572.931 120.768C570.614 119.127 568.289 117.491 565.899 115.958C564.275 114.917 562.36 114.606 560.497 114.226C558.972 113.915 557.435 113.693 555.866 113.845C555.715 113.86 555.511 113.71 555.39 113.581C554.536 112.682 553.701 111.767 552.855 110.862C552.675 110.669 552.485 110.484 552.284 110.311C551.786 109.884 551.524 109.883 551.122 110.395C549.967 111.869 548.387 112.698 546.705 113.391C544.032 114.492 541.361 115.6 538.69 116.708C538.525 116.777 538.368 116.865 538.207 116.943C538.2 116.993 538.193 117.043 538.186 117.091C538.93 117.294 539.673 117.497 540.538 117.733C540.208 117.881 539.978 118.019 539.728 118.092C538.183 118.542 536.607 118.846 534.993 118.864C534.083 118.874 533.297 118.566 532.499 118.065C531.203 117.252 529.812 116.57 528.405 115.961C527.321 115.492 526.157 115.202 525.017 114.87C524.735 114.789 524.409 114.859 524.046 114.859C524.276 115.676 524.644 116.341 525.157 116.932C526.022 117.93 526.887 118.93 527.751 119.93C527.826 120.017 527.901 120.107 527.969 120.199C528.541 120.98 528.482 121.189 527.785 121.858C527.073 122.542 526.405 123.276 525.76 124.022C525.101 124.783 524.489 125.585 523.866 126.376C523.719 126.564 523.612 126.783 523.448 127.053C524.394 127.394 525.27 127.422 526.131 127.113C528.2 126.37 530.275 125.637 532.314 124.816C534.048 124.118 535.793 124.138 537.572 124.487C538.065 124.583 538.549 124.729 539.032 124.957C538.606 125.041 538.174 125.109 537.752 125.213C537.287 125.327 537.063 125.624 537.273 126.008C537.786 126.945 537.623 128.011 537.936 128.979C538.067 129.386 538.163 129.805 538.287 130.215C538.378 130.515 538.573 130.604 538.856 130.443C540.465 129.533 541.875 128.421 542.625 126.659C542.732 126.407 542.829 126.247 543.166 126.326C545.859 126.959 548.579 127.416 551.35 127.525C551.438 127.529 551.527 127.563 551.614 127.67C551.328 127.722 551.042 127.77 550.756 127.827C550.149 127.947 549.807 128.322 549.858 128.937C549.966 130.263 550.667 131.251 551.763 131.96C552.117 132.189 552.529 132.154 552.778 131.778C553.222 131.106 553.657 130.422 554.022 129.706C554.335 129.094 554.543 128.428 554.818 127.733C560.514 127.454 566.232 127.016 571.717 124.949L571.713 124.952ZM569.999 120.219C570.094 120.352 570.19 120.486 570.285 120.619C570.49 121.002 570.324 121.328 570.102 121.624C569.745 122.099 569.019 122.149 568.56 121.751C568.09 121.344 568.057 120.599 568.487 120.157C568.917 119.715 569.589 119.743 569.999 120.22V120.219ZM564.986 126.11C562.797 124.885 561.876 121.951 564.485 118.892C564.375 119.174 564.307 119.316 564.262 119.466C564.047 120.19 563.788 120.906 563.64 121.644C563.298 123.348 563.398 124.947 564.986 126.11Z" fill="#E0E0E0"/>
<path d="M570.284 120.619C570.189 120.486 570.093 120.352 569.998 120.219C569.875 120.175 569.727 120.067 569.632 120.101C569.358 120.198 568.991 120.292 568.877 120.503C568.762 120.718 568.807 121.147 568.962 121.342C569.098 121.515 569.497 121.59 569.747 121.541C570.21 121.451 570.31 121.047 570.284 120.619Z" fill="#E0E0E0"/>
<path d="M538.037 1149.68C538.215 1149.44 538.481 1149.33 538.756 1149.24C538.948 1149.18 538.98 1149.1 538.826 1148.99C537.781 1148.21 536.722 1147.43 535.4 1147.08C534.568 1146.87 533.706 1146.74 532.854 1146.59C532.617 1146.55 532.454 1146.48 532.322 1146.27C532.046 1145.83 531.679 1145.46 531.25 1145.14C531.195 1145.1 531.135 1145.06 531.071 1145.03C530.953 1144.97 530.887 1144.99 530.817 1145.12C530.723 1145.29 530.595 1145.46 530.441 1145.58C530.017 1145.94 529.482 1146.05 528.932 1146.16C528.498 1146.24 528.077 1146.39 527.659 1146.53C527.313 1146.65 526.979 1146.8 526.618 1146.94C526.32 1146.52 525.926 1146.16 525.382 1145.97C525.263 1145.92 525.139 1145.9 524.974 1145.85C525.197 1146.27 525.238 1146.66 525.169 1147.07C525.124 1147.34 524.992 1147.53 524.695 1147.61C524.57 1147.64 524.455 1147.72 524.329 1147.73C524.106 1147.76 523.903 1147.76 523.737 1147.95C523.665 1148.03 523.455 1148.01 523.282 1148.04C523.129 1148.29 522.841 1148.34 522.526 1148.31C522.398 1148.55 522.256 1148.6 521.886 1148.52C521.817 1148.73 521.79 1148.84 521.345 1148.75C521.32 1148.97 521.156 1148.99 520.956 1148.99C520.898 1148.99 520.837 1149.04 520.779 1149.07C520.735 1149.09 520.697 1149.13 520.651 1149.14C520.389 1149.18 520.126 1149.25 519.861 1149.26C519.428 1149.27 519.089 1149.09 518.859 1148.76C518.246 1147.88 517.463 1147.15 516.59 1146.5C516.365 1146.33 516.251 1146.28 516 1146.28C516.095 1146.39 516.188 1146.48 516.259 1146.58C516.833 1147.4 517.276 1148.29 517.672 1149.19C517.681 1149.22 517.693 1149.24 517.694 1149.26C517.756 1150.17 517.769 1151.07 517.058 1151.81C516.789 1152.09 516.462 1152.32 516.161 1152.58C516.124 1152.61 516.081 1152.64 516.034 1152.72C516.11 1152.73 516.189 1152.77 516.261 1152.76C516.871 1152.68 517.376 1152.41 517.749 1151.97C518.043 1151.62 518.296 1151.24 518.571 1150.88C518.731 1150.67 518.88 1150.45 519.067 1150.26C519.401 1149.92 519.803 1149.88 520.24 1150.11C520.266 1150.12 520.311 1150.11 520.345 1150.1C520.532 1150.07 520.886 1150.22 520.969 1150.36C521.195 1150.28 521.463 1150.37 521.545 1150.56C521.762 1150.49 522.021 1150.59 522.076 1150.77C522.32 1150.69 522.648 1150.86 522.703 1151.11C522.942 1150.97 523.109 1151.13 523.26 1151.25C523.369 1151.33 523.459 1151.34 523.555 1151.28C523.697 1151.2 523.777 1151.25 523.858 1151.36C524.09 1151.66 524.142 1152.01 524.103 1152.37C524.096 1152.43 524.08 1152.49 524.062 1152.6C524.186 1152.57 524.297 1152.56 524.39 1152.52C524.76 1152.36 525.128 1152.19 525.492 1152.01C525.623 1151.95 525.735 1151.95 525.878 1151.99C526.7 1152.24 527.551 1152.37 528.41 1152.46C529.072 1152.52 529.736 1152.58 530.401 1152.62C530.591 1152.63 530.662 1152.7 530.641 1152.86C530.601 1153.17 530.554 1153.48 530.507 1153.79C530.498 1153.86 530.477 1153.92 530.457 1154C530.744 1154 530.952 1153.89 531.115 1153.73C531.4 1153.45 531.667 1153.16 531.923 1152.85C532.075 1152.68 532.23 1152.57 532.495 1152.54C533.15 1152.47 533.795 1152.34 534.398 1152.07C534.451 1152.05 534.501 1152.02 534.554 1152C534.706 1151.93 534.705 1151.86 534.607 1151.74C533.986 1150.97 533.743 1150.1 533.899 1149.15C533.908 1149.1 533.929 1149.04 533.957 1148.99C533.976 1149.66 534.069 1150.31 534.332 1150.94C534.427 1151.16 534.555 1151.39 534.704 1151.59C534.939 1151.9 535.219 1151.98 535.588 1151.8C536.125 1151.55 536.651 1151.27 537.159 1150.97C537.729 1150.63 538.275 1150.26 538.826 1149.9C538.899 1149.85 538.943 1149.76 539 1149.7C538.918 1149.65 538.836 1149.56 538.752 1149.55C538.58 1149.55 538.406 1149.58 538.235 1149.61C538.166 1149.62 538.102 1149.66 538.035 1149.68L538.037 1149.68ZM537.439 1149.1C537.323 1149.08 537.182 1149.08 537.184 1148.92C537.186 1148.79 537.264 1148.7 537.411 1148.7C537.55 1148.7 537.652 1148.76 537.66 1148.9C537.669 1149.03 537.579 1149.09 537.439 1149.1Z" fill="#F2F2F2"/>
<path d="M612.869 1135.72C613.078 1135.43 613.39 1135.3 613.714 1135.19C613.939 1135.11 613.977 1135.01 613.796 1134.87C612.569 1133.92 611.326 1132.97 609.774 1132.55C608.798 1132.28 607.786 1132.13 606.786 1131.94C606.507 1131.89 606.315 1131.81 606.16 1131.55C605.836 1131.02 605.406 1130.56 604.903 1130.17C604.838 1130.12 604.767 1130.07 604.692 1130.04C604.553 1129.97 604.476 1129.99 604.394 1130.15C604.283 1130.35 604.133 1130.56 603.952 1130.71C603.455 1131.15 602.827 1131.29 602.181 1131.42C601.671 1131.52 601.178 1131.7 600.687 1131.87C600.281 1132.02 599.889 1132.2 599.465 1132.38C599.114 1131.85 598.652 1131.42 598.013 1131.18C597.874 1131.13 597.729 1131.1 597.535 1131.04C597.796 1131.55 597.845 1132.03 597.764 1132.53C597.711 1132.85 597.556 1133.09 597.207 1133.19C597.06 1133.23 596.925 1133.32 596.778 1133.34C596.515 1133.37 596.277 1133.38 596.082 1133.61C595.999 1133.71 595.751 1133.68 595.549 1133.72C595.368 1134.03 595.031 1134.08 594.661 1134.04C594.511 1134.34 594.344 1134.4 593.91 1134.3C593.828 1134.56 593.797 1134.69 593.274 1134.58C593.245 1134.85 593.053 1134.88 592.818 1134.88C592.749 1134.88 592.678 1134.94 592.61 1134.97C592.559 1135 592.514 1135.05 592.46 1135.06C592.152 1135.11 591.843 1135.19 591.533 1135.2C591.025 1135.22 590.626 1134.99 590.356 1134.59C589.637 1133.52 588.718 1132.63 587.693 1131.83C587.428 1131.62 587.295 1131.57 587 1131.57C587.112 1131.7 587.221 1131.81 587.304 1131.93C587.978 1132.94 588.498 1134.02 588.962 1135.13C588.974 1135.15 588.987 1135.18 588.989 1135.21C589.061 1136.32 589.077 1137.42 588.243 1138.32C587.927 1138.67 587.543 1138.95 587.189 1139.26C587.145 1139.3 587.095 1139.33 587.04 1139.43C587.129 1139.45 587.221 1139.49 587.306 1139.48C588.023 1139.38 588.615 1139.06 589.053 1138.52C589.398 1138.09 589.695 1137.63 590.019 1137.19C590.206 1136.93 590.381 1136.66 590.6 1136.43C590.993 1136.01 591.464 1135.97 591.978 1136.24C592.008 1136.26 592.06 1136.24 592.1 1136.24C592.32 1136.19 592.735 1136.37 592.833 1136.56C593.099 1136.46 593.413 1136.57 593.51 1136.79C593.764 1136.71 594.068 1136.84 594.132 1137.06C594.419 1136.95 594.804 1137.16 594.869 1137.47C595.149 1137.3 595.345 1137.49 595.523 1137.64C595.651 1137.74 595.756 1137.75 595.869 1137.68C596.036 1137.58 596.129 1137.64 596.225 1137.77C596.497 1138.15 596.557 1138.56 596.512 1139C596.503 1139.08 596.486 1139.16 596.464 1139.29C596.61 1139.25 596.74 1139.24 596.849 1139.19C597.284 1138.99 597.715 1138.79 598.143 1138.57C598.296 1138.5 598.428 1138.49 598.596 1138.55C599.561 1138.85 600.56 1139.01 601.568 1139.12C602.346 1139.19 603.125 1139.26 603.905 1139.31C604.129 1139.32 604.212 1139.41 604.188 1139.6C604.14 1139.98 604.085 1140.37 604.03 1140.75C604.019 1140.82 603.995 1140.9 603.971 1141C604.308 1141 604.553 1140.86 604.744 1140.67C605.078 1140.33 605.392 1139.97 605.693 1139.6C605.87 1139.38 606.052 1139.25 606.363 1139.22C607.132 1139.13 607.89 1138.97 608.598 1138.64C608.66 1138.62 608.719 1138.58 608.781 1138.55C608.96 1138.47 608.958 1138.38 608.843 1138.24C608.114 1137.29 607.828 1136.24 608.012 1135.07C608.022 1135.01 608.048 1134.94 608.08 1134.88C608.102 1135.7 608.211 1136.5 608.52 1137.26C608.632 1137.53 608.782 1137.8 608.957 1138.05C609.233 1138.43 609.561 1138.53 609.995 1138.32C610.625 1138 611.243 1137.66 611.839 1137.29C612.508 1136.88 613.148 1136.43 613.796 1135.98C613.881 1135.92 613.933 1135.82 614 1135.74C613.903 1135.68 613.808 1135.57 613.709 1135.56C613.507 1135.56 613.303 1135.6 613.101 1135.64C613.021 1135.65 612.946 1135.69 612.868 1135.72L612.869 1135.72ZM612.168 1135.01C612.031 1134.99 611.865 1134.99 611.868 1134.79C611.87 1134.63 611.962 1134.53 612.135 1134.52C612.297 1134.52 612.418 1134.59 612.427 1134.76C612.437 1134.93 612.332 1134.99 612.168 1135.01Z" fill="#E0E0E0"/>
<path d="M641.869 1124.72C642.078 1124.43 642.39 1124.3 642.714 1124.19C642.939 1124.11 642.977 1124.01 642.796 1123.87C641.569 1122.92 640.326 1121.97 638.774 1121.55C637.798 1121.28 636.786 1121.13 635.786 1120.94C635.507 1120.89 635.315 1120.81 635.16 1120.55C634.836 1120.02 634.406 1119.56 633.903 1119.17C633.838 1119.12 633.767 1119.07 633.692 1119.04C633.553 1118.97 633.476 1118.99 633.394 1119.15C633.283 1119.35 633.133 1119.56 632.952 1119.71C632.455 1120.15 631.827 1120.29 631.181 1120.42C630.671 1120.52 630.178 1120.7 629.687 1120.87C629.281 1121.02 628.889 1121.2 628.465 1121.38C628.114 1120.85 627.652 1120.42 627.013 1120.18C626.874 1120.13 626.729 1120.1 626.535 1120.04C626.796 1120.55 626.845 1121.03 626.764 1121.53C626.711 1121.85 626.556 1122.09 626.207 1122.19C626.06 1122.23 625.925 1122.32 625.778 1122.34C625.515 1122.37 625.277 1122.38 625.082 1122.61C624.999 1122.71 624.751 1122.68 624.549 1122.72C624.368 1123.03 624.031 1123.08 623.661 1123.04C623.511 1123.34 623.344 1123.4 622.91 1123.3C622.828 1123.56 622.797 1123.69 622.274 1123.58C622.245 1123.85 622.053 1123.88 621.818 1123.88C621.749 1123.88 621.678 1123.94 621.61 1123.97C621.559 1124 621.514 1124.05 621.46 1124.06C621.152 1124.11 620.843 1124.19 620.533 1124.2C620.025 1124.22 619.626 1123.99 619.356 1123.59C618.637 1122.52 617.718 1121.63 616.693 1120.83C616.428 1120.62 616.295 1120.57 616 1120.57C616.112 1120.7 616.221 1120.81 616.304 1120.93C616.978 1121.94 617.498 1123.02 617.962 1124.13C617.974 1124.15 617.987 1124.18 617.989 1124.21C618.061 1125.32 618.077 1126.42 617.243 1127.32C616.927 1127.67 616.543 1127.95 616.189 1128.26C616.145 1128.3 616.095 1128.33 616.04 1128.43C616.129 1128.45 616.221 1128.49 616.306 1128.48C617.023 1128.38 617.615 1128.06 618.053 1127.52C618.398 1127.09 618.695 1126.63 619.019 1126.19C619.206 1125.93 619.381 1125.66 619.6 1125.43C619.993 1125.01 620.464 1124.97 620.978 1125.24C621.008 1125.26 621.06 1125.24 621.1 1125.24C621.32 1125.19 621.735 1125.37 621.833 1125.56C622.099 1125.46 622.413 1125.57 622.51 1125.79C622.764 1125.71 623.068 1125.84 623.132 1126.06C623.419 1125.95 623.804 1126.16 623.869 1126.47C624.149 1126.3 624.345 1126.49 624.523 1126.64C624.651 1126.74 624.756 1126.75 624.869 1126.68C625.036 1126.58 625.129 1126.64 625.225 1126.77C625.497 1127.15 625.557 1127.56 625.512 1128C625.503 1128.08 625.486 1128.16 625.464 1128.29C625.61 1128.25 625.74 1128.24 625.849 1128.19C626.284 1127.99 626.715 1127.79 627.143 1127.57C627.296 1127.5 627.428 1127.49 627.596 1127.55C628.561 1127.85 629.56 1128.01 630.568 1128.12C631.346 1128.19 632.125 1128.26 632.905 1128.31C633.129 1128.32 633.212 1128.41 633.188 1128.6C633.14 1128.98 633.085 1129.37 633.03 1129.75C633.019 1129.82 632.995 1129.9 632.971 1130C633.308 1130 633.553 1129.86 633.744 1129.67C634.078 1129.33 634.392 1128.97 634.693 1128.6C634.87 1128.38 635.052 1128.25 635.363 1128.22C636.132 1128.13 636.89 1127.97 637.598 1127.64C637.66 1127.62 637.719 1127.58 637.781 1127.55C637.96 1127.47 637.958 1127.38 637.843 1127.24C637.114 1126.29 636.828 1125.24 637.012 1124.07C637.022 1124.01 637.048 1123.94 637.08 1123.88C637.102 1124.7 637.211 1125.5 637.52 1126.26C637.632 1126.53 637.782 1126.8 637.957 1127.05C638.233 1127.43 638.561 1127.53 638.995 1127.32C639.625 1127 640.243 1126.66 640.839 1126.29C641.508 1125.88 642.148 1125.43 642.796 1124.98C642.881 1124.92 642.933 1124.82 643 1124.74C642.903 1124.68 642.808 1124.57 642.709 1124.56C642.507 1124.56 642.303 1124.6 642.101 1124.64C642.021 1124.65 641.946 1124.69 641.868 1124.72L641.869 1124.72ZM641.168 1124.01C641.031 1123.99 640.865 1123.99 640.868 1123.79C640.87 1123.63 640.962 1123.53 641.135 1123.52C641.297 1123.52 641.418 1123.59 641.427 1123.76C641.437 1123.93 641.332 1123.99 641.168 1124.01Z" fill="#F2F2F2"/>
<path d="M627.037 1170.68C627.215 1170.44 627.481 1170.33 627.756 1170.24C627.948 1170.18 627.98 1170.1 627.826 1169.99C626.781 1169.21 625.722 1168.43 624.4 1168.08C623.568 1167.87 622.706 1167.74 621.854 1167.59C621.617 1167.55 621.454 1167.48 621.322 1167.27C621.046 1166.83 620.679 1166.46 620.25 1166.14C620.195 1166.1 620.135 1166.06 620.071 1166.03C619.953 1165.97 619.887 1165.99 619.817 1166.12C619.723 1166.29 619.595 1166.46 619.441 1166.58C619.017 1166.94 618.482 1167.05 617.932 1167.16C617.498 1167.24 617.077 1167.39 616.659 1167.53C616.313 1167.65 615.979 1167.8 615.618 1167.94C615.32 1167.52 614.926 1167.16 614.382 1166.97C614.263 1166.92 614.139 1166.9 613.974 1166.85C614.197 1167.27 614.238 1167.66 614.169 1168.07C614.124 1168.34 613.992 1168.53 613.695 1168.61C613.57 1168.64 613.455 1168.72 613.329 1168.73C613.106 1168.76 612.903 1168.76 612.737 1168.95C612.665 1169.03 612.455 1169.01 612.282 1169.04C612.129 1169.29 611.841 1169.34 611.526 1169.31C611.398 1169.55 611.256 1169.6 610.886 1169.52C610.817 1169.73 610.79 1169.84 610.345 1169.75C610.32 1169.97 610.156 1169.99 609.956 1169.99C609.898 1169.99 609.837 1170.04 609.779 1170.07C609.735 1170.09 609.697 1170.13 609.651 1170.14C609.389 1170.18 609.126 1170.25 608.861 1170.26C608.428 1170.27 608.089 1170.09 607.859 1169.76C607.246 1168.88 606.463 1168.15 605.59 1167.5C605.365 1167.33 605.251 1167.28 605 1167.28C605.095 1167.39 605.188 1167.48 605.259 1167.58C605.833 1168.4 606.276 1169.29 606.672 1170.19C606.681 1170.22 606.693 1170.24 606.694 1170.26C606.756 1171.17 606.769 1172.07 606.058 1172.81C605.789 1173.09 605.462 1173.32 605.161 1173.58C605.124 1173.61 605.081 1173.64 605.034 1173.72C605.11 1173.73 605.189 1173.77 605.261 1173.76C605.871 1173.68 606.376 1173.41 606.749 1172.97C607.043 1172.62 607.296 1172.24 607.571 1171.88C607.731 1171.67 607.88 1171.45 608.067 1171.26C608.401 1170.92 608.803 1170.88 609.24 1171.11C609.266 1171.12 609.311 1171.11 609.345 1171.1C609.532 1171.07 609.886 1171.22 609.969 1171.36C610.195 1171.28 610.463 1171.37 610.545 1171.56C610.762 1171.49 611.021 1171.59 611.076 1171.77C611.32 1171.69 611.648 1171.86 611.703 1172.11C611.942 1171.97 612.109 1172.13 612.26 1172.25C612.369 1172.33 612.459 1172.34 612.555 1172.28C612.697 1172.2 612.777 1172.25 612.858 1172.36C613.09 1172.66 613.142 1173.01 613.103 1173.37C613.096 1173.43 613.08 1173.49 613.062 1173.6C613.186 1173.57 613.297 1173.56 613.39 1173.52C613.76 1173.36 614.128 1173.19 614.492 1173.01C614.623 1172.95 614.735 1172.95 614.878 1172.99C615.7 1173.24 616.551 1173.37 617.41 1173.46C618.072 1173.52 618.736 1173.58 619.401 1173.62C619.591 1173.63 619.662 1173.7 619.641 1173.86C619.601 1174.17 619.554 1174.48 619.507 1174.79C619.498 1174.86 619.477 1174.92 619.457 1175C619.744 1175 619.952 1174.89 620.115 1174.73C620.4 1174.45 620.667 1174.16 620.923 1173.85C621.075 1173.68 621.23 1173.57 621.495 1173.54C622.15 1173.47 622.795 1173.34 623.398 1173.07C623.451 1173.05 623.501 1173.02 623.554 1173C623.706 1172.93 623.705 1172.86 623.607 1172.74C622.986 1171.97 622.743 1171.1 622.899 1170.15C622.908 1170.1 622.929 1170.04 622.957 1169.99C622.976 1170.66 623.069 1171.31 623.332 1171.94C623.427 1172.16 623.555 1172.39 623.704 1172.59C623.939 1172.9 624.219 1172.98 624.588 1172.8C625.125 1172.55 625.651 1172.27 626.159 1171.97C626.729 1171.63 627.275 1171.26 627.826 1170.9C627.899 1170.85 627.943 1170.76 628 1170.7C627.918 1170.65 627.836 1170.56 627.752 1170.55C627.58 1170.55 627.406 1170.58 627.235 1170.61C627.166 1170.62 627.102 1170.66 627.035 1170.68L627.037 1170.68ZM626.439 1170.1C626.323 1170.08 626.182 1170.08 626.184 1169.92C626.186 1169.79 626.264 1169.7 626.411 1169.7C626.55 1169.7 626.652 1169.76 626.66 1169.9C626.669 1170.03 626.579 1170.09 626.439 1170.1Z" fill="#F2F2F2"/>
<path d="M585.869 1160.72C586.078 1160.43 586.39 1160.3 586.714 1160.19C586.939 1160.11 586.977 1160.01 586.796 1159.87C585.569 1158.92 584.326 1157.97 582.774 1157.55C581.798 1157.28 580.786 1157.13 579.786 1156.94C579.507 1156.89 579.315 1156.81 579.16 1156.55C578.836 1156.02 578.406 1155.56 577.903 1155.17C577.838 1155.12 577.767 1155.07 577.692 1155.04C577.553 1154.97 577.476 1154.99 577.394 1155.15C577.283 1155.35 577.133 1155.56 576.952 1155.71C576.455 1156.15 575.827 1156.29 575.181 1156.42C574.671 1156.52 574.178 1156.7 573.687 1156.87C573.281 1157.02 572.889 1157.2 572.465 1157.38C572.114 1156.85 571.652 1156.42 571.013 1156.18C570.874 1156.13 570.729 1156.1 570.535 1156.04C570.796 1156.55 570.845 1157.03 570.764 1157.53C570.711 1157.85 570.556 1158.09 570.207 1158.19C570.06 1158.23 569.925 1158.32 569.778 1158.34C569.515 1158.37 569.277 1158.38 569.082 1158.61C568.999 1158.71 568.751 1158.68 568.549 1158.72C568.368 1159.03 568.031 1159.08 567.661 1159.04C567.511 1159.34 567.344 1159.4 566.91 1159.3C566.828 1159.56 566.797 1159.69 566.274 1159.58C566.245 1159.85 566.053 1159.88 565.818 1159.88C565.749 1159.88 565.678 1159.94 565.61 1159.97C565.559 1160 565.514 1160.05 565.46 1160.06C565.152 1160.11 564.843 1160.19 564.533 1160.2C564.025 1160.22 563.626 1159.99 563.356 1159.59C562.637 1158.52 561.718 1157.63 560.693 1156.83C560.428 1156.62 560.295 1156.57 560 1156.57C560.112 1156.7 560.221 1156.81 560.304 1156.93C560.978 1157.94 561.498 1159.02 561.962 1160.13C561.974 1160.15 561.987 1160.18 561.989 1160.21C562.061 1161.32 562.077 1162.42 561.243 1163.32C560.927 1163.67 560.543 1163.95 560.189 1164.26C560.145 1164.3 560.095 1164.33 560.04 1164.43C560.129 1164.45 560.221 1164.49 560.306 1164.48C561.023 1164.38 561.615 1164.06 562.053 1163.52C562.398 1163.09 562.695 1162.63 563.019 1162.19C563.206 1161.93 563.381 1161.66 563.6 1161.43C563.993 1161.01 564.464 1160.97 564.978 1161.24C565.008 1161.26 565.06 1161.24 565.1 1161.24C565.32 1161.19 565.735 1161.37 565.833 1161.56C566.099 1161.46 566.413 1161.57 566.51 1161.79C566.764 1161.71 567.068 1161.84 567.132 1162.06C567.419 1161.95 567.804 1162.16 567.869 1162.47C568.149 1162.3 568.345 1162.49 568.523 1162.64C568.651 1162.74 568.756 1162.75 568.869 1162.68C569.036 1162.58 569.129 1162.64 569.225 1162.77C569.497 1163.15 569.557 1163.56 569.512 1164C569.503 1164.08 569.486 1164.16 569.464 1164.29C569.61 1164.25 569.74 1164.24 569.849 1164.19C570.284 1163.99 570.715 1163.79 571.143 1163.57C571.296 1163.5 571.428 1163.49 571.596 1163.55C572.561 1163.85 573.56 1164.01 574.568 1164.12C575.346 1164.19 576.125 1164.26 576.905 1164.31C577.129 1164.32 577.212 1164.41 577.188 1164.6C577.14 1164.98 577.085 1165.37 577.03 1165.75C577.019 1165.82 576.995 1165.9 576.971 1166C577.308 1166 577.553 1165.86 577.744 1165.67C578.078 1165.33 578.392 1164.97 578.693 1164.6C578.87 1164.38 579.052 1164.25 579.363 1164.22C580.132 1164.13 580.89 1163.97 581.598 1163.64C581.66 1163.62 581.719 1163.58 581.781 1163.55C581.96 1163.47 581.958 1163.38 581.843 1163.24C581.114 1162.29 580.828 1161.24 581.012 1160.07C581.022 1160.01 581.048 1159.94 581.08 1159.88C581.102 1160.7 581.211 1161.5 581.52 1162.26C581.632 1162.53 581.782 1162.8 581.957 1163.05C582.233 1163.43 582.561 1163.53 582.995 1163.32C583.625 1163 584.243 1162.66 584.839 1162.29C585.508 1161.88 586.148 1161.43 586.796 1160.98C586.881 1160.92 586.933 1160.82 587 1160.74C586.903 1160.68 586.808 1160.57 586.709 1160.56C586.507 1160.56 586.303 1160.6 586.101 1160.64C586.021 1160.65 585.946 1160.69 585.868 1160.72L585.869 1160.72ZM585.168 1160.01C585.031 1159.99 584.865 1159.99 584.868 1159.79C584.87 1159.63 584.962 1159.53 585.135 1159.52C585.297 1159.52 585.418 1159.59 585.427 1159.76C585.437 1159.93 585.332 1159.99 585.168 1160.01Z" fill="#E0E0E0"/>
<path d="M658.45 1146.8C658.737 1146.4 659.165 1146.22 659.608 1146.07C659.916 1145.97 659.968 1145.84 659.72 1145.65C658.039 1144.34 656.335 1143.05 654.209 1142.47C652.871 1142.11 651.484 1141.9 650.114 1141.65C649.732 1141.58 649.469 1141.46 649.256 1141.12C648.813 1140.39 648.223 1139.76 647.533 1139.23C647.445 1139.16 647.347 1139.1 647.245 1139.05C647.054 1138.96 646.949 1138.99 646.836 1139.2C646.684 1139.48 646.478 1139.76 646.231 1139.97C645.549 1140.56 644.688 1140.76 643.804 1140.93C643.105 1141.07 642.429 1141.32 641.756 1141.56C641.199 1141.75 640.662 1142 640.082 1142.24C639.601 1141.53 638.968 1140.93 638.093 1140.61C637.902 1140.54 637.702 1140.49 637.437 1140.41C637.795 1141.11 637.862 1141.77 637.75 1142.45C637.678 1142.89 637.465 1143.21 636.987 1143.34C636.787 1143.4 636.601 1143.53 636.399 1143.55C636.04 1143.59 635.713 1143.6 635.446 1143.92C635.331 1144.06 634.992 1144.02 634.715 1144.07C634.468 1144.49 634.005 1144.56 633.498 1144.51C633.293 1144.92 633.064 1145 632.469 1144.87C632.357 1145.21 632.315 1145.4 631.598 1145.25C631.558 1145.61 631.295 1145.66 630.973 1145.65C630.879 1145.65 630.781 1145.73 630.687 1145.78C630.617 1145.82 630.556 1145.89 630.482 1145.9C630.06 1145.97 629.637 1146.08 629.212 1146.09C628.515 1146.12 627.969 1145.81 627.599 1145.26C626.613 1143.8 625.354 1142.59 623.949 1141.49C623.587 1141.21 623.404 1141.14 623 1141.13C623.153 1141.31 623.303 1141.46 623.417 1141.63C624.341 1143.01 625.053 1144.48 625.689 1145.99C625.705 1146.03 625.723 1146.06 625.726 1146.1C625.824 1147.61 625.846 1149.12 624.703 1150.35C624.27 1150.82 623.744 1151.21 623.259 1151.63C623.199 1151.68 623.13 1151.73 623.055 1151.86C623.177 1151.88 623.303 1151.94 623.42 1151.93C624.401 1151.8 625.213 1151.35 625.814 1150.62C626.286 1150.03 626.694 1149.4 627.137 1148.8C627.394 1148.45 627.633 1148.08 627.934 1147.76C628.472 1147.2 629.117 1147.14 629.821 1147.51C629.862 1147.53 629.934 1147.51 629.989 1147.5C630.29 1147.45 630.859 1147.69 630.994 1147.94C631.358 1147.8 631.789 1147.95 631.921 1148.26C632.27 1148.14 632.685 1148.32 632.774 1148.62C633.167 1148.48 633.694 1148.76 633.783 1149.19C634.168 1148.95 634.436 1149.22 634.679 1149.41C634.855 1149.55 634.998 1149.56 635.154 1149.47C635.383 1149.33 635.51 1149.42 635.642 1149.6C636.015 1150.11 636.097 1150.68 636.035 1151.28C636.023 1151.39 635.999 1151.49 635.969 1151.66C636.169 1151.62 636.347 1151.6 636.497 1151.53C637.093 1151.26 637.684 1150.98 638.269 1150.69C638.48 1150.58 638.66 1150.58 638.891 1150.66C640.214 1151.07 641.582 1151.29 642.963 1151.43C644.029 1151.54 645.098 1151.63 646.167 1151.69C646.473 1151.71 646.587 1151.83 646.553 1152.09C646.488 1152.61 646.412 1153.13 646.337 1153.66C646.322 1153.76 646.289 1153.86 646.256 1154C646.718 1154.01 647.054 1153.81 647.315 1153.55C647.774 1153.08 648.204 1152.59 648.616 1152.09C648.86 1151.8 649.109 1151.62 649.535 1151.57C650.589 1151.45 651.627 1151.23 652.597 1150.79C652.682 1150.75 652.763 1150.7 652.848 1150.66C653.093 1150.56 653.09 1150.43 652.933 1150.23C651.935 1148.94 651.542 1147.51 651.794 1145.92C651.808 1145.83 651.843 1145.74 651.887 1145.65C651.918 1146.77 652.067 1147.86 652.491 1148.9C652.644 1149.27 652.849 1149.64 653.089 1149.98C653.467 1150.5 653.917 1150.64 654.511 1150.34C655.375 1149.91 656.222 1149.45 657.039 1148.94C657.955 1148.38 658.833 1147.76 659.72 1147.16C659.837 1147.08 659.908 1146.94 660 1146.83C659.867 1146.74 659.737 1146.59 659.601 1146.59C659.325 1146.58 659.045 1146.64 658.769 1146.69C658.659 1146.7 658.555 1146.76 658.448 1146.8L658.45 1146.8ZM657.489 1145.83C657.302 1145.8 657.075 1145.8 657.078 1145.53C657.082 1145.32 657.207 1145.17 657.444 1145.17C657.667 1145.17 657.832 1145.26 657.845 1145.49C657.858 1145.72 657.715 1145.81 657.489 1145.83Z" fill="#E0E0E0"/>
<path d="M1149.54 1059.92C1150.53 1060.6 1151.67 1061.1 1152.27 1062.38C1151.62 1062.7 1151.01 1063.03 1150.39 1063.31C1149.18 1063.84 1147.92 1064.21 1146.6 1064.27C1145.51 1064.32 1144.47 1064.12 1143.51 1063.55C1143.42 1063.49 1143.3 1063.46 1143.19 1063.45C1141.57 1063.31 1139.96 1063.18 1138.34 1063.04C1138.29 1063.04 1138.24 1063.04 1138.17 1063.04C1138.67 1064.01 1139.15 1064.96 1139.68 1065.99C1139.4 1065.99 1139.23 1066.01 1139.06 1065.99C1137.77 1065.82 1136.69 1065.18 1135.68 1064.37C1135.25 1064.03 1134.88 1063.63 1134.45 1063.29C1134.18 1063.08 1133.88 1062.88 1133.56 1062.78C1132.38 1062.41 1131.22 1061.99 1130.23 1061.21C1129.14 1060.36 1128.06 1059.49 1127.05 1058.55C1126.45 1058 1126.13 1057.23 1126.01 1056.38C1125.95 1055.95 1126.12 1055.57 1126.61 1055.5C1127.34 1055.39 1128.02 1055.04 1128.64 1054.59C1129.79 1053.75 1130.89 1052.81 1132.11 1052.11C1132.99 1051.61 1133.61 1050.9 1134.29 1050.19C1134.99 1049.47 1135.83 1048.91 1136.72 1048.44C1137.29 1048.54 1137.67 1047.91 1138.25 1048.01C1138.8 1048.11 1139.35 1048.14 1139.9 1048.21C1141.4 1048.4 1142.89 1048.67 1144.31 1049.22C1144.53 1049.31 1144.78 1049.39 1144.97 1049.53C1145.27 1049.76 1145.54 1049.77 1145.86 1049.6C1146.17 1049.43 1146.47 1049.47 1146.82 1049.57C1147.94 1049.89 1149.09 1050.09 1150.21 1050.4C1151.05 1050.63 1151.86 1050.97 1152.68 1051.27C1152.84 1051.33 1152.99 1051.44 1153.18 1051.55C1152.74 1052.23 1152.19 1052.71 1151.52 1053.12C1151.66 1053.13 1151.8 1053.14 1151.94 1053.15C1151.96 1053.17 1151.97 1053.19 1151.98 1053.21C1151.89 1053.27 1151.8 1053.32 1151.65 1053.4C1151.87 1053.47 1151.98 1053.51 1152.17 1053.57C1151.94 1053.9 1151.74 1054.21 1151.48 1054.59C1151.62 1054.51 1151.7 1054.46 1151.78 1054.42C1153.05 1053.73 1154.32 1053.03 1155.6 1052.34C1155.79 1052.24 1156.01 1052.17 1156.22 1052.14C1156.74 1052.05 1157.1 1052.33 1157.12 1052.88C1157.13 1053.45 1157.32 1053.94 1157.58 1054.43C1157.72 1054.68 1157.82 1055.02 1157.79 1055.3C1157.72 1055.95 1157.87 1056.63 1157.59 1057.26C1157.54 1057.37 1157.59 1057.57 1157.67 1057.69C1158.04 1058.27 1158.05 1058.92 1157.93 1059.56C1157.78 1060.38 1157.45 1061.13 1156.88 1061.74C1156.32 1062.34 1155.69 1062.49 1154.96 1062.15C1153.63 1061.52 1152.31 1060.84 1150.97 1060.22C1150.54 1060.02 1150.05 1059.93 1149.58 1059.79L1149.54 1059.92L1149.54 1059.92ZM1132.31 1054.77C1132.4 1054.91 1132.45 1054.98 1132.49 1055.05C1133.03 1055.95 1133.22 1056.88 1132.7 1057.85C1132.37 1058.47 1132.02 1059.08 1131.68 1059.7C1131.63 1059.79 1131.57 1059.88 1131.52 1059.97C1131.54 1059.98 1131.57 1060 1131.59 1060.01C1132.51 1059.11 1133.21 1058.07 1133.42 1056.73C1133.54 1055.94 1133.09 1055.15 1132.31 1054.77ZM1128.43 1056.46C1128.8 1056.73 1129.14 1056.71 1129.39 1056.47C1129.65 1056.23 1129.72 1055.83 1129.55 1055.51C1129.4 1055.21 1129.06 1055.05 1128.73 1055.13C1128.41 1055.21 1128.21 1055.47 1128.21 1055.8C1128.36 1055.53 1128.57 1055.4 1128.85 1055.52C1129.08 1055.62 1129.15 1055.82 1129.11 1056.06C1129.06 1056.42 1128.8 1056.48 1128.43 1056.46H1128.43Z" fill="#E0E0E0"/>
<path d="M1176.45 1077.95C1177.1 1078.4 1177.85 1078.73 1178.24 1079.59C1177.81 1079.8 1177.42 1080.02 1177.01 1080.2C1176.21 1080.56 1175.38 1080.8 1174.52 1080.84C1173.8 1080.88 1173.12 1080.75 1172.49 1080.37C1172.43 1080.33 1172.35 1080.31 1172.28 1080.3C1171.22 1080.21 1170.16 1080.12 1169.1 1080.03C1169.07 1080.02 1169.03 1080.03 1168.98 1080.03C1169.31 1080.68 1169.63 1081.31 1169.98 1081.99C1169.8 1081.99 1169.68 1082.01 1169.57 1081.99C1168.73 1081.88 1168.01 1081.45 1167.35 1080.91C1167.07 1080.69 1166.83 1080.42 1166.55 1080.19C1166.37 1080.05 1166.17 1079.92 1165.96 1079.85C1165.19 1079.6 1164.43 1079.33 1163.77 1078.81C1163.06 1078.24 1162.35 1077.66 1161.69 1077.03C1161.29 1076.67 1161.08 1076.15 1161.01 1075.59C1160.97 1075.3 1161.08 1075.05 1161.4 1075C1161.88 1074.93 1162.33 1074.7 1162.73 1074.39C1163.49 1073.83 1164.21 1073.21 1165.01 1072.74C1165.59 1072.41 1165.99 1071.93 1166.44 1071.46C1166.9 1070.98 1167.45 1070.6 1168.03 1070.29C1168.41 1070.36 1168.66 1069.94 1169.04 1070.01C1169.4 1070.07 1169.76 1070.09 1170.13 1070.14C1171.11 1070.27 1172.08 1070.44 1173.02 1070.82C1173.16 1070.87 1173.32 1070.92 1173.45 1071.02C1173.64 1071.17 1173.83 1071.18 1174.04 1071.07C1174.24 1070.96 1174.43 1070.98 1174.66 1071.05C1175.4 1071.26 1176.15 1071.39 1176.89 1071.6C1177.44 1071.76 1177.97 1071.98 1178.51 1072.18C1178.62 1072.22 1178.71 1072.3 1178.83 1072.37C1178.55 1072.82 1178.19 1073.14 1177.75 1073.41C1177.84 1073.42 1177.93 1073.43 1178.03 1073.44C1178.03 1073.45 1178.04 1073.46 1178.05 1073.48C1177.99 1073.51 1177.93 1073.54 1177.83 1073.6C1177.98 1073.65 1178.05 1073.67 1178.17 1073.71C1178.02 1073.94 1177.89 1074.14 1177.72 1074.39C1177.81 1074.34 1177.87 1074.31 1177.92 1074.28C1178.75 1073.82 1179.59 1073.35 1180.42 1072.9C1180.55 1072.83 1180.69 1072.78 1180.83 1072.76C1181.18 1072.7 1181.41 1072.88 1181.42 1073.25C1181.43 1073.64 1181.56 1073.96 1181.73 1074.28C1181.82 1074.45 1181.88 1074.68 1181.86 1074.87C1181.82 1075.3 1181.92 1075.75 1181.73 1076.17C1181.7 1076.24 1181.73 1076.38 1181.78 1076.46C1182.02 1076.85 1182.04 1077.28 1181.96 1077.71C1181.85 1078.26 1181.64 1078.75 1181.27 1079.16C1180.89 1079.56 1180.49 1079.66 1180.01 1079.43C1179.13 1079.01 1178.27 1078.56 1177.39 1078.15C1177.1 1078.01 1176.78 1077.96 1176.48 1077.86L1176.45 1077.95L1176.45 1077.95ZM1165.14 1074.51C1165.2 1074.61 1165.23 1074.65 1165.26 1074.7C1165.62 1075.3 1165.74 1075.92 1165.4 1076.57C1165.18 1076.98 1164.95 1077.39 1164.73 1077.8C1164.69 1077.86 1164.66 1077.92 1164.62 1077.98C1164.64 1077.99 1164.65 1078 1164.67 1078.01C1165.27 1077.41 1165.73 1076.71 1165.87 1075.82C1165.95 1075.3 1165.65 1074.77 1165.14 1074.51ZM1162.6 1075.64C1162.84 1075.82 1163.06 1075.81 1163.23 1075.65C1163.39 1075.48 1163.44 1075.22 1163.33 1075.01C1163.23 1074.8 1163 1074.7 1162.79 1074.75C1162.58 1074.81 1162.45 1074.98 1162.45 1075.2C1162.55 1075.02 1162.68 1074.94 1162.87 1075.02C1163.02 1075.08 1163.07 1075.21 1163.04 1075.37C1163.01 1075.61 1162.84 1075.65 1162.6 1075.64H1162.6Z" fill="#F2F2F2"/>
<path d="M1218.92 1050.61C1219.63 1051.1 1220.45 1051.46 1220.88 1052.38C1220.41 1052.62 1219.98 1052.86 1219.53 1053.05C1218.66 1053.44 1217.75 1053.7 1216.8 1053.75C1216.02 1053.78 1215.28 1053.64 1214.59 1053.23C1214.52 1053.19 1214.43 1053.17 1214.35 1053.16C1213.19 1053.06 1212.03 1052.96 1210.87 1052.86C1210.83 1052.86 1210.8 1052.86 1210.74 1052.86C1211.1 1053.57 1211.45 1054.25 1211.83 1054.99C1211.63 1054.99 1211.51 1055.01 1211.39 1054.99C1210.46 1054.87 1209.68 1054.41 1208.95 1053.82C1208.65 1053.58 1208.38 1053.29 1208.08 1053.04C1207.88 1052.89 1207.66 1052.75 1207.43 1052.67C1206.59 1052.4 1205.75 1052.1 1205.04 1051.54C1204.26 1050.93 1203.48 1050.3 1202.75 1049.62C1202.32 1049.22 1202.09 1048.66 1202.01 1048.05C1201.97 1047.74 1202.09 1047.47 1202.44 1047.42C1202.97 1047.34 1203.45 1047.09 1203.9 1046.76C1204.72 1046.15 1205.51 1045.48 1206.39 1044.97C1207.02 1044.61 1207.47 1044.09 1207.96 1043.58C1208.46 1043.06 1209.07 1042.65 1209.7 1042.32C1210.11 1042.39 1210.38 1041.93 1210.81 1042.01C1211.2 1042.08 1211.6 1042.1 1211.99 1042.15C1213.07 1042.29 1214.14 1042.48 1215.16 1042.88C1215.32 1042.95 1215.5 1043 1215.63 1043.1C1215.85 1043.27 1216.05 1043.28 1216.28 1043.15C1216.5 1043.04 1216.71 1043.06 1216.97 1043.13C1217.77 1043.37 1218.6 1043.51 1219.4 1043.73C1220 1043.9 1220.59 1044.15 1221.18 1044.36C1221.29 1044.41 1221.4 1044.49 1221.53 1044.56C1221.22 1045.05 1220.82 1045.4 1220.34 1045.7C1220.45 1045.7 1220.55 1045.71 1220.65 1045.72C1220.66 1045.74 1220.67 1045.75 1220.67 1045.77C1220.61 1045.8 1220.55 1045.84 1220.43 1045.9C1220.59 1045.95 1220.67 1045.98 1220.81 1046.02C1220.65 1046.26 1220.5 1046.49 1220.32 1046.76C1220.42 1046.7 1220.47 1046.67 1220.53 1046.64C1221.44 1046.14 1222.36 1045.63 1223.27 1045.14C1223.41 1045.06 1223.57 1045.01 1223.72 1044.99C1224.1 1044.92 1224.35 1045.12 1224.36 1045.52C1224.38 1045.94 1224.51 1046.29 1224.7 1046.64C1224.8 1046.83 1224.87 1047.07 1224.85 1047.27C1224.8 1047.74 1224.91 1048.23 1224.7 1048.68C1224.67 1048.76 1224.71 1048.91 1224.76 1049C1225.03 1049.42 1225.04 1049.88 1224.95 1050.35C1224.84 1050.94 1224.6 1051.48 1224.2 1051.92C1223.79 1052.36 1223.34 1052.47 1222.82 1052.22C1221.86 1051.77 1220.91 1051.28 1219.95 1050.83C1219.63 1050.68 1219.28 1050.62 1218.95 1050.52L1218.92 1050.61L1218.92 1050.61ZM1206.54 1046.89C1206.6 1046.99 1206.63 1047.04 1206.67 1047.09C1207.06 1047.74 1207.19 1048.41 1206.82 1049.11C1206.58 1049.56 1206.33 1050 1206.08 1050.45C1206.04 1050.52 1206 1050.58 1205.97 1050.64C1205.98 1050.65 1206 1050.67 1206.02 1050.68C1206.68 1050.03 1207.18 1049.27 1207.33 1048.31C1207.42 1047.74 1207.1 1047.17 1206.54 1046.89ZM1203.75 1048.11C1204.01 1048.3 1204.26 1048.29 1204.44 1048.12C1204.62 1047.94 1204.67 1047.66 1204.55 1047.43C1204.44 1047.2 1204.2 1047.09 1203.96 1047.15C1203.73 1047.21 1203.59 1047.39 1203.59 1047.63C1203.7 1047.44 1203.84 1047.35 1204.05 1047.43C1204.21 1047.5 1204.26 1047.65 1204.24 1047.82C1204.2 1048.08 1204.01 1048.12 1203.75 1048.11H1203.75Z" fill="#E0E0E0"/>
<path d="M1227.24 1033.62C1227.8 1034 1228.44 1034.28 1228.77 1034.99C1228.41 1035.17 1228.07 1035.35 1227.72 1035.5C1227.04 1035.8 1226.33 1036 1225.58 1036.04C1224.97 1036.06 1224.39 1035.95 1223.85 1035.64C1223.8 1035.61 1223.73 1035.59 1223.67 1035.58C1222.76 1035.51 1221.85 1035.43 1220.94 1035.36C1220.91 1035.35 1220.88 1035.36 1220.84 1035.36C1221.12 1035.9 1221.4 1036.42 1221.7 1037C1221.54 1037 1221.44 1037.01 1221.35 1036.99C1220.62 1036.9 1220.01 1036.54 1219.44 1036.1C1219.2 1035.91 1218.99 1035.68 1218.76 1035.49C1218.6 1035.38 1218.43 1035.27 1218.25 1035.21C1217.59 1035 1216.94 1034.77 1216.38 1034.34C1215.77 1033.87 1215.16 1033.38 1214.59 1032.86C1214.25 1032.56 1214.07 1032.13 1214.01 1031.66C1213.97 1031.42 1214.07 1031.21 1214.34 1031.17C1214.76 1031.11 1215.14 1030.91 1215.49 1030.66C1216.13 1030.19 1216.75 1029.67 1217.44 1029.28C1217.93 1029 1218.28 1028.61 1218.66 1028.22C1219.06 1027.82 1219.53 1027.5 1220.03 1027.24C1220.35 1027.3 1220.56 1026.95 1220.89 1027.01C1221.2 1027.06 1221.51 1027.08 1221.82 1027.12C1222.66 1027.22 1223.5 1027.37 1224.3 1027.68C1224.43 1027.73 1224.56 1027.77 1224.67 1027.85C1224.84 1027.98 1224.99 1027.98 1225.17 1027.89C1225.35 1027.8 1225.51 1027.81 1225.71 1027.87C1226.34 1028.05 1226.99 1028.16 1227.62 1028.33C1228.09 1028.46 1228.55 1028.65 1229.01 1028.82C1229.1 1028.85 1229.18 1028.91 1229.29 1028.97C1229.04 1029.35 1228.73 1029.61 1228.36 1029.84C1228.44 1029.85 1228.51 1029.86 1228.59 1029.86C1228.6 1029.87 1228.61 1029.89 1228.61 1029.9C1228.56 1029.93 1228.51 1029.95 1228.43 1030C1228.55 1030.04 1228.62 1030.06 1228.72 1030.09C1228.59 1030.28 1228.48 1030.45 1228.33 1030.66C1228.41 1030.62 1228.46 1030.59 1228.5 1030.57C1229.22 1030.18 1229.93 1029.79 1230.65 1029.41C1230.76 1029.36 1230.88 1029.32 1231 1029.3C1231.29 1029.25 1231.49 1029.4 1231.5 1029.71C1231.51 1030.03 1231.62 1030.3 1231.77 1030.57C1231.84 1030.71 1231.9 1030.9 1231.88 1031.06C1231.84 1031.42 1231.93 1031.79 1231.77 1032.14C1231.74 1032.2 1231.77 1032.32 1231.81 1032.38C1232.02 1032.71 1232.03 1033.06 1231.96 1033.42C1231.87 1033.88 1231.69 1034.29 1231.37 1034.63C1231.05 1034.97 1230.7 1035.05 1230.29 1034.86C1229.54 1034.51 1228.8 1034.14 1228.05 1033.79C1227.8 1033.68 1227.53 1033.63 1227.27 1033.55L1227.24 1033.62L1227.24 1033.62ZM1217.55 1030.76C1217.6 1030.84 1217.63 1030.88 1217.65 1030.92C1217.96 1031.41 1218.06 1031.93 1217.77 1032.47C1217.59 1032.82 1217.39 1033.16 1217.19 1033.5C1217.17 1033.55 1217.13 1033.6 1217.1 1033.65C1217.12 1033.66 1217.13 1033.67 1217.14 1033.67C1217.66 1033.17 1218.05 1032.59 1218.17 1031.85C1218.24 1031.41 1217.99 1030.97 1217.55 1030.76ZM1215.37 1031.7C1215.58 1031.85 1215.77 1031.84 1215.91 1031.71C1216.05 1031.57 1216.09 1031.35 1216 1031.17C1215.91 1031 1215.72 1030.92 1215.53 1030.96C1215.36 1031.01 1215.24 1031.15 1215.24 1031.33C1215.33 1031.18 1215.44 1031.11 1215.6 1031.18C1215.73 1031.23 1215.77 1031.34 1215.75 1031.48C1215.72 1031.68 1215.57 1031.71 1215.37 1031.7H1215.37Z" fill="#F2F2F2"/>
<path d="M1205.54 1020.92C1206.53 1021.6 1207.67 1022.1 1208.27 1023.38C1207.62 1023.7 1207.01 1024.03 1206.39 1024.31C1205.18 1024.84 1203.92 1025.21 1202.6 1025.27C1201.51 1025.32 1200.47 1025.12 1199.51 1024.55C1199.42 1024.49 1199.3 1024.46 1199.19 1024.45C1197.57 1024.31 1195.96 1024.18 1194.34 1024.04C1194.29 1024.04 1194.24 1024.04 1194.17 1024.04C1194.67 1025.01 1195.15 1025.96 1195.68 1026.99C1195.4 1026.99 1195.23 1027.01 1195.06 1026.99C1193.77 1026.82 1192.69 1026.18 1191.68 1025.37C1191.25 1025.03 1190.88 1024.63 1190.45 1024.29C1190.18 1024.08 1189.88 1023.88 1189.56 1023.78C1188.38 1023.41 1187.22 1022.99 1186.23 1022.21C1185.14 1021.36 1184.06 1020.49 1183.05 1019.55C1182.45 1019 1182.13 1018.23 1182.01 1017.38C1181.95 1016.95 1182.12 1016.57 1182.61 1016.5C1183.34 1016.39 1184.02 1016.04 1184.64 1015.59C1185.79 1014.75 1186.89 1013.81 1188.11 1013.11C1188.99 1012.61 1189.61 1011.9 1190.29 1011.19C1190.99 1010.47 1191.83 1009.91 1192.72 1009.44C1193.29 1009.54 1193.67 1008.91 1194.25 1009.01C1194.8 1009.11 1195.35 1009.14 1195.9 1009.21C1197.4 1009.4 1198.89 1009.67 1200.31 1010.22C1200.53 1010.31 1200.78 1010.39 1200.97 1010.53C1201.27 1010.76 1201.54 1010.77 1201.86 1010.6C1202.17 1010.43 1202.47 1010.47 1202.82 1010.57C1203.94 1010.89 1205.09 1011.09 1206.21 1011.4C1207.05 1011.63 1207.86 1011.97 1208.68 1012.27C1208.84 1012.33 1208.99 1012.44 1209.18 1012.55C1208.74 1013.23 1208.19 1013.71 1207.52 1014.12C1207.66 1014.13 1207.8 1014.14 1207.94 1014.15C1207.96 1014.17 1207.97 1014.19 1207.98 1014.21C1207.89 1014.27 1207.8 1014.32 1207.65 1014.4C1207.87 1014.47 1207.98 1014.51 1208.17 1014.57C1207.94 1014.9 1207.74 1015.21 1207.48 1015.59C1207.62 1015.51 1207.7 1015.46 1207.78 1015.42C1209.05 1014.73 1210.32 1014.03 1211.6 1013.34C1211.79 1013.24 1212.01 1013.17 1212.22 1013.14C1212.74 1013.05 1213.1 1013.33 1213.12 1013.88C1213.13 1014.45 1213.32 1014.94 1213.58 1015.43C1213.72 1015.68 1213.82 1016.02 1213.79 1016.3C1213.72 1016.95 1213.87 1017.63 1213.59 1018.26C1213.54 1018.37 1213.59 1018.57 1213.67 1018.69C1214.04 1019.27 1214.05 1019.92 1213.93 1020.56C1213.78 1021.38 1213.45 1022.13 1212.88 1022.74C1212.32 1023.34 1211.69 1023.49 1210.96 1023.15C1209.63 1022.52 1208.31 1021.84 1206.97 1021.22C1206.54 1021.02 1206.05 1020.93 1205.58 1020.79L1205.54 1020.92L1205.54 1020.92ZM1188.31 1015.77C1188.4 1015.91 1188.45 1015.98 1188.49 1016.05C1189.03 1016.95 1189.22 1017.88 1188.7 1018.85C1188.37 1019.47 1188.02 1020.08 1187.68 1020.7C1187.63 1020.79 1187.57 1020.88 1187.52 1020.97C1187.54 1020.98 1187.57 1021 1187.59 1021.01C1188.51 1020.11 1189.21 1019.07 1189.42 1017.73C1189.54 1016.94 1189.09 1016.15 1188.31 1015.77ZM1184.43 1017.46C1184.8 1017.73 1185.14 1017.71 1185.39 1017.47C1185.65 1017.23 1185.72 1016.83 1185.55 1016.51C1185.4 1016.21 1185.06 1016.05 1184.73 1016.13C1184.41 1016.21 1184.21 1016.47 1184.21 1016.8C1184.36 1016.53 1184.57 1016.4 1184.85 1016.52C1185.08 1016.62 1185.15 1016.82 1185.11 1017.06C1185.06 1017.42 1184.8 1017.48 1184.43 1017.46H1184.43Z" fill="#F2F2F2"/>
<path d="M1507.01 97.126C1507.03 97.2492 1507.04 97.3146 1507.06 97.3795C1507.08 96.9972 1507.47 97.028 1507.66 96.8226C1507.74 96.8814 1507.82 96.9323 1507.89 96.9832C1507.62 96.6923 1508.05 96.5803 1508.06 96.3278C1507.93 96.3203 1507.8 96.3133 1507.63 96.303C1507.74 96.2157 1507.82 96.1383 1507.91 96.0972C1508.09 96.0174 1508.12 95.8895 1508.03 95.7433C1507.89 95.5384 1507.77 95.2976 1507.58 95.1622C1506.49 94.392 1505.4 93.6241 1504.28 92.9048C1503.52 92.416 1502.62 92.2699 1501.74 92.0916C1501.03 91.9455 1500.31 91.8414 1499.57 91.9128C1499.5 91.9198 1499.4 91.8493 1499.35 91.7891C1498.95 91.3671 1498.55 90.9377 1498.16 90.5129C1498.07 90.4223 1497.98 90.3355 1497.89 90.2543C1497.66 90.0536 1497.53 90.0531 1497.34 90.2935C1496.8 90.9853 1496.06 91.3746 1495.27 91.6995C1494.02 92.2162 1492.76 92.7367 1491.51 93.2567C1491.43 93.2889 1491.36 93.33 1491.28 93.3669C1491.28 93.3902 1491.28 93.4136 1491.27 93.4364C1491.62 93.5317 1491.97 93.6269 1492.38 93.7375C1492.22 93.8071 1492.11 93.872 1492 93.906C1491.27 94.1175 1490.53 94.2599 1489.77 94.2683C1489.35 94.2729 1488.98 94.1287 1488.6 93.8934C1487.99 93.5121 1487.34 93.1918 1486.68 92.9062C1486.17 92.6858 1485.63 92.5495 1485.09 92.3941C1484.96 92.3558 1484.81 92.3885 1484.64 92.3885C1484.74 92.7722 1484.92 93.0845 1485.16 93.3618C1485.56 93.8299 1485.97 94.2995 1486.37 94.7687C1486.41 94.8098 1486.44 94.8518 1486.48 94.8952C1486.74 95.2616 1486.72 95.3596 1486.39 95.6738C1486.06 95.9945 1485.74 96.339 1485.44 96.6895C1485.13 97.0466 1484.84 97.4229 1484.55 97.794C1484.48 97.8822 1484.43 97.9854 1484.35 98.1119C1484.8 98.272 1485.21 98.2851 1485.61 98.1399C1486.59 97.7912 1487.56 97.4472 1488.52 97.062C1489.33 96.7344 1490.15 96.7437 1490.98 96.9075C1491.22 96.9528 1491.44 97.021 1491.67 97.1283C1491.47 97.1675 1491.27 97.1997 1491.07 97.2483C1490.85 97.302 1490.74 97.4411 1490.84 97.6213C1491.08 98.0615 1491.01 98.5614 1491.15 99.0161C1491.22 99.207 1491.26 99.4035 1491.32 99.5958C1491.36 99.7368 1491.45 99.7788 1491.59 99.7032C1492.34 99.2761 1493 98.7542 1493.36 97.927C1493.41 97.8089 1493.45 97.7338 1493.61 97.7706C1494.87 98.068 1496.15 98.2823 1497.45 98.3336C1497.49 98.3355 1497.53 98.3513 1497.57 98.4018C1497.44 98.426 1497.31 98.4484 1497.17 98.475C1496.89 98.5315 1496.73 98.7075 1496.75 98.996C1496.8 99.6187 1497.13 100.082 1497.64 100.415C1497.81 100.522 1498 100.506 1498.12 100.33C1498.33 100.014 1498.53 99.6934 1498.7 99.3573C1498.85 99.0697 1498.95 98.7575 1499.08 98.4312C1501.75 98.3 1504.43 98.0946 1507.01 97.1246L1507.01 97.126ZM1506.2 94.9045C1506.25 94.9671 1506.29 95.0296 1506.34 95.0922C1506.43 95.2719 1506.36 95.425 1506.25 95.5636C1506.08 95.7868 1505.74 95.8101 1505.53 95.6234C1505.31 95.4325 1505.29 95.0828 1505.49 94.8751C1505.7 94.6678 1506.01 94.6809 1506.2 94.905V94.9045ZM1503.85 97.6693C1502.82 97.0943 1502.39 95.7172 1503.62 94.2818C1503.56 94.4139 1503.53 94.4807 1503.51 94.5511C1503.41 94.891 1503.29 95.2271 1503.22 95.5734C1503.06 96.3731 1503.11 97.1237 1503.85 97.6693Z" fill="#F2F2F2"/>
<path d="M1506.34 95.0924C1506.29 95.0299 1506.25 94.9673 1506.2 94.9048C1506.14 94.8842 1506.08 94.8333 1506.03 94.8492C1505.9 94.895 1505.73 94.9388 1505.68 95.0383C1505.62 95.1391 1505.64 95.3403 1505.72 95.4318C1505.78 95.513 1505.97 95.548 1506.09 95.5251C1506.3 95.4831 1506.35 95.2936 1506.34 95.0924Z" fill="#F2F2F2"/>
<path d="M1527.22 111.442C1527.25 111.591 1527.26 111.67 1527.28 111.748C1527.31 111.287 1527.78 111.324 1528 111.076C1528.11 111.147 1528.2 111.209 1528.29 111.27C1527.95 110.919 1528.48 110.784 1528.48 110.479C1528.33 110.47 1528.18 110.462 1527.96 110.449C1528.11 110.344 1528.2 110.25 1528.31 110.201C1528.53 110.104 1528.57 109.95 1528.45 109.774C1528.29 109.526 1528.14 109.236 1527.91 109.072C1526.6 108.143 1525.28 107.216 1523.93 106.348C1523.01 105.758 1521.92 105.582 1520.86 105.367C1520 105.19 1519.13 105.065 1518.24 105.151C1518.16 105.159 1518.04 105.074 1517.97 105.002C1517.49 104.492 1517.02 103.974 1516.54 103.461C1516.43 103.352 1516.33 103.247 1516.21 103.149C1515.93 102.907 1515.78 102.906 1515.55 103.197C1514.9 104.031 1514.01 104.501 1513.05 104.893C1511.54 105.517 1510.03 106.145 1508.51 106.773C1508.42 106.812 1508.33 106.861 1508.24 106.906C1508.24 106.934 1508.23 106.962 1508.23 106.99C1508.65 107.105 1509.07 107.219 1509.56 107.353C1509.37 107.437 1509.24 107.515 1509.1 107.556C1508.23 107.812 1507.33 107.983 1506.42 107.994C1505.9 107.999 1505.46 107.825 1505.01 107.541C1504.27 107.081 1503.48 106.694 1502.69 106.35C1502.07 106.084 1501.41 105.919 1500.77 105.732C1500.61 105.685 1500.42 105.725 1500.22 105.725C1500.35 106.188 1500.56 106.565 1500.85 106.899C1501.34 107.465 1501.83 108.031 1502.32 108.597C1502.36 108.647 1502.4 108.698 1502.44 108.75C1502.76 109.192 1502.73 109.311 1502.34 109.69C1501.93 110.077 1501.55 110.493 1501.19 110.916C1500.82 111.347 1500.47 111.801 1500.12 112.249C1500.03 112.355 1499.97 112.48 1499.88 112.632C1500.42 112.825 1500.91 112.841 1501.4 112.666C1502.57 112.245 1503.75 111.83 1504.9 111.365C1505.88 110.97 1506.87 110.981 1507.88 111.179C1508.16 111.233 1508.43 111.316 1508.71 111.445C1508.47 111.493 1508.22 111.531 1507.98 111.59C1507.72 111.655 1507.59 111.823 1507.71 112.04C1508 112.571 1507.91 113.175 1508.09 113.723C1508.16 113.954 1508.21 114.191 1508.28 114.423C1508.34 114.593 1508.45 114.644 1508.61 114.553C1509.52 114.037 1510.32 113.407 1510.74 112.409C1510.8 112.267 1510.86 112.176 1511.05 112.22C1512.57 112.579 1514.11 112.838 1515.68 112.9C1515.73 112.902 1515.78 112.921 1515.83 112.982C1515.67 113.011 1515.51 113.038 1515.35 113.07C1515 113.139 1514.81 113.351 1514.84 113.699C1514.9 114.451 1515.3 115.01 1515.92 115.412C1516.12 115.541 1516.35 115.522 1516.49 115.309C1516.74 114.928 1516.99 114.541 1517.2 114.135C1517.37 113.788 1517.49 113.411 1517.65 113.018C1520.87 112.859 1524.11 112.611 1527.22 111.441L1527.22 111.442ZM1526.25 108.761C1526.3 108.837 1526.36 108.912 1526.41 108.988C1526.53 109.205 1526.43 109.39 1526.31 109.557C1526.1 109.826 1525.69 109.854 1525.43 109.629C1525.17 109.399 1525.15 108.977 1525.39 108.726C1525.63 108.476 1526.02 108.492 1526.25 108.762V108.761ZM1523.41 112.098C1522.17 111.404 1521.65 109.742 1523.12 108.01C1523.06 108.169 1523.02 108.25 1523 108.335C1522.88 108.745 1522.73 109.151 1522.65 109.569C1522.45 110.534 1522.51 111.44 1523.41 112.098Z" fill="#E0E0E0"/>
<path d="M1526.41 108.988C1526.35 108.912 1526.3 108.837 1526.25 108.761C1526.18 108.737 1526.09 108.675 1526.04 108.694C1525.88 108.75 1525.68 108.802 1525.61 108.922C1525.55 109.044 1525.57 109.287 1525.66 109.397C1525.74 109.495 1525.96 109.538 1526.1 109.51C1526.37 109.459 1526.42 109.231 1526.41 108.988Z" fill="#E0E0E0"/>
<path d="M1488.34 124.237C1488.36 124.331 1488.37 124.381 1488.38 124.431C1488.4 124.138 1488.7 124.162 1488.84 124.005C1488.9 124.05 1488.96 124.089 1489.02 124.127C1488.81 123.905 1489.14 123.819 1489.14 123.626C1489.04 123.62 1488.95 123.615 1488.81 123.607C1488.9 123.54 1488.96 123.481 1489.03 123.449C1489.17 123.388 1489.2 123.29 1489.12 123.178C1489.02 123.022 1488.92 122.837 1488.78 122.734C1487.95 122.144 1487.11 121.556 1486.25 121.006C1485.67 120.631 1484.98 120.52 1484.31 120.383C1483.76 120.271 1483.21 120.192 1482.65 120.246C1482.59 120.252 1482.52 120.198 1482.48 120.152C1482.17 119.828 1481.87 119.5 1481.57 119.175C1481.5 119.105 1481.43 119.039 1481.36 118.977C1481.18 118.823 1481.09 118.823 1480.94 119.007C1480.53 119.536 1479.96 119.834 1479.36 120.083C1478.4 120.478 1477.44 120.877 1476.48 121.275C1476.42 121.3 1476.36 121.331 1476.3 121.359C1476.3 121.377 1476.3 121.395 1476.29 121.413C1476.56 121.485 1476.83 121.558 1477.14 121.643C1477.02 121.696 1476.94 121.746 1476.85 121.772C1476.29 121.934 1475.73 122.043 1475.15 122.049C1474.82 122.053 1474.54 121.942 1474.25 121.762C1473.79 121.47 1473.29 121.225 1472.78 121.007C1472.39 120.838 1471.97 120.734 1471.56 120.615C1471.46 120.585 1471.35 120.61 1471.21 120.61C1471.3 120.904 1471.43 121.143 1471.61 121.355C1471.92 121.714 1472.24 122.073 1472.55 122.432C1472.57 122.464 1472.6 122.496 1472.62 122.529C1472.83 122.81 1472.81 122.885 1472.56 123.125C1472.3 123.371 1472.06 123.634 1471.83 123.903C1471.59 124.176 1471.37 124.464 1471.15 124.748C1471.1 124.816 1471.06 124.895 1471 124.991C1471.34 125.114 1471.65 125.124 1471.96 125.013C1472.71 124.746 1473.45 124.483 1474.19 124.188C1474.81 123.937 1475.44 123.944 1476.07 124.07C1476.25 124.104 1476.43 124.156 1476.6 124.239C1476.45 124.269 1476.29 124.293 1476.14 124.33C1475.97 124.372 1475.89 124.478 1475.97 124.616C1476.15 124.953 1476.09 125.336 1476.21 125.684C1476.25 125.83 1476.29 125.98 1476.33 126.127C1476.36 126.235 1476.43 126.268 1476.54 126.21C1477.11 125.883 1477.62 125.483 1477.89 124.85C1477.93 124.76 1477.96 124.702 1478.08 124.73C1479.05 124.958 1480.03 125.122 1481.02 125.161C1481.06 125.163 1481.09 125.175 1481.12 125.213C1481.02 125.232 1480.91 125.249 1480.81 125.269C1480.59 125.313 1480.47 125.447 1480.49 125.668C1480.53 126.145 1480.78 126.5 1481.17 126.755C1481.3 126.837 1481.45 126.824 1481.54 126.689C1481.7 126.448 1481.85 126.202 1481.98 125.945C1482.1 125.725 1482.17 125.486 1482.27 125.236C1484.32 125.135 1486.37 124.978 1488.34 124.236L1488.34 124.237ZM1487.72 122.536C1487.76 122.584 1487.79 122.632 1487.83 122.68C1487.9 122.818 1487.84 122.935 1487.76 123.041C1487.63 123.212 1487.37 123.23 1487.21 123.087C1487.04 122.94 1487.03 122.673 1487.18 122.514C1487.34 122.355 1487.58 122.365 1487.72 122.537V122.536ZM1485.92 124.653C1485.14 124.213 1484.81 123.158 1485.74 122.06C1485.7 122.161 1485.68 122.212 1485.66 122.266C1485.59 122.526 1485.49 122.783 1485.44 123.048C1485.32 123.66 1485.35 124.235 1485.92 124.653Z" fill="#F2F2F2"/>
<path d="M1499.94 125.707C1499.9 125.659 1499.87 125.611 1499.83 125.563C1499.79 125.548 1499.74 125.509 1499.7 125.521C1499.6 125.556 1499.47 125.589 1499.43 125.666C1499.39 125.743 1499.4 125.897 1499.46 125.967C1499.51 126.029 1499.65 126.056 1499.74 126.038C1499.91 126.006 1499.94 125.861 1499.94 125.707Z" fill="#F2F2F2"/>
<path d="M1558.57 89.3153C1558.6 89.514 1558.63 89.6194 1558.65 89.724C1558.69 89.1076 1559.32 89.1572 1559.62 88.8261C1559.75 88.9209 1559.87 89.0029 1559.99 89.085C1559.55 88.6161 1560.25 88.4354 1560.26 88.0283C1560.05 88.0162 1559.85 88.0049 1559.56 87.9884C1559.75 87.8476 1559.88 87.7227 1560.02 87.6565C1560.32 87.5278 1560.37 87.3215 1560.21 87.086C1559.99 86.7555 1559.8 86.3672 1559.49 86.1489C1557.73 84.9071 1555.98 83.669 1554.17 82.5091C1552.94 81.7211 1551.49 81.4855 1550.08 81.198C1548.92 80.9624 1547.76 80.7946 1546.57 80.9098C1546.46 80.9211 1546.31 80.8074 1546.21 80.7103C1545.57 80.0299 1544.94 79.3375 1544.3 78.6526C1544.16 78.5066 1544.02 78.3666 1543.86 78.2356C1543.49 77.912 1543.29 77.9112 1542.98 78.2988C1542.11 79.4143 1540.91 80.042 1539.64 80.5658C1537.62 81.399 1535.6 82.2382 1533.58 83.0766C1533.45 83.1286 1533.33 83.1948 1533.21 83.2542C1533.21 83.2919 1533.2 83.3295 1533.19 83.3664C1533.76 83.5199 1534.32 83.6735 1534.97 83.8518C1534.72 83.964 1534.55 84.0686 1534.36 84.1235C1533.19 84.4645 1532 84.6941 1530.78 84.7076C1530.09 84.7151 1529.49 84.4826 1528.89 84.1032C1527.91 83.4883 1526.86 82.972 1525.79 82.5114C1524.97 82.1561 1524.09 81.9364 1523.23 81.6857C1523.02 81.624 1522.77 81.6767 1522.49 81.6767C1522.67 82.2954 1522.95 82.7989 1523.34 83.246C1523.99 84.0009 1524.64 84.758 1525.3 85.5144C1525.36 85.5807 1525.41 85.6484 1525.46 85.7184C1525.9 86.3092 1525.85 86.4673 1525.32 86.9738C1524.78 87.4909 1524.28 88.0463 1523.79 88.6116C1523.29 89.1873 1522.83 89.794 1522.36 90.3923C1522.25 90.5346 1522.17 90.7009 1522.04 90.9049C1522.76 91.163 1523.42 91.1841 1524.07 90.95C1525.64 90.3878 1527.21 89.8331 1528.75 89.2122C1530.06 88.6838 1531.38 88.6989 1532.73 88.963C1533.1 89.0361 1533.47 89.1459 1533.84 89.319C1533.51 89.3823 1533.19 89.4342 1532.87 89.5125C1532.51 89.599 1532.35 89.8233 1532.5 90.1138C1532.89 90.8236 1532.77 91.6297 1533.01 92.3627C1533.11 92.6706 1533.18 92.9874 1533.27 93.2975C1533.34 93.5248 1533.49 93.5926 1533.7 93.4706C1534.92 92.782 1535.99 91.9405 1536.55 90.6068C1536.64 90.4164 1536.71 90.2952 1536.96 90.3547C1539 90.8341 1541.06 91.1796 1543.16 91.2624C1543.22 91.2654 1543.29 91.291 1543.36 91.3723C1543.14 91.4114 1542.92 91.4475 1542.71 91.4904C1542.25 91.5815 1541.99 91.8652 1542.03 92.3304C1542.11 93.3344 1542.64 94.0818 1543.47 94.6184C1543.74 94.7915 1544.05 94.7652 1544.24 94.4807C1544.57 93.9719 1544.9 93.4548 1545.18 92.9129C1545.42 92.4493 1545.57 91.9458 1545.78 91.4197C1550.09 91.2082 1554.42 90.877 1558.57 89.313L1558.57 89.3153ZM1557.27 85.7335C1557.34 85.8343 1557.41 85.9352 1557.49 86.036C1557.64 86.3258 1557.52 86.5727 1557.35 86.7962C1557.08 87.1559 1556.53 87.1936 1556.18 86.8925C1555.83 86.5847 1555.8 86.021 1556.13 85.686C1556.45 85.3519 1556.96 85.3729 1557.27 85.7342V85.7335ZM1553.48 90.1914C1551.82 89.2641 1551.12 87.0438 1553.1 84.7294C1553.01 84.9424 1552.96 85.0501 1552.93 85.1637C1552.77 85.7116 1552.57 86.2535 1552.46 86.812C1552.2 88.1013 1552.27 89.3115 1553.48 90.1914Z" fill="#F2F2F2"/>
<path d="M1557.49 86.0357C1557.41 85.9348 1557.34 85.834 1557.27 85.7331C1557.18 85.7 1557.06 85.6179 1556.99 85.6435C1556.78 85.7173 1556.51 85.788 1556.42 85.9484C1556.33 86.1109 1556.37 86.4353 1556.48 86.5828C1556.59 86.7138 1556.89 86.7702 1557.08 86.7334C1557.43 86.6656 1557.51 86.3601 1557.49 86.0357Z" fill="#F2F2F2"/>
</svg>
