<svg width="1920" height="1024" viewBox="0 0 1920 1024" fill="none" xmlns="http://www.w3.org/2000/svg">
<path d="M242.657 993.65C244.569 993.337 246.608 993.343 248.379 992.658C262.177 987.321 274.165 979.648 281.786 966.413C284.388 961.901 287.092 957.447 289.848 953.025C290.794 951.508 292.028 950.164 293.16 948.769C294.458 947.169 295.947 946.945 297.961 947.655C323.389 956.57 349.199 964.032 375.873 968.237C376.072 968.269 376.244 968.416 376.903 968.742C366.628 985.145 355.177 1000.82 346.879 1018.33C347.134 1018.55 347.384 1018.78 347.639 1019C349.768 1017.08 352.025 1015.28 353.995 1013.21C366.769 999.833 379.518 986.425 392.183 972.941C393.788 971.238 395.323 970.477 397.701 970.682C424.081 972.947 448.83 967.245 472.301 955.284C473.407 954.72 475.005 954.336 476.118 954.688C485.958 957.767 495.733 961.056 505.554 964.224C511.142 966.029 515.879 969.152 520.131 973.12C521.103 974.029 522.228 974.765 523.692 975.353C524.198 967.354 522.593 959.796 517.497 953.773C512.625 948.02 506.692 943.162 501.2 937.889C509.716 932.737 517.203 925.339 524.383 917.704C529.83 911.919 534.741 905.608 539.657 899.349C543.25 894.78 543.883 889.743 540.137 883.817C541.678 882.563 543.487 881.385 544.932 879.862C560.276 863.767 564.893 844.369 562.335 822.808C562.239 821.976 561.971 821.15 561.709 820.344C560.014 815.109 558.448 814.021 553.295 815.781C546.658 818.04 540.239 820.914 533.66 823.339C519.601 828.523 505.535 833.694 491.411 838.686C479.475 842.903 468.593 849.117 458.126 856.048C449.534 861.738 441.247 867.894 432.942 874C431.222 875.267 430.001 875.382 428.147 874.377C417.572 868.624 406.224 865.763 394.178 865.834C392.075 865.847 389.914 866.077 387.9 866.627C385.732 867.216 385.489 868.906 387.19 870.41C387.893 871.037 388.839 871.376 389.607 871.946C393.181 874.595 397.017 876.982 400.188 880.06C402.394 882.204 404.082 885.136 405.265 888.015C407.489 893.417 407.016 894.326 402.375 897.775C388.782 907.874 374.761 917.365 359.41 924.571C341.124 933.153 321.835 935.643 301.83 932.526C296.536 931.7 291.875 929.672 287.674 926.382C275.117 916.558 262.541 906.748 249.92 897.001C247.484 895.119 244.888 893.43 242.229 891.887C241.378 891.395 240.087 891.65 239 891.567C239.205 892.61 239.051 893.999 239.671 894.652C251.8 907.394 256.614 924.526 266.256 938.753C266.639 939.323 267.01 940.212 266.844 940.801C264.542 948.961 262.445 957.191 259.696 965.203C256.876 973.446 251.781 980.441 246.142 987.027C244.658 988.761 243.36 990.655 241.979 992.473C242.203 992.87 242.433 993.266 242.657 993.663V993.65Z" fill="#F2F2F2"/>
<path d="M1012.15 182.559C1011.66 183.774 1011.21 184.52 1011.05 185.321C1010.47 188.357 1009.66 191.398 1009.58 194.454C1009.51 197.041 1011.55 198.514 1014.2 198.664C1017.27 198.833 1019.92 197.773 1022.18 195.807C1025.8 192.672 1027.98 188.775 1028.94 184.018C1031.04 173.671 1035.23 164.181 1041.91 155.944C1043.58 153.889 1045.92 152.266 1048.21 150.858C1051.79 148.648 1055.67 146.902 1059.29 144.742C1062.65 142.746 1062.83 141.253 1060 138.591C1056.57 135.366 1053.08 132.171 1049.33 129.334C1043.41 124.845 1036.52 124.104 1029.45 125.577C1025.25 126.448 1021.98 128.881 1019.8 132.763C1017.98 135.993 1015.96 139.138 1013.73 142.094C1011.87 144.553 1009.11 145.533 1005.99 145.12C1003.19 144.747 1001.42 142.751 1001.07 139.72C1000.68 136.331 1001.98 133.813 1005.19 132.519C1004.89 133.445 1004.75 134.087 1004.47 134.674C1004.05 135.565 1003.19 136.406 1003.16 137.287C1003.12 138.591 1003.26 140.288 1004.06 141.104C1004.69 141.746 1006.57 141.676 1007.65 141.278C1011.6 139.825 1014.32 136.685 1015.96 133.101C1020.93 122.222 1030.52 120.247 1040.86 119.794C1043.49 119.679 1046.19 120.675 1048.8 121.366C1054.24 122.805 1059.63 124.382 1065.05 125.885C1065.39 125.98 1065.77 125.895 1066.24 125.507C1064.32 124.656 1062.43 123.72 1060.46 122.974C1052.66 119.993 1047.96 113.946 1044.48 106.795C1041.71 101.121 1037.15 99.8424 1031.78 103.446C1029.93 104.69 1028.05 105.904 1026.1 106.989C1024.64 107.805 1023.15 107.84 1021.55 105.929C1026.18 106.053 1028.9 103.047 1032.15 101.082C1037.94 97.5781 1042.16 98.4589 1045.93 104.053C1046.99 105.63 1047.94 107.278 1048.98 108.87C1054.69 117.669 1063.29 121.217 1073.31 122.242C1074.82 122.397 1075.4 121.939 1075.78 120.361C1076.74 116.375 1078.08 112.483 1079.17 108.527C1079.35 107.86 1079.29 106.84 1078.89 106.357C1076.78 103.809 1076.45 100.823 1076.46 97.7274C1076.48 94.8359 1076.65 91.9445 1076.57 89.058C1076.52 87.1619 1075.98 85.4301 1073.6 85.1663C1070.63 84.8378 1068.53 85.8829 1067.74 88.1971C1067.37 89.2919 1067.16 90.4465 1066.71 91.5016C1065.56 94.189 1062.34 95.4182 1059.03 93.7859C1064.59 94.0098 1065.04 90.3022 1066.17 86.9181C1067.17 83.9221 1070.59 82.5685 1074.54 83.1209C1077.41 83.524 1079.24 85.44 1079.56 88.7146C1079.79 91.0039 1079.75 93.318 1079.79 95.6222C1079.82 97.2745 1079.59 98.9466 1079.79 100.569C1080.16 103.376 1082.24 104.147 1084.54 102.609C1091.82 97.7522 1099.84 95.7467 1108.44 97.5631C1118.56 99.6981 1124.06 106.581 1126.34 116.32C1126.55 117.196 1126.71 118.082 1127.04 119.699C1129.15 118.216 1131.26 117.271 1132.59 115.678C1135.53 112.165 1139.24 110.05 1143.4 108.472C1145.34 107.74 1147.27 106.969 1149.13 106.073C1152.78 104.306 1153.57 102.46 1152.76 98.4689C1152.31 96.2145 1151.85 93.9202 1151.8 91.631C1151.73 88.7395 1154 86.719 1157.26 86.8235C1156.62 87.5501 1156.29 88.202 1155.75 88.5006C1153.58 89.7249 1153.2 91.6061 1153.63 93.8107C1153.86 94.9404 1154.15 96.0652 1154.46 97.1749C1155.68 101.46 1154.79 104.516 1151.15 107.133C1149.08 108.621 1146.87 110.293 1144.48 110.876C1139.9 111.985 1137.27 115.215 1134.31 118.346C1132.42 120.356 1130.04 121.904 1127.93 123.725C1127.3 124.273 1126.51 124.979 1126.39 125.711C1125.61 130.314 1123.54 134.356 1120.82 138.023C1118.88 140.646 1118.69 143.045 1120.5 145.702C1121.43 147.066 1122.23 148.524 1123.17 149.888C1126.02 154.043 1129.88 154.944 1134.08 152.137C1136.61 150.45 1138.97 148.444 1141.17 146.334C1146.38 141.328 1150.06 140.467 1156.65 143.204C1161.27 145.125 1165.83 145.001 1170.42 143.169C1170.96 142.955 1171.49 142.736 1172.02 142.537C1172.08 142.517 1172.17 142.582 1173 142.866C1171.68 143.761 1170.81 144.722 1169.75 145.011C1165.28 146.215 1160.77 146.245 1156.25 145.135C1154.41 144.682 1152.51 144.234 1150.64 144.239C1148.01 144.249 1145.78 145.299 1143.83 147.275C1140.64 150.49 1137.41 153.754 1133.76 156.377C1129.16 159.677 1126.22 159.209 1121.9 155.586C1121.34 155.113 1120.76 154.655 1119.77 153.844C1121.68 161.473 1124.51 168.028 1130.2 172.994C1132.74 175.209 1136.51 175.542 1139.03 173.97C1141.8 172.243 1142.4 169.486 1141.82 166.579C1141.17 163.3 1140.14 160.095 1139.16 156.442C1139.82 157.114 1140.51 157.547 1140.79 158.164C1142.64 162.369 1143.88 166.719 1143.29 171.377C1142.85 174.855 1140.8 176.856 1137.32 177.344C1132.47 178.026 1128.43 176.249 1125.3 172.755C1122.6 169.754 1120.33 166.37 1117.9 163.145C1116.5 161.299 1115.18 159.398 1113.76 157.567C1110.37 153.167 1105.95 152.411 1100.87 154.008C1095.62 155.656 1092.46 159.114 1091.62 164.549C1091.4 166.007 1091.6 167.53 1091.42 168.998C1090.8 173.97 1090.37 178.991 1089.34 183.883C1088.11 189.716 1086.59 195.464 1087.48 201.491C1087.64 202.551 1087.85 203.611 1088.18 204.626C1089.6 208.985 1092.36 210.414 1096.78 209.15C1100.66 208.04 1102 205.387 1101.24 201.077C1100.76 198.345 1100.42 195.514 1100.61 192.766C1100.78 190.358 1102.44 189.825 1104.45 191.313C1100.89 192.662 1102.02 195.24 1102.69 197.688C1103.01 198.883 1103.46 200.047 1103.72 201.257C1104.78 206.129 1102.37 210.817 1098.06 212.374C1093.35 214.076 1087.22 212.22 1085.42 207.841C1084.12 204.661 1083.43 200.978 1083.51 197.544C1083.66 191.458 1084.25 185.326 1085.32 179.334C1086.37 173.472 1084.53 168.744 1081.55 163.937C1076.17 155.233 1068.05 153.769 1058.74 154.307C1049.15 154.859 1043.49 160.592 1039.45 168.291C1036.66 173.601 1034.55 179.28 1032.36 184.883C1030.33 190.074 1028.37 195.29 1023.74 198.788C1022.19 199.953 1020.33 200.898 1018.46 201.401C1013.35 202.779 1008.58 199.769 1007.33 194.638C1006.28 190.348 1008.25 184.963 1012.13 182.594L1012.15 182.559Z" fill="#F2F2F2"/>
<path d="M460.542 115.92C461.532 116.6 462.672 117.1 463.265 118.379C462.615 118.703 462.014 119.033 461.39 119.307C460.177 119.839 458.919 120.206 457.595 120.266C456.508 120.316 455.471 120.119 454.512 119.548C454.417 119.491 454.297 119.462 454.187 119.453C452.571 119.312 450.956 119.176 449.341 119.041C449.29 119.037 449.239 119.041 449.167 119.041C449.666 120.013 450.153 120.964 450.68 121.992C450.403 121.992 450.231 122.011 450.064 121.99C448.774 121.824 447.687 121.177 446.676 120.372C446.252 120.035 445.879 119.626 445.453 119.29C445.185 119.078 444.879 118.881 444.561 118.781C443.383 118.406 442.22 117.989 441.226 117.212C440.14 116.362 439.064 115.488 438.046 114.551C437.448 114.001 437.128 113.226 437.011 112.382C436.952 111.954 437.123 111.573 437.608 111.5C438.343 111.39 439.022 111.044 439.64 110.591C440.789 109.749 441.889 108.814 443.111 108.112C443.987 107.608 444.608 106.896 445.291 106.194C445.993 105.472 446.83 104.907 447.715 104.438C448.287 104.542 448.665 103.906 449.252 104.012C449.798 104.111 450.355 104.137 450.905 104.209C452.403 104.404 453.887 104.667 455.309 105.224C455.535 105.312 455.776 105.386 455.967 105.53C456.267 105.757 456.544 105.768 456.864 105.598C457.173 105.433 457.468 105.466 457.822 105.569C458.941 105.891 460.092 106.086 461.213 106.399C462.049 106.634 462.86 106.97 463.679 107.273C463.842 107.333 463.989 107.444 464.177 107.549C463.738 108.226 463.187 108.707 462.522 109.118C462.663 109.129 462.804 109.142 462.945 109.154C462.957 109.174 462.969 109.194 462.981 109.215C462.892 109.265 462.803 109.315 462.648 109.403C462.869 109.472 462.983 109.508 463.168 109.566C462.942 109.905 462.737 110.212 462.482 110.592C462.622 110.512 462.701 110.464 462.781 110.42C464.052 109.726 465.321 109.028 466.596 108.343C466.789 108.24 467.008 108.172 467.222 108.136C467.745 108.049 468.098 108.326 468.115 108.881C468.133 109.453 468.322 109.939 468.585 110.427C468.722 110.682 468.816 111.019 468.787 111.303C468.72 111.952 468.872 112.625 468.588 113.255C468.539 113.366 468.592 113.573 468.665 113.689C469.036 114.274 469.055 114.916 468.933 115.562C468.777 116.383 468.45 117.129 467.882 117.736C467.315 118.342 466.692 118.494 465.964 118.15C464.629 117.521 463.314 116.844 461.974 116.224C461.535 116.021 461.048 115.933 460.583 115.792L460.542 115.924L460.542 115.92ZM443.312 110.768C443.401 110.909 443.447 110.982 443.491 111.054C444.034 111.947 444.219 112.875 443.703 113.851C443.374 114.475 443.021 115.083 442.678 115.699C442.627 115.791 442.571 115.879 442.518 115.97C442.542 115.984 442.566 115.998 442.591 116.012C443.509 115.113 444.208 114.068 444.419 112.733C444.543 111.944 444.092 111.152 443.312 110.768ZM439.431 112.458C439.803 112.726 440.143 112.71 440.391 112.474C440.649 112.227 440.716 111.83 440.553 111.514C440.395 111.206 440.055 111.049 439.729 111.132C439.409 111.214 439.208 111.466 439.213 111.799C439.364 111.525 439.566 111.404 439.848 111.523C440.077 111.619 440.149 111.821 440.114 112.058C440.06 112.42 439.797 112.479 439.432 112.458H439.431Z" fill="#E0E0E0"/>
<path d="M487.449 133.947C488.099 134.4 488.847 134.733 489.236 135.586C488.81 135.802 488.415 136.022 488.006 136.204C487.21 136.56 486.384 136.804 485.516 136.844C484.802 136.877 484.121 136.746 483.492 136.365C483.43 136.327 483.351 136.308 483.279 136.302C482.219 136.208 481.159 136.118 480.098 136.027C480.065 136.025 480.032 136.027 479.985 136.027C480.312 136.676 480.632 137.309 480.978 137.995C480.796 137.995 480.683 138.007 480.573 137.993C479.727 137.883 479.014 137.452 478.35 136.915C478.072 136.69 477.827 136.417 477.548 136.193C477.371 136.052 477.171 135.921 476.962 135.854C476.189 135.604 475.426 135.326 474.774 134.808C474.06 134.241 473.355 133.658 472.686 133.034C472.294 132.667 472.084 132.151 472.007 131.588C471.969 131.302 472.08 131.049 472.399 131C472.881 130.927 473.327 130.696 473.733 130.394C474.487 129.833 475.208 129.209 476.01 128.741C476.585 128.406 476.993 127.931 477.441 127.463C477.902 126.981 478.451 126.604 479.032 126.292C479.407 126.361 479.655 125.937 480.041 126.008C480.399 126.074 480.764 126.091 481.125 126.139C482.108 126.269 483.082 126.445 484.016 126.816C484.163 126.875 484.322 126.924 484.447 127.02C484.644 127.171 484.826 127.179 485.036 127.065C485.239 126.956 485.432 126.978 485.665 127.046C486.398 127.261 487.154 127.391 487.89 127.6C488.439 127.756 488.971 127.98 489.508 128.182C489.615 128.222 489.712 128.296 489.835 128.366C489.547 128.817 489.185 129.138 488.749 129.412C488.841 129.42 488.934 129.428 489.026 129.436C489.034 129.45 489.042 129.463 489.05 129.477C488.992 129.51 488.933 129.544 488.831 129.602C488.976 129.648 489.051 129.672 489.172 129.711C489.024 129.937 488.89 130.141 488.723 130.395C488.814 130.341 488.866 130.309 488.919 130.28C489.753 129.818 490.586 129.352 491.422 128.895C491.549 128.826 491.692 128.781 491.833 128.758C492.176 128.699 492.408 128.884 492.419 129.254C492.431 129.635 492.555 129.959 492.727 130.285C492.817 130.455 492.879 130.679 492.86 130.869C492.816 131.301 492.916 131.75 492.73 132.17C492.697 132.244 492.732 132.382 492.78 132.459C493.024 132.849 493.036 133.277 492.956 133.708C492.854 134.255 492.639 134.753 492.267 135.157C491.894 135.561 491.486 135.662 491.008 135.433C490.131 135.014 489.268 134.563 488.389 134.149C488.101 134.014 487.782 133.955 487.476 133.861L487.45 133.949L487.449 133.947ZM476.143 130.512C476.2 130.606 476.231 130.654 476.259 130.703C476.616 131.298 476.737 131.917 476.399 132.567C476.183 132.983 475.951 133.389 475.726 133.799C475.693 133.86 475.656 133.92 475.621 133.98C475.637 133.989 475.653 133.998 475.669 134.008C476.272 133.409 476.73 132.712 476.869 131.822C476.95 131.296 476.654 130.768 476.143 130.512ZM473.595 131.639C473.84 131.818 474.062 131.807 474.225 131.649C474.394 131.485 474.439 131.22 474.332 131.009C474.228 130.804 474.005 130.699 473.791 130.755C473.581 130.809 473.449 130.977 473.452 131.2C473.551 131.017 473.684 130.936 473.869 131.015C474.019 131.08 474.067 131.214 474.043 131.372C474.008 131.613 473.836 131.653 473.596 131.639H473.595Z" fill="#F2F2F2"/>
<path d="M529.92 106.609C530.632 107.1 531.452 107.461 531.878 108.385C531.411 108.619 530.979 108.858 530.531 109.055C529.658 109.44 528.754 109.704 527.803 109.748C527.022 109.784 526.276 109.641 525.586 109.229C525.518 109.188 525.432 109.167 525.353 109.16C524.192 109.059 523.031 108.961 521.87 108.863C521.834 108.86 521.797 108.863 521.745 108.863C522.104 109.565 522.454 110.251 522.833 110.995C522.634 110.995 522.51 111.008 522.389 110.993C521.463 110.873 520.682 110.406 519.955 109.824C519.65 109.581 519.382 109.285 519.076 109.042C518.883 108.89 518.663 108.748 518.434 108.675C517.588 108.404 516.752 108.103 516.038 107.542C515.257 106.928 514.484 106.297 513.752 105.62C513.322 105.223 513.092 104.663 513.008 104.053C512.966 103.744 513.088 103.469 513.437 103.417C513.965 103.337 514.453 103.088 514.898 102.76C515.723 102.152 516.514 101.477 517.392 100.97C518.022 100.606 518.468 100.092 518.959 99.5848C519.464 99.0629 520.066 98.6548 520.701 98.316C521.113 98.3915 521.384 97.9318 521.806 98.0087C522.199 98.0804 522.599 98.099 522.994 98.1506C524.071 98.2916 525.138 98.4818 526.16 98.8842C526.322 98.9477 526.496 99.0013 526.633 99.105C526.848 99.2689 527.047 99.277 527.277 99.1542C527.5 99.0352 527.711 99.0591 527.966 99.1332C528.77 99.3659 529.598 99.5064 530.403 99.7329C531.004 99.9021 531.587 100.145 532.175 100.364C532.293 100.407 532.399 100.487 532.533 100.563C532.218 101.052 531.822 101.399 531.344 101.696C531.445 101.705 531.547 101.714 531.648 101.722C531.656 101.737 531.665 101.751 531.674 101.766C531.61 101.803 531.546 101.839 531.434 101.902C531.593 101.952 531.675 101.978 531.808 102.02C531.646 102.265 531.498 102.486 531.315 102.761C531.416 102.703 531.472 102.669 531.53 102.637C532.443 102.136 533.356 101.631 534.272 101.136C534.411 101.062 534.568 101.013 534.722 100.987C535.098 100.924 535.352 101.124 535.364 101.525C535.377 101.938 535.513 102.289 535.701 102.642C535.8 102.826 535.868 103.069 535.847 103.274C535.799 103.743 535.908 104.229 535.704 104.684C535.668 104.764 535.706 104.914 535.759 104.998C536.026 105.42 536.039 105.884 535.952 106.351C535.84 106.943 535.605 107.482 535.197 107.92C534.789 108.358 534.341 108.468 533.818 108.22C532.858 107.765 531.913 107.276 530.95 106.828C530.635 106.682 530.285 106.618 529.95 106.516L529.921 106.611L529.92 106.609ZM517.537 102.888C517.6 102.99 517.633 103.042 517.665 103.095C518.056 103.739 518.188 104.41 517.818 105.115C517.581 105.565 517.328 106.005 517.081 106.449C517.045 106.515 517.004 106.579 516.966 106.645C516.983 106.655 517.001 106.665 517.018 106.675C517.679 106.026 518.181 105.271 518.332 104.307C518.422 103.737 518.097 103.165 517.537 102.888ZM514.747 104.109C515.015 104.302 515.259 104.291 515.437 104.12C515.622 103.942 515.671 103.655 515.554 103.426C515.44 103.204 515.196 103.091 514.961 103.151C514.731 103.21 514.587 103.392 514.59 103.633C514.699 103.435 514.844 103.348 515.047 103.433C515.212 103.503 515.263 103.648 515.238 103.82C515.199 104.081 515.01 104.124 514.748 104.109H514.747Z" fill="#E0E0E0"/>
<path d="M538.242 89.6224C538.799 89.9999 539.44 90.2778 539.774 90.9884C539.408 91.1681 539.07 91.3519 538.72 91.5037C538.037 91.7997 537.329 92.0033 536.585 92.0368C535.973 92.0643 535.39 91.9548 534.85 91.6376C534.797 91.6059 534.73 91.5901 534.668 91.585C533.759 91.5067 532.85 91.4313 531.942 91.356C531.913 91.3538 531.885 91.356 531.844 91.356C532.125 91.8963 532.399 92.4242 532.695 92.9958C532.539 92.9958 532.442 93.0061 532.348 92.9944C531.623 92.9021 531.012 92.543 530.443 92.0956C530.204 91.9081 529.994 91.6809 529.755 91.4942C529.604 91.3766 529.432 91.2674 529.253 91.2115C528.59 91.0034 527.936 90.7719 527.377 90.3399C526.766 89.8676 526.161 89.382 525.588 88.8614C525.252 88.556 525.072 88.1255 525.006 87.6565C524.973 87.4186 525.069 87.2073 525.342 87.1668C525.755 87.1054 526.137 86.9135 526.485 86.6617C527.131 86.1942 527.75 85.6744 528.437 85.2843C528.93 85.0046 529.28 84.6091 529.664 84.219C530.059 83.8176 530.53 83.5037 531.027 83.2431C531.349 83.3012 531.562 82.9475 531.892 83.0067C532.199 83.0618 532.512 83.0762 532.822 83.1159C533.664 83.2243 534.499 83.3706 535.299 83.6801C535.426 83.729 535.562 83.7702 535.669 83.85C535.838 83.9761 535.994 83.9823 536.173 83.8878C536.348 83.7963 536.513 83.8147 536.713 83.8717C537.342 84.0507 537.989 84.1588 538.62 84.333C539.09 84.4631 539.547 84.6502 540.007 84.8182C540.099 84.8517 540.182 84.9131 540.287 84.9715C540.04 85.3476 539.73 85.6148 539.356 85.8431C539.435 85.8497 539.515 85.8567 539.594 85.8633C539.601 85.8747 539.607 85.8857 539.614 85.8971C539.564 85.9251 539.514 85.953 539.427 86.0015C539.551 86.0401 539.615 86.06 539.719 86.0923C539.592 86.2805 539.477 86.4511 539.334 86.6625C539.412 86.6176 539.457 86.5912 539.502 86.5669C540.217 86.1813 540.931 85.7931 541.648 85.4126C541.756 85.3553 541.879 85.3178 542 85.2979C542.294 85.2494 542.493 85.4031 542.502 85.7115C542.512 86.0295 542.619 86.2993 542.766 86.5706C542.844 86.7121 542.897 86.8996 542.88 87.0573C542.842 87.4175 542.928 87.7917 542.768 88.1417C542.741 88.2031 542.77 88.3185 542.812 88.3828C543.02 88.7078 543.031 89.0644 542.962 89.4235C542.875 89.8793 542.691 90.294 542.371 90.6311C542.052 90.9678 541.702 91.052 541.292 90.8612C540.541 90.5116 539.801 90.1355 539.048 89.7911C538.801 89.6783 538.527 89.6294 538.265 89.5511L538.242 89.6242L538.242 89.6224ZM528.551 86.7603C528.6 86.8386 528.626 86.8786 528.651 86.9191C528.957 87.4149 529.06 87.9307 528.771 88.4729C528.585 88.8192 528.387 89.1574 528.194 89.4992C528.165 89.5503 528.134 89.5996 528.104 89.6499C528.117 89.6577 528.131 89.6654 528.145 89.6731C528.662 89.1739 529.054 88.5931 529.173 87.8517C529.243 87.4131 528.989 86.9731 528.551 86.7603ZM526.367 87.6991C526.577 87.848 526.768 87.8392 526.907 87.7076C527.052 87.5704 527.09 87.3503 526.999 87.1742C526.91 87.0032 526.719 86.9161 526.535 86.9624C526.355 87.0076 526.242 87.1477 526.245 87.333C526.33 87.1808 526.443 87.1135 526.602 87.1793C526.731 87.233 526.771 87.3447 526.751 87.4767C526.721 87.6778 526.573 87.7105 526.368 87.6991H526.367Z" fill="#F2F2F2"/>
<path d="M516.542 76.9203C517.532 77.5998 518.672 78.1001 519.265 79.3791C518.615 79.7026 518.014 80.0335 517.39 80.3067C516.177 80.8394 514.919 81.206 513.595 81.2662C512.508 81.3158 511.471 81.1186 510.512 80.5476C510.417 80.4907 510.297 80.4622 510.187 80.453C508.571 80.312 506.956 80.1764 505.341 80.0408C505.29 80.0368 505.239 80.0408 505.167 80.0408C505.666 81.0134 506.153 81.9636 506.68 82.9925C506.403 82.9925 506.231 83.011 506.064 82.9899C504.774 82.8238 503.687 82.1773 502.676 81.372C502.252 81.0346 501.879 80.6257 501.453 80.2895C501.185 80.0778 500.879 79.8813 500.561 79.7807C499.383 79.4062 498.22 78.9893 497.226 78.2119C496.14 77.3616 495.064 76.4875 494.046 75.5506C493.448 75.0008 493.128 74.2259 493.011 73.3816C492.952 72.9535 493.123 72.5731 493.608 72.5003C494.343 72.3898 495.022 72.0444 495.64 71.5911C496.789 70.7495 497.889 69.8139 499.111 69.1118C499.987 68.6083 500.608 67.8963 501.291 67.1943C501.993 66.4717 502.83 65.9067 503.715 65.4375C504.287 65.5421 504.665 64.9055 505.252 65.0121C505.798 65.1113 506.355 65.1371 506.905 65.2086C508.403 65.4038 509.887 65.6671 511.309 66.2243C511.535 66.3123 511.776 66.3864 511.967 66.53C512.267 66.7569 512.544 66.7682 512.864 66.5981C513.173 66.4334 513.468 66.4664 513.822 66.569C514.941 66.8912 516.092 67.0858 517.213 67.3994C518.049 67.6336 518.86 67.9704 519.679 68.2728C519.842 68.333 519.989 68.4435 520.177 68.5487C519.738 69.2256 519.187 69.7067 518.522 70.1176C518.663 70.1295 518.804 70.1421 518.945 70.154C518.957 70.1745 518.969 70.1943 518.981 70.2148C518.892 70.2651 518.803 70.3154 518.648 70.4028C518.869 70.4722 518.983 70.508 519.168 70.5662C518.942 70.905 518.737 71.212 518.482 71.5925C518.622 71.5117 518.701 71.4641 518.781 71.4204C520.052 70.7263 521.321 70.0276 522.596 69.3428C522.789 69.2395 523.008 69.172 523.222 69.1363C523.745 69.049 524.098 69.3255 524.115 69.8807C524.133 70.453 524.322 70.9387 524.585 71.427C524.722 71.6818 524.816 72.0192 524.787 72.3031C524.72 72.9515 524.872 73.6251 524.588 74.255C524.539 74.3655 524.592 74.5733 524.665 74.6891C525.036 75.274 525.055 75.9159 524.933 76.5623C524.777 77.3828 524.45 78.1292 523.882 78.7359C523.315 79.342 522.692 79.4935 521.964 79.1501C520.629 78.5209 519.314 77.844 517.974 77.224C517.535 77.0209 517.048 76.9329 516.583 76.7919L516.542 76.9236L516.542 76.9203ZM499.312 71.7685C499.401 71.9094 499.447 71.9815 499.491 72.0543C500.034 72.9469 500.219 73.8752 499.703 74.8512C499.374 75.4745 499.021 76.0833 498.678 76.6986C498.627 76.7906 498.571 76.8793 498.518 76.9699C498.542 76.9838 498.566 76.9977 498.591 77.0116C499.509 76.113 500.208 75.0676 500.419 73.733C500.543 72.9436 500.092 72.1516 499.312 71.7685ZM495.431 73.4584C495.803 73.7264 496.143 73.7105 496.391 73.4736C496.649 73.2268 496.716 72.8305 496.553 72.5135C496.395 72.2058 496.055 72.049 495.729 72.1324C495.409 72.2138 495.208 72.4659 495.213 72.7994C495.364 72.5254 495.566 72.4043 495.848 72.5228C496.077 72.6194 496.149 72.8205 496.114 73.0581C496.06 73.42 495.797 73.4789 495.432 73.4584H495.431Z" fill="#F2F2F2"/>
<path d="M1404.58 909.274C1404.61 909.436 1404.63 909.523 1404.65 909.609C1404.68 909.103 1405.2 909.144 1405.44 908.873C1405.56 908.95 1405.65 909.018 1405.75 909.085C1405.39 908.701 1405.96 908.552 1405.97 908.219C1405.79 908.209 1405.63 908.2 1405.4 908.186C1405.56 908.071 1405.66 907.968 1405.78 907.914C1406.01 907.809 1406.06 907.64 1405.93 907.447C1405.75 907.176 1405.59 906.857 1405.34 906.679C1403.9 905.661 1402.46 904.646 1400.98 903.696C1399.97 903.05 1398.78 902.857 1397.63 902.621C1396.68 902.428 1395.73 902.29 1394.75 902.385C1394.66 902.394 1394.53 902.301 1394.46 902.221C1393.93 901.664 1393.41 901.096 1392.89 900.535C1392.77 900.415 1392.66 900.3 1392.53 900.193C1392.22 899.928 1392.06 899.927 1391.81 900.245C1391.09 901.159 1390.11 901.674 1389.07 902.103C1387.41 902.786 1385.76 903.473 1384.1 904.161C1384 904.203 1383.9 904.257 1383.8 904.306C1383.8 904.337 1383.79 904.368 1383.79 904.398C1384.25 904.524 1384.71 904.65 1385.25 904.796C1385.04 904.888 1384.9 904.974 1384.74 905.019C1383.79 905.298 1382.81 905.486 1381.81 905.497C1381.24 905.503 1380.76 905.313 1380.26 905.002C1379.46 904.498 1378.59 904.075 1377.72 903.697C1377.05 903.406 1376.33 903.226 1375.62 903.021C1375.45 902.97 1375.24 903.013 1375.02 903.013C1375.16 903.52 1375.39 903.933 1375.71 904.299C1376.24 904.918 1376.78 905.539 1377.32 906.159C1377.36 906.213 1377.41 906.268 1377.45 906.326C1377.81 906.81 1377.77 906.939 1377.34 907.355C1376.9 907.778 1376.48 908.234 1376.08 908.697C1375.67 909.169 1375.29 909.666 1374.91 910.156C1374.82 910.273 1374.75 910.409 1374.65 910.576C1375.23 910.788 1375.78 910.805 1376.31 910.613C1377.59 910.153 1378.88 909.698 1380.15 909.189C1381.22 908.756 1382.3 908.768 1383.41 908.985C1383.71 909.045 1384.01 909.135 1384.31 909.277C1384.05 909.328 1383.78 909.371 1383.52 909.435C1383.23 909.506 1383.09 909.69 1383.22 909.928C1383.54 910.51 1383.44 911.17 1383.63 911.771C1383.71 912.023 1383.77 912.283 1383.85 912.537C1383.91 912.724 1384.03 912.779 1384.2 912.679C1385.2 912.115 1386.08 911.425 1386.54 910.332C1386.61 910.176 1386.67 910.077 1386.88 910.125C1388.55 910.518 1390.23 910.801 1391.95 910.869C1392.01 910.872 1392.06 910.893 1392.12 910.959C1391.94 910.991 1391.76 911.021 1391.58 911.056C1391.21 911.131 1391 911.363 1391.03 911.745C1391.09 912.567 1391.53 913.18 1392.21 913.62C1392.43 913.762 1392.68 913.74 1392.84 913.507C1393.11 913.09 1393.38 912.666 1393.61 912.222C1393.8 911.842 1393.93 911.429 1394.1 910.998C1397.64 910.825 1401.18 910.554 1404.58 909.272L1404.58 909.274ZM1403.52 906.338C1403.58 906.421 1403.64 906.503 1403.7 906.586C1403.82 906.823 1403.72 907.026 1403.58 907.209C1403.36 907.504 1402.91 907.535 1402.63 907.288C1402.33 907.036 1402.31 906.574 1402.58 906.299C1402.85 906.025 1403.26 906.043 1403.52 906.339V906.338ZM1400.41 909.992C1399.05 909.232 1398.48 907.412 1400.1 905.515C1400.03 905.69 1399.99 905.778 1399.96 905.871C1399.83 906.32 1399.67 906.764 1399.57 907.222C1399.36 908.279 1399.42 909.27 1400.41 909.992Z" fill="#F2F2F2"/>
<path d="M1403.7 906.586C1403.64 906.503 1403.58 906.421 1403.52 906.338C1403.44 906.311 1403.35 906.244 1403.29 906.265C1403.12 906.325 1402.89 906.383 1402.82 906.514C1402.75 906.648 1402.78 906.914 1402.88 907.034C1402.96 907.142 1403.21 907.188 1403.36 907.158C1403.65 907.102 1403.71 906.852 1403.7 906.586Z" fill="#F2F2F2"/>
<path d="M1431.29 928.192C1431.33 928.388 1431.35 928.493 1431.37 928.596C1431.41 927.986 1432.03 928.035 1432.33 927.708C1432.46 927.802 1432.58 927.883 1432.7 927.964C1432.26 927.5 1432.95 927.322 1432.96 926.919C1432.75 926.907 1432.56 926.896 1432.27 926.879C1432.46 926.74 1432.58 926.617 1432.73 926.551C1433.02 926.424 1433.07 926.22 1432.92 925.987C1432.7 925.66 1432.51 925.276 1432.2 925.06C1430.47 923.832 1428.73 922.607 1426.94 921.46C1425.72 920.681 1424.29 920.447 1422.89 920.163C1421.75 919.93 1420.6 919.764 1419.43 919.878C1419.31 919.889 1419.16 919.777 1419.07 919.681C1418.43 919.008 1417.81 918.323 1417.17 917.645C1417.04 917.501 1416.9 917.363 1416.75 917.233C1416.37 916.913 1416.18 916.912 1415.88 917.296C1415.01 918.399 1413.83 919.02 1412.57 919.538C1410.57 920.362 1408.57 921.192 1406.57 922.021C1406.45 922.073 1406.33 922.138 1406.21 922.197C1406.2 922.234 1406.2 922.271 1406.19 922.308C1406.75 922.46 1407.31 922.612 1407.95 922.788C1407.71 922.899 1407.53 923.002 1407.35 923.057C1406.19 923.394 1405.01 923.621 1403.8 923.634C1403.12 923.642 1402.53 923.412 1401.94 923.037C1400.97 922.428 1399.93 921.918 1398.87 921.462C1398.06 921.111 1397.19 920.893 1396.34 920.646C1396.13 920.584 1395.88 920.637 1395.61 920.637C1395.78 921.249 1396.06 921.747 1396.44 922.189C1397.09 922.935 1397.74 923.684 1398.38 924.432C1398.44 924.498 1398.49 924.565 1398.55 924.634C1398.97 925.219 1398.93 925.375 1398.41 925.876C1397.87 926.387 1397.38 926.937 1396.89 927.496C1396.4 928.065 1395.94 928.665 1395.47 929.257C1395.36 929.398 1395.28 929.562 1395.16 929.764C1395.87 930.019 1396.53 930.04 1397.17 929.809C1398.72 929.253 1400.27 928.704 1401.8 928.09C1403.1 927.567 1404.4 927.582 1405.73 927.843C1406.1 927.916 1406.46 928.024 1406.83 928.196C1406.51 928.258 1406.18 928.309 1405.87 928.387C1405.52 928.472 1405.35 928.694 1405.51 928.982C1405.89 929.684 1405.77 930.481 1406.01 931.206C1406.1 931.51 1406.18 931.824 1406.27 932.131C1406.34 932.355 1406.48 932.422 1406.69 932.302C1407.9 931.621 1408.95 930.788 1409.52 929.469C1409.6 929.281 1409.67 929.161 1409.92 929.22C1411.94 929.694 1413.97 930.036 1416.05 930.118C1416.11 930.121 1416.18 930.146 1416.24 930.226C1416.03 930.265 1415.82 930.301 1415.6 930.343C1415.15 930.433 1414.89 930.714 1414.93 931.174C1415.01 932.167 1415.53 932.906 1416.36 933.437C1416.62 933.608 1416.93 933.582 1417.12 933.301C1417.45 932.798 1417.77 932.286 1418.05 931.75C1418.28 931.292 1418.44 930.794 1418.64 930.273C1422.91 930.064 1427.19 929.736 1431.29 928.19L1431.29 928.192ZM1430.01 924.649C1430.08 924.749 1430.15 924.849 1430.22 924.948C1430.37 925.235 1430.25 925.479 1430.08 925.7C1429.82 926.056 1429.27 926.093 1428.93 925.795C1428.58 925.491 1428.55 924.933 1428.87 924.602C1429.2 924.272 1429.7 924.292 1430.01 924.649ZM1426.25 929.058C1424.61 928.141 1423.93 925.945 1425.88 923.656C1425.8 923.867 1425.74 923.973 1425.71 924.086C1425.55 924.627 1425.36 925.163 1425.25 925.716C1424.99 926.991 1425.06 928.188 1426.25 929.058Z" fill="#E0E0E0"/>
<path d="M1430.22 924.948C1430.15 924.849 1430.08 924.749 1430 924.649C1429.91 924.616 1429.8 924.535 1429.73 924.56C1429.53 924.633 1429.25 924.703 1429.17 924.862C1429.08 925.023 1429.11 925.344 1429.23 925.489C1429.33 925.619 1429.63 925.675 1429.82 925.638C1430.16 925.571 1430.24 925.269 1430.22 924.948Z" fill="#E0E0E0"/>
<path d="M1379.91 945.099C1379.94 945.223 1379.95 945.29 1379.96 945.355C1379.99 944.968 1380.39 945 1380.57 944.792C1380.66 944.851 1380.73 944.903 1380.81 944.954C1380.53 944.66 1380.97 944.547 1380.98 944.291C1380.84 944.284 1380.72 944.277 1380.54 944.266C1380.66 944.178 1380.74 944.1 1380.83 944.058C1381.01 943.977 1381.04 943.848 1380.95 943.7C1380.81 943.493 1380.69 943.249 1380.49 943.112C1379.39 942.333 1378.29 941.556 1377.15 940.829C1376.38 940.334 1375.47 940.187 1374.59 940.006C1373.87 939.859 1373.14 939.753 1372.39 939.825C1372.32 939.833 1372.22 939.761 1372.16 939.7C1371.76 939.274 1371.36 938.839 1370.96 938.409C1370.88 938.318 1370.79 938.23 1370.69 938.148C1370.45 937.945 1370.33 937.944 1370.14 938.187C1369.59 938.887 1368.84 939.281 1368.04 939.61C1366.77 940.132 1365.5 940.659 1364.24 941.185C1364.16 941.217 1364.08 941.259 1364.01 941.296C1364 941.32 1364 941.344 1364 941.367C1364.35 941.463 1364.7 941.559 1365.11 941.671C1364.96 941.742 1364.85 941.807 1364.73 941.842C1364 942.056 1363.25 942.2 1362.48 942.208C1362.05 942.213 1361.68 942.067 1361.3 941.829C1360.68 941.443 1360.02 941.119 1359.35 940.83C1358.84 940.607 1358.29 940.47 1357.74 940.312C1357.61 940.274 1357.46 940.307 1357.28 940.307C1357.39 940.695 1357.57 941.011 1357.81 941.291C1358.22 941.765 1358.63 942.24 1359.04 942.714C1359.08 942.756 1359.11 942.798 1359.15 942.842C1359.42 943.213 1359.39 943.312 1359.06 943.63C1358.72 943.954 1358.4 944.303 1358.1 944.657C1357.78 945.019 1357.49 945.399 1357.2 945.774C1357.13 945.864 1357.08 945.968 1357 946.096C1357.45 946.258 1357.87 946.271 1358.27 946.124C1359.26 945.772 1360.24 945.424 1361.21 945.034C1362.03 944.703 1362.86 944.712 1363.71 944.878C1363.94 944.924 1364.17 944.993 1364.4 945.101C1364.2 945.141 1363.99 945.173 1363.79 945.223C1363.57 945.277 1363.46 945.418 1363.56 945.6C1363.81 946.045 1363.73 946.551 1363.88 947.011C1363.94 947.204 1363.99 947.403 1364.04 947.597C1364.09 947.74 1364.18 947.782 1364.32 947.706C1365.08 947.274 1365.75 946.746 1366.1 945.909C1366.16 945.79 1366.2 945.714 1366.36 945.751C1367.64 946.052 1368.93 946.268 1370.25 946.32C1370.29 946.322 1370.33 946.338 1370.37 946.389C1370.24 946.414 1370.1 946.436 1369.96 946.463C1369.68 946.521 1369.51 946.699 1369.54 946.99C1369.59 947.62 1369.92 948.089 1370.44 948.426C1370.61 948.534 1370.81 948.518 1370.92 948.339C1371.14 948.02 1371.34 947.696 1371.52 947.356C1371.66 947.065 1371.76 946.749 1371.89 946.419C1374.6 946.286 1377.31 946.079 1379.92 945.097L1379.91 945.099ZM1379.1 942.852C1379.15 942.915 1379.19 942.978 1379.24 943.042C1379.33 943.223 1379.25 943.378 1379.15 943.518C1378.98 943.744 1378.64 943.768 1378.42 943.579C1378.19 943.386 1378.18 943.032 1378.38 942.822C1378.59 942.612 1378.91 942.626 1379.1 942.852V942.852ZM1376.72 945.648C1375.68 945.067 1375.24 943.674 1376.48 942.222C1376.43 942.355 1376.4 942.423 1376.38 942.494C1376.27 942.838 1376.15 943.178 1376.08 943.528C1375.92 944.337 1375.97 945.096 1376.72 945.648Z" fill="#F2F2F2"/>
<path d="M1395.24 947.041C1395.19 946.978 1395.15 946.915 1395.1 946.852C1395.04 946.831 1394.97 946.779 1394.93 946.795C1394.8 946.842 1394.62 946.886 1394.57 946.987C1394.51 947.089 1394.53 947.292 1394.61 947.385C1394.67 947.467 1394.86 947.502 1394.98 947.479C1395.2 947.437 1395.25 947.245 1395.24 947.041Z" fill="#F2F2F2"/>
<path d="M1472.71 898.952C1472.76 899.215 1472.79 899.354 1472.82 899.492C1472.88 898.678 1473.71 898.743 1474.1 898.306C1474.28 898.431 1474.44 898.54 1474.6 898.648C1474.01 898.028 1474.94 897.79 1474.95 897.252C1474.67 897.236 1474.41 897.221 1474.03 897.199C1474.28 897.013 1474.44 896.848 1474.64 896.76C1475.02 896.59 1475.09 896.318 1474.89 896.006C1474.6 895.57 1474.34 895.057 1473.93 894.768C1471.61 893.127 1469.29 891.491 1466.9 889.958C1465.28 888.917 1463.36 888.606 1461.5 888.226C1459.97 887.915 1458.43 887.693 1456.87 887.845C1456.72 887.86 1456.51 887.71 1456.39 887.581C1455.54 886.682 1454.7 885.767 1453.85 884.862C1453.67 884.669 1453.48 884.484 1453.28 884.311C1452.79 883.884 1452.52 883.883 1452.12 884.395C1450.97 885.869 1449.39 886.698 1447.71 887.391C1445.03 888.492 1442.36 889.6 1439.69 890.708C1439.52 890.777 1439.37 890.865 1439.21 890.943C1439.2 890.993 1439.19 891.043 1439.19 891.091C1439.93 891.294 1440.67 891.497 1441.54 891.733C1441.21 891.881 1440.98 892.019 1440.73 892.092C1439.18 892.542 1437.61 892.846 1435.99 892.864C1435.08 892.874 1434.3 892.566 1433.5 892.065C1432.2 891.252 1430.81 890.57 1429.41 889.961C1428.32 889.492 1427.16 889.202 1426.02 888.87C1425.74 888.789 1425.41 888.859 1425.05 888.859C1425.28 889.676 1425.64 890.341 1426.16 890.932C1427.02 891.93 1427.89 892.93 1428.75 893.93C1428.83 894.017 1428.9 894.107 1428.97 894.199C1429.54 894.98 1429.48 895.189 1428.78 895.858C1428.07 896.542 1427.41 897.276 1426.76 898.022C1426.1 898.783 1425.49 899.585 1424.87 900.376C1424.72 900.564 1424.61 900.783 1424.45 901.053C1425.39 901.394 1426.27 901.422 1427.13 901.113C1429.2 900.37 1431.28 899.637 1433.31 898.816C1435.05 898.118 1436.79 898.138 1438.57 898.487C1439.07 898.583 1439.55 898.729 1440.03 898.957C1439.61 899.041 1439.17 899.109 1438.75 899.213C1438.29 899.327 1438.06 899.624 1438.27 900.008C1438.79 900.945 1438.62 902.011 1438.94 902.979C1439.07 903.386 1439.16 903.805 1439.29 904.215C1439.38 904.515 1439.57 904.604 1439.86 904.443C1441.47 903.533 1442.87 902.421 1443.62 900.659C1443.73 900.407 1443.83 900.247 1444.17 900.326C1446.86 900.959 1449.58 901.416 1452.35 901.525C1452.44 901.529 1452.53 901.563 1452.61 901.67C1452.33 901.722 1452.04 901.77 1451.76 901.827C1451.15 901.947 1450.81 902.322 1450.86 902.937C1450.97 904.263 1451.67 905.251 1452.76 905.96C1453.12 906.189 1453.53 906.154 1453.78 905.778C1454.22 905.106 1454.66 904.422 1455.02 903.706C1455.33 903.094 1455.54 902.428 1455.82 901.733C1461.51 901.454 1467.23 901.016 1472.72 898.949L1472.71 898.952ZM1471 894.219C1471.09 894.352 1471.19 894.486 1471.29 894.619C1471.49 895.002 1471.32 895.328 1471.1 895.624C1470.75 896.099 1470.02 896.149 1469.56 895.751C1469.09 895.344 1469.06 894.599 1469.49 894.157C1469.92 893.715 1470.59 893.743 1471 894.22V894.219ZM1465.99 900.11C1463.8 898.885 1462.88 895.951 1465.49 892.892C1465.37 893.174 1465.31 893.316 1465.26 893.466C1465.05 894.19 1464.79 894.906 1464.64 895.644C1464.3 897.348 1464.4 898.947 1465.99 900.11Z" fill="#F2F2F2"/>
<path d="M1471.28 894.619C1471.19 894.486 1471.09 894.352 1471 894.219C1470.87 894.175 1470.73 894.067 1470.63 894.101C1470.36 894.198 1469.99 894.292 1469.88 894.504C1469.76 894.718 1469.81 895.147 1469.96 895.342C1470.1 895.515 1470.5 895.59 1470.75 895.541C1471.21 895.451 1471.31 895.048 1471.28 894.619Z" fill="#F2F2F2"/>
<path d="M1497.58 947.274C1497.61 947.436 1497.63 947.523 1497.65 947.609C1497.68 947.103 1498.2 947.144 1498.44 946.873C1498.56 946.95 1498.65 947.018 1498.75 947.085C1498.39 946.701 1498.96 946.552 1498.97 946.219C1498.79 946.209 1498.63 946.2 1498.4 946.186C1498.56 946.071 1498.66 945.968 1498.78 945.914C1499.01 945.809 1499.06 945.64 1498.93 945.447C1498.75 945.176 1498.59 944.857 1498.34 944.679C1496.9 943.661 1495.46 942.646 1493.98 941.696C1492.97 941.05 1491.78 940.857 1490.63 940.621C1489.68 940.428 1488.73 940.29 1487.75 940.385C1487.66 940.394 1487.53 940.301 1487.46 940.221C1486.93 939.664 1486.41 939.096 1485.89 938.535C1485.77 938.415 1485.66 938.3 1485.53 938.193C1485.22 937.928 1485.06 937.927 1484.81 938.245C1484.09 939.159 1483.11 939.674 1482.07 940.103C1480.41 940.786 1478.76 941.473 1477.1 942.161C1477 942.203 1476.9 942.257 1476.8 942.306C1476.8 942.337 1476.79 942.368 1476.79 942.398C1477.25 942.524 1477.71 942.65 1478.25 942.796C1478.04 942.888 1477.9 942.974 1477.74 943.019C1476.79 943.298 1475.81 943.486 1474.81 943.497C1474.24 943.503 1473.76 943.313 1473.26 943.002C1472.46 942.498 1471.59 942.075 1470.72 941.697C1470.05 941.406 1469.33 941.226 1468.62 941.021C1468.45 940.97 1468.24 941.013 1468.02 941.013C1468.16 941.52 1468.39 941.933 1468.71 942.299C1469.24 942.918 1469.78 943.539 1470.32 944.159C1470.36 944.213 1470.41 944.268 1470.45 944.326C1470.81 944.81 1470.77 944.939 1470.34 945.355C1469.9 945.778 1469.48 946.234 1469.08 946.697C1468.67 947.169 1468.29 947.666 1467.91 948.156C1467.82 948.273 1467.75 948.409 1467.65 948.576C1468.23 948.788 1468.78 948.805 1469.31 948.613C1470.59 948.153 1471.88 947.698 1473.15 947.189C1474.22 946.756 1475.3 946.768 1476.41 946.985C1476.71 947.045 1477.01 947.135 1477.31 947.277C1477.05 947.328 1476.78 947.371 1476.52 947.435C1476.23 947.506 1476.09 947.69 1476.22 947.928C1476.54 948.51 1476.44 949.17 1476.63 949.771C1476.71 950.023 1476.77 950.283 1476.85 950.537C1476.91 950.724 1477.03 950.779 1477.2 950.679C1478.2 950.115 1479.08 949.425 1479.54 948.332C1479.61 948.176 1479.67 948.077 1479.88 948.125C1481.55 948.518 1483.23 948.801 1484.95 948.869C1485.01 948.872 1485.06 948.893 1485.12 948.959C1484.94 948.991 1484.76 949.021 1484.58 949.056C1484.21 949.131 1484 949.363 1484.03 949.745C1484.09 950.567 1484.53 951.18 1485.21 951.62C1485.43 951.762 1485.68 951.74 1485.84 951.507C1486.11 951.09 1486.38 950.666 1486.61 950.222C1486.8 949.842 1486.93 949.429 1487.1 948.998C1490.64 948.825 1494.18 948.554 1497.58 947.272L1497.58 947.274ZM1496.52 944.338C1496.58 944.421 1496.64 944.503 1496.7 944.586C1496.82 944.823 1496.72 945.026 1496.58 945.209C1496.36 945.504 1495.91 945.535 1495.63 945.288C1495.33 945.036 1495.31 944.574 1495.58 944.299C1495.85 944.025 1496.26 944.043 1496.52 944.339V944.338ZM1493.41 947.992C1492.05 947.232 1491.48 945.412 1493.1 943.515C1493.03 943.69 1492.99 943.778 1492.96 943.871C1492.83 944.32 1492.67 944.764 1492.57 945.222C1492.36 946.279 1492.42 947.27 1493.41 947.992Z" fill="#F2F2F2"/>
<path d="M1496.7 944.586C1496.64 944.503 1496.58 944.421 1496.52 944.338C1496.44 944.311 1496.35 944.244 1496.29 944.265C1496.12 944.325 1495.89 944.383 1495.82 944.514C1495.75 944.648 1495.78 944.914 1495.88 945.034C1495.96 945.142 1496.21 945.188 1496.36 945.158C1496.65 945.102 1496.71 944.852 1496.7 944.586Z" fill="#F2F2F2"/>
<path d="M1533.13 979.192C1533.16 979.388 1533.18 979.493 1533.2 979.596C1533.25 978.986 1533.87 979.035 1534.16 978.708C1534.3 978.802 1534.42 978.883 1534.54 978.964C1534.1 978.5 1534.79 978.322 1534.8 977.919C1534.59 977.907 1534.39 977.896 1534.11 977.879C1534.3 977.74 1534.42 977.617 1534.57 977.551C1534.86 977.424 1534.91 977.22 1534.75 976.987C1534.54 976.66 1534.34 976.276 1534.04 976.06C1532.3 974.832 1530.56 973.607 1528.77 972.46C1527.56 971.681 1526.13 971.447 1524.73 971.163C1523.59 970.93 1522.44 970.764 1521.26 970.878C1521.15 970.889 1521 970.777 1520.91 970.681C1520.27 970.008 1519.64 969.323 1519.01 968.645C1518.88 968.501 1518.73 968.363 1518.58 968.233C1518.21 967.913 1518.01 967.912 1517.71 968.296C1516.85 969.399 1515.67 970.02 1514.41 970.538C1512.41 971.362 1510.41 972.192 1508.41 973.021C1508.28 973.073 1508.17 973.138 1508.05 973.197C1508.04 973.234 1508.04 973.271 1508.03 973.308C1508.59 973.46 1509.14 973.612 1509.79 973.788C1509.54 973.899 1509.37 974.002 1509.19 974.057C1508.03 974.394 1506.85 974.621 1505.64 974.634C1504.96 974.642 1504.37 974.412 1503.77 974.037C1502.8 973.428 1501.76 972.918 1500.71 972.462C1499.9 972.111 1499.03 971.893 1498.17 971.646C1497.96 971.584 1497.72 971.637 1497.45 971.637C1497.62 972.249 1497.89 972.747 1498.28 973.189C1498.93 973.935 1499.57 974.684 1500.22 975.432C1500.28 975.498 1500.33 975.565 1500.38 975.634C1500.81 976.219 1500.77 976.375 1500.25 976.876C1499.71 977.387 1499.21 977.937 1498.73 978.496C1498.24 979.065 1497.78 979.665 1497.31 980.257C1497.2 980.398 1497.12 980.562 1497 980.764C1497.71 981.019 1498.36 981.04 1499.01 980.809C1500.56 980.253 1502.11 979.704 1503.64 979.09C1504.93 978.567 1506.24 978.582 1507.57 978.843C1507.94 978.916 1508.3 979.024 1508.66 979.196C1508.35 979.258 1508.02 979.309 1507.71 979.387C1507.36 979.472 1507.19 979.694 1507.35 979.982C1507.73 980.684 1507.61 981.481 1507.84 982.206C1507.94 982.51 1508.01 982.824 1508.11 983.131C1508.17 983.355 1508.32 983.422 1508.53 983.302C1509.74 982.621 1510.79 981.788 1511.35 980.469C1511.43 980.281 1511.51 980.161 1511.76 980.22C1513.77 980.694 1515.81 981.036 1517.88 981.118C1517.95 981.121 1518.02 981.146 1518.08 981.226C1517.87 981.265 1517.65 981.301 1517.44 981.343C1516.99 981.433 1516.73 981.714 1516.77 982.174C1516.85 983.167 1517.37 983.906 1518.19 984.437C1518.46 984.608 1518.77 984.582 1518.95 984.301C1519.29 983.798 1519.61 983.286 1519.88 982.75C1520.12 982.292 1520.27 981.794 1520.48 981.273C1524.74 981.064 1529.02 980.736 1533.13 979.19L1533.13 979.192ZM1531.84 975.649C1531.91 975.749 1531.99 975.849 1532.06 975.948C1532.21 976.235 1532.09 976.479 1531.92 976.7C1531.65 977.056 1531.11 977.093 1530.77 976.795C1530.41 976.491 1530.39 975.933 1530.71 975.602C1531.03 975.272 1531.54 975.292 1531.84 975.65V975.649ZM1528.09 980.058C1526.45 979.141 1525.76 976.945 1527.72 974.656C1527.63 974.867 1527.58 974.973 1527.55 975.086C1527.39 975.627 1527.19 976.163 1527.08 976.716C1526.83 977.991 1526.9 979.188 1528.09 980.058Z" fill="#E0E0E0"/>
<path d="M1532.06 975.948C1531.99 975.849 1531.91 975.749 1531.84 975.649C1531.75 975.616 1531.64 975.535 1531.57 975.56C1531.36 975.633 1531.09 975.703 1531 975.862C1530.92 976.023 1530.95 976.344 1531.07 976.489C1531.17 976.619 1531.47 976.675 1531.65 976.638C1532 976.571 1532.08 976.269 1532.06 975.948Z" fill="#E0E0E0"/>
<path d="M1576.71 952.952C1576.76 953.215 1576.79 953.354 1576.82 953.492C1576.88 952.678 1577.71 952.743 1578.1 952.306C1578.28 952.431 1578.44 952.54 1578.6 952.648C1578.01 952.028 1578.94 951.79 1578.95 951.252C1578.67 951.236 1578.41 951.221 1578.03 951.199C1578.28 951.013 1578.44 950.848 1578.64 950.76C1579.02 950.59 1579.09 950.318 1578.89 950.006C1578.6 949.57 1578.34 949.057 1577.93 948.768C1575.61 947.127 1573.29 945.491 1570.9 943.958C1569.28 942.917 1567.36 942.606 1565.5 942.226C1563.97 941.915 1562.43 941.693 1560.87 941.845C1560.72 941.86 1560.51 941.71 1560.39 941.581C1559.54 940.682 1558.7 939.767 1557.85 938.862C1557.67 938.669 1557.48 938.484 1557.28 938.311C1556.79 937.884 1556.52 937.883 1556.12 938.395C1554.97 939.869 1553.39 940.698 1551.71 941.391C1549.03 942.492 1546.36 943.6 1543.69 944.708C1543.52 944.777 1543.37 944.865 1543.21 944.943C1543.2 944.993 1543.19 945.043 1543.19 945.091C1543.93 945.294 1544.67 945.497 1545.54 945.733C1545.21 945.881 1544.98 946.019 1544.73 946.092C1543.18 946.542 1541.61 946.846 1539.99 946.864C1539.08 946.874 1538.3 946.566 1537.5 946.065C1536.2 945.252 1534.81 944.57 1533.41 943.961C1532.32 943.492 1531.16 943.202 1530.02 942.87C1529.74 942.789 1529.41 942.859 1529.05 942.859C1529.28 943.676 1529.64 944.341 1530.16 944.932C1531.02 945.93 1531.89 946.93 1532.75 947.93C1532.83 948.017 1532.9 948.107 1532.97 948.199C1533.54 948.98 1533.48 949.189 1532.78 949.858C1532.07 950.542 1531.41 951.276 1530.76 952.022C1530.1 952.783 1529.49 953.585 1528.87 954.376C1528.72 954.564 1528.61 954.783 1528.45 955.053C1529.39 955.394 1530.27 955.422 1531.13 955.113C1533.2 954.37 1535.28 953.637 1537.31 952.816C1539.05 952.118 1540.79 952.138 1542.57 952.487C1543.07 952.583 1543.55 952.729 1544.03 952.957C1543.61 953.041 1543.17 953.109 1542.75 953.213C1542.29 953.327 1542.06 953.624 1542.27 954.008C1542.79 954.945 1542.62 956.011 1542.94 956.979C1543.07 957.386 1543.16 957.805 1543.29 958.215C1543.38 958.515 1543.57 958.604 1543.86 958.443C1545.47 957.533 1546.87 956.421 1547.62 954.659C1547.73 954.407 1547.83 954.247 1548.17 954.326C1550.86 954.959 1553.58 955.416 1556.35 955.525C1556.44 955.529 1556.53 955.563 1556.61 955.67C1556.33 955.722 1556.04 955.77 1555.76 955.827C1555.15 955.947 1554.81 956.322 1554.86 956.937C1554.97 958.263 1555.67 959.251 1556.76 959.96C1557.12 960.189 1557.53 960.154 1557.78 959.778C1558.22 959.106 1558.66 958.422 1559.02 957.706C1559.33 957.094 1559.54 956.428 1559.82 955.733C1565.51 955.454 1571.23 955.016 1576.72 952.949L1576.71 952.952ZM1575 948.219C1575.09 948.352 1575.19 948.486 1575.29 948.619C1575.49 949.002 1575.32 949.328 1575.1 949.624C1574.75 950.099 1574.02 950.149 1573.56 949.751C1573.09 949.344 1573.06 948.599 1573.49 948.157C1573.92 947.715 1574.59 947.743 1575 948.22V948.219ZM1569.99 954.11C1567.8 952.885 1566.88 949.951 1569.49 946.892C1569.37 947.174 1569.31 947.316 1569.26 947.466C1569.05 948.19 1568.79 948.906 1568.64 949.644C1568.3 951.348 1568.4 952.947 1569.99 954.11Z" fill="#E0E0E0"/>
<path d="M1575.28 948.619C1575.19 948.486 1575.09 948.352 1575 948.219C1574.87 948.175 1574.73 948.067 1574.63 948.101C1574.36 948.198 1573.99 948.292 1573.88 948.504C1573.76 948.718 1573.81 949.147 1573.96 949.342C1574.1 949.515 1574.5 949.59 1574.75 949.541C1575.21 949.451 1575.31 949.048 1575.28 948.619Z" fill="#E0E0E0"/>
<path d="M1456.65 164.018C1456.68 164.141 1456.69 164.206 1456.7 164.271C1456.73 163.889 1457.12 163.92 1457.3 163.714C1457.39 163.773 1457.46 163.824 1457.54 163.875C1457.26 163.584 1457.7 163.472 1457.7 163.22C1457.57 163.212 1457.45 163.205 1457.27 163.195C1457.39 163.108 1457.47 163.03 1457.56 162.989C1457.74 162.909 1457.77 162.781 1457.67 162.635C1457.54 162.43 1457.42 162.189 1457.22 162.054C1456.14 161.284 1455.05 160.516 1453.92 159.797C1453.16 159.308 1452.26 159.162 1451.39 158.983C1450.67 158.837 1449.95 158.733 1449.22 158.805C1449.14 158.812 1449.05 158.741 1448.99 158.681C1448.59 158.259 1448.2 157.83 1447.8 157.405C1447.72 157.314 1447.63 157.227 1447.53 157.146C1447.3 156.945 1447.18 156.945 1446.99 157.185C1446.45 157.877 1445.7 158.266 1444.92 158.591C1443.66 159.108 1442.41 159.629 1441.15 160.149C1441.08 160.181 1441 160.222 1440.93 160.259C1440.92 160.282 1440.92 160.305 1440.92 160.328C1441.27 160.424 1441.61 160.519 1442.02 160.629C1441.87 160.699 1441.76 160.764 1441.64 160.798C1440.92 161.009 1440.18 161.152 1439.42 161.16C1438.99 161.165 1438.62 161.021 1438.25 160.785C1437.64 160.404 1436.99 160.084 1436.33 159.798C1435.82 159.578 1435.27 159.441 1434.74 159.286C1434.6 159.248 1434.45 159.28 1434.28 159.28C1434.39 159.664 1434.56 159.976 1434.8 160.254C1435.21 160.722 1435.61 161.191 1436.02 161.661C1436.05 161.702 1436.09 161.744 1436.12 161.787C1436.39 162.153 1436.36 162.251 1436.04 162.566C1435.7 162.886 1435.39 163.231 1435.08 163.581C1434.78 163.938 1434.49 164.315 1434.2 164.686C1434.13 164.774 1434.08 164.877 1434 165.004C1434.44 165.164 1434.86 165.177 1435.26 165.032C1436.23 164.683 1437.2 164.339 1438.16 163.954C1438.98 163.626 1439.79 163.636 1440.63 163.799C1440.86 163.845 1441.09 163.913 1441.31 164.02C1441.11 164.059 1440.91 164.092 1440.71 164.14C1440.5 164.194 1440.39 164.333 1440.49 164.513C1440.73 164.953 1440.65 165.453 1440.8 165.908C1440.86 166.099 1440.91 166.295 1440.96 166.488C1441.01 166.629 1441.1 166.671 1441.23 166.595C1441.99 166.168 1442.65 165.646 1443 164.819C1443.05 164.701 1443.1 164.626 1443.25 164.662C1444.52 164.96 1445.8 165.174 1447.1 165.225C1447.14 165.227 1447.18 165.243 1447.22 165.294C1447.09 165.318 1446.95 165.34 1446.82 165.367C1446.53 165.423 1446.37 165.599 1446.4 165.888C1446.45 166.511 1446.77 166.974 1447.29 167.307C1447.46 167.414 1447.65 167.398 1447.77 167.221C1447.97 166.906 1448.18 166.585 1448.35 166.249C1448.5 165.962 1448.59 165.649 1448.72 165.323C1451.4 165.192 1454.08 164.986 1456.65 164.016L1456.65 164.018ZM1455.85 161.796C1455.89 161.859 1455.94 161.921 1455.98 161.984C1456.08 162.164 1456 162.317 1455.9 162.455C1455.73 162.679 1455.39 162.702 1455.17 162.515C1454.95 162.324 1454.94 161.975 1455.14 161.767C1455.34 161.56 1455.66 161.573 1455.85 161.797V161.796ZM1453.5 164.561C1452.47 163.986 1452.04 162.609 1453.26 161.174C1453.21 161.306 1453.18 161.373 1453.16 161.443C1453.06 161.783 1452.93 162.119 1452.86 162.465C1452.7 163.265 1452.75 164.016 1453.5 164.561Z" fill="#F2F2F2"/>
<path d="M1455.98 161.984C1455.94 161.922 1455.89 161.859 1455.85 161.796C1455.79 161.776 1455.72 161.725 1455.68 161.741C1455.55 161.787 1455.38 161.83 1455.32 161.93C1455.27 162.031 1455.29 162.232 1455.36 162.323C1455.43 162.405 1455.61 162.44 1455.73 162.417C1455.95 162.375 1455.99 162.185 1455.98 161.984Z" fill="#F2F2F2"/>
<path d="M1483.55 188.172C1483.58 188.321 1483.59 188.4 1483.61 188.478C1483.64 188.017 1484.11 188.054 1484.34 187.806C1484.44 187.877 1484.53 187.939 1484.62 188C1484.29 187.649 1484.81 187.514 1484.82 187.209C1484.66 187.2 1484.51 187.192 1484.3 187.179C1484.44 187.074 1484.53 186.98 1484.64 186.931C1484.86 186.834 1484.9 186.68 1484.78 186.504C1484.62 186.256 1484.47 185.966 1484.24 185.802C1482.93 184.873 1481.61 183.946 1480.26 183.078C1479.34 182.488 1478.25 182.312 1477.2 182.097C1476.33 181.92 1475.46 181.795 1474.58 181.881C1474.49 181.889 1474.37 181.804 1474.31 181.732C1473.82 181.222 1473.35 180.704 1472.87 180.191C1472.77 180.082 1472.66 179.977 1472.55 179.879C1472.26 179.637 1472.12 179.636 1471.89 179.927C1471.23 180.761 1470.34 181.231 1469.39 181.623C1467.87 182.247 1466.36 182.875 1464.85 183.503C1464.75 183.542 1464.66 183.591 1464.57 183.636C1464.57 183.664 1464.56 183.692 1464.56 183.72C1464.98 183.835 1465.4 183.949 1465.89 184.083C1465.71 184.167 1465.58 184.245 1465.43 184.286C1464.56 184.542 1463.67 184.713 1462.75 184.724C1462.24 184.729 1461.79 184.555 1461.34 184.271C1460.61 183.811 1459.82 183.424 1459.02 183.08C1458.41 182.814 1457.75 182.649 1457.1 182.462C1456.94 182.415 1456.76 182.455 1456.55 182.455C1456.68 182.918 1456.89 183.295 1457.18 183.629C1457.67 184.195 1458.16 184.761 1458.65 185.327C1458.69 185.377 1458.73 185.428 1458.77 185.48C1459.1 185.922 1459.06 186.041 1458.67 186.42C1458.27 186.807 1457.89 187.223 1457.52 187.646C1457.15 188.077 1456.8 188.531 1456.45 188.979C1456.37 189.085 1456.31 189.209 1456.21 189.362C1456.75 189.555 1457.24 189.571 1457.73 189.396C1458.9 188.975 1460.08 188.56 1461.23 188.095C1462.22 187.7 1463.2 187.711 1464.21 187.909C1464.49 187.963 1464.77 188.046 1465.04 188.175C1464.8 188.222 1464.55 188.261 1464.31 188.32C1464.05 188.385 1463.92 188.553 1464.04 188.77C1464.33 189.301 1464.24 189.905 1464.42 190.453C1464.49 190.684 1464.55 190.921 1464.62 191.153C1464.67 191.323 1464.78 191.374 1464.94 191.283C1465.85 190.767 1466.65 190.137 1467.07 189.139C1467.14 188.997 1467.19 188.906 1467.38 188.95C1468.91 189.309 1470.45 189.568 1472.02 189.63C1472.07 189.632 1472.12 189.651 1472.17 189.712C1472 189.741 1471.84 189.768 1471.68 189.8C1471.34 189.869 1471.14 190.081 1471.17 190.429C1471.23 191.181 1471.63 191.74 1472.25 192.142C1472.45 192.271 1472.69 192.252 1472.83 192.039C1473.08 191.658 1473.32 191.271 1473.53 190.865C1473.71 190.518 1473.83 190.141 1473.98 189.747C1477.21 189.589 1480.45 189.341 1483.55 188.171L1483.55 188.172ZM1482.58 185.491C1482.63 185.567 1482.69 185.642 1482.74 185.718C1482.86 185.935 1482.76 186.119 1482.64 186.287C1482.44 186.556 1482.03 186.584 1481.77 186.359C1481.5 186.129 1481.48 185.707 1481.72 185.456C1481.97 185.206 1482.35 185.222 1482.58 185.492V185.491ZM1479.74 188.828C1478.5 188.134 1477.98 186.472 1479.46 184.74C1479.39 184.899 1479.36 184.98 1479.33 185.065C1479.21 185.475 1479.06 185.881 1478.98 186.299C1478.78 187.264 1478.84 188.17 1479.74 188.828Z" fill="#E0E0E0"/>
<path d="M1482.74 185.718C1482.69 185.642 1482.63 185.567 1482.58 185.491C1482.51 185.467 1482.43 185.405 1482.37 185.424C1482.22 185.48 1482.01 185.533 1481.94 185.653C1481.88 185.774 1481.91 186.017 1481.99 186.127C1482.07 186.226 1482.3 186.268 1482.44 186.24C1482.7 186.189 1482.76 185.961 1482.74 185.718Z" fill="#E0E0E0"/>
<path d="M1516.54 168.315C1516.57 168.514 1516.59 168.619 1516.61 168.724C1516.66 168.108 1517.29 168.157 1517.59 167.826C1517.72 167.921 1517.84 168.003 1517.96 168.085C1517.52 167.616 1518.22 167.435 1518.23 167.028C1518.02 167.016 1517.82 167.005 1517.53 166.988C1517.72 166.848 1517.85 166.723 1517.99 166.656C1518.28 166.528 1518.34 166.322 1518.18 166.086C1517.96 165.756 1517.77 165.367 1517.46 165.149C1515.7 163.907 1513.95 162.669 1512.14 161.509C1510.91 160.721 1509.46 160.486 1508.05 160.198C1506.89 159.962 1505.73 159.795 1504.54 159.91C1504.43 159.921 1504.28 159.807 1504.18 159.71C1503.54 159.03 1502.91 158.337 1502.26 157.653C1502.13 157.507 1501.98 157.367 1501.83 157.236C1501.46 156.912 1501.26 156.911 1500.95 157.299C1500.08 158.414 1498.88 159.042 1497.61 159.566C1495.59 160.399 1493.57 161.238 1491.55 162.077C1491.42 162.129 1491.3 162.195 1491.18 162.254C1491.17 162.292 1491.17 162.33 1491.16 162.366C1491.73 162.52 1492.29 162.673 1492.94 162.852C1492.69 162.964 1492.52 163.069 1492.33 163.124C1491.16 163.464 1489.97 163.694 1488.75 163.708C1488.06 163.715 1487.46 163.483 1486.86 163.103C1485.88 162.488 1484.83 161.972 1483.76 161.511C1482.94 161.156 1482.06 160.936 1481.2 160.686C1480.99 160.624 1480.74 160.677 1480.46 160.677C1480.64 161.295 1480.92 161.799 1481.3 162.246C1481.96 163.001 1482.61 163.758 1483.27 164.514C1483.32 164.581 1483.38 164.648 1483.43 164.718C1483.86 165.309 1483.82 165.467 1483.29 165.974C1482.75 166.491 1482.25 167.046 1481.76 167.612C1481.26 168.187 1480.8 168.794 1480.33 169.392C1480.22 169.535 1480.14 169.701 1480.01 169.905C1480.73 170.163 1481.39 170.184 1482.04 169.95C1483.61 169.388 1485.18 168.833 1486.72 168.212C1488.03 167.684 1489.35 167.699 1490.7 167.963C1491.07 168.036 1491.44 168.146 1491.8 168.319C1491.48 168.382 1491.16 168.434 1490.84 168.512C1490.48 168.599 1490.31 168.823 1490.47 169.114C1490.86 169.824 1490.74 170.63 1490.98 171.363C1491.07 171.671 1491.15 171.987 1491.24 172.298C1491.31 172.525 1491.46 172.593 1491.67 172.471C1492.89 171.782 1493.96 170.941 1494.52 169.607C1494.6 169.416 1494.68 169.295 1494.93 169.355C1496.97 169.834 1499.03 170.18 1501.13 170.262C1501.19 170.265 1501.26 170.291 1501.33 170.372C1501.11 170.411 1500.89 170.448 1500.68 170.49C1500.22 170.581 1499.96 170.865 1500 171.33C1500.08 172.334 1500.61 173.082 1501.44 173.618C1501.71 173.792 1502.02 173.765 1502.21 173.481C1502.54 172.972 1502.87 172.455 1503.15 171.913C1503.38 171.449 1503.54 170.946 1503.75 170.42C1508.06 170.208 1512.39 169.877 1516.54 168.313L1516.54 168.315ZM1515.24 164.733C1515.31 164.834 1515.38 164.935 1515.46 165.036C1515.61 165.326 1515.48 165.573 1515.32 165.796C1515.05 166.156 1514.5 166.194 1514.15 165.893C1513.79 165.585 1513.77 165.021 1514.09 164.686C1514.42 164.352 1514.93 164.373 1515.24 164.734V164.733ZM1511.45 169.191C1509.79 168.264 1509.09 166.044 1511.07 163.729C1510.98 163.942 1510.93 164.05 1510.9 164.164C1510.74 164.712 1510.54 165.254 1510.43 165.812C1510.17 167.101 1510.24 168.312 1511.45 169.191Z" fill="#E0E0E0"/>
<path d="M1515.45 165.036C1515.38 164.935 1515.31 164.834 1515.24 164.733C1515.14 164.7 1515.03 164.618 1514.96 164.644C1514.75 164.718 1514.48 164.788 1514.39 164.949C1514.3 165.111 1514.34 165.436 1514.45 165.583C1514.56 165.714 1514.86 165.77 1515.05 165.734C1515.4 165.666 1515.47 165.36 1515.45 165.036Z" fill="#E0E0E0"/>
<path d="M1035.15 810.343C1041.11 808.639 1046.01 811.391 1050.89 814.165C1053.23 815.503 1055.53 816.79 1058.35 816.96C1060.32 817.077 1061.66 818.374 1062.14 820.345C1062.71 822.702 1061.56 824.498 1059.81 825.752C1058.8 826.477 1057.37 826.73 1056.09 826.943C1055.16 827.099 1053.65 828.656 1054.06 829.56C1055.89 833.632 1057.75 837.716 1061.5 840.474C1063.85 842.205 1066.4 842.589 1069.1 841.304C1072.34 839.762 1073.12 836.029 1070.78 833.312C1070.63 833.136 1070.37 832.982 1070.34 832.789C1070.26 832.292 1070.27 831.779 1070.25 831.271C1070.75 831.253 1071.38 831.03 1071.74 831.252C1074.1 832.711 1075.09 836.709 1073.8 839.242C1071.29 844.143 1065.06 845.525 1060.57 842.217C1056.79 839.441 1054.7 835.468 1052.71 831.402C1052.2 830.348 1052.21 830.341 1051.43 830.617C1052.51 833.159 1053.44 835.796 1054.74 838.232C1056.13 840.841 1057.72 843.377 1059.51 845.729C1061.72 848.643 1064.83 849.641 1068.43 848.959C1069.97 848.667 1071.11 847.86 1071.87 846.408C1072.07 846.005 1072.82 845.881 1073.32 845.628C1073.4 846.157 1073.7 846.794 1073.51 847.198C1072.25 849.868 1069.83 850.792 1067.13 850.926C1063.89 851.087 1061 850.072 1058.76 847.575C1055.03 843.394 1052.66 838.399 1050.4 833.352C1050.13 832.759 1049.98 832.093 1049.63 831.566C1049.31 831.099 1048.78 830.778 1048.34 830.396C1048.2 830.514 1048.05 830.637 1047.91 830.756C1048.21 831.658 1048.46 832.577 1048.81 833.456C1051.68 840.694 1055.55 847.305 1061.23 852.729C1061.83 853.302 1062.65 853.665 1063.17 854.29C1063.5 854.679 1063.44 855.382 1063.56 855.942C1063.02 855.958 1062.29 856.207 1061.97 855.948C1060.41 854.652 1058.79 853.362 1057.49 851.816C1052.98 846.449 1049.3 840.561 1046.92 833.919C1046.8 833.573 1046.58 833.257 1046.41 832.929C1046.27 832.98 1046.13 833.032 1045.98 833.083C1046.12 833.554 1046.19 834.049 1046.39 834.49C1049.96 842.711 1053.57 850.922 1057.14 859.148C1057.49 859.962 1058.4 861.063 1057.03 861.638C1055.66 862.211 1055.51 860.78 1055.16 859.967C1051.62 851.732 1048.11 843.481 1044.57 835.238C1044.33 834.673 1044.22 833.76 1043.08 834.462C1043.39 835.05 1043.7 835.601 1043.97 836.172C1047.32 843.092 1049.02 850.35 1048 858.034C1047.73 859.994 1046.74 861.872 1045.95 863.728C1045.8 864.067 1044.98 864.115 1044.47 864.296C1044.35 863.771 1043.94 863.077 1044.14 862.742C1047.4 857.245 1046.55 851.463 1045.33 845.685C1044.54 841.937 1043.11 838.406 1041.17 835.093C1040.96 834.72 1040.58 834.44 1040.27 834.118C1040.17 834.192 1040.06 834.264 1039.95 834.335C1040.57 836.013 1041.21 837.686 1041.79 839.373C1043.15 843.292 1044.16 847.292 1044.27 851.463C1044.39 855.742 1042.93 859.226 1039.02 861.316C1037.14 862.316 1035.11 862.832 1032.99 862.056C1032.53 861.887 1032.02 861.607 1031.75 861.224C1031.54 860.924 1031.5 860.268 1031.69 859.993C1031.88 859.719 1032.61 859.483 1032.86 859.633C1035.06 860.931 1037.08 860.37 1039 859.092C1041.21 857.613 1042.25 855.366 1042.31 852.806C1042.35 850.692 1042.17 848.52 1041.71 846.456C1041.07 843.565 1040.09 840.745 1039.22 837.906C1039.02 837.257 1038.7 836.645 1038.43 836.017C1038.27 836.043 1038.12 836.07 1037.96 836.093C1038.03 836.525 1038.05 836.971 1038.17 837.391C1038.93 840.155 1039.99 842.872 1040.42 845.687C1041.02 849.579 1040.25 853.206 1036.77 855.72C1033.61 857.999 1029.64 857.893 1026.77 855.308C1024.56 853.316 1023.48 850.747 1023.48 847.75C1023.48 846.893 1023.66 846.026 1024.69 846.086C1025.76 846.147 1025.8 847.079 1025.67 847.893C1025.1 851.516 1028.29 855.308 1031.86 855.381C1035.07 855.45 1037.9 852.915 1038.48 849.401C1039.02 846.07 1038.13 842.957 1037.05 839.869C1036.91 839.474 1036.7 839.102 1036.6 838.699C1036.31 837.51 1035.7 836.922 1034.37 837.097C1033.72 837.183 1033.01 836.875 1032.24 836.729C1030.84 838.962 1028.7 839.584 1026.15 839.238C1022.71 838.77 1020.7 835.135 1022.8 832.408C1025.28 829.199 1025.95 825.441 1027.19 821.829C1027.67 820.424 1028.17 819.025 1028.7 817.642C1029.81 814.801 1031.62 812.509 1034.13 810.777L1035.15 810.339L1035.15 810.343Z" fill="#F2F2F2"/>
<path d="M1005.7 871.837C1010.07 870.59 1013.65 872.605 1017.22 874.634C1018.94 875.613 1020.61 876.555 1022.68 876.679C1024.12 876.765 1025.1 877.714 1025.45 879.156C1025.87 880.881 1025.03 882.195 1023.75 883.112C1023.01 883.643 1021.96 883.828 1021.03 883.984C1020.34 884.098 1019.24 885.237 1019.54 885.899C1020.88 888.878 1022.24 891.866 1024.99 893.884C1026.7 895.151 1028.57 895.432 1030.55 894.492C1032.92 893.363 1033.49 890.632 1031.78 888.644C1031.67 888.515 1031.48 888.402 1031.45 888.261C1031.39 887.897 1031.4 887.522 1031.39 887.15C1031.76 887.138 1032.22 886.974 1032.48 887.137C1034.21 888.204 1034.93 891.129 1033.98 892.983C1032.15 896.569 1027.59 897.58 1024.3 895.16C1021.54 893.128 1020.01 890.221 1018.56 887.246C1018.18 886.475 1018.19 886.47 1017.61 886.672C1018.41 888.532 1019.09 890.461 1020.04 892.244C1021.05 894.153 1022.22 896.008 1023.53 897.73C1025.14 899.861 1027.42 900.592 1030.05 900.093C1031.18 899.879 1032.02 899.288 1032.57 898.226C1032.72 897.931 1033.27 897.841 1033.63 897.655C1033.69 898.042 1033.91 898.508 1033.77 898.804C1032.85 900.757 1031.08 901.434 1029.11 901.532C1026.73 901.65 1024.62 900.907 1022.98 899.08C1020.25 896.021 1018.52 892.366 1016.86 888.673C1016.66 888.239 1016.56 887.752 1016.3 887.367C1016.06 887.025 1015.68 886.79 1015.35 886.51C1015.25 886.597 1015.14 886.687 1015.04 886.774C1015.26 887.434 1015.44 888.106 1015.7 888.749C1017.8 894.046 1020.63 898.882 1024.79 902.851C1025.23 903.27 1025.83 903.536 1026.21 903.994C1026.44 904.278 1026.41 904.792 1026.49 905.202C1026.1 905.214 1025.56 905.396 1025.33 905.207C1024.19 904.258 1023 903.315 1022.05 902.183C1018.75 898.256 1016.06 893.948 1014.32 889.088C1014.23 888.835 1014.07 888.604 1013.94 888.364C1013.84 888.401 1013.74 888.439 1013.63 888.476C1013.73 888.821 1013.78 889.183 1013.93 889.505C1016.54 895.521 1019.18 901.529 1021.79 907.548C1022.05 908.144 1022.72 908.949 1021.71 909.37C1020.71 909.789 1020.6 908.742 1020.35 908.147C1017.75 902.122 1015.18 896.085 1012.6 890.053C1012.42 889.64 1012.34 888.972 1011.5 889.486C1011.73 889.915 1011.96 890.319 1012.16 890.736C1014.61 895.8 1015.85 901.111 1015.1 906.733C1014.91 908.167 1014.19 909.541 1013.61 910.899C1013.5 911.147 1012.9 911.182 1012.53 911.315C1012.44 910.931 1012.14 910.423 1012.28 910.178C1014.67 906.155 1014.04 901.925 1013.15 897.697C1012.57 894.955 1011.53 892.371 1010.11 889.947C1009.95 889.674 1009.68 889.469 1009.45 889.234C1009.38 889.288 1009.3 889.341 1009.22 889.393C1009.67 890.62 1010.14 891.844 1010.57 893.079C1011.56 895.947 1012.29 898.873 1012.38 901.925C1012.47 905.056 1011.4 907.605 1008.53 909.134C1007.16 909.866 1005.68 910.244 1004.12 909.675C1003.79 909.552 1003.41 909.347 1003.22 909.067C1003.07 908.847 1003.03 908.367 1003.17 908.166C1003.31 907.966 1003.84 907.793 1004.03 907.903C1005.64 908.853 1007.12 908.442 1008.52 907.507C1010.14 906.425 1010.9 904.781 1010.94 902.908C1010.97 901.36 1010.84 899.771 1010.5 898.261C1010.03 896.146 1009.32 894.082 1008.68 892.006C1008.54 891.531 1008.3 891.083 1008.1 890.623C1007.99 890.642 1007.88 890.662 1007.76 890.679C1007.81 890.994 1007.83 891.321 1007.91 891.628C1008.47 893.651 1009.24 895.639 1009.56 897.699C1010 900.547 1009.44 903.2 1006.89 905.04C1004.58 906.707 1001.67 906.63 999.574 904.738C997.956 903.281 997.166 901.401 997.166 899.208C997.166 898.581 997.296 897.946 998.053 897.991C998.836 898.035 998.862 898.717 998.766 899.313C998.348 901.963 1000.69 904.738 1003.3 904.792C1005.65 904.842 1007.72 902.987 1008.14 900.416C1008.54 897.979 1007.89 895.701 1007.09 893.442C1006.99 893.153 1006.84 892.88 1006.76 892.586C1006.55 891.716 1006.11 891.285 1005.13 891.413C1004.65 891.476 1004.14 891.251 1003.58 891.144C1002.55 892.778 1000.98 893.233 999.117 892.98C996.602 892.637 995.132 889.978 996.672 887.983C998.484 885.635 998.972 882.885 999.879 880.242C1000.23 879.214 1000.6 878.19 1000.99 877.178C1001.79 875.099 1003.12 873.423 1004.96 872.155L1005.71 871.835L1005.7 871.837Z" fill="#E0E0E0"/>
<path d="M1060.53 900.21C1064.11 899.187 1067.05 900.84 1069.98 902.505C1071.39 903.309 1072.77 904.082 1074.46 904.184C1075.64 904.254 1076.45 905.033 1076.73 906.216C1077.08 907.632 1076.39 908.71 1075.34 909.463C1074.73 909.899 1073.87 910.051 1073.1 910.178C1072.54 910.272 1071.64 911.207 1071.88 911.75C1072.98 914.195 1074.1 916.647 1076.35 918.303C1077.76 919.343 1079.3 919.573 1080.92 918.802C1082.86 917.875 1083.33 915.634 1081.93 914.003C1081.84 913.897 1081.68 913.804 1081.66 913.689C1081.61 913.39 1081.62 913.082 1081.61 912.777C1081.91 912.766 1082.29 912.633 1082.5 912.766C1083.92 913.642 1084.51 916.042 1083.73 917.563C1082.23 920.506 1078.49 921.336 1075.79 919.35C1073.52 917.683 1072.27 915.297 1071.08 912.856C1070.77 912.223 1070.77 912.219 1070.3 912.384C1070.96 913.911 1071.51 915.494 1072.29 916.957C1073.13 918.524 1074.08 920.046 1075.16 921.459C1076.48 923.208 1078.35 923.808 1080.51 923.398C1081.44 923.223 1082.12 922.738 1082.58 921.867C1082.7 921.624 1083.15 921.55 1083.45 921.398C1083.49 921.715 1083.68 922.098 1083.56 922.341C1082.81 923.944 1081.36 924.499 1079.73 924.579C1077.79 924.676 1076.05 924.066 1074.71 922.567C1072.46 920.056 1071.05 917.057 1069.68 914.027C1069.52 913.67 1069.44 913.27 1069.22 912.954C1069.03 912.674 1068.71 912.481 1068.45 912.251C1068.36 912.323 1068.28 912.396 1068.19 912.468C1068.37 913.01 1068.52 913.561 1068.73 914.089C1070.46 918.435 1072.78 922.405 1076.19 925.662C1076.55 926.006 1077.04 926.224 1077.36 926.599C1077.55 926.833 1077.52 927.255 1077.59 927.591C1077.26 927.601 1076.82 927.75 1076.64 927.595C1075.7 926.817 1074.72 926.042 1073.94 925.114C1071.23 921.891 1069.03 918.355 1067.6 914.367C1067.52 914.159 1067.39 913.97 1067.29 913.773C1067.2 913.803 1067.12 913.834 1067.03 913.865C1067.11 914.148 1067.16 914.445 1067.28 914.71C1069.42 919.646 1071.59 924.577 1073.73 929.516C1073.94 930.005 1074.49 930.666 1073.67 931.011C1072.84 931.355 1072.76 930.496 1072.55 930.008C1070.42 925.063 1068.31 920.109 1066.19 915.159C1066.04 914.82 1065.98 914.272 1065.29 914.693C1065.47 915.046 1065.66 915.377 1065.83 915.72C1067.84 919.875 1068.86 924.233 1068.24 928.847C1068.09 930.024 1067.49 931.152 1067.01 932.266C1066.93 932.47 1066.43 932.499 1066.13 932.608C1066.05 932.292 1065.81 931.876 1065.93 931.674C1067.89 928.373 1067.37 924.902 1066.64 921.432C1066.17 919.182 1065.31 917.061 1064.15 915.072C1064.02 914.848 1063.79 914.68 1063.61 914.487C1063.54 914.531 1063.48 914.574 1063.41 914.617C1063.78 915.625 1064.17 916.629 1064.52 917.642C1065.33 919.995 1065.94 922.397 1066.01 924.902C1066.08 927.471 1065.2 929.563 1062.85 930.818C1061.72 931.418 1060.51 931.729 1059.23 931.262C1058.95 931.161 1058.65 930.992 1058.49 930.763C1058.36 930.582 1058.34 930.189 1058.45 930.023C1058.57 929.859 1059 929.717 1059.15 929.808C1060.48 930.587 1061.69 930.25 1062.84 929.483C1064.17 928.594 1064.8 927.245 1064.83 925.708C1064.85 924.438 1064.74 923.134 1064.47 921.895C1064.08 920.159 1063.49 918.466 1062.97 916.761C1062.86 916.372 1062.66 916.004 1062.5 915.627C1062.4 915.643 1062.31 915.659 1062.22 915.672C1062.26 915.932 1062.27 916.2 1062.34 916.452C1062.8 918.111 1063.43 919.743 1063.69 921.433C1064.05 923.77 1063.59 925.948 1061.5 927.458C1059.61 928.826 1057.22 928.763 1055.5 927.211C1054.17 926.015 1053.52 924.472 1053.52 922.672C1053.52 922.158 1053.63 921.637 1054.25 921.673C1054.89 921.709 1054.91 922.269 1054.84 922.758C1054.49 924.933 1056.41 927.21 1058.55 927.254C1060.48 927.296 1062.18 925.774 1062.53 923.663C1062.86 921.663 1062.32 919.794 1061.67 917.94C1061.58 917.703 1061.46 917.479 1061.4 917.237C1061.22 916.524 1060.86 916.17 1060.06 916.275C1059.67 916.327 1059.25 916.142 1058.78 916.054C1057.94 917.395 1056.65 917.769 1055.12 917.561C1053.06 917.28 1051.85 915.097 1053.12 913.46C1054.6 911.533 1055 909.277 1055.75 907.108C1056.04 906.264 1056.34 905.424 1056.66 904.593C1057.32 902.887 1058.41 901.511 1059.92 900.471L1060.53 900.208L1060.53 900.21Z" fill="#F2F2F2"/>
</svg>
