<svg width="338" height="263" viewBox="0 0 338 263" fill="none" xmlns="http://www.w3.org/2000/svg">
<path d="M68.0943 39.5674C65.4581 28.6734 57.1101 24.7666 47.9549 21.9105C38.8917 19.0748 29.5321 16.9837 20.7856 13.383C15.5234 11.2205 11.1706 6.83428 6.46017 3.38654C5.15228 2.4277 4.02832 1.24445 2.6387 0C-1.03973 4.03937 -0.416443 8.21134 1.73953 11.6285C7.51263 20.7477 12.9383 30.3463 20.1623 38.2312C27.509 46.2487 36.8379 52.471 45.3392 59.4277C47.1682 60.9271 49.1811 62.2022 51.0816 63.6302C58.98 69.5465 62.7095 76.697 61.4323 87.2238C59.1742 105.819 60.012 124.425 66.1734 142.449C69.3 151.589 74.4805 159.361 81.1425 166.359C86.2821 171.745 90.7576 177.742 95.703 183.312C122.801 213.903 155.723 234.855 196.073 243.382C210.961 246.534 226.011 247.166 241.165 246.075C246.457 245.698 250.299 248.87 250.493 254.154C250.545 255.592 249.206 257.336 248.062 258.499C246.897 259.682 245.17 260.315 243.688 261.192C243.811 261.712 243.934 262.243 244.056 262.763C247.295 262.763 250.667 263.365 253.732 262.651C262.295 260.641 270.939 258.662 279.155 255.612C291.12 251.175 293.02 245.004 286.746 233.661C294.798 231.091 302.788 228.53 310.779 225.97C316.378 224.175 320.394 220.482 323.52 215.606C330.673 204.437 334.689 191.982 337.253 179.211C341.218 159.412 329.048 142.316 308.991 138.777C292.755 135.91 276.477 137.43 260.272 139.277C248.603 140.603 237.374 140.174 226.328 135.513C201.56 125.047 175.137 121.069 148.897 116.407C124.844 112.133 102.947 103.198 85.0151 86.112C81.9804 83.2253 79.2114 79.8693 77.0656 76.2788C73.7039 70.6889 75.1345 67.9756 81.5308 66.6292C88.3359 65.1909 95.2126 64.0587 101.977 62.447C116.507 58.9789 127.675 50.5431 136.135 38.4556C137.198 36.9357 137.331 34.763 137.893 32.8964C135.839 32.6414 133.632 31.7641 131.762 32.2333C118.407 35.5995 105.144 36.8133 91.5341 33.2942C84.4021 31.4479 77.3517 32.4475 71.4764 37.66C70.6488 38.3944 69.5146 38.7718 68.0739 39.5572L68.0943 39.5674Z" fill="#F2F2F2"/>
</svg>
