<svg width="106" height="73" viewBox="0 0 106 73" fill="none" xmlns="http://www.w3.org/2000/svg">
<path d="M23.5415 50.9203C24.532 51.5998 25.6717 52.1001 26.2651 53.3791C25.6151 53.7026 25.0141 54.0335 24.3904 54.3067C23.1765 54.8394 21.9185 55.206 20.5951 55.2662C19.5083 55.3158 18.4706 55.1186 17.5115 54.5476C17.4165 54.4907 17.2969 54.4622 17.1868 54.453C15.5714 54.312 13.956 54.1764 12.3405 54.0408C12.2902 54.0368 12.2392 54.0408 12.1669 54.0408C12.6659 55.0134 13.153 55.9636 13.6803 56.9925C13.4034 56.9925 13.231 57.011 13.0636 56.9899C11.7742 56.8238 10.6874 56.1773 9.67608 55.372C9.25193 55.0346 8.87876 54.6257 8.45335 54.2895C8.18464 54.0778 7.87943 53.8813 7.561 53.7807C6.38294 53.4062 5.21999 52.9893 4.22632 52.2119C3.13952 51.3616 2.06404 50.4875 1.04582 49.5506C0.447987 49.0008 0.127672 48.2259 0.0112505 47.3816C-0.047904 46.9535 0.122638 46.5731 0.60783 46.5003C1.34286 46.3898 2.02187 46.0444 2.64048 45.5911C3.78895 44.7495 4.88898 43.8139 6.11108 43.1118C6.98707 42.6083 7.60819 41.8963 8.29099 41.1943C8.99329 40.4717 9.83026 39.9067 10.7151 39.4375C11.2871 39.5421 11.6653 38.9055 12.2524 39.0121C12.7981 39.1113 13.355 39.1371 13.905 39.2086C15.4027 39.4038 16.8873 39.6671 18.3095 40.2243C18.5348 40.3123 18.7764 40.3864 18.9671 40.53C19.2673 40.7569 19.5442 40.7682 19.8639 40.5981C20.1735 40.4334 20.468 40.4664 20.8223 40.569C21.9406 40.8912 23.0922 41.0858 24.213 41.3994C25.0493 41.6336 25.8605 41.9704 26.6786 42.2728C26.8422 42.333 26.9895 42.4435 27.177 42.5487C26.7384 43.2256 26.1871 43.7067 25.5219 44.1176C25.6629 44.1295 25.8039 44.1421 25.9448 44.154C25.9568 44.1745 25.9687 44.1943 25.9807 44.2148C25.892 44.2651 25.8026 44.3154 25.6478 44.4028C25.8687 44.4722 25.9826 44.508 26.1676 44.5662C25.9417 44.905 25.7365 45.212 25.4823 45.5925C25.622 45.5117 25.7006 45.4641 25.7812 45.4204C27.0518 44.7263 28.3211 44.0276 29.596 43.3428C29.7886 43.2395 30.0076 43.172 30.2222 43.1363C30.7445 43.049 31.0982 43.3255 31.1152 43.8807C31.1328 44.453 31.3222 44.9387 31.5846 45.427C31.7218 45.6818 31.8162 46.0192 31.7866 46.3031C31.7199 46.9515 31.8716 47.6251 31.5884 48.255C31.5387 48.3655 31.5916 48.5733 31.6652 48.6891C32.0358 49.274 32.0547 49.9159 31.9326 50.5623C31.7772 51.3828 31.45 52.1292 30.8823 52.7359C30.3153 53.342 29.6923 53.4935 28.9642 53.1501C27.6288 52.5209 26.3136 51.844 24.9738 51.224C24.5352 51.0209 24.0481 50.9329 23.583 50.7919L23.5421 50.9236L23.5415 50.9203ZM6.31246 45.7685C6.40056 45.9094 6.4465 45.9815 6.49055 46.0543C7.03427 46.9469 7.21866 47.8752 6.70326 48.8512C6.37413 49.4745 6.02109 50.0833 5.67812 50.6986C5.62715 50.7906 5.57114 50.8793 5.51765 50.9699C5.54219 50.9838 5.56611 50.9977 5.59065 51.0116C6.50943 50.113 7.20796 49.0676 7.41878 47.733C7.54338 46.9436 7.09154 46.1516 6.31246 45.7685ZM2.43092 47.4584C2.80347 47.7264 3.14266 47.7105 3.39061 47.4736C3.64862 47.2268 3.71596 46.8305 3.55297 46.5135C3.39501 46.2058 3.05519 46.049 2.72858 46.1324C2.40889 46.2138 2.20752 46.4659 2.21255 46.7994C2.36358 46.5254 2.56559 46.4043 2.84752 46.5228C3.07721 46.6194 3.14896 46.8205 3.11371 47.0581C3.05959 47.42 2.79717 47.4789 2.43155 47.4584H2.43092Z" fill="#E0E0E0"/>
<path d="M50.4491 68.9469C51.0991 69.3999 51.8471 69.7334 52.2365 70.5861C51.8099 70.8018 51.4155 71.0223 51.0062 71.2045C50.2096 71.5596 49.384 71.804 48.5155 71.8441C47.8023 71.8772 47.1213 71.7458 46.4919 71.3651C46.4296 71.3271 46.3511 71.3082 46.2788 71.302C45.2187 71.208 44.1586 71.1176 43.0985 71.0272C43.0654 71.0245 43.032 71.0272 42.9845 71.0272C43.312 71.6756 43.6316 72.3091 43.9777 72.995C43.796 72.995 43.6829 73.0073 43.573 72.9932C42.7268 72.8825 42.0136 72.4515 41.3499 71.9147C41.0716 71.6897 40.8267 71.4171 40.5475 71.193C40.3712 71.0519 40.1709 70.9209 39.9619 70.8538C39.1888 70.6041 38.4256 70.3262 37.7735 69.8079C37.0603 69.2411 36.3545 68.6584 35.6863 68.0337C35.294 67.6672 35.0838 67.1506 35.0074 66.5878C34.9686 66.3024 35.0805 66.0487 35.3989 66.0002C35.8812 65.9265 36.3269 65.6963 36.7328 65.3941C37.4865 64.833 38.2084 64.2092 39.0104 63.7412C39.5853 63.4055 39.9929 62.9309 40.441 62.4629C40.9018 61.9812 41.4511 61.6044 42.0318 61.2917C42.4072 61.3614 42.6554 60.937 43.0407 61.008C43.3987 61.0742 43.7642 61.0914 44.1252 61.1391C45.108 61.2692 46.0823 61.4448 47.0156 61.8162C47.1634 61.8748 47.322 61.9242 47.4472 62.02C47.6442 62.1713 47.8259 62.1788 48.0357 62.0654C48.2388 61.9556 48.4321 61.9776 48.6646 62.046C49.3985 62.2608 50.1542 62.3905 50.8898 62.5996C51.4386 62.7558 51.9709 62.9803 52.5078 63.1819C52.6152 63.222 52.7118 63.2957 52.8349 63.3658C52.5471 63.8171 52.1853 64.1378 51.7488 64.4117C51.8413 64.4197 51.9338 64.428 52.0263 64.436C52.0341 64.4497 52.042 64.4629 52.0498 64.4766C51.9916 64.5101 51.933 64.5436 51.8314 64.6018C51.9763 64.6482 52.0511 64.672 52.1725 64.7108C52.0242 64.9366 51.8896 65.1413 51.7227 65.395C51.8144 65.3412 51.8661 65.3094 51.9189 65.2803C52.7527 64.8175 53.5857 64.3517 54.4224 63.8952C54.5488 63.8264 54.6925 63.7814 54.8333 63.7575C55.1761 63.6993 55.4082 63.8837 55.4193 64.2538C55.4309 64.6354 55.5552 64.9591 55.7274 65.2847C55.8174 65.4545 55.8794 65.6795 55.86 65.8687C55.8162 66.301 55.9157 66.7501 55.7299 67.17C55.6973 67.2437 55.732 67.3822 55.7803 67.4594C56.0235 67.8494 56.0359 68.2772 55.9558 68.7082C55.8538 69.2552 55.639 69.7528 55.2665 70.1573C54.8944 70.5613 54.4856 70.6624 54.0078 70.4334C53.1314 70.0139 52.2683 69.5627 51.3891 69.1493C51.1012 69.0139 50.7816 68.9552 50.4764 68.8613L50.4495 68.9491L50.4491 68.9469ZM39.1426 65.5123C39.2004 65.6063 39.2305 65.6543 39.2594 65.7029C39.6162 66.2979 39.7372 66.9168 39.399 67.5675C39.183 67.983 38.9513 68.3888 38.7263 68.7991C38.6928 68.8604 38.6561 68.9195 38.621 68.9799C38.6371 68.9892 38.6528 68.9985 38.6689 69.0077C39.2718 68.4087 39.7302 67.7117 39.8686 66.822C39.9503 66.2957 39.6538 65.7677 39.1426 65.5123ZM36.5953 66.6389C36.8398 66.8176 37.0624 66.807 37.2251 66.6491C37.3944 66.4845 37.4386 66.2203 37.3316 66.009C37.228 65.8039 37.005 65.6993 36.7906 65.7549C36.5808 65.8092 36.4487 65.9772 36.452 66.1996C36.5511 66.0169 36.6837 65.9362 36.8687 66.0152C37.0194 66.0796 37.0665 66.2137 37.0434 66.372C37.0079 66.6133 36.8356 66.6526 36.5957 66.6389H36.5953Z" fill="#F2F2F2"/>
<path d="M92.9205 41.6091C93.6324 42.0999 94.4515 42.4612 94.8781 43.3849C94.4108 43.6186 93.9789 43.8575 93.5306 44.0549C92.6581 44.4396 91.754 44.7043 90.8027 44.7478C90.0216 44.7836 89.2757 44.6412 88.5864 44.2288C88.5181 44.1877 88.4322 44.1672 88.353 44.1605C87.1919 44.0587 86.0309 43.9607 84.8698 43.8628C84.8336 43.8599 84.797 43.8628 84.7449 43.8628C85.1036 44.5652 85.4537 45.2515 85.8327 45.9946C85.6337 45.9946 85.5098 46.008 85.3895 45.9927C84.4627 45.8727 83.6815 45.4058 82.9547 44.8243C82.6498 44.5805 82.3816 44.2852 82.0758 44.0424C81.8827 43.8895 81.6633 43.7476 81.4345 43.675C80.5877 43.4045 79.7519 43.1034 79.0377 42.5419C78.2565 41.9278 77.4835 41.2966 76.7517 40.6199C76.322 40.2228 76.0918 39.6632 76.0081 39.0534C75.9656 38.7442 76.0881 38.4694 76.4369 38.4169C76.9652 38.3371 77.4532 38.0876 77.8978 37.7603C78.7233 37.1524 79.514 36.4767 80.3923 35.9697C81.022 35.606 81.4684 35.0918 81.9591 34.5848C82.4639 34.0629 83.0655 33.6548 83.7015 33.316C84.1126 33.3915 84.3844 32.9318 84.8064 33.0087C85.1986 33.0804 85.5989 33.099 85.9942 33.1506C87.0707 33.2916 88.1377 33.4818 89.1599 33.8842C89.3219 33.9477 89.4956 34.0013 89.6326 34.105C89.8484 34.2689 90.0474 34.277 90.2772 34.1542C90.4997 34.0352 90.7114 34.0591 90.966 34.1332C91.7698 34.3659 92.5975 34.5064 93.4031 34.7329C94.0042 34.9021 94.5872 35.1453 95.1752 35.3637C95.2928 35.4072 95.3987 35.487 95.5335 35.563C95.2182 36.0518 94.822 36.3993 94.3439 36.696C94.4452 36.7046 94.5465 36.7137 94.6478 36.7223C94.6564 36.7371 94.665 36.7515 94.6736 36.7663C94.6098 36.8026 94.5456 36.8389 94.4343 36.902C94.5931 36.9522 94.675 36.978 94.808 37.02C94.6456 37.2647 94.4981 37.4864 94.3154 37.7612C94.4158 37.7029 94.4723 37.6685 94.5302 37.637C95.4435 37.1357 96.3558 36.631 97.2721 36.1364C97.4106 36.0619 97.568 36.0131 97.7222 35.9873C98.0976 35.9243 98.3518 36.124 98.364 36.5249C98.3767 36.9383 98.5128 37.2891 98.7015 37.6417C98.8001 37.8257 98.8679 38.0694 98.8466 38.2745C98.7987 38.7428 98.9077 39.2293 98.7042 39.6842C98.6684 39.764 98.7064 39.9141 98.7593 39.9977C99.0258 40.4201 99.0393 40.8837 98.9516 41.3506C98.8399 41.9431 98.6047 42.4822 98.1967 42.9204C97.7891 43.3581 97.3414 43.4676 96.818 43.2195C95.8582 42.7651 94.9129 42.2762 93.9499 41.8284C93.6347 41.6817 93.2846 41.6182 92.9503 41.5164L92.9209 41.6115L92.9205 41.6091ZM80.5371 37.8883C80.6004 37.9901 80.6334 38.0422 80.6651 38.0948C81.0559 38.7394 81.1884 39.4099 80.818 40.1148C80.5814 40.5649 80.3277 41.0046 80.0812 41.449C80.0445 41.5154 80.0043 41.5795 79.9658 41.6449C79.9835 41.655 80.0006 41.665 80.0183 41.675C80.6787 41.0261 81.1807 40.271 81.3322 39.3072C81.4218 38.737 81.097 38.165 80.5371 37.8883ZM77.7472 39.1088C78.015 39.3024 78.2588 39.2909 78.437 39.1198C78.6224 38.9416 78.6708 38.6553 78.5537 38.4264C78.4402 38.2042 78.1959 38.091 77.9612 38.1512C77.7314 38.2099 77.5867 38.392 77.5903 38.6329C77.6988 38.435 77.844 38.3476 78.0467 38.4331C78.2117 38.5029 78.2633 38.6482 78.238 38.8197C78.1991 39.0811 78.0105 39.1236 77.7477 39.1088H77.7472Z" fill="#E0E0E0"/>
<path d="M101.242 24.6224C101.799 24.9999 102.44 25.2778 102.774 25.9884C102.408 26.1681 102.07 26.3519 101.72 26.5037C101.037 26.7997 100.329 27.0033 99.5848 27.0368C98.9734 27.0643 98.3897 26.9548 97.8502 26.6376C97.7968 26.6059 97.7295 26.5901 97.6676 26.585C96.7589 26.5067 95.8502 26.4313 94.9416 26.356C94.9132 26.3538 94.8846 26.356 94.8439 26.356C95.1246 26.8963 95.3986 27.4242 95.6952 27.9958C95.5394 27.9958 95.4424 28.0061 95.3483 27.9944C94.623 27.9021 94.0116 27.543 93.4428 27.0956C93.2042 26.9081 92.9943 26.6809 92.755 26.4942C92.6039 26.3766 92.4322 26.2674 92.2531 26.2115C91.5904 26.0034 90.9362 25.7719 90.3773 25.3399C89.766 24.8676 89.161 24.382 88.5883 23.8614C88.252 23.556 88.0718 23.1255 88.0063 22.6565C87.9731 22.4186 88.069 22.2073 88.3419 22.1668C88.7554 22.1054 89.1373 21.9135 89.4853 21.6617C90.1313 21.1942 90.75 20.6744 91.4375 20.2843C91.9302 20.0046 92.2796 19.6091 92.6637 19.219C93.0587 18.8176 93.5295 18.5037 94.0272 18.2431C94.349 18.3012 94.5617 17.9475 94.892 18.0067C95.1989 18.0618 95.5122 18.0762 95.8216 18.1159C96.664 18.2243 97.4991 18.3706 98.2991 18.6801C98.4258 18.729 98.5617 18.7702 98.669 18.85C98.8378 18.9761 98.9936 18.9823 99.1734 18.8878C99.3476 18.7963 99.5132 18.8147 99.7125 18.8717C100.342 19.0507 100.989 19.1588 101.62 19.333C102.09 19.4631 102.547 19.6502 103.007 19.8182C103.099 19.8517 103.182 19.9131 103.287 19.9715C103.04 20.3476 102.73 20.6148 102.356 20.8431C102.435 20.8497 102.515 20.8567 102.594 20.8633C102.601 20.8747 102.607 20.8857 102.614 20.8971C102.564 20.9251 102.514 20.953 102.427 21.0015C102.551 21.0401 102.615 21.06 102.719 21.0923C102.592 21.2805 102.477 21.4511 102.334 21.6625C102.412 21.6176 102.457 21.5912 102.502 21.5669C103.217 21.1813 103.931 20.7931 104.648 20.4126C104.756 20.3553 104.879 20.3178 105 20.2979C105.294 20.2494 105.493 20.4031 105.502 20.7115C105.512 21.0295 105.619 21.2993 105.766 21.5706C105.844 21.7121 105.897 21.8996 105.88 22.0573C105.842 22.4175 105.928 22.7917 105.768 23.1417C105.741 23.2031 105.77 23.3185 105.812 23.3828C106.02 23.7078 106.031 24.0644 105.962 24.4235C105.875 24.8793 105.691 25.294 105.371 25.6311C105.052 25.9678 104.702 26.052 104.292 25.8612C103.541 25.5116 102.801 25.1355 102.048 24.7911C101.801 24.6783 101.527 24.6294 101.265 24.5511L101.242 24.6242L101.242 24.6224ZM91.5508 21.7603C91.6003 21.8386 91.6262 21.8786 91.6509 21.9191C91.9568 22.4149 92.0605 22.9307 91.7706 23.4729C91.5854 23.8192 91.3869 24.1574 91.1939 24.4992C91.1653 24.5503 91.1338 24.5996 91.1037 24.6499C91.1175 24.6577 91.1309 24.6654 91.1447 24.6731C91.6616 24.1739 92.0545 23.5931 92.1731 22.8517C92.2431 22.4131 91.989 21.9731 91.5508 21.7603ZM89.3674 22.6991C89.577 22.848 89.7677 22.8392 89.9072 22.7076C90.0523 22.5704 90.0902 22.3503 89.9985 22.1742C89.9097 22.0032 89.7185 21.9161 89.5348 21.9624C89.355 22.0076 89.2417 22.1477 89.2446 22.333C89.3295 22.1808 89.4431 22.1135 89.6017 22.1793C89.7309 22.233 89.7713 22.3447 89.7515 22.4767C89.721 22.6778 89.5734 22.7105 89.3677 22.6991H89.3674Z" fill="#F2F2F2"/>
<path d="M79.5415 11.9203C80.532 12.5998 81.6717 13.1001 82.2651 14.3791C81.6151 14.7026 81.0141 15.0335 80.3904 15.3067C79.1765 15.8394 77.9185 16.206 76.5951 16.2662C75.5083 16.3158 74.4706 16.1186 73.5115 15.5476C73.4165 15.4907 73.2969 15.4622 73.1868 15.453C71.5714 15.312 69.956 15.1764 68.3405 15.0408C68.2902 15.0368 68.2392 15.0408 68.1669 15.0408C68.6659 16.0134 69.153 16.9636 69.6803 17.9925C69.4034 17.9925 69.231 18.011 69.0636 17.9899C67.7742 17.8238 66.6874 17.1773 65.6761 16.372C65.2519 16.0346 64.8788 15.6257 64.4533 15.2895C64.1846 15.0778 63.8794 14.8813 63.561 14.7807C62.3829 14.4062 61.22 13.9893 60.2263 13.2119C59.1395 12.3616 58.064 11.4875 57.0458 10.5506C56.448 10.0008 56.1277 9.22593 56.0113 8.38163C55.9521 7.95353 56.1226 7.57306 56.6078 7.50028C57.3429 7.38978 58.0219 7.04438 58.6405 6.59113C59.789 5.74948 60.889 4.81386 62.1111 4.11182C62.9871 3.60829 63.6082 2.89632 64.291 2.19428C64.9933 1.47173 65.8303 0.906658 66.7151 0.437529C67.2871 0.542074 67.6653 -0.09446 68.2524 0.0120701C68.7981 0.111322 69.355 0.137127 69.905 0.208588C71.4027 0.403783 72.8873 0.667131 74.3095 1.22426C74.5348 1.31227 74.7764 1.38637 74.9671 1.52996C75.2673 1.75691 75.5442 1.76816 75.8639 1.59811C76.1735 1.43335 76.468 1.46644 76.8223 1.569C77.9406 1.89123 79.0922 2.08577 80.213 2.3994C81.0493 2.63364 81.8605 2.97043 82.6786 3.27282C82.8422 3.33303 82.9895 3.44353 83.177 3.54874C82.7384 4.22563 82.1871 4.70667 81.5219 5.11758C81.6629 5.12949 81.8039 5.14206 81.9448 5.15397C81.9568 5.17448 81.9687 5.19433 81.9807 5.21484C81.892 5.26513 81.8026 5.31542 81.6478 5.40276C81.8687 5.47223 81.9826 5.50797 82.1676 5.56619C81.9417 5.90497 81.7365 6.21199 81.4823 6.59245C81.622 6.51173 81.7006 6.46409 81.7812 6.42042C83.0518 5.72632 84.3211 5.02759 85.596 4.34275C85.7886 4.23953 86.0076 4.17204 86.2222 4.13631C86.7445 4.04897 87.0982 4.32555 87.1152 4.88069C87.1328 5.45305 87.3222 5.93872 87.5846 6.42704C87.7218 6.68178 87.8162 7.01924 87.7866 7.3031C87.7199 7.95154 87.8716 8.62513 87.5884 9.25504C87.5387 9.36554 87.5916 9.57331 87.6652 9.68911C88.0358 10.274 88.0547 10.9159 87.9326 11.5623C87.7772 12.3828 87.45 13.1292 86.8823 13.7359C86.3153 14.342 85.6923 14.4935 84.9642 14.1501C83.6288 13.5209 82.3136 12.844 80.9738 12.224C80.5352 12.0209 80.0481 11.9329 79.583 11.7919L79.5421 11.9236L79.5415 11.9203ZM62.3125 6.76846C62.4006 6.9094 62.4465 6.98152 62.4906 7.05431C63.0343 7.94691 63.2187 8.87524 62.7033 9.85122C62.3741 10.4745 62.0211 11.0833 61.6781 11.6986C61.6272 11.7906 61.5711 11.8793 61.5177 11.9699C61.5422 11.9838 61.5661 11.9977 61.5906 12.0116C62.5094 11.113 63.208 10.0676 63.4188 8.73298C63.5434 7.9436 63.0915 7.15157 62.3125 6.76846ZM58.4309 8.45839C58.8035 8.72637 59.1427 8.71048 59.3906 8.4736C59.6486 8.2268 59.716 7.83045 59.553 7.51351C59.395 7.20583 59.0552 7.04901 58.7286 7.13238C58.4089 7.21377 58.2075 7.46587 58.2126 7.79935C58.3636 7.52542 58.5656 7.40433 58.8475 7.52277C59.0772 7.61938 59.149 7.82053 59.1137 8.05807C59.0596 8.42001 58.7972 8.4789 58.4315 8.45839H58.4309Z" fill="#F2F2F2"/>
</svg>
