<svg width="144" height="56" viewBox="0 0 144 56" fill="none" xmlns="http://www.w3.org/2000/svg">
<path d="M22.0366 30.6783C22.2149 30.4419 22.4808 30.3343 22.7565 30.2436C22.9478 30.1806 22.9804 30.1022 22.826 29.987C21.7813 29.2068 20.722 28.431 19.4004 28.0841C18.5685 27.8656 17.7064 27.7404 16.8545 27.5892C16.6173 27.5471 16.4539 27.478 16.3215 27.2697C16.0458 26.8339 15.6794 26.4575 15.2505 26.1368C15.1955 26.0958 15.1346 26.0584 15.0714 26.0289C14.9527 25.9738 14.8872 25.994 14.8172 26.1203C14.7226 26.2901 14.5946 26.4564 14.441 26.5845C14.0168 26.9382 13.4819 27.0538 12.932 27.1578C12.4976 27.2398 12.0774 27.392 11.6591 27.5338C11.313 27.6515 10.9792 27.7998 10.6183 27.9433C10.3198 27.5165 9.92582 27.1599 9.38185 26.9667C9.26323 26.9246 9.13912 26.8961 8.97416 26.8486C9.19686 27.2668 9.23849 27.663 9.16897 28.0725C9.1242 28.3356 8.99184 28.5281 8.69491 28.6066C8.57001 28.6397 8.45454 28.7178 8.32925 28.7314C8.10577 28.7559 7.90271 28.7628 7.73658 28.9535C7.66549 29.0348 7.45458 29.0143 7.28215 29.0445C7.12858 29.2946 6.84108 29.3367 6.5257 29.3054C6.39805 29.553 6.25587 29.5998 5.88589 29.5221C5.81677 29.729 5.79045 29.8409 5.34467 29.7491C5.31953 29.9672 5.15615 29.9949 4.95623 29.9903C4.89771 29.9888 4.83683 30.0392 4.7787 30.0687C4.73511 30.091 4.69701 30.132 4.65106 30.1396C4.38869 30.1842 4.12594 30.2454 3.86122 30.2562C3.4284 30.2735 3.08905 30.086 2.8589 29.7574C2.24619 28.8822 1.46342 28.1513 0.589926 27.4957C0.364874 27.3265 0.251366 27.2837 0 27.2805C0.095047 27.3888 0.188129 27.4777 0.25922 27.5792C0.833435 28.4036 1.27608 29.2878 1.67158 30.1932C1.6814 30.2152 1.69279 30.2386 1.69436 30.2616C1.75563 31.1688 1.76899 32.0724 1.05849 32.8112C0.789446 33.0912 0.462276 33.3248 0.16103 33.5785C0.123718 33.6098 0.0805149 33.6353 0.0341682 33.7159C0.109972 33.7303 0.188524 33.7656 0.260792 33.7562C0.871141 33.6771 1.37584 33.4129 1.74896 32.9692C2.04274 32.6198 2.29607 32.2416 2.5714 31.8788C2.73125 31.6683 2.87971 31.4466 3.06706 31.2581C3.4013 30.9212 3.8027 30.8827 4.24023 31.1076C4.26576 31.121 4.31053 31.1076 4.3447 31.1015C4.53166 31.0677 4.88553 31.2152 4.96919 31.3635C5.19542 31.2829 5.46328 31.3721 5.54537 31.5557C5.76217 31.4869 6.02061 31.5938 6.0756 31.7748C6.32029 31.6856 6.64785 31.8562 6.70283 32.1142C6.94202 31.9695 7.10855 32.1304 7.26016 32.248C7.36935 32.3326 7.4585 32.338 7.55512 32.2819C7.6973 32.1991 7.77664 32.2495 7.85833 32.3578C8.09045 32.6648 8.14151 33.0063 8.10263 33.3665C8.09556 33.4313 8.08024 33.495 8.06178 33.5975C8.18629 33.5695 8.29665 33.5619 8.38974 33.5209C8.7605 33.3579 9.12773 33.1884 9.49182 33.0135C9.62261 32.9505 9.73454 32.9501 9.87829 32.9937C10.7003 33.2431 11.5511 33.3748 12.4096 33.4583C13.0722 33.5227 13.7364 33.5752 14.4009 33.6166C14.5914 33.6285 14.6621 33.6965 14.6413 33.8552C14.6008 34.1683 14.5537 34.4806 14.507 34.793C14.4975 34.8556 14.4771 34.9168 14.4567 34.9999C14.7438 35.0032 14.9524 34.8866 15.115 34.7286C15.4001 34.4508 15.6672 34.1557 15.9233 33.8548C16.0749 33.6771 16.2296 33.5698 16.4947 33.5403C17.1498 33.4673 17.7951 33.3356 18.398 33.0729C18.4511 33.0498 18.5013 33.021 18.5544 32.9984C18.7064 32.9332 18.7048 32.8595 18.607 32.7378C17.9864 31.9656 17.7425 31.1037 17.8988 30.1522C17.9079 30.0971 17.9295 30.0435 17.957 29.9913C17.9758 30.66 18.0689 31.3146 18.3321 31.9386C18.4275 32.1649 18.5547 32.3855 18.704 32.586C18.9389 32.9012 19.2189 32.9811 19.5881 32.8048C20.125 32.5482 20.6513 32.2686 21.1591 31.967C21.7286 31.6291 22.2746 31.2581 22.826 30.8953C22.8987 30.8475 22.9427 30.7629 23 30.6952C22.9175 30.6452 22.8362 30.556 22.7518 30.5531C22.5801 30.5473 22.4061 30.5844 22.2345 30.6121C22.1662 30.6229 22.1018 30.6553 22.0354 30.678L22.0366 30.6783ZM21.4392 30.0971C21.3229 30.0795 21.1815 30.0824 21.1839 29.9204C21.1858 29.7891 21.2636 29.7049 21.4109 29.702C21.5495 29.6991 21.652 29.7563 21.6603 29.8967C21.6685 30.0313 21.5794 30.0867 21.4392 30.0971Z" fill="#F2F2F2"/>
<path d="M96.869 16.7179C97.0783 16.429 97.3905 16.2975 97.7141 16.1866C97.9387 16.1097 97.9769 16.0138 97.7957 15.873C96.5693 14.9195 95.3258 13.9712 93.7743 13.5472C92.7978 13.2802 91.7858 13.1271 90.7857 12.9424C90.5072 12.8909 90.3154 12.8065 90.16 12.5518C89.8364 12.0192 89.4062 11.5591 88.9027 11.1672C88.8382 11.1171 88.7667 11.0713 88.6925 11.0353C88.5532 10.968 88.4762 10.9926 88.3942 11.147C88.283 11.3546 88.1327 11.5578 87.9525 11.7144C87.4545 12.1467 86.8265 12.2879 86.181 12.415C85.6711 12.5153 85.1778 12.7014 84.6867 12.8747C84.2805 13.0185 83.8886 13.1997 83.4649 13.3752C83.1145 12.8536 82.652 12.4177 82.0135 12.1815C81.8742 12.13 81.7285 12.0953 81.5349 12.0372C81.7963 12.5483 81.8452 13.0326 81.7636 13.5331C81.711 13.8546 81.5556 14.0899 81.2071 14.1858C81.0604 14.2263 80.9249 14.3217 80.7778 14.3384C80.5155 14.3683 80.2771 14.3767 80.0821 14.6098C79.9986 14.7092 79.751 14.6841 79.5486 14.7211C79.3683 15.0268 79.0308 15.0782 78.6606 15.04C78.5108 15.3426 78.3439 15.3998 77.9095 15.3048C77.8284 15.5577 77.7975 15.6944 77.2742 15.5823C77.2447 15.8488 77.0529 15.8827 76.8182 15.877C76.7495 15.8752 76.678 15.9368 76.6098 15.9729C76.5586 16.0001 76.5139 16.0503 76.4599 16.0595C76.1519 16.114 75.8435 16.1888 75.5327 16.202C75.0246 16.2231 74.6263 15.994 74.3561 15.5924C73.6368 14.5227 72.7179 13.6294 71.6925 12.828C71.4283 12.6213 71.2951 12.569 71 12.565C71.1116 12.6974 71.2208 12.8061 71.3043 12.9301C71.9784 13.9377 72.498 15.0184 72.9623 16.125C72.9738 16.1519 72.9872 16.1805 72.989 16.2086C73.061 17.3174 73.0766 18.4219 72.2426 19.3248C71.9267 19.667 71.5427 19.9525 71.189 20.2626C71.1452 20.3008 71.0945 20.3321 71.0401 20.4306C71.1291 20.4482 71.2213 20.4913 71.3061 20.4798C72.0226 20.3831 72.6151 20.0602 73.0531 19.5179C73.398 19.0909 73.6954 18.6286 74.0186 18.1852C74.2062 17.9279 74.3805 17.657 74.6005 17.4265C74.9928 17.0148 75.464 16.9678 75.9777 17.2427C76.0076 17.2589 76.0602 17.2427 76.1003 17.2352C76.3198 17.1938 76.7352 17.3742 76.8334 17.5554C77.099 17.4569 77.4134 17.5659 77.5098 17.7903C77.7643 17.7063 78.0677 17.8369 78.1322 18.0581C78.4195 17.949 78.804 18.1575 78.8685 18.4729C79.1493 18.2961 79.3448 18.4927 79.5228 18.6365C79.651 18.7399 79.7556 18.7465 79.8691 18.6778C80.036 18.5767 80.1291 18.6383 80.225 18.7707C80.4975 19.1458 80.5574 19.5632 80.5118 20.0035C80.5035 20.0827 80.4855 20.1605 80.4638 20.2859C80.61 20.2516 80.7395 20.2423 80.8488 20.1922C81.2841 19.993 81.7152 19.7858 82.1426 19.572C82.2961 19.4951 82.4275 19.4946 82.5963 19.5478C83.5613 19.8526 84.5599 20.0136 85.5678 20.1157C86.3456 20.1944 87.1253 20.2586 87.9054 20.3092C88.129 20.3237 88.212 20.4068 88.1876 20.6008C88.1401 20.9835 88.0848 21.3652 88.0299 21.747C88.0189 21.8235 87.9949 21.8983 87.9709 21.9999C88.3079 22.0039 88.5528 21.8614 88.7436 21.6683C89.0784 21.3287 89.3919 20.9681 89.6925 20.6004C89.8705 20.3831 90.0522 20.252 90.3634 20.2159C91.1324 20.1267 91.89 19.9657 92.5977 19.6446C92.6599 19.6165 92.719 19.5813 92.7812 19.5536C92.9596 19.4739 92.9578 19.3838 92.843 19.2351C92.1145 18.2912 91.8282 17.2378 92.0117 16.0749C92.0223 16.0076 92.0476 15.9421 92.0799 15.8783C92.102 16.6955 92.2113 17.4956 92.5202 18.2582C92.6323 18.5349 92.7817 18.8045 92.9569 19.0495C93.2326 19.4348 93.5613 19.5324 93.9947 19.3169C94.625 19.0033 95.2428 18.6616 95.839 18.293C96.5075 17.88 97.1484 17.4265 97.7957 16.9832C97.881 16.9247 97.9327 16.8213 98 16.7386C97.9032 16.6775 97.8077 16.5684 97.7086 16.5649C97.5071 16.5578 97.3029 16.6031 97.1014 16.637C97.0212 16.6502 96.9455 16.6898 96.8676 16.7175L96.869 16.7179ZM96.1677 16.0076C96.0312 15.9861 95.8653 15.9896 95.868 15.7917C95.8703 15.6311 95.9616 15.5282 96.1345 15.5247C96.2973 15.5212 96.4176 15.5911 96.4273 15.7626C96.437 15.9271 96.3323 15.9949 96.1677 16.0076Z" fill="#E0E0E0"/>
<path d="M125.869 5.71794C126.078 5.42897 126.39 5.29746 126.714 5.18662C126.939 5.10965 126.977 5.01377 126.796 4.87302C125.569 3.91946 124.326 2.97117 122.774 2.54717C121.798 2.28019 120.786 2.12713 119.786 1.9424C119.507 1.89094 119.315 1.80649 119.16 1.55183C118.836 1.01919 118.406 0.559119 117.903 0.167226C117.838 0.117085 117.767 0.0713421 117.692 0.0352756C117.553 -0.0320191 117.476 -0.0073893 117.394 0.146993C117.283 0.354595 117.133 0.5578 116.952 0.714381C116.455 1.14674 115.827 1.28793 115.181 1.41504C114.671 1.51532 114.178 1.70137 113.687 1.87467C113.281 2.01849 112.889 2.1997 112.465 2.3752C112.114 1.85355 111.652 1.41768 111.013 1.18149C110.874 1.13002 110.729 1.09528 110.535 1.03722C110.796 1.54831 110.845 2.03257 110.764 2.5331C110.711 2.85462 110.556 3.08993 110.207 3.18581C110.06 3.22628 109.925 3.32172 109.778 3.33843C109.515 3.36834 109.277 3.3767 109.082 3.60981C108.999 3.70922 108.751 3.68415 108.549 3.72109C108.368 4.02678 108.031 4.07824 107.661 4.03997C107.511 4.34258 107.344 4.39976 106.91 4.30475C106.828 4.55766 106.797 4.69445 106.274 4.58229C106.245 4.84883 106.053 4.8827 105.818 4.87698C105.749 4.87522 105.678 4.9368 105.61 4.97286C105.559 5.00013 105.514 5.05027 105.46 5.05951C105.152 5.11405 104.843 5.18882 104.533 5.20201C104.025 5.22313 103.626 4.99397 103.356 4.5924C102.637 3.52273 101.718 2.62942 100.693 1.82804C100.428 1.62132 100.295 1.56898 100 1.56502C100.112 1.69741 100.221 1.80605 100.304 1.93009C100.978 2.93775 101.498 4.01842 101.962 5.12504C101.974 5.15187 101.987 5.18046 101.989 5.20861C102.061 6.31744 102.077 7.42186 101.243 8.32484C100.927 8.66704 100.543 8.95249 100.189 9.26257C100.145 9.30084 100.095 9.33207 100.04 9.43059C100.129 9.44818 100.221 9.49129 100.306 9.47985C101.023 9.38309 101.615 9.06025 102.053 8.51793C102.398 8.09085 102.695 7.62859 103.019 7.18523C103.206 6.92793 103.381 6.65699 103.6 6.42652C103.993 6.01483 104.464 5.96777 104.978 6.24267C105.008 6.25894 105.06 6.24267 105.1 6.23519C105.32 6.19385 105.735 6.37418 105.833 6.55539C106.099 6.45686 106.413 6.56595 106.51 6.79026C106.764 6.70625 107.068 6.83688 107.132 7.05812C107.419 6.94904 107.804 7.15752 107.869 7.47288C108.149 7.29607 108.345 7.49268 108.523 7.6365C108.651 7.73986 108.756 7.74646 108.869 7.67785C109.036 7.57669 109.129 7.63826 109.225 7.77065C109.497 8.14583 109.557 8.56324 109.512 9.00351C109.503 9.08268 109.486 9.16053 109.464 9.28588C109.61 9.25158 109.74 9.24234 109.849 9.1922C110.284 8.99295 110.715 8.78579 111.143 8.57203C111.296 8.49506 111.428 8.49462 111.596 8.54784C112.561 8.85264 113.56 9.01363 114.568 9.11567C115.346 9.1944 116.125 9.25861 116.905 9.30919C117.129 9.32371 117.212 9.40684 117.188 9.6008C117.14 9.98346 117.085 10.3652 117.03 10.747C117.019 10.8235 116.995 10.8983 116.971 10.9999C117.308 11.0039 117.553 10.8614 117.744 10.6683C118.078 10.3287 118.392 9.96807 118.693 9.60036C118.87 9.38309 119.052 9.25202 119.363 9.21595C120.132 9.12666 120.89 8.96568 121.598 8.6446C121.66 8.61645 121.719 8.58127 121.781 8.55356C121.96 8.47395 121.958 8.38378 121.843 8.23512C121.114 7.29123 120.828 6.23783 121.012 5.0749C121.022 5.00761 121.048 4.94207 121.08 4.8783C121.102 5.69551 121.211 6.49557 121.52 7.25824C121.632 7.5349 121.782 7.80452 121.957 8.04951C122.233 8.4348 122.561 8.53245 122.995 8.31693C123.625 8.00332 124.243 7.66157 124.839 7.29299C125.508 6.87999 126.148 6.42652 126.796 5.98316C126.881 5.92466 126.933 5.8213 127 5.73861C126.903 5.67748 126.808 5.5684 126.709 5.56488C126.507 5.55784 126.303 5.60315 126.101 5.63701C126.021 5.65021 125.946 5.68979 125.868 5.7175L125.869 5.71794ZM125.168 5.00761C125.031 4.98606 124.865 4.98958 124.868 4.79165C124.87 4.63111 124.962 4.52819 125.135 4.52467C125.297 4.52115 125.418 4.59108 125.427 4.76262C125.437 4.92712 125.332 4.99485 125.168 5.00761Z" fill="#F2F2F2"/>
<path d="M111.037 51.6783C111.215 51.4419 111.481 51.3343 111.756 51.2436C111.948 51.1806 111.98 51.1022 111.826 50.987C110.781 50.2068 109.722 49.431 108.4 49.0841C107.568 48.8656 106.706 48.7404 105.854 48.5892C105.617 48.5471 105.454 48.478 105.322 48.2697C105.046 47.8339 104.679 47.4575 104.25 47.1368C104.195 47.0958 104.135 47.0584 104.071 47.0289C103.953 46.9738 103.887 46.994 103.817 47.1203C103.723 47.2901 103.595 47.4564 103.441 47.5845C103.017 47.9382 102.482 48.0538 101.932 48.1578C101.498 48.2398 101.077 48.392 100.659 48.5338C100.313 48.6515 99.9792 48.7998 99.6183 48.9433C99.3198 48.5165 98.9258 48.1599 98.3818 47.9667C98.2632 47.9246 98.1391 47.8961 97.9742 47.8486C98.1969 48.2668 98.2385 48.663 98.169 49.0725C98.1242 49.3356 97.9918 49.5281 97.6949 49.6066C97.57 49.6397 97.4545 49.7178 97.3293 49.7314C97.1058 49.7559 96.9027 49.7628 96.7366 49.9535C96.6655 50.0348 96.4546 50.0143 96.2822 50.0445C96.1286 50.2946 95.8411 50.3367 95.5257 50.3054C95.3981 50.553 95.2559 50.5998 94.8859 50.5221C94.8168 50.729 94.7905 50.8409 94.3447 50.7491C94.3195 50.9672 94.1561 50.9949 93.9562 50.9903C93.8977 50.9888 93.8368 51.0392 93.7787 51.0687C93.7351 51.091 93.697 51.132 93.6511 51.1396C93.3887 51.1842 93.1259 51.2454 92.8612 51.2562C92.4284 51.2735 92.0891 51.086 91.8589 50.7574C91.2462 49.8822 90.4634 49.1513 89.5899 48.4957C89.3649 48.3265 89.2514 48.2837 89 48.2805C89.095 48.3888 89.1881 48.4777 89.2592 48.5792C89.8334 49.4036 90.2761 50.2878 90.6716 51.1932C90.6814 51.2152 90.6928 51.2386 90.6944 51.2616C90.7556 52.1688 90.769 53.0724 90.0585 53.8112C89.7894 54.0912 89.4623 54.3248 89.161 54.5785C89.1237 54.6098 89.0805 54.6353 89.0342 54.7159C89.11 54.7303 89.1885 54.7656 89.2608 54.7562C89.8711 54.6771 90.3758 54.4129 90.749 53.9692C91.0427 53.6198 91.2961 53.2416 91.5714 52.8788C91.7312 52.6683 91.8797 52.4466 92.0671 52.2581C92.4013 51.9212 92.8027 51.8827 93.2402 52.1076C93.2658 52.121 93.3105 52.1076 93.3447 52.1015C93.5317 52.0677 93.8855 52.2152 93.9692 52.3635C94.1954 52.2829 94.4633 52.3721 94.5454 52.5557C94.7622 52.4869 95.0206 52.5938 95.0756 52.7748C95.3203 52.6856 95.6478 52.8562 95.7028 53.1142C95.942 52.9695 96.1086 53.1304 96.2602 53.248C96.3693 53.3326 96.4585 53.338 96.5551 53.2819C96.6973 53.1991 96.7766 53.2495 96.8583 53.3578C97.0905 53.6648 97.1415 54.0063 97.1026 54.3665C97.0956 54.4313 97.0802 54.495 97.0618 54.5975C97.1863 54.5695 97.2967 54.5619 97.3897 54.5209C97.7605 54.3579 98.1277 54.1884 98.4918 54.0135C98.6226 53.9505 98.7345 53.9501 98.8783 53.9937C99.7003 54.2431 100.551 54.3748 101.41 54.4583C102.072 54.5227 102.736 54.5752 103.401 54.6166C103.591 54.6285 103.662 54.6965 103.641 54.8552C103.601 55.1683 103.554 55.4806 103.507 55.793C103.498 55.8556 103.477 55.9168 103.457 55.9999C103.744 56.0032 103.952 55.8866 104.115 55.7286C104.4 55.4508 104.667 55.1557 104.923 54.8548C105.075 54.6771 105.23 54.5698 105.495 54.5403C106.15 54.4673 106.795 54.3356 107.398 54.0729C107.451 54.0498 107.501 54.021 107.554 53.9984C107.706 53.9332 107.705 53.8595 107.607 53.7378C106.986 52.9656 106.743 52.1037 106.899 51.1522C106.908 51.0971 106.929 51.0435 106.957 50.9913C106.976 51.66 107.069 52.3146 107.332 52.9386C107.427 53.1649 107.555 53.3855 107.704 53.586C107.939 53.9012 108.219 53.9811 108.588 53.8048C109.125 53.5482 109.651 53.2686 110.159 52.967C110.729 52.6291 111.275 52.2581 111.826 51.8953C111.899 51.8475 111.943 51.7629 112 51.6952C111.918 51.6452 111.836 51.556 111.752 51.5531C111.58 51.5473 111.406 51.5844 111.235 51.6121C111.166 51.6229 111.102 51.6553 111.035 51.678L111.037 51.6783ZM110.439 51.0971C110.323 51.0795 110.182 51.0824 110.184 50.9204C110.186 50.7891 110.264 50.7049 110.411 50.702C110.55 50.6991 110.652 50.7563 110.66 50.8967C110.669 51.0313 110.579 51.0867 110.439 51.0971Z" fill="#F2F2F2"/>
<path d="M69.869 41.7179C70.0783 41.429 70.3905 41.2975 70.7141 41.1866C70.9387 41.1097 70.9769 41.0138 70.7957 40.873C69.5693 39.9195 68.3258 38.9712 66.7743 38.5472C65.7978 38.2802 64.7858 38.1271 63.7857 37.9424C63.5072 37.8909 63.3154 37.8065 63.16 37.5518C62.8364 37.0192 62.4062 36.5591 61.9027 36.1672C61.8382 36.1171 61.7667 36.0713 61.6925 36.0353C61.5532 35.968 61.4762 35.9926 61.3942 36.147C61.283 36.3546 61.1327 36.5578 60.9525 36.7144C60.4545 37.1467 59.8265 37.2879 59.181 37.415C58.6711 37.5153 58.1778 37.7014 57.6867 37.8747C57.2805 38.0185 56.8886 38.1997 56.4649 38.3752C56.1145 37.8536 55.652 37.4177 55.0135 37.1815C54.8742 37.13 54.7285 37.0953 54.5349 37.0372C54.7963 37.5483 54.8452 38.0326 54.7636 38.5331C54.711 38.8546 54.5556 39.0899 54.2071 39.1858C54.0604 39.2263 53.9249 39.3217 53.7778 39.3384C53.5155 39.3683 53.2771 39.3767 53.0821 39.6098C52.9986 39.7092 52.751 39.6841 52.5486 39.7211C52.3683 40.0268 52.0308 40.0782 51.6606 40.04C51.5108 40.3426 51.3439 40.3998 50.9095 40.3048C50.8284 40.5577 50.7975 40.6944 50.2742 40.5823C50.2447 40.8488 50.0529 40.8827 49.8182 40.877C49.7495 40.8752 49.678 40.9368 49.6098 40.9729C49.5586 41.0001 49.5139 41.0503 49.4599 41.0595C49.1519 41.114 48.8435 41.1888 48.5327 41.202C48.0246 41.2231 47.6263 40.994 47.3561 40.5924C46.6368 39.5227 45.7179 38.6294 44.6925 37.828C44.4283 37.6213 44.2951 37.569 44 37.565C44.1116 37.6974 44.2208 37.8061 44.3043 37.9301C44.9784 38.9377 45.498 40.0184 45.9623 41.125C45.9738 41.1519 45.9872 41.1805 45.989 41.2086C46.061 42.3174 46.0766 43.4219 45.2426 44.3248C44.9267 44.667 44.5427 44.9525 44.189 45.2626C44.1452 45.3008 44.0945 45.3321 44.0401 45.4306C44.1291 45.4482 44.2213 45.4913 44.3061 45.4798C45.0226 45.3831 45.6151 45.0602 46.0531 44.5179C46.398 44.0909 46.6954 43.6286 47.0186 43.1852C47.2062 42.9279 47.3805 42.657 47.6005 42.4265C47.9928 42.0148 48.464 41.9678 48.9777 42.2427C49.0076 42.2589 49.0602 42.2427 49.1003 42.2352C49.3198 42.1938 49.7352 42.3742 49.8334 42.5554C50.099 42.4569 50.4134 42.5659 50.5098 42.7903C50.7643 42.7063 51.0677 42.8369 51.1322 43.0581C51.4195 42.949 51.804 43.1575 51.8685 43.4729C52.1493 43.2961 52.3448 43.4927 52.5228 43.6365C52.651 43.7399 52.7556 43.7465 52.8691 43.6778C53.036 43.5767 53.1291 43.6383 53.225 43.7707C53.4975 44.1458 53.5574 44.5632 53.5118 45.0035C53.5035 45.0827 53.4855 45.1605 53.4638 45.2859C53.61 45.2516 53.7395 45.2423 53.8488 45.1922C54.2841 44.993 54.7152 44.7858 55.1426 44.572C55.2961 44.4951 55.4275 44.4946 55.5963 44.5478C56.5613 44.8526 57.5599 45.0136 58.5678 45.1157C59.3456 45.1944 60.1253 45.2586 60.9054 45.3092C61.129 45.3237 61.212 45.4068 61.1876 45.6008C61.1401 45.9835 61.0848 46.3652 61.0299 46.747C61.0189 46.8235 60.9949 46.8983 60.9709 46.9999C61.3079 47.0039 61.5528 46.8614 61.7436 46.6683C62.0784 46.3287 62.3919 45.9681 62.6925 45.6004C62.8705 45.3831 63.0522 45.252 63.3634 45.2159C64.1324 45.1267 64.89 44.9657 65.5977 44.6446C65.6599 44.6165 65.719 44.5813 65.7812 44.5536C65.9596 44.4739 65.9578 44.3838 65.843 44.2351C65.1145 43.2912 64.8282 42.2378 65.0117 41.0749C65.0223 41.0076 65.0476 40.9421 65.0799 40.8783C65.102 41.6955 65.2113 42.4956 65.5202 43.2582C65.6323 43.5349 65.7817 43.8045 65.9569 44.0495C66.2326 44.4348 66.5613 44.5324 66.9947 44.3169C67.625 44.0033 68.2428 43.6616 68.839 43.293C69.5075 42.88 70.1484 42.4265 70.7957 41.9832C70.881 41.9247 70.9327 41.8213 71 41.7386C70.9032 41.6775 70.8077 41.5684 70.7086 41.5649C70.5071 41.5578 70.3029 41.6031 70.1014 41.637C70.0212 41.6502 69.9455 41.6898 69.8676 41.7175L69.869 41.7179ZM69.1677 41.0076C69.0312 40.9861 68.8653 40.9896 68.868 40.7917C68.8703 40.6311 68.9616 40.5282 69.1345 40.5247C69.2973 40.5212 69.4176 40.5911 69.4273 40.7626C69.437 40.9271 69.3323 40.9949 69.1677 41.0076Z" fill="#E0E0E0"/>
<path d="M142.45 27.7972C142.737 27.4031 143.165 27.2238 143.608 27.0727C143.916 26.9677 143.968 26.837 143.72 26.645C142.039 25.3447 140.335 24.0516 138.209 23.4734C136.871 23.1094 135.484 22.9006 134.114 22.6487C133.732 22.5786 133.469 22.4634 133.256 22.1161C132.813 21.3898 132.223 20.7624 131.533 20.228C131.445 20.1597 131.347 20.0973 131.245 20.0481C131.054 19.9563 130.949 19.9899 130.836 20.2004C130.684 20.4835 130.478 20.7606 130.231 20.9742C129.549 21.5637 128.688 21.7563 127.804 21.9296C127.105 22.0663 126.429 22.3201 125.756 22.5564C125.199 22.7525 124.662 22.9996 124.082 23.2389C123.601 22.5276 122.968 21.9332 122.093 21.6111C121.902 21.5409 121.702 21.4936 121.437 21.4144C121.795 22.1113 121.862 22.7717 121.75 23.4542C121.678 23.8927 121.465 24.2135 120.987 24.3443C120.787 24.3995 120.601 24.5296 120.399 24.5524C120.04 24.5932 119.713 24.6046 119.446 24.9225C119.331 25.058 118.992 25.0238 118.715 25.0742C118.468 25.4911 118.005 25.5612 117.498 25.5091C117.293 25.9217 117.064 25.9997 116.469 25.8701C116.357 26.215 116.315 26.4015 115.598 26.2486C115.558 26.612 115.295 26.6582 114.973 26.6504C114.879 26.648 114.781 26.732 114.687 26.7812C114.617 26.8184 114.556 26.8867 114.482 26.8993C114.06 26.9737 113.637 27.0757 113.212 27.0937C112.515 27.1224 111.969 26.81 111.599 26.2624C110.613 24.8037 109.354 23.5856 107.949 22.4928C107.587 22.2109 107.404 22.1395 107 22.1341C107.153 22.3147 107.303 22.4628 107.417 22.6319C108.341 24.006 109.053 25.4797 109.689 26.9887C109.705 27.0253 109.723 27.0643 109.726 27.1027C109.824 28.6147 109.846 30.1207 108.703 31.3521C108.27 31.8187 107.744 32.2079 107.259 32.6308C107.199 32.683 107.13 32.7255 107.055 32.8599C107.177 32.8839 107.303 32.9427 107.42 32.9271C108.401 32.7951 109.213 32.3549 109.814 31.6154C110.286 31.033 110.694 30.4026 111.137 29.798C111.394 29.4472 111.633 29.0777 111.934 28.7634C112.472 28.202 113.117 28.1379 113.821 28.5127C113.862 28.5349 113.934 28.5127 113.989 28.5025C114.29 28.4462 114.859 28.6921 114.994 28.9392C115.358 28.8048 115.789 28.9536 115.921 29.2594C116.27 29.1449 116.685 29.323 116.774 29.6247C117.167 29.476 117.694 29.7603 117.783 30.1903C118.168 29.9492 118.436 30.2173 118.679 30.4134C118.855 30.5544 118.998 30.5634 119.154 30.4698C119.383 30.3318 119.51 30.4158 119.642 30.5963C120.015 31.108 120.097 31.6771 120.035 32.2775C120.023 32.3855 119.999 32.4916 119.969 32.6626C120.169 32.6158 120.347 32.6032 120.497 32.5348C121.093 32.2631 121.684 31.9806 122.269 31.6891C122.48 31.5842 122.66 31.5836 122.891 31.6561C124.214 32.0718 125.582 32.2913 126.963 32.4305C128.029 32.5378 129.098 32.6254 130.167 32.6944C130.473 32.7141 130.587 32.8275 130.553 33.092C130.488 33.6138 130.412 34.1344 130.337 34.655C130.322 34.7594 130.289 34.8613 130.256 34.9999C130.718 35.0053 131.054 34.811 131.315 34.5477C131.774 34.0846 132.204 33.5928 132.616 33.0914C132.86 32.7951 133.109 32.6164 133.535 32.5672C134.589 32.4454 135.627 32.2259 136.597 31.7881C136.682 31.7497 136.763 31.7017 136.848 31.6639C137.093 31.5554 137.09 31.4324 136.933 31.2297C135.935 29.9426 135.542 28.5061 135.794 26.9203C135.808 26.8286 135.843 26.7392 135.887 26.6522C135.918 27.7666 136.067 28.8576 136.491 29.8976C136.644 30.2749 136.849 30.6425 137.089 30.9766C137.467 31.502 137.917 31.6352 138.511 31.3413C139.375 30.9136 140.222 30.4476 141.039 29.945C141.955 29.3818 142.833 28.7634 143.72 28.1589C143.837 28.0791 143.908 27.9381 144 27.8254C143.867 27.742 143.737 27.5933 143.601 27.5885C143.325 27.5789 143.045 27.6407 142.769 27.6868C142.659 27.7048 142.555 27.7588 142.448 27.7966L142.45 27.7972ZM141.489 26.8286C141.302 26.7992 141.075 26.804 141.078 26.5341C141.082 26.3152 141.207 26.1748 141.444 26.17C141.667 26.1652 141.832 26.2606 141.845 26.4945C141.858 26.7188 141.715 26.8112 141.489 26.8286Z" fill="#E0E0E0"/>
</svg>
