<svg width="222" height="101" viewBox="0 0 222 101" fill="none" xmlns="http://www.w3.org/2000/svg">
<path d="M47.5813 25.2736C47.6128 25.4364 47.6294 25.5228 47.6461 25.6085C47.6837 25.1033 48.1988 25.144 48.4418 24.8726C48.5553 24.9504 48.6534 25.0176 48.7521 25.0848C48.3863 24.7005 48.9618 24.5525 48.968 24.2188C48.7946 24.2089 48.633 24.1997 48.398 24.1861C48.5553 24.0707 48.6552 23.9683 48.7768 23.9141C49.0149 23.8086 49.0568 23.6396 48.9297 23.4465C48.7515 23.1757 48.5899 22.8574 48.337 22.6785C46.8997 21.6608 45.4582 20.6461 43.9759 19.6955C42.9686 19.0497 41.7806 18.8566 40.6252 18.621C39.6796 18.4279 38.726 18.2904 37.7532 18.3847C37.6595 18.394 37.533 18.3008 37.4578 18.2213C36.9285 17.6636 36.4104 17.0962 35.8855 16.5348C35.7738 16.4152 35.656 16.3004 35.5314 16.1931C35.223 15.9279 35.0601 15.9272 34.8109 16.2449C34.0948 17.1591 33.1146 17.6735 32.0715 18.1028C30.4135 18.7857 28.7573 19.4735 27.1005 20.1606C26.9981 20.2032 26.9006 20.2575 26.8007 20.3062C26.7964 20.337 26.792 20.3679 26.7877 20.3981C27.2491 20.5239 27.7099 20.6498 28.2465 20.796C28.0417 20.8879 27.8993 20.9736 27.7444 21.0186C26.7859 21.2981 25.8088 21.4862 24.8077 21.4973C24.2433 21.5035 23.7553 21.3129 23.2606 21.002C22.4569 20.498 21.5939 20.0749 20.7217 19.6974C20.0494 19.4062 19.3271 19.2261 18.6202 19.0207C18.4456 18.9701 18.2433 19.0133 18.0181 19.0133C18.1606 19.5203 18.3889 19.933 18.7071 20.2994C19.2438 20.9181 19.7798 21.5386 20.3159 22.1585C20.3627 22.2128 20.409 22.2683 20.4509 22.3257C20.8056 22.8099 20.7692 22.9395 20.3368 23.3546C19.8952 23.7784 19.4813 24.2336 19.0809 24.6968C18.6726 25.1687 18.2926 25.6659 17.9065 26.1563C17.8152 26.2729 17.7492 26.4092 17.6474 26.5763C18.234 26.7879 18.7775 26.8052 19.311 26.6133C20.5947 26.1526 21.8814 25.698 23.1459 25.1891C24.2217 24.7561 25.3036 24.7684 26.4071 24.9849C26.7131 25.0447 27.0129 25.1348 27.3126 25.2767C27.048 25.3285 26.7803 25.371 26.5188 25.4352C26.2301 25.5061 26.0913 25.6899 26.2215 25.928C26.5397 26.5097 26.4386 27.1704 26.6329 27.7712C26.7143 28.0234 26.7735 28.2831 26.8506 28.5373C26.9068 28.7236 27.0277 28.7791 27.2035 28.6791C28.2015 28.1147 29.0756 27.4251 29.5407 26.3321C29.6073 26.176 29.6677 26.0767 29.8762 26.1254C31.5466 26.5184 33.2337 26.8015 34.9522 26.8693C35.0071 26.8718 35.062 26.8928 35.1163 26.9594C34.9386 26.9915 34.761 27.0211 34.5839 27.0562C34.2077 27.1309 33.9955 27.3634 34.0269 27.7446C34.0942 28.5675 34.5284 29.18 35.2082 29.6198C35.4278 29.7617 35.6838 29.7401 35.838 29.5069C36.1131 29.09 36.3833 28.6662 36.6096 28.2221C36.8033 27.8421 36.9329 27.4294 37.1031 26.9983C40.6357 26.8249 44.1819 26.5535 47.5838 25.2717L47.5813 25.2736ZM46.5185 22.338C46.5777 22.4207 46.6369 22.5034 46.6962 22.586C46.8232 22.8235 46.7202 23.0258 46.5827 23.209C46.3612 23.5039 45.9109 23.5347 45.6259 23.288C45.3348 23.0357 45.3138 22.5737 45.5809 22.2992C45.8474 22.0253 46.2644 22.0426 46.5185 22.3387V22.338ZM43.4096 25.9916C42.052 25.2316 41.4808 23.412 43.0988 21.5152C43.0303 21.6897 42.9883 21.778 42.9606 21.8711C42.8274 22.3202 42.6664 22.7643 42.5744 23.222C42.3623 24.2786 42.4246 25.2705 43.4096 25.9916Z" fill="#F2F2F2"/>
<path d="M46.6956 22.586C46.6363 22.5034 46.5771 22.4207 46.5179 22.338C46.4414 22.3109 46.3501 22.2437 46.2909 22.2646C46.1213 22.3251 45.8937 22.3831 45.8227 22.5145C45.7512 22.6477 45.7795 22.9136 45.8752 23.0345C45.9597 23.1418 46.207 23.188 46.3625 23.1578C46.6493 23.1023 46.7116 22.8519 46.6956 22.586Z" fill="#F2F2F2"/>
<path d="M74.2879 44.1918C74.3258 44.3883 74.3459 44.4926 74.366 44.596C74.4114 43.9863 75.033 44.0355 75.3263 43.7079C75.4633 43.8017 75.5817 43.8829 75.7008 43.964C75.2594 43.5002 75.9539 43.3216 75.9614 42.9188C75.7522 42.9069 75.5571 42.8958 75.2735 42.8794C75.4633 42.7402 75.5839 42.6166 75.7306 42.5511C76.0179 42.4238 76.0685 42.2198 75.9152 41.9868C75.7001 41.66 75.505 41.2759 75.1998 41.06C73.4653 39.8317 71.7255 38.6071 69.9367 37.4599C68.721 36.6805 67.2873 36.4475 65.8929 36.1631C64.7517 35.9301 63.6008 35.7641 62.4269 35.878C62.3137 35.8892 62.1611 35.7768 62.0703 35.6807C61.4316 35.0078 60.8062 34.3229 60.1727 33.6455C60.038 33.501 59.8958 33.3626 59.7454 33.2331C59.3732 32.9129 59.1767 32.9122 58.8759 33.2956C58.0117 34.3988 56.8287 35.0197 55.5699 35.5378C53.5689 36.3619 51.5701 37.1919 49.5706 38.0212C49.447 38.0726 49.3294 38.1381 49.2088 38.1969C49.2036 38.2341 49.1983 38.2714 49.1931 38.3078C49.75 38.4597 50.3061 38.6116 50.9537 38.788C50.7066 38.8989 50.5346 39.0024 50.3477 39.0567C49.1909 39.394 48.0117 39.621 46.8035 39.6344C46.1224 39.6418 45.5335 39.4118 44.9365 39.0366C43.9665 38.4284 42.925 37.9177 41.8724 37.4622C41.061 37.1108 40.1893 36.8934 39.3361 36.6455C39.1255 36.5845 38.8813 36.6366 38.6096 36.6366C38.7815 37.2485 39.057 37.7465 39.4411 38.1887C40.0888 38.9354 40.7357 39.6843 41.3826 40.4324C41.4391 40.4979 41.495 40.5649 41.5456 40.6342C41.9736 41.2186 41.9297 41.3749 41.4079 41.8759C40.8749 42.3873 40.3754 42.9367 39.8922 43.4958C39.3994 44.0653 38.9408 44.6653 38.4748 45.2571C38.3647 45.3978 38.285 45.5623 38.1622 45.764C38.8701 46.0194 39.526 46.0402 40.1699 45.8087C41.7191 45.2526 43.2719 44.704 44.798 44.0898C46.0963 43.5672 47.402 43.5821 48.7338 43.8434C49.1031 43.9156 49.4648 44.0243 49.8266 44.1955C49.5073 44.2581 49.1842 44.3094 48.8686 44.3868C48.5202 44.4725 48.3527 44.6943 48.5097 44.9816C48.8939 45.6836 48.7718 46.4809 49.0063 47.206C49.1045 47.5105 49.176 47.8239 49.2691 48.1306C49.3368 48.3554 49.4827 48.4224 49.6949 48.3018C50.8994 47.6207 51.9542 46.7884 52.5155 45.4692C52.5959 45.2809 52.6689 45.1611 52.9205 45.2199C54.9364 45.6941 56.9724 46.0358 59.0464 46.1176C59.1127 46.1206 59.1789 46.1459 59.2444 46.2263C59.03 46.265 58.8156 46.3008 58.602 46.3432C58.1479 46.4333 57.8918 46.7139 57.9298 47.174C58.0109 48.1671 58.535 48.9063 59.3553 49.4371C59.6204 49.6083 59.9293 49.5822 60.1154 49.3008C60.4474 48.7976 60.7735 48.2862 61.0467 47.7502C61.2804 47.2916 61.4368 46.7936 61.6422 46.2732C65.9056 46.064 70.1853 45.7365 74.2908 44.1896L74.2879 44.1918ZM73.0052 40.6491C73.0767 40.7488 73.1481 40.8486 73.2196 40.9483C73.373 41.2349 73.2486 41.4791 73.0826 41.7002C72.8154 42.056 72.272 42.0933 71.928 41.7955C71.5767 41.491 71.5513 40.9334 71.8737 40.6022C72.1953 40.2716 72.6985 40.2917 73.0052 40.6491ZM69.2533 45.0583C67.6148 44.1412 66.9255 41.9451 68.8781 39.656C68.7955 39.8667 68.7448 39.9731 68.7113 40.0855C68.5505 40.6275 68.3563 41.1635 68.2453 41.7158C67.9892 42.991 68.0644 44.1881 69.2533 45.0583Z" fill="#E0E0E0"/>
<path d="M73.2189 40.9483C73.1474 40.8485 73.0759 40.7487 73.0045 40.649C72.9122 40.6162 72.802 40.5351 72.7305 40.5604C72.5258 40.6334 72.2511 40.7033 72.1655 40.8619C72.0792 41.0227 72.1134 41.3435 72.2288 41.4895C72.3308 41.619 72.6293 41.6748 72.8169 41.6383C73.163 41.5713 73.2382 41.2691 73.2189 40.9483Z" fill="#E0E0E0"/>
<path d="M22.914 61.0988C22.9381 61.2235 22.9509 61.2896 22.9636 61.3552C22.9924 60.9685 23.3867 60.9996 23.5727 60.7919C23.6596 60.8514 23.7347 60.9028 23.8102 60.9543C23.5302 60.6601 23.9708 60.5468 23.9755 60.2914C23.8428 60.2838 23.7191 60.2767 23.5392 60.2663C23.6596 60.178 23.7361 60.0997 23.8291 60.0581C24.0114 59.9774 24.0435 59.848 23.9462 59.7002C23.8097 59.4929 23.686 59.2493 23.4924 59.1123C22.3923 58.3332 21.2888 57.5565 20.1541 56.8289C19.383 56.3345 18.4736 56.1867 17.5892 56.0063C16.8654 55.8585 16.1354 55.7532 15.3908 55.8255C15.319 55.8326 15.2222 55.7613 15.1646 55.7004C14.7594 55.2735 14.3628 54.8391 13.961 54.4094C13.8755 54.3178 13.7853 54.23 13.69 54.1478C13.4539 53.9448 13.3292 53.9443 13.1384 54.1875C12.5902 54.8873 11.8399 55.2811 11.0415 55.6097C9.77226 56.1324 8.50446 56.6589 7.23618 57.1849C7.1578 57.2175 7.08319 57.259 7.0067 57.2963C7.0034 57.3199 7.00009 57.3435 6.99679 57.3667C7.34998 57.463 7.70269 57.5593 8.11349 57.6712C7.95673 57.7416 7.84765 57.8072 7.72913 57.8417C6.99537 58.0556 6.24743 58.1996 5.48108 58.2081C5.04903 58.2128 4.67554 58.0669 4.29685 57.8289C3.6816 57.4432 3.02102 57.1193 2.35335 56.8303C1.83867 56.6074 1.28575 56.4695 0.744631 56.3123C0.611004 56.2736 0.456127 56.3066 0.283781 56.3066C0.392855 56.6948 0.567564 57.0107 0.811209 57.2911C1.22201 57.7647 1.63233 58.2397 2.04266 58.7143C2.07854 58.7558 2.11395 58.7983 2.14606 58.8422C2.41757 59.2129 2.38971 59.3121 2.05871 59.6298C1.72063 59.9542 1.40379 60.3027 1.09735 60.6573C0.784765 61.0185 0.493898 61.3991 0.198313 61.7745C0.128429 61.8637 0.0779095 61.9681 0 62.0961C0.449043 62.258 0.865034 62.2712 1.27347 62.1244C2.25608 61.7717 3.24105 61.4237 4.20902 61.0341C5.03251 60.7026 5.86072 60.7121 6.70545 60.8778C6.93965 60.9236 7.16913 60.9926 7.39861 61.1012C7.19604 61.1408 6.99112 61.1734 6.79091 61.2225C6.56993 61.2768 6.46369 61.4175 6.56332 61.5998C6.80697 62.0451 6.72953 62.5508 6.87827 63.0107C6.9406 63.2038 6.98592 63.4026 7.04494 63.5971C7.08791 63.7397 7.18046 63.7822 7.31504 63.7057C8.07903 63.2737 8.74811 62.7458 9.10413 61.9091C9.15513 61.7896 9.2014 61.7136 9.361 61.7509C10.6397 62.0517 11.9311 62.2684 13.2466 62.3203C13.2886 62.3222 13.3306 62.3383 13.3722 62.3893C13.2362 62.4138 13.1002 62.4365 12.9647 62.4634C12.6767 62.5205 12.5142 62.6986 12.5383 62.9904C12.5898 63.6203 12.9222 64.0891 13.4425 64.4258C13.6106 64.5344 13.8066 64.5179 13.9246 64.3394C14.1352 64.0202 14.342 63.6958 14.5153 63.3558C14.6636 63.065 14.7628 62.7491 14.8931 62.419C17.5973 62.2863 20.3118 62.0786 22.9159 61.0974L22.914 61.0988ZM22.1005 58.8517C22.1458 58.915 22.1911 58.9782 22.2364 59.0415C22.3337 59.2233 22.2549 59.3782 22.1496 59.5184C21.98 59.7441 21.6354 59.7677 21.4172 59.5789C21.1943 59.3857 21.1783 59.0321 21.3827 58.8219C21.5867 58.6123 21.9059 58.6255 22.1005 58.8522V58.8517ZM19.7207 61.6484C18.6814 61.0667 18.2441 59.6738 19.4827 58.2218C19.4303 58.3554 19.3982 58.423 19.3769 58.4943C19.2749 58.838 19.1517 59.178 19.0813 59.5283C18.9189 60.3372 18.9666 61.0964 19.7207 61.6484Z" fill="#F2F2F2"/>
<path d="M38.236 63.0414C38.1906 62.9782 38.1453 62.9149 38.1 62.8516C38.0414 62.8308 37.9715 62.7794 37.9262 62.7954C37.7964 62.8417 37.6221 62.8861 37.5678 62.9867C37.513 63.0887 37.5348 63.2922 37.608 63.3847C37.6726 63.4669 37.862 63.5023 37.981 63.4792C38.2005 63.4367 38.2482 63.2449 38.236 63.0414Z" fill="#F2F2F2"/>
<path d="M115.713 14.9523C115.763 15.2149 115.79 15.3541 115.817 15.4924C115.878 14.6778 116.708 14.7435 117.1 14.3059C117.283 14.4312 117.441 14.5396 117.6 14.648C117.01 14.0284 117.938 13.7897 117.948 13.2516C117.669 13.2357 117.408 13.2208 117.029 13.1989C117.283 13.0129 117.444 12.8478 117.64 12.7603C118.024 12.5903 118.092 12.3177 117.887 12.0064C117.599 11.5698 117.339 11.0566 116.931 10.7682C114.614 9.12717 112.289 7.49112 109.899 5.95849C108.275 4.91719 106.36 4.60589 104.497 4.22596C102.972 3.91466 101.435 3.69288 99.8662 3.84505C99.715 3.85996 99.5111 3.70978 99.3898 3.58149C98.5365 2.6824 97.701 1.7674 96.8547 0.862346C96.6746 0.6694 96.4847 0.484412 96.2838 0.311358C95.7865 -0.116305 95.5239 -0.1173 95.1221 0.394901C93.9674 1.86885 92.3871 2.69831 90.7053 3.39053C88.0319 4.49151 85.3615 5.60045 82.6901 6.7084C82.525 6.77702 82.3678 6.86454 82.2067 6.94311C82.1997 6.99284 82.1928 7.04257 82.1858 7.0913C82.9298 7.29419 83.6727 7.49708 84.538 7.7328C84.2078 7.88099 83.978 8.01923 83.7284 8.09183C82.1828 8.54237 80.6074 8.84571 78.9933 8.86362C78.0832 8.87356 77.2965 8.56624 76.4989 8.06498C75.203 7.25242 73.8116 6.57015 72.4053 5.96148C71.3212 5.49204 70.1566 5.20163 69.0168 4.87044C68.7353 4.78889 68.4091 4.85851 68.0461 4.85851C68.2758 5.67604 68.6438 6.3414 69.157 6.93217C70.0223 7.92972 70.8866 8.93025 71.7509 9.92979C71.8264 10.0173 71.901 10.1068 71.9687 10.1993C72.5405 10.9801 72.4819 11.1889 71.7847 11.8583C71.0726 12.5415 70.4052 13.2755 69.7597 14.0224C69.1013 14.7833 68.4887 15.5849 67.8661 16.3756C67.7189 16.5635 67.6125 16.7833 67.4484 17.0529C68.3942 17.394 69.2704 17.4218 70.1307 17.1125C72.2004 16.3696 74.2751 15.6366 76.3139 14.8161C78.0484 14.1179 79.7929 14.1378 81.5722 14.4869C82.0655 14.5834 82.5488 14.7286 83.0322 14.9573C82.6055 15.0409 82.1739 15.1095 81.7522 15.2129C81.2867 15.3273 81.063 15.6237 81.2728 16.0076C81.786 16.9454 81.6229 18.0106 81.9362 18.9793C82.0675 19.3861 82.1629 19.8048 82.2873 20.2146C82.3778 20.5149 82.5727 20.6045 82.8562 20.4433C84.4654 19.5333 85.8747 18.4214 86.6246 16.659C86.732 16.4074 86.8294 16.2473 87.1656 16.3258C89.8589 16.9594 92.579 17.4159 95.3499 17.5253C95.4384 17.5293 95.5269 17.5631 95.6144 17.6705C95.328 17.7222 95.0416 17.7699 94.7561 17.8266C94.1494 17.947 93.8073 18.3219 93.858 18.9366C93.9664 20.2633 94.6666 21.2509 95.7626 21.96C96.1167 22.1888 96.5294 22.154 96.7781 21.778C97.2216 21.1057 97.6573 20.4224 98.0223 19.7064C98.3346 19.0937 98.5434 18.4283 98.8179 17.7331C104.514 17.4537 110.232 17.0161 115.717 14.9494L115.713 14.9523ZM113.999 10.2192C114.094 10.3525 114.19 10.4857 114.285 10.619C114.49 11.0019 114.324 11.3281 114.102 11.6235C113.745 12.0989 113.019 12.1487 112.56 11.7508C112.09 11.3441 112.057 10.5991 112.487 10.1566C112.917 9.71496 113.589 9.74281 113.999 10.2202V10.2192ZM108.986 16.11C106.797 14.8847 105.876 11.9507 108.485 8.89246C108.375 9.17392 108.307 9.31614 108.262 9.46632C108.047 10.1904 107.788 10.9065 107.64 11.6444C107.298 13.3481 107.398 14.9474 108.986 16.11Z" fill="#F2F2F2"/>
<path d="M114.284 10.6189C114.189 10.4856 114.093 10.3523 113.998 10.2191C113.875 10.1753 113.727 10.0669 113.632 10.1007C113.358 10.1982 112.991 10.2917 112.877 10.5035C112.762 10.7183 112.807 11.147 112.962 11.3419C113.098 11.515 113.497 11.5896 113.747 11.5408C114.21 11.4513 114.31 11.0475 114.284 10.6189Z" fill="#F2F2F2"/>
<path d="M140.581 63.2736C140.613 63.4364 140.629 63.5228 140.646 63.6085C140.684 63.1033 141.199 63.144 141.442 62.8726C141.555 62.9504 141.653 63.0176 141.752 63.0848C141.386 62.7005 141.962 62.5525 141.968 62.2188C141.795 62.2089 141.633 62.1997 141.398 62.1861C141.555 62.0707 141.655 61.9683 141.777 61.9141C142.015 61.8086 142.057 61.6396 141.93 61.4465C141.751 61.1757 141.59 60.8574 141.337 60.6785C139.9 59.6608 138.458 58.6461 136.976 57.6955C135.969 57.0497 134.781 56.8566 133.625 56.621C132.68 56.4279 131.726 56.2904 130.753 56.3847C130.659 56.394 130.533 56.3008 130.458 56.2213C129.929 55.6636 129.41 55.0962 128.885 54.5348C128.774 54.4152 128.656 54.3004 128.531 54.1931C128.223 53.9279 128.06 53.9272 127.811 54.2449C127.095 55.1591 126.115 55.6735 125.072 56.1028C123.413 56.7857 121.757 57.4735 120.1 58.1606C119.998 58.2032 119.901 58.2575 119.801 58.3062C119.796 58.337 119.792 58.3679 119.788 58.3981C120.249 58.5239 120.71 58.6498 121.247 58.796C121.042 58.8879 120.899 58.9736 120.744 59.0186C119.786 59.2981 118.809 59.4862 117.808 59.4973C117.243 59.5035 116.755 59.3129 116.261 59.002C115.457 58.498 114.594 58.0749 113.722 57.6974C113.049 57.4062 112.327 57.2261 111.62 57.0207C111.446 56.9701 111.243 57.0133 111.018 57.0133C111.161 57.5203 111.389 57.933 111.707 58.2994C112.244 58.9181 112.78 59.5386 113.316 60.1585C113.363 60.2128 113.409 60.2683 113.451 60.3257C113.806 60.8099 113.769 60.9395 113.337 61.3546C112.895 61.7784 112.481 62.2336 112.081 62.6968C111.673 63.1687 111.293 63.6659 110.906 64.1563C110.815 64.2729 110.749 64.4092 110.647 64.5763C111.234 64.7879 111.777 64.8052 112.311 64.6133C113.595 64.1526 114.881 63.698 116.146 63.1891C117.222 62.7561 118.304 62.7684 119.407 62.9849C119.713 63.0447 120.013 63.1348 120.313 63.2767C120.048 63.3285 119.78 63.371 119.519 63.4352C119.23 63.5061 119.091 63.6899 119.221 63.928C119.54 64.5097 119.439 65.1704 119.633 65.7712C119.714 66.0234 119.774 66.2831 119.851 66.5373C119.907 66.7236 120.028 66.7791 120.203 66.6791C121.202 66.1147 122.076 65.4251 122.541 64.3321C122.607 64.176 122.668 64.0767 122.876 64.1254C124.547 64.5184 126.234 64.8015 127.952 64.8693C128.007 64.8718 128.062 64.8928 128.116 64.9594C127.939 64.9915 127.761 65.0211 127.584 65.0562C127.208 65.1309 126.995 65.3634 127.027 65.7446C127.094 66.5675 127.528 67.18 128.208 67.6198C128.428 67.7617 128.684 67.7401 128.838 67.5069C129.113 67.09 129.383 66.6662 129.61 66.2221C129.803 65.8421 129.933 65.4294 130.103 64.9983C133.636 64.8249 137.182 64.5535 140.584 63.2717L140.581 63.2736ZM139.519 60.338C139.578 60.4207 139.637 60.5034 139.696 60.586C139.823 60.8235 139.72 61.0258 139.583 61.209C139.361 61.5039 138.911 61.5347 138.626 61.288C138.335 61.0357 138.314 60.5737 138.581 60.2992C138.847 60.0253 139.264 60.0426 139.519 60.3387V60.338ZM136.41 63.9916C135.052 63.2316 134.481 61.412 136.099 59.5152C136.03 59.6897 135.988 59.778 135.961 59.8711C135.827 60.3202 135.666 60.7643 135.574 61.222C135.362 62.2786 135.425 63.2705 136.41 63.9916Z" fill="#F2F2F2"/>
<path d="M139.696 60.586C139.636 60.5034 139.577 60.4207 139.518 60.338C139.441 60.3109 139.35 60.2437 139.291 60.2646C139.121 60.3251 138.894 60.3831 138.823 60.5145C138.751 60.6477 138.78 60.9136 138.875 61.0345C138.96 61.1418 139.207 61.188 139.362 61.1578C139.649 61.1023 139.712 60.8519 139.696 60.586Z" fill="#F2F2F2"/>
<path d="M176.126 95.1918C176.164 95.3883 176.184 95.4926 176.204 95.596C176.249 94.9863 176.871 95.0355 177.164 94.7079C177.301 94.8017 177.42 94.8829 177.539 94.964C177.097 94.5002 177.792 94.3216 177.799 93.9188C177.59 93.9069 177.395 93.8958 177.111 93.8794C177.301 93.7402 177.422 93.6166 177.568 93.5511C177.856 93.4238 177.906 93.2198 177.753 92.9868C177.538 92.66 177.343 92.2759 177.038 92.06C175.303 90.8317 173.563 89.6071 171.775 88.4599C170.559 87.6805 169.125 87.4475 167.731 87.1631C166.59 86.9301 165.439 86.7641 164.265 86.878C164.152 86.8892 163.999 86.7768 163.908 86.6807C163.269 86.0078 162.644 85.3229 162.011 84.6455C161.876 84.501 161.734 84.3626 161.583 84.2331C161.211 83.9129 161.015 83.9122 160.714 84.2956C159.849 85.3988 158.667 86.0197 157.408 86.5378C155.407 87.3619 153.408 88.1919 151.408 89.0212C151.285 89.0726 151.167 89.1381 151.047 89.1969C151.041 89.2341 151.036 89.2714 151.031 89.3078C151.588 89.4597 152.144 89.6116 152.792 89.788C152.544 89.8989 152.372 90.0024 152.186 90.0567C151.029 90.394 149.85 90.621 148.641 90.6344C147.96 90.6418 147.371 90.4118 146.774 90.0366C145.804 89.4284 144.763 88.9177 143.71 88.4622C142.899 88.1108 142.027 87.8934 141.174 87.6455C140.963 87.5845 140.719 87.6366 140.447 87.6366C140.619 88.2485 140.895 88.7465 141.279 89.1887C141.927 89.9354 142.573 90.6843 143.22 91.4324C143.277 91.4979 143.333 91.5649 143.383 91.6342C143.811 92.2186 143.768 92.3749 143.246 92.8759C142.713 93.3873 142.213 93.9367 141.73 94.4958C141.237 95.0653 140.779 95.6653 140.313 96.2571C140.202 96.3978 140.123 96.5623 140 96.764C140.708 97.0194 141.364 97.0402 142.008 96.8087C143.557 96.2526 145.11 95.704 146.636 95.0898C147.934 94.5672 149.24 94.5821 150.572 94.8434C150.941 94.9156 151.303 95.0243 151.664 95.1955C151.345 95.2581 151.022 95.3094 150.706 95.3868C150.358 95.4725 150.191 95.6943 150.348 95.9816C150.732 96.6836 150.61 97.4809 150.844 98.206C150.942 98.5105 151.014 98.8239 151.107 99.1306C151.175 99.3554 151.321 99.4224 151.533 99.3018C152.737 98.6207 153.792 97.7884 154.353 96.4692C154.434 96.2809 154.507 96.1611 154.758 96.2199C156.774 96.6941 158.81 97.0358 160.884 97.1176C160.95 97.1206 161.017 97.1459 161.082 97.2263C160.868 97.265 160.653 97.3008 160.44 97.3432C159.986 97.4333 159.73 97.7139 159.768 98.174C159.849 99.1671 160.373 99.9063 161.193 100.437C161.458 100.608 161.767 100.582 161.953 100.301C162.285 99.7976 162.611 99.2862 162.885 98.7502C163.118 98.2916 163.275 97.7936 163.48 97.2732C167.743 97.064 172.023 96.7365 176.129 95.1896L176.126 95.1918ZM174.843 91.6491C174.915 91.7488 174.986 91.8486 175.057 91.9483C175.211 92.2349 175.086 92.4791 174.92 92.7002C174.653 93.056 174.11 93.0933 173.766 92.7955C173.414 92.491 173.389 91.9334 173.712 91.6022C174.033 91.2716 174.536 91.2925 174.843 91.6498V91.6491ZM171.091 96.0583C169.453 95.1412 168.763 92.9451 170.716 90.656C170.633 90.8667 170.583 90.9731 170.549 91.0855C170.388 91.6275 170.194 92.1635 170.083 92.7158C169.827 93.991 169.902 95.1881 171.091 96.0583Z" fill="#E0E0E0"/>
<path d="M175.057 91.9483C174.985 91.8485 174.914 91.7488 174.842 91.649C174.75 91.6162 174.64 91.5351 174.568 91.5604C174.364 91.6334 174.089 91.7033 174.003 91.8619C173.917 92.0227 173.951 92.3436 174.067 92.4895C174.169 92.619 174.467 92.6748 174.655 92.6383C175.001 92.5713 175.076 92.2691 175.057 91.9483Z" fill="#E0E0E0"/>
<path d="M219.713 68.9523C219.763 69.2149 219.79 69.3541 219.817 69.4924C219.878 68.6778 220.708 68.7435 221.1 68.3059C221.283 68.4312 221.441 68.5396 221.6 68.648C221.01 68.0284 221.938 67.7897 221.948 67.2516C221.669 67.2357 221.408 67.2208 221.029 67.1989C221.283 67.0129 221.444 66.8478 221.64 66.7603C222.024 66.5903 222.092 66.3177 221.887 66.0064C221.599 65.5698 221.339 65.0566 220.931 64.7682C218.614 63.1272 216.289 61.4911 213.899 59.9585C212.275 58.9172 210.36 58.6059 208.497 58.226C206.972 57.9147 205.435 57.6929 203.866 57.845C203.715 57.86 203.511 57.7098 203.39 57.5815C202.536 56.6824 201.701 55.7674 200.855 54.8623C200.675 54.6694 200.485 54.4844 200.284 54.3114C199.786 53.8837 199.524 53.8827 199.122 54.3949C197.967 55.8688 196.387 56.6983 194.705 57.3905C192.032 58.4915 189.361 59.6005 186.69 60.7084C186.525 60.777 186.368 60.8645 186.207 60.9431C186.2 60.9928 186.193 61.0426 186.186 61.0913C186.93 61.2942 187.673 61.4971 188.538 61.7328C188.208 61.881 187.978 62.0192 187.728 62.0918C186.183 62.5424 184.607 62.8457 182.993 62.8636C182.083 62.8736 181.297 62.5662 180.499 62.065C179.203 61.2524 177.812 60.5702 176.405 59.9615C175.321 59.492 174.157 59.2016 173.017 58.8704C172.735 58.7889 172.409 58.8585 172.046 58.8585C172.276 59.676 172.644 60.3414 173.157 60.9322C174.022 61.9297 174.887 62.9303 175.751 63.9298C175.826 64.0173 175.901 64.1068 175.969 64.1993C176.541 64.9801 176.482 65.1889 175.785 65.8583C175.073 66.5415 174.405 67.2755 173.76 68.0224C173.101 68.7833 172.489 69.5849 171.866 70.3756C171.719 70.5635 171.612 70.7833 171.448 71.0529C172.394 71.394 173.27 71.4218 174.131 71.1125C176.2 70.3696 178.275 69.6366 180.314 68.8161C182.048 68.1179 183.793 68.1378 185.572 68.4869C186.065 68.5834 186.549 68.7286 187.032 68.9573C186.606 69.0409 186.174 69.1095 185.752 69.2129C185.287 69.3273 185.063 69.6237 185.273 70.0076C185.786 70.9454 185.623 72.0106 185.936 72.9793C186.067 73.3861 186.163 73.8048 186.287 74.2146C186.378 74.5149 186.573 74.6045 186.856 74.4433C188.465 73.5333 189.875 72.4214 190.625 70.659C190.732 70.4074 190.829 70.2473 191.166 70.3258C193.859 70.9594 196.579 71.4159 199.35 71.5253C199.438 71.5293 199.527 71.5631 199.614 71.6705C199.328 71.7222 199.042 71.7699 198.756 71.8266C198.149 71.947 197.807 72.3219 197.858 72.9366C197.966 74.2633 198.667 75.2509 199.763 75.96C200.117 76.1888 200.529 76.154 200.778 75.778C201.222 75.1057 201.657 74.4224 202.022 73.7064C202.335 73.0937 202.543 72.4283 202.818 71.7331C208.514 71.4537 214.232 71.0161 219.717 68.9494L219.713 68.9523ZM217.999 64.2192C218.094 64.3525 218.19 64.4857 218.285 64.619C218.49 65.0019 218.324 65.3281 218.102 65.6235C217.745 66.0989 217.019 66.1487 216.56 65.7508C216.09 65.3441 216.057 64.5991 216.487 64.1566C216.917 63.715 217.589 63.7428 217.999 64.2202V64.2192ZM212.986 70.11C210.797 68.8847 209.876 65.9507 212.485 62.8925C212.375 63.1739 212.307 63.3161 212.262 63.4663C212.047 64.1904 211.788 64.9065 211.64 65.6444C211.298 67.3481 211.398 68.9474 212.986 70.11Z" fill="#E0E0E0"/>
<path d="M218.284 64.6189C218.189 64.4856 218.093 64.3523 217.998 64.2191C217.875 64.1753 217.727 64.0669 217.632 64.1007C217.358 64.1982 216.991 64.2917 216.877 64.5035C216.762 64.7183 216.807 65.147 216.962 65.3419C217.098 65.515 217.497 65.5896 217.747 65.5408C218.21 65.4513 218.31 65.0475 218.284 64.6189Z" fill="#E0E0E0"/>
</svg>
