<svg width="85" height="36" viewBox="0 0 85 36" fill="none" xmlns="http://www.w3.org/2000/svg">
<path d="M22.6527 7.01784C22.6765 7.14108 22.6891 7.20643 22.7017 7.27131C22.7302 6.88901 23.12 6.91982 23.3039 6.71442C23.3898 6.77324 23.464 6.82412 23.5387 6.875C23.2619 6.58419 23.6974 6.47216 23.7021 6.21962C23.5709 6.21215 23.4486 6.20515 23.2707 6.19488C23.3898 6.10759 23.4654 6.0301 23.5573 5.98902C23.7375 5.9092 23.7693 5.7813 23.6731 5.63519C23.5382 5.43027 23.4159 5.1894 23.2245 5.05403C22.1369 4.28382 21.046 3.51594 19.9243 2.7966C19.162 2.30787 18.2629 2.16176 17.3886 1.98345C16.673 1.83734 15.9514 1.73324 15.2152 1.80466C15.1443 1.81166 15.0486 1.74118 14.9916 1.68096C14.5911 1.25898 14.199 0.829524 13.8018 0.40474C13.7173 0.314181 13.6281 0.227358 13.5338 0.146135C13.3004 -0.0545874 13.1772 -0.0550543 12.9886 0.185346C12.4467 0.877138 11.7049 1.26645 10.9156 1.59134C9.66082 2.10808 8.40747 2.62856 7.15366 3.14857C7.07617 3.18078 7.00242 3.22185 6.9268 3.25873C6.92353 3.28207 6.92026 3.30541 6.917 3.32828C7.26616 3.42351 7.61485 3.51874 8.02096 3.62937C7.86599 3.69892 7.75816 3.76381 7.64099 3.79788C6.91559 4.00934 6.17619 4.15171 5.41858 4.16012C4.99146 4.16478 4.62222 4.02054 4.24785 3.78528C3.63962 3.40391 2.98657 3.08368 2.32652 2.798C1.81771 2.57768 1.27109 2.44137 0.736145 2.28593C0.604042 2.24765 0.450932 2.28033 0.28055 2.28033C0.38838 2.66403 0.561098 2.97632 0.801964 3.2536C1.20808 3.72179 1.61372 4.19139 2.01937 4.66052C2.05484 4.7016 2.08985 4.74361 2.12159 4.78702C2.39 5.15346 2.36246 5.25149 2.03524 5.56564C1.70101 5.88633 1.38779 6.23082 1.08484 6.58139C0.775822 6.93849 0.488272 7.31472 0.196058 7.68583C0.126972 7.77405 0.0770264 7.87721 5.72205e-06 8.00372C0.44393 8.16383 0.855175 8.1769 1.25895 8.03172C2.23036 7.68303 3.2041 7.339 4.16103 6.95389C4.97512 6.6262 5.79388 6.63554 6.62898 6.79938C6.86051 6.84466 7.08737 6.91281 7.31423 7.02018C7.11398 7.05939 6.91139 7.0916 6.71347 7.14014C6.49501 7.19382 6.38998 7.33293 6.48847 7.51311C6.72934 7.9533 6.65279 8.45324 6.79983 8.9079C6.86145 9.09882 6.90625 9.29534 6.9646 9.48766C7.00708 9.62863 7.09858 9.67065 7.23162 9.59503C7.98689 9.16791 8.64834 8.64603 9.00031 7.81886C9.05072 7.70077 9.09646 7.62561 9.25424 7.66249C10.5183 7.95984 11.795 8.1741 13.0955 8.22544C13.1371 8.22731 13.1786 8.24318 13.2197 8.2936C13.0852 8.31787 12.9508 8.34028 12.8168 8.36688C12.5321 8.42337 12.3715 8.59935 12.3953 8.88783C12.4462 9.51053 12.7748 9.97406 13.2892 10.3069C13.4554 10.4143 13.6491 10.3979 13.7658 10.2215C13.974 9.90591 14.1785 9.58522 14.3498 9.24913C14.4964 8.96158 14.5944 8.6493 14.7232 8.32301C17.3966 8.19184 20.0802 7.98644 22.6546 7.01644L22.6527 7.01784ZM21.8484 4.79636C21.8932 4.85891 21.938 4.92146 21.9828 4.98401C22.079 5.16373 22.001 5.31684 21.897 5.45547C21.7294 5.6786 21.3886 5.70194 21.173 5.51522C20.9526 5.32431 20.9367 4.97468 21.1389 4.76695C21.3405 4.55969 21.6561 4.57276 21.8484 4.79683V4.79636ZM19.4958 7.56119C18.4683 6.9861 18.0361 5.60905 19.2605 4.17365C19.2087 4.30576 19.1769 4.37251 19.1559 4.44299C19.0551 4.78282 18.9333 5.11892 18.8637 5.46528C18.7031 6.2649 18.7503 7.01551 19.4958 7.56119Z" fill="#F2F2F2"/>
<path d="M21.9824 4.98407C21.9376 4.92152 21.8927 4.85897 21.8479 4.79642C21.7901 4.77588 21.721 4.725 21.6762 4.74087C21.5478 4.78662 21.3755 4.8305 21.3219 4.92993C21.2677 5.03075 21.2892 5.23194 21.3615 5.32344C21.4255 5.40466 21.6127 5.43967 21.7303 5.41679C21.9474 5.37478 21.9945 5.18526 21.9824 4.98407Z" fill="#F2F2F2"/>
<path d="M49.551 31.1724C49.5797 31.3211 49.5949 31.3999 49.6101 31.4783C49.6445 31.0169 50.1149 31.0541 50.3368 30.8062C50.4405 30.8772 50.5301 30.9386 50.6202 31C50.2861 30.649 50.8117 30.5138 50.8174 30.209C50.6591 30.2 50.5115 30.1916 50.2968 30.1792C50.4405 30.0738 50.5317 29.9803 50.6427 29.9307C50.8602 29.8344 50.8985 29.68 50.7824 29.5037C50.6196 29.2564 50.472 28.9657 50.2411 28.8023C48.9285 27.8728 47.6119 26.9461 46.2582 26.078C45.3382 25.4881 44.2532 25.3118 43.198 25.0966C42.3344 24.9203 41.4635 24.7946 40.5751 24.8808C40.4894 24.8893 40.3739 24.8042 40.3052 24.7315C39.8219 24.2223 39.3486 23.704 38.8692 23.1913C38.7673 23.0821 38.6597 22.9773 38.5459 22.8792C38.2642 22.637 38.1155 22.6364 37.8879 22.9266C37.2338 23.7615 36.3386 24.2313 35.386 24.6234C33.8717 25.247 32.3591 25.8752 30.846 26.5027C30.7524 26.5416 30.6634 26.5912 30.5722 26.6357C30.5682 26.6638 30.5643 26.692 30.5603 26.7196C30.9817 26.8345 31.4026 26.9495 31.8927 27.083C31.7056 27.1669 31.5755 27.2452 31.4341 27.2863C30.5586 27.5415 29.6663 27.7134 28.752 27.7235C28.2365 27.7291 27.7909 27.5551 27.3391 27.2711C26.605 26.8109 25.8169 26.4244 25.0203 26.0796C24.4063 25.8137 23.7466 25.6492 23.101 25.4617C22.9416 25.4155 22.7568 25.4549 22.5512 25.4549C22.6813 25.918 22.8897 26.2948 23.1804 26.6295C23.6705 27.1945 24.1601 27.7613 24.6496 28.3274C24.6925 28.377 24.7347 28.4277 24.773 28.4801C25.0969 28.9223 25.0637 29.0406 24.6688 29.4198C24.2654 29.8068 23.8874 30.2225 23.5218 30.6456C23.1489 31.0766 22.8018 31.5306 22.4492 31.9785C22.3658 32.085 22.3055 32.2095 22.2126 32.3622C22.7483 32.5554 23.2446 32.5712 23.7319 32.396C24.9043 31.9751 26.0794 31.5599 27.2343 31.0952C28.2168 30.6997 29.2049 30.711 30.2128 30.9087C30.4922 30.9634 30.766 31.0456 31.0398 31.1752C30.7981 31.2225 30.5536 31.2614 30.3147 31.32C30.0511 31.3847 29.9243 31.5526 30.0432 31.7701C30.3339 32.3013 30.2415 32.9047 30.4189 33.4534C30.4933 33.6838 30.5474 33.921 30.6178 34.1531C30.6691 34.3232 30.7795 34.3739 30.94 34.2826C31.8515 33.7672 32.6498 33.1373 33.0746 32.1391C33.1354 31.9965 33.1906 31.9058 33.381 31.9503C34.9066 32.3092 36.4474 32.5678 38.0169 32.6297C38.067 32.632 38.1171 32.6512 38.1667 32.712C38.0045 32.7413 37.8422 32.7683 37.6806 32.8004C37.3369 32.8686 37.1431 33.081 37.1718 33.4291C37.2333 34.1807 37.6298 34.7401 38.2507 35.1417C38.4512 35.2713 38.685 35.2516 38.8259 35.0386C39.0771 34.6578 39.3239 34.2708 39.5306 33.8652C39.7075 33.5182 39.8258 33.1413 39.9813 32.7475C43.2076 32.5892 46.4463 32.3413 49.5532 31.1707L49.551 31.1724ZM48.5803 28.4914C48.6344 28.5668 48.6885 28.6423 48.7425 28.7178C48.8586 28.9347 48.7645 29.1195 48.6389 29.2868C48.4366 29.5561 48.0254 29.5843 47.7651 29.3589C47.4992 29.1285 47.4801 28.7066 47.724 28.4559C47.9674 28.2057 48.3482 28.2215 48.5803 28.4919V28.4914ZM45.741 31.8281C44.5011 31.134 43.9794 29.4722 45.4571 27.7398C45.3945 27.8993 45.3562 27.9798 45.3309 28.0649C45.2092 28.475 45.0622 28.8806 44.9782 29.2986C44.7844 30.2637 44.8413 31.1695 45.741 31.8281Z" fill="#E0E0E0"/>
<path d="M48.742 28.7179C48.6879 28.6424 48.6338 28.5669 48.5797 28.4915C48.5099 28.4667 48.4265 28.4053 48.3724 28.4244C48.2175 28.4796 48.0096 28.5326 47.9448 28.6526C47.8795 28.7743 47.9054 29.0171 47.9927 29.1275C48.0699 29.2255 48.2958 29.2678 48.4377 29.2402C48.6997 29.1895 48.7566 28.9607 48.742 28.7179Z" fill="#E0E0E0"/>
<path d="M82.5356 11.3153C82.574 11.514 82.5944 11.6194 82.6147 11.724C82.6606 11.1076 83.289 11.1572 83.5856 10.8261C83.7241 10.9209 83.8437 11.0029 83.9642 11.085C83.5178 10.6161 84.2201 10.4354 84.2276 10.0283C84.0161 10.0162 83.8189 10.0049 83.5321 9.98837C83.7241 9.84763 83.846 9.72269 83.9943 9.65646C84.2848 9.52776 84.336 9.32153 84.1809 9.08595C83.9634 8.75554 83.7662 8.36718 83.4576 8.14891C81.704 6.90705 79.945 5.66895 78.1364 4.50913C76.9074 3.72111 75.4578 3.48554 74.0481 3.19803C72.8943 2.96245 71.7307 2.79461 70.5438 2.90976C70.4294 2.92105 70.2751 2.8074 70.1833 2.71031C69.5375 2.02992 68.9053 1.33749 68.2648 0.652586C68.1285 0.506573 67.9848 0.366582 67.8328 0.235622C67.4564 -0.0880145 67.2577 -0.0887674 66.9537 0.298844C66.0799 1.41426 64.8839 2.04197 63.6112 2.56581C61.5881 3.39898 59.5672 4.23818 57.5456 5.07662C57.4207 5.12856 57.3018 5.19479 57.1798 5.25425C57.1746 5.29188 57.1693 5.32951 57.164 5.36639C57.727 5.51993 58.2892 5.67347 58.944 5.85185C58.6942 5.96399 58.5203 6.06861 58.3314 6.12355C57.1618 6.4645 55.9696 6.69405 54.7481 6.7076C54.0594 6.71513 53.464 6.48256 52.8604 6.10323C51.8797 5.48832 50.8268 4.97201 49.7625 4.51139C48.9422 4.15614 48.0608 3.93637 47.1983 3.68574C46.9853 3.62402 46.7384 3.67671 46.4637 3.67671C46.6376 4.29538 46.916 4.7989 47.3044 5.24597C47.9592 6.00087 48.6133 6.75803 49.2673 7.51443C49.3245 7.58067 49.381 7.64841 49.4321 7.7184C49.8649 8.30923 49.8205 8.46728 49.2929 8.97381C48.754 9.49088 48.249 10.0463 47.7605 10.6116C47.2623 11.1873 46.7986 11.794 46.3275 12.3923C46.2161 12.5346 46.1356 12.7009 46.0114 12.9049C46.7271 13.163 47.3902 13.1841 48.0412 12.95C49.6075 12.3878 51.1775 11.8331 52.7204 11.2122C54.033 10.6838 55.3532 10.6989 56.6997 10.963C57.073 11.0361 57.4387 11.1459 57.8045 11.319C57.4816 11.3823 57.155 11.4342 56.8359 11.5125C56.4836 11.599 56.3143 11.8233 56.4731 12.1138C56.8615 12.8236 56.738 13.6297 56.9751 14.3627C57.0745 14.6706 57.1467 14.9874 57.2408 15.2975C57.3093 15.5248 57.4568 15.5926 57.6713 15.4706C58.8891 14.782 59.9556 13.9405 60.5231 12.6068C60.6044 12.4164 60.6781 12.2952 60.9325 12.3547C62.9707 12.8341 65.0292 13.1796 67.126 13.2624C67.193 13.2654 67.26 13.291 67.3262 13.3723C67.1095 13.4114 66.8927 13.4475 66.6767 13.4904C66.2176 13.5815 65.9587 13.8652 65.9971 14.3304C66.0791 15.3344 66.609 16.0818 67.4384 16.6184C67.7063 16.7915 68.0187 16.7652 68.2068 16.4807C68.5425 15.9719 68.8722 15.4548 69.1484 14.9129C69.3847 14.4493 69.5428 13.9458 69.7505 13.4197C74.0609 13.2082 78.3878 12.877 82.5387 11.313L82.5356 11.3153ZM81.2388 7.73345C81.3111 7.83431 81.3833 7.93516 81.4556 8.03602C81.6106 8.32578 81.485 8.57265 81.3171 8.79619C81.0469 9.15595 80.4975 9.19358 80.1498 8.89252C79.7945 8.58469 79.7689 8.02096 80.0948 7.68604C80.42 7.35186 80.9287 7.37294 81.2388 7.73421V7.73345ZM77.4455 12.1914C75.789 11.2641 75.092 9.04381 77.0662 6.72943C76.9826 6.94243 76.9315 7.05005 76.8976 7.1637C76.735 7.71163 76.5386 8.25353 76.4264 8.81199C76.1675 10.1013 76.2435 11.3115 77.4455 12.1914Z" fill="#E0E0E0"/>
<path d="M81.4549 8.03591C81.3826 7.93506 81.3104 7.8342 81.2381 7.73335C81.1448 7.70023 81.0334 7.61819 80.9611 7.64378C80.7542 7.71754 80.4764 7.78829 80.3899 7.94861C80.3026 8.11118 80.3372 8.43557 80.4539 8.58308C80.557 8.71404 80.8588 8.77049 81.0484 8.73361C81.3984 8.66587 81.4744 8.3603 81.4549 8.03591Z" fill="#E0E0E0"/>
</svg>
