<svg width="132" height="84" viewBox="0 0 132 84" fill="none" xmlns="http://www.w3.org/2000/svg">
<path d="M55.113 51.0358C57.7221 51.5182 60.0357 51.9725 62.3585 52.3692C68.4344 53.4081 74.455 54.8828 80.6756 54.8622C80.9585 54.8614 81.3323 55.1663 81.5209 55.4289C83.7858 58.6089 86.5649 61.4178 88.2243 65.0421C89.6324 68.1226 92.2884 69.6259 95.7059 69.6823C98.1126 69.7218 99.1424 68.7976 99.515 66.4693C99.6077 65.8892 99.7397 65.2908 99.9856 64.7647C101.154 62.2693 100.672 59.3548 98.7246 57.411C97.4873 56.1756 96.2581 54.931 94.885 53.5522C96.0413 53.3304 96.9696 53.1093 97.9115 52.9916C98.2244 52.953 98.6478 53.0883 98.8909 53.2967C105.104 58.6254 112.347 62.3034 119.55 66.062C122.668 67.6878 125.851 68.7692 129.397 68.5426C129.81 68.5159 130.236 68.4779 130.625 68.3538C131.644 68.0306 131.8 67.3475 131.114 66.4572C130.317 65.4271 129.57 64.3561 128.718 63.3715C128.314 62.9049 127.764 62.5003 127.198 62.2367C119.994 58.8624 113.168 54.8396 106.58 50.4138C106.511 50.3675 106.473 50.272 106.422 50.1991C107.577 49.1049 107.683 48.3857 106.633 47.2047C99.8843 39.6029 93.2675 31.8814 86.2923 24.4859C81.5977 19.5079 76.3706 15.016 70.0787 11.9949C62.2449 8.2351 53.8904 7.00752 45.3017 7.09555C41.548 7.13436 37.7771 7.22854 34.2072 8.60581C33.6491 8.82306 33.1083 9.08469 32.5555 9.31472C31.5143 9.74873 30.3729 10.681 29.4516 10.4965C27.6281 10.1322 25.8287 9.31823 24.6153 7.70153C22.9103 5.43314 20.6874 3.7942 18.129 2.59265C14.7986 1.03145 11.277 0.252748 7.60449 0.301187C4.36301 0.344503 2.44373 1.80758 1.42703 4.81819C1.19231 5.51248 0.919746 6.19696 0.736372 6.90456C0.472036 7.92457 0.372016 8.84469 1.65773 9.42579C2.24355 9.69158 2.67007 10.3606 3.10139 10.8998C5.9762 14.4972 9.82634 16.6348 14.0873 18.1664C14.3061 18.2459 14.5221 18.3361 14.7464 18.3942C17.5301 19.1156 19.8546 20.3962 21.2425 23.0868C21.7284 24.0276 22.6669 24.7467 23.5678 25.7553C23.036 25.8597 22.6202 25.9172 22.2177 26.0237C19.818 26.6471 17.3176 27.0363 15.0501 27.9732C11.6981 29.3556 10.6387 32.6088 9.6161 35.709C8.0191 40.5582 8.47324 45.2607 10.9441 49.8049C12.2431 52.1932 13.272 54.7223 14.6321 57.0752C19.3256 65.1958 26.1481 71.0216 34.7251 74.8628C35.7254 75.3101 36.8528 75.5339 37.9467 75.6977C39.384 75.9163 40.0776 75.2099 39.5919 73.8787C38.9837 72.208 38.1491 70.6097 37.3252 69.0255C35.2919 65.1191 32.9655 61.3419 31.2029 57.326C28.8217 51.9018 26.3859 46.4321 25.8539 40.4385C25.7471 39.2369 26.1203 37.9971 26.2969 36.5811C28.5052 38.6551 30.3557 40.4511 32.2743 42.1736C33.0956 42.9108 33.9838 43.6681 34.9807 44.106C36.847 44.9287 37.7027 46.3786 38.4071 48.1569C39.8798 51.8895 41.4204 55.5714 41.3237 59.6838C41.2972 60.7655 41.3438 61.9544 43.065 61.8904C43.3269 61.8813 43.6978 62.687 43.8994 63.1667C46.8233 70.1135 51.06 76.124 56.9518 80.9449C57.8394 81.6707 58.8188 82.332 59.8527 82.8279C61.3588 83.5488 62.3101 83.0943 62.5611 81.4582C62.7157 80.461 62.5779 79.3568 62.3129 78.3649C60.8081 72.6862 58.8731 67.087 57.8025 61.3356C57.1657 57.9165 56.2271 54.6271 55.1197 51.0432L55.113 51.0358Z" fill="#F2F2F2"/>
</svg>
