<svg width="90" height="49" viewBox="0 0 90 49" fill="none" xmlns="http://www.w3.org/2000/svg">
<path d="M36.0075 19.126C36.0313 19.2492 36.0439 19.3146 36.0565 19.3795C36.0849 18.9972 36.4747 19.028 36.6586 18.8226C36.7445 18.8814 36.8188 18.9323 36.8934 18.9832C36.6166 18.6923 37.0522 18.5803 37.0568 18.3278C36.9256 18.3203 36.8033 18.3133 36.6255 18.303C36.7445 18.2157 36.8202 18.1383 36.9121 18.0972C37.0923 18.0174 37.124 17.8895 37.0279 17.7433C36.893 17.5384 36.7707 17.2976 36.5793 17.1622C35.4917 16.392 34.4007 15.6241 33.279 14.9048C32.5168 14.416 31.6177 14.2699 30.7434 14.0916C30.0278 13.9455 29.3061 13.8414 28.57 13.9128C28.499 13.9198 28.4034 13.8493 28.3464 13.7891C27.9459 13.3671 27.5538 12.9377 27.1565 12.5129C27.0721 12.4223 26.9829 12.3355 26.8886 12.2543C26.6552 12.0536 26.532 12.0531 26.3434 12.2935C25.8014 12.9853 25.0597 13.3746 24.2703 13.6995C23.0156 14.2162 21.7622 14.7367 20.5084 15.2567C20.4309 15.2889 20.3572 15.33 20.2816 15.3669C20.2783 15.3902 20.275 15.4136 20.2718 15.4364C20.6209 15.5317 20.9696 15.6269 21.3757 15.7375C21.2208 15.8071 21.1129 15.872 20.9958 15.906C20.2704 16.1175 19.531 16.2599 18.7733 16.2683C18.3462 16.2729 17.977 16.1287 17.6026 15.8934C16.9944 15.5121 16.3413 15.1918 15.6813 14.9062C15.1725 14.6858 14.6259 14.5495 14.0909 14.3941C13.9588 14.3558 13.8057 14.3885 13.6353 14.3885C13.7431 14.7722 13.9159 15.0845 14.1567 15.3618C14.5628 15.8299 14.9685 16.2995 15.3741 16.7687C15.4096 16.8098 15.4446 16.8518 15.4764 16.8952C15.7448 17.2616 15.7172 17.3596 15.39 17.6738C15.0558 17.9945 14.7426 18.339 14.4396 18.6895C14.1306 19.0466 13.843 19.4229 13.5508 19.794C13.4817 19.8822 13.4318 19.9854 13.3548 20.1119C13.7987 20.272 14.2099 20.2851 14.6137 20.1399C15.5851 19.7912 16.5589 19.4472 17.5158 19.062C18.3299 18.7344 19.1486 18.7437 19.9837 18.9075C20.2153 18.9528 20.4421 19.021 20.669 19.1283C20.4687 19.1675 20.2662 19.1997 20.0682 19.2483C19.8498 19.302 19.7447 19.4411 19.8432 19.6213C20.0841 20.0615 20.0076 20.5614 20.1546 21.0161C20.2162 21.207 20.261 21.4035 20.3194 21.5958C20.3618 21.7368 20.4533 21.7788 20.5864 21.7032C21.3417 21.2761 22.0031 20.7542 22.3551 19.927C22.4055 19.8089 22.4512 19.7338 22.609 19.7706C23.8731 20.068 25.1498 20.2823 26.4503 20.3336C26.4918 20.3355 26.5334 20.3513 26.5744 20.4018C26.44 20.426 26.3056 20.4484 26.1716 20.475C25.8868 20.5315 25.7263 20.7075 25.7501 20.996C25.801 21.6187 26.1296 22.0822 26.644 22.415C26.8102 22.5224 27.0039 22.5061 27.1206 22.3296C27.3288 22.0141 27.5332 21.6934 27.7046 21.3573C27.8511 21.0697 27.9492 20.7575 28.078 20.4312C30.7513 20.3 33.4349 20.0946 36.0093 19.1246L36.0075 19.126ZM35.2032 16.9045C35.248 16.9671 35.2928 17.0296 35.3376 17.0922C35.4338 17.2719 35.3558 17.425 35.2517 17.5636C35.0841 17.7868 34.7434 17.8101 34.5277 17.6234C34.3074 17.4325 34.2915 17.0828 34.4936 16.8751C34.6953 16.6678 35.0109 16.6809 35.2032 16.905V16.9045ZM32.8505 19.6693C31.8231 19.0943 31.3908 17.7172 32.6153 16.2818C32.5634 16.4139 32.5317 16.4807 32.5107 16.5511C32.4099 16.891 32.288 17.2271 32.2185 17.5734C32.0579 18.3731 32.105 19.1237 32.8505 19.6693Z" fill="#F2F2F2"/>
<path d="M35.3372 17.0924C35.2924 17.0299 35.2475 16.9673 35.2027 16.9048C35.1448 16.8842 35.0758 16.8333 35.031 16.8492C34.9026 16.895 34.7303 16.9388 34.6767 17.0383C34.6225 17.1391 34.644 17.3403 34.7163 17.4318C34.7803 17.513 34.9675 17.548 35.0851 17.5251C35.3022 17.4831 35.3493 17.2936 35.3372 17.0924Z" fill="#F2F2F2"/>
<path d="M56.2179 33.4424C56.2466 33.5911 56.2618 33.67 56.277 33.7483C56.3114 33.2869 56.7818 33.3241 57.0038 33.0762C57.1074 33.1472 57.197 33.2086 57.2871 33.27C56.9531 32.919 57.4787 32.7838 57.4843 32.479C57.326 32.47 57.1784 32.4616 56.9638 32.4492C57.1074 32.3438 57.1987 32.2503 57.3097 32.2007C57.5271 32.1044 57.5654 31.9501 57.4494 31.7737C57.2866 31.5264 57.139 31.2357 56.908 31.0723C55.5954 30.1428 54.2788 29.2161 52.9251 28.348C52.0051 27.7581 50.9201 27.5818 49.865 27.3666C49.0013 27.1903 48.1304 27.0647 47.242 27.1509C47.1564 27.1593 47.0409 27.0742 46.9721 27.0016C46.4888 26.4923 46.0156 25.974 45.5362 25.4614C45.4342 25.3521 45.3266 25.2473 45.2128 25.1493C44.9311 24.907 44.7824 24.9065 44.5548 25.1966C43.9007 26.0315 43.0056 26.5013 42.0529 26.8934C40.5387 27.517 39.0261 28.1452 37.5129 28.7727C37.4194 28.8116 37.3304 28.8612 37.2391 28.9057C37.2352 28.9339 37.2312 28.962 37.2273 28.9896C37.6487 29.1046 38.0695 29.2195 38.5596 29.353C38.3726 29.4369 38.2424 29.5152 38.101 29.5564C37.2256 29.8116 36.3332 29.9834 35.4189 29.9935C34.9034 29.9992 34.4578 29.8251 34.006 29.5412C33.272 29.0809 32.4838 28.6944 31.6873 28.3497C31.0732 28.0838 30.4135 27.9193 29.7679 27.7317C29.6085 27.6855 29.4237 27.7249 29.2181 27.7249C29.3482 28.188 29.5567 28.5649 29.8474 28.8995C30.3375 29.4645 30.827 30.0313 31.3166 30.5974C31.3594 30.647 31.4016 30.6977 31.44 30.7501C31.7639 31.1923 31.7306 31.3106 31.3357 31.6898C30.9324 32.0768 30.5544 32.4926 30.1887 32.9156C29.8158 33.3466 29.4688 33.8007 29.1161 34.2485C29.0327 34.355 28.9725 34.4795 28.8795 34.6322C29.4153 34.8254 29.9116 34.8412 30.3989 34.666C31.5712 34.2452 32.7464 33.83 33.9012 33.3652C34.8837 32.9697 35.8718 32.981 36.8797 33.1787C37.1591 33.2334 37.4329 33.3156 37.7067 33.4452C37.465 33.4925 37.2205 33.5314 36.9816 33.59C36.718 33.6548 36.5912 33.8226 36.7101 34.0401C37.0008 34.5713 36.9084 35.1747 37.0859 35.7234C37.1602 35.9538 37.2143 36.191 37.2847 36.4231C37.336 36.5932 37.4464 36.6439 37.607 36.5526C38.5185 36.0372 39.3168 35.4073 39.7415 34.4091C39.8024 34.2666 39.8576 34.1759 40.048 34.2204C41.5735 34.5792 43.1143 34.8378 44.6838 34.8998C44.7339 34.902 44.7841 34.9212 44.8337 34.982C44.6714 35.0113 44.5092 35.0384 44.3475 35.0705C44.0038 35.1386 43.81 35.351 43.8388 35.6992C43.9002 36.4507 44.2968 37.0101 44.9176 37.4118C45.1181 37.5413 45.3519 37.5216 45.4928 37.3087C45.744 36.9278 45.9908 36.5408 46.1975 36.1352C46.3744 35.7882 46.4927 35.4113 46.6482 35.0175C49.8745 34.8592 53.1132 34.6113 56.2201 33.4407L56.2179 33.4424ZM55.2472 30.7614C55.3013 30.8369 55.3554 30.9124 55.4095 30.9878C55.5255 31.2047 55.4314 31.3895 55.3058 31.5568C55.1036 31.8261 54.6923 31.8543 54.4321 31.6289C54.1662 31.3985 54.147 30.9766 54.3909 30.7259C54.6343 30.4758 55.0151 30.4915 55.2472 30.7619V30.7614ZM52.4079 34.0981C51.168 33.4041 50.6463 31.7422 52.124 30.0099C52.0615 30.1693 52.0232 30.2499 51.9978 30.3349C51.8761 30.745 51.7291 31.1507 51.6452 31.5687C51.4514 32.5337 51.5083 33.4396 52.4079 34.0981Z" fill="#E0E0E0"/>
<path d="M55.4089 30.9878C55.3548 30.9123 55.3007 30.8368 55.2466 30.7614C55.1768 30.7366 55.0934 30.6752 55.0393 30.6943C54.8844 30.7495 54.6765 30.8025 54.6117 30.9225C54.5464 31.0442 54.5723 31.287 54.6596 31.3974C54.7368 31.4954 54.9627 31.5377 55.1047 31.5101C55.3666 31.4594 55.4235 31.2306 55.4089 30.9878Z" fill="#E0E0E0"/>
<path d="M17.3403 46.2368C17.3586 46.3311 17.3682 46.3812 17.3779 46.4308C17.3997 46.1382 17.698 46.1618 17.8388 46.0046C17.9046 46.0496 17.9614 46.0885 18.0186 46.1275C17.8067 45.9049 18.14 45.8191 18.1436 45.6258C18.0432 45.6201 17.9496 45.6147 17.8134 45.6068C17.9046 45.54 17.9625 45.4807 18.0328 45.4493C18.1708 45.3882 18.1951 45.2903 18.1215 45.1784C18.0182 45.0215 17.9246 44.8372 17.7781 44.7335C16.9455 44.144 16.1104 43.5562 15.2518 43.0055C14.6683 42.6314 13.9801 42.5195 13.3108 42.383C12.763 42.2712 12.2106 42.1915 11.6471 42.2462C11.5928 42.2516 11.5195 42.1976 11.4759 42.1515C11.1693 41.8285 10.8692 41.4997 10.5651 41.1746C10.5004 41.1052 10.4322 41.0388 10.36 40.9766C10.1813 40.823 10.087 40.8226 9.94262 41.0066C9.52776 41.5362 8.95997 41.8342 8.35573 42.0829C7.39524 42.4785 6.43582 42.8769 5.47604 43.2749C5.41672 43.2996 5.36026 43.331 5.30238 43.3593C5.29988 43.3771 5.29738 43.395 5.29488 43.4125C5.56216 43.4854 5.82907 43.5583 6.13995 43.643C6.02132 43.6962 5.93877 43.7459 5.84908 43.772C5.2938 43.9338 4.72779 44.0428 4.14785 44.0493C3.8209 44.0528 3.53826 43.9424 3.25168 43.7623C2.78608 43.4704 2.28618 43.2253 1.78092 43.0066C1.39144 42.8379 0.973011 42.7336 0.563515 42.6146C0.462391 42.5853 0.345188 42.6103 0.214764 42.6103C0.297306 42.904 0.429518 43.1431 0.613899 43.3553C0.924772 43.7137 1.23529 44.0732 1.5458 44.4323C1.57296 44.4638 1.59976 44.4959 1.62406 44.5292C1.82952 44.8097 1.80844 44.8847 1.55795 45.1252C1.30211 45.3707 1.06234 45.6344 0.830437 45.9027C0.593885 46.1761 0.373772 46.4641 0.150085 46.7481C0.0972004 46.8157 0.0589695 46.8947 9.53674e-06 46.9915C0.339827 47.114 0.654631 47.1241 0.963718 47.0129C1.70731 46.746 2.4527 46.4827 3.18522 46.1879C3.8084 45.937 4.43515 45.9442 5.0744 46.0696C5.25164 46.1042 5.42529 46.1564 5.59896 46.2386C5.44566 46.2686 5.29058 46.2933 5.13908 46.3304C4.97185 46.3715 4.89145 46.478 4.96685 46.6159C5.15123 46.9529 5.09263 47.3356 5.20519 47.6836C5.25235 47.8298 5.28665 47.9802 5.33132 48.1274C5.36384 48.2353 5.43388 48.2675 5.53571 48.2096C6.11387 47.8827 6.6202 47.4832 6.88962 46.85C6.92821 46.7596 6.96323 46.7021 7.08401 46.7303C8.05165 46.9579 9.02894 47.1219 10.0244 47.1612C10.0563 47.1626 10.088 47.1748 10.1195 47.2134C10.0166 47.232 9.91367 47.2491 9.81112 47.2695C9.59315 47.3127 9.47023 47.4474 9.48846 47.6683C9.52741 48.1449 9.77896 48.4998 10.1727 48.7545C10.2999 48.8367 10.4482 48.8242 10.5376 48.6891C10.6969 48.4476 10.8534 48.2021 10.9846 47.9448C11.0968 47.7247 11.1718 47.4857 11.2704 47.2359C13.3169 47.1355 15.3711 46.9783 17.3418 46.2357L17.3403 46.2368ZM16.7247 44.5363C16.759 44.5842 16.7933 44.6321 16.8276 44.6799C16.9012 44.8175 16.8415 44.9347 16.7618 45.0408C16.6336 45.2116 16.3727 45.2295 16.2076 45.0866C16.039 44.9404 16.0268 44.6728 16.1815 44.5138C16.3359 44.3551 16.5775 44.3651 16.7247 44.5367V44.5363ZM14.9238 46.6527C14.1373 46.2125 13.8064 45.1584 14.7437 44.0596C14.704 44.1607 14.6797 44.2118 14.6636 44.2658C14.5864 44.5259 14.4932 44.7832 14.4399 45.0483C14.317 45.6604 14.3531 46.235 14.9238 46.6527Z" fill="#F2F2F2"/>
<path d="M28.9353 47.707C28.901 47.6592 28.8667 47.6113 28.8324 47.5634C28.7881 47.5477 28.7352 47.5087 28.7009 47.5209C28.6026 47.5559 28.4708 47.5895 28.4297 47.6656C28.3882 47.7428 28.4047 47.8968 28.4601 47.9668C28.509 48.029 28.6523 48.0558 28.7423 48.0383C28.9085 48.0061 28.9446 47.861 28.9353 47.707Z" fill="#F2F2F2"/>
<path d="M87.5663 11.3153C87.6047 11.514 87.6251 11.6194 87.6454 11.724C87.6913 11.1076 88.3197 11.1572 88.6163 10.8261C88.7548 10.9209 88.8744 11.0029 88.9949 11.085C88.5485 10.6161 89.2508 10.4354 89.2583 10.0283C89.0468 10.0162 88.8496 10.0049 88.5628 9.98837C88.7548 9.84763 88.8767 9.72269 89.025 9.65646C89.3155 9.52776 89.3667 9.32153 89.2116 9.08595C88.9941 8.75554 88.7969 8.36718 88.4883 8.14891C86.7347 6.90705 84.9757 5.66895 83.1671 4.50913C81.9381 3.72111 80.4885 3.48554 79.0788 3.19803C77.925 2.96245 76.7614 2.79461 75.5745 2.90976C75.4601 2.92105 75.3058 2.8074 75.214 2.71031C74.5682 2.02992 73.936 1.33749 73.2955 0.652586C73.1593 0.506573 73.0155 0.366582 72.8635 0.235622C72.4871 -0.0880145 72.2884 -0.0887674 71.9844 0.298844C71.1106 1.41426 69.9146 2.04197 68.6419 2.56581C66.6188 3.39898 64.5979 4.23818 62.5763 5.07662C62.4514 5.12856 62.3325 5.19479 62.2105 5.25425C62.2053 5.29188 62.2 5.32951 62.1947 5.36639C62.7577 5.51993 63.3199 5.67347 63.9747 5.85185C63.7249 5.96399 63.551 6.06861 63.3621 6.12355C62.1925 6.4645 61.0003 6.69405 59.7788 6.7076C59.0901 6.71513 58.4947 6.48256 57.8911 6.10323C56.9104 5.48832 55.8575 4.97201 54.7932 4.51139C53.9729 4.15614 53.0915 3.93637 52.229 3.68574C52.016 3.62402 51.7691 3.67671 51.4944 3.67671C51.6683 4.29538 51.9468 4.7989 52.3351 5.24597C52.9899 6.00087 53.644 6.75803 54.298 7.51443C54.3552 7.58067 54.4117 7.64841 54.4628 7.7184C54.8956 8.30923 54.8512 8.46728 54.3236 8.97381C53.7847 9.49088 53.2797 10.0463 52.7912 10.6116C52.293 11.1873 51.8293 11.794 51.3582 12.3923C51.2468 12.5346 51.1663 12.7009 51.0421 12.9049C51.7578 13.163 52.4209 13.1841 53.0719 12.95C54.6382 12.3878 56.2082 11.8331 57.7511 11.2122C59.0637 10.6838 60.3839 10.6989 61.7304 10.963C62.1037 11.0361 62.4694 11.1459 62.8352 11.319C62.5124 11.3823 62.1857 11.4342 61.8666 11.5125C61.5143 11.599 61.345 11.8233 61.5038 12.1138C61.8922 12.8236 61.7687 13.6297 62.0058 14.3627C62.1052 14.6706 62.1774 14.9874 62.2715 15.2975C62.34 15.5248 62.4875 15.5926 62.702 15.4706C63.9198 14.782 64.9863 13.9405 65.5538 12.6068C65.6351 12.4164 65.7088 12.2952 65.9632 12.3547C68.0014 12.8341 70.0599 13.1796 72.1567 13.2624C72.2237 13.2654 72.2907 13.291 72.3569 13.3723C72.1402 13.4114 71.9234 13.4475 71.7074 13.4904C71.2483 13.5815 70.9894 13.8652 71.0278 14.3304C71.1098 15.3344 71.6397 16.0818 72.4691 16.6184C72.737 16.7915 73.0494 16.7652 73.2375 16.4807C73.5732 15.9719 73.9029 15.4548 74.1791 14.9129C74.4154 14.4493 74.5735 13.9458 74.7812 13.4197C79.0916 13.2082 83.4185 12.877 87.5694 11.313L87.5663 11.3153ZM86.2695 7.73345C86.3418 7.83431 86.414 7.93516 86.4863 8.03602C86.6413 8.32578 86.5157 8.57265 86.3478 8.79619C86.0776 9.15595 85.5282 9.19358 85.1805 8.89252C84.8252 8.58469 84.7996 8.02096 85.1255 7.68604C85.4507 7.35186 85.9594 7.37294 86.2695 7.73421V7.73345ZM82.4762 12.1914C80.8197 11.2641 80.1227 9.04381 82.0969 6.72943C82.0133 6.94243 81.9622 7.05005 81.9283 7.1637C81.7657 7.71163 81.5693 8.25353 81.4571 8.81199C81.1982 10.1013 81.2742 11.3115 82.4762 12.1914Z" fill="#F2F2F2"/>
<path d="M86.4856 8.03567C86.4133 7.93481 86.3411 7.83396 86.2688 7.7331C86.1755 7.69999 86.0641 7.61795 85.9918 7.64354C85.7849 7.7173 85.5071 7.78805 85.4206 7.94836C85.3333 8.11093 85.3679 8.43532 85.4846 8.58284C85.5877 8.7138 85.8895 8.77025 86.0791 8.73337C86.4291 8.66563 86.5051 8.36006 86.4856 8.03567Z" fill="#F2F2F2"/>
</svg>
