<svg width="101" height="138" viewBox="0 0 101 138" fill="none" xmlns="http://www.w3.org/2000/svg">
<path d="M47.1499 10.3426C53.1126 8.63856 58.0127 11.3912 62.8853 14.1647C65.2345 15.5034 67.528 16.7897 70.3526 16.9596C72.3225 17.0775 73.6577 18.3742 74.1363 20.3447C74.7077 22.702 73.5619 24.4984 71.8117 25.7519C70.7987 26.4772 69.3719 26.7305 68.0911 26.9427C67.1557 27.0987 65.6503 28.6558 66.0579 29.56C67.8917 33.632 69.7549 37.7159 73.5009 40.4743C75.8512 42.2054 78.4039 42.589 81.1035 41.3045C84.3436 39.7615 85.1224 36.0292 82.7837 33.3122C82.6327 33.1361 82.3731 32.982 82.3393 32.7893C82.2567 32.2915 82.2737 31.7786 82.2504 31.2707C82.7546 31.2533 83.383 31.0304 83.7411 31.2521C86.1021 32.7106 87.0899 36.7085 85.7957 39.2416C83.2941 44.1426 77.064 45.5254 72.5654 42.2174C68.7905 39.4409 66.6962 35.468 64.7135 31.4017C64.1996 30.348 64.2088 30.341 63.4275 30.617C64.5139 33.1594 65.4375 35.7956 66.736 38.2321C68.1294 40.8413 69.7244 43.3765 71.5109 45.7294C73.7185 48.6425 76.8276 49.6413 80.4266 48.9594C81.9667 48.6668 83.1144 47.8596 83.8657 46.4084C84.0749 46.0053 84.8212 45.8813 85.3215 45.628C85.396 46.1566 85.7016 46.7937 85.511 47.198C84.2539 49.8675 81.8334 50.7921 79.1325 50.9258C75.8893 51.0871 72.9971 50.0718 70.7644 47.5745C67.0251 43.3937 64.6637 38.3987 62.3951 33.3519C62.1295 32.7587 61.9842 32.0927 61.6261 31.5664C61.3084 31.0991 60.7774 30.7776 60.3386 30.3955C60.1957 30.5145 60.0513 30.6371 59.9084 30.756C60.2062 31.6584 60.4593 32.5768 60.8109 33.4562C63.6828 40.6943 67.5459 47.3048 73.2303 52.7289C73.8292 53.3016 74.6536 53.6651 75.1721 54.2904C75.4957 54.6792 75.4416 55.3816 75.5568 55.9416C75.0189 55.9582 74.2866 56.2071 73.9731 55.9481C72.4081 54.6521 70.7853 53.3625 69.4857 51.8159C64.9792 46.449 61.3006 40.5608 58.9226 33.9188C58.7989 33.5726 58.5823 33.257 58.4088 32.929C58.2673 32.9804 58.1258 33.0317 57.9842 33.0831C58.1157 33.5538 58.191 34.0487 58.3854 34.4896C61.965 42.7108 65.5676 50.9222 69.137 59.1478C69.491 59.9622 70.4005 61.0632 69.0264 61.6381C67.6575 62.2109 67.5124 60.7802 67.162 59.9674C63.6157 51.7319 60.1052 43.4811 56.5706 35.2376C56.3296 34.6735 56.221 33.7604 55.0769 34.4625C55.3853 35.0496 55.6995 35.6007 55.9738 36.1719C59.3185 43.0923 61.018 50.3501 59.9961 58.0337C59.7349 59.9943 58.7418 61.8717 57.9485 63.7277C57.8029 64.0671 56.9848 64.1151 56.4749 64.2964C56.3502 63.7709 55.9418 63.0773 56.1409 62.7425C59.4046 57.2446 58.548 51.4635 57.3291 45.6848C56.5392 41.9374 55.1088 38.4058 53.1727 35.0934C52.9556 34.72 52.5784 34.4395 52.2747 34.1185C52.1669 34.192 52.0616 34.2644 51.9526 34.3353C52.5667 36.0133 53.2086 37.6855 53.7934 39.373C55.1503 43.2924 56.1568 47.2915 56.2743 51.4633C56.3919 55.7417 54.9319 59.2259 51.0173 61.316C49.1406 62.3159 47.1119 62.8325 44.9877 62.0556C44.5279 61.8865 44.0208 61.6067 43.7543 61.224C43.5443 60.9239 43.4971 60.2678 43.6914 59.9928C43.8832 59.719 44.606 59.4832 44.8608 59.6333C47.0625 60.9314 49.0813 60.3704 50.9964 59.092C53.2103 57.613 54.2546 55.3664 54.308 52.8061C54.352 50.6916 54.1658 48.52 53.7075 46.4555C53.0657 43.5648 52.0877 40.7446 51.2231 37.9065C51.0244 37.2572 50.6962 36.6451 50.4276 36.0166C50.2725 36.0432 50.1174 36.0699 49.9637 36.0929C50.0301 36.5245 50.0544 36.9711 50.1701 37.3907C50.9304 40.1547 51.9855 42.8719 52.4194 45.687C53.0199 49.5793 52.2535 53.2058 48.7715 55.7202C45.6127 57.9991 41.6407 57.893 38.7712 55.3084C36.5607 53.3164 35.4809 50.7469 35.4807 47.7495C35.4812 46.8933 35.6584 46.0256 36.6925 46.0863C37.7628 46.1468 37.798 47.0792 37.6675 47.8934C37.0961 51.5158 40.2908 55.3079 43.8614 55.3814C47.0727 55.45 49.9041 52.9151 50.4792 49.4007C51.0239 46.07 50.1326 42.9569 49.0464 39.8692C48.908 39.4745 48.6971 39.1016 48.5979 38.6992C48.3078 37.5103 47.7023 36.9222 46.3662 37.0971C45.7157 37.1831 45.0117 36.8747 44.241 36.7289C42.8429 38.9621 40.6957 39.5841 38.1472 39.2384C34.7104 38.7695 32.7003 35.1353 34.8048 32.4084C37.2816 29.1994 37.9494 25.4414 39.1883 21.8293C39.6685 20.4239 40.1697 19.0248 40.7049 17.6416C41.807 14.8007 43.6193 12.5093 46.1274 10.7765L47.1514 10.339L47.1499 10.3426Z" fill="#F2F2F2"/>
<path d="M17.7044 71.8374C22.0672 70.5905 25.6526 72.6046 29.2179 74.6339C30.9368 75.6134 32.6149 76.5547 34.6817 76.679C36.123 76.7652 37.0999 77.714 37.4502 79.1558C37.8682 80.8806 37.0298 82.195 35.7493 83.1122C35.008 83.6429 33.9641 83.8282 33.0269 83.9835C32.3425 84.0977 31.241 85.237 31.5392 85.8986C32.881 88.8781 34.2443 91.8662 36.9852 93.8845C38.7049 95.1512 40.5727 95.4318 42.548 94.4919C44.9188 93.363 45.4886 90.6321 43.7774 88.6441C43.6669 88.5152 43.477 88.4024 43.4522 88.2615C43.3918 87.8972 43.4042 87.5219 43.3872 87.1503C43.7561 87.1375 44.2159 86.9745 44.4779 87.1367C46.2055 88.2039 46.9282 91.1291 45.9812 92.9825C44.1509 96.5686 39.5923 97.5804 36.3007 95.1599C33.5386 93.1283 32.0063 90.2214 30.5555 87.2461C30.1795 86.4751 30.1862 86.47 29.6146 86.672C30.4095 88.5322 31.0853 90.4611 32.0354 92.2439C33.055 94.153 34.222 96.008 35.5292 97.7296C37.1444 99.8612 39.4194 100.592 42.0527 100.093C43.1796 99.8789 44.0193 99.2883 44.5691 98.2265C44.7222 97.9315 45.2682 97.8408 45.6343 97.6554C45.6888 98.0422 45.9124 98.5084 45.773 98.8042C44.8531 100.757 43.0821 101.434 41.1058 101.532C38.7328 101.65 36.6166 100.907 34.9829 99.0797C32.247 96.0206 30.5191 92.3658 28.8592 88.6731C28.6649 88.239 28.5586 87.7518 28.2965 87.3667C28.064 87.0247 27.6755 86.7895 27.3545 86.5099C27.2499 86.5969 27.1442 86.6867 27.0397 86.7737C27.2576 87.434 27.4428 88.1059 27.7 88.7494C29.8014 94.0455 32.628 98.8824 36.7872 102.851C37.2254 103.27 37.8287 103.536 38.208 103.994C38.4448 104.278 38.4052 104.792 38.4895 105.202C38.0959 105.214 37.5601 105.396 37.3307 105.207C36.1856 104.258 34.9982 103.315 34.0473 102.183C30.75 98.2562 28.0583 93.9478 26.3184 89.0879C26.2279 88.8346 26.0694 88.6037 25.9425 88.3637C25.8389 88.4012 25.7353 88.4388 25.6318 88.4764C25.728 88.8208 25.783 89.1829 25.9253 89.5055C28.5445 95.5209 31.1805 101.529 33.7922 107.548C34.0512 108.144 34.7166 108.949 33.7113 109.37C32.7096 109.789 32.6035 108.742 32.3471 108.147C29.7523 102.122 27.1837 96.0846 24.5975 90.0528C24.4211 89.6401 24.3416 88.9719 23.5045 89.4857C23.7301 89.9153 23.96 90.3185 24.1608 90.7365C26.608 95.8001 27.8516 101.111 27.1039 106.733C26.9127 108.167 26.1861 109.541 25.6056 110.899C25.4991 111.147 24.9005 111.182 24.5274 111.315C24.4362 110.931 24.1374 110.423 24.283 110.178C26.6711 106.155 26.0443 101.925 25.1524 97.697C24.5744 94.955 23.5279 92.371 22.1112 89.9473C21.9524 89.6741 21.6764 89.4689 21.4542 89.234C21.3752 89.2878 21.2982 89.3407 21.2185 89.3926C21.6678 90.6204 22.1375 91.844 22.5654 93.0787C23.5582 95.9465 24.2946 98.8726 24.3806 101.925C24.4667 105.056 23.3984 107.605 20.5341 109.134C19.161 109.866 17.6766 110.244 16.1223 109.675C15.7858 109.552 15.4148 109.347 15.2198 109.067C15.0662 108.847 15.0316 108.367 15.1738 108.166C15.3142 107.966 15.843 107.793 16.0295 107.903C17.6404 108.853 19.1175 108.442 20.5188 107.507C22.1387 106.425 22.9028 104.781 22.9419 102.908C22.9741 101.36 22.8379 99.7715 22.5025 98.2609C22.0329 96.1458 21.3173 94.0823 20.6847 92.0056C20.5393 91.5306 20.2992 91.0827 20.1026 90.6228C19.9891 90.6423 19.8757 90.6618 19.7632 90.6787C19.8118 90.9945 19.8296 91.3212 19.9142 91.6283C20.4705 93.6507 21.2425 95.6388 21.56 97.6986C21.9994 100.547 21.4386 103.2 18.8909 105.04C16.5796 106.707 13.6733 106.63 11.5737 104.738C9.9563 103.281 9.1662 101.401 9.16609 99.2077C9.16644 98.5813 9.2961 97.9463 10.0528 97.9908C10.8359 98.035 10.8616 98.7173 10.7662 99.313C10.3481 101.963 12.6856 104.738 15.2982 104.792C17.6478 104.842 19.7196 102.987 20.1404 100.416C20.5389 97.9789 19.8868 95.701 19.092 93.4418C18.9907 93.1529 18.8365 92.8801 18.7638 92.5857C18.5516 91.7157 18.1085 91.2854 17.1309 91.4134C16.655 91.4764 16.1399 91.2507 15.5759 91.144C14.5529 92.778 12.9819 93.2331 11.1171 92.9802C8.60246 92.6371 7.1317 89.978 8.67153 87.9827C10.4838 85.6347 10.9724 82.885 11.8789 80.2421C12.2303 79.2137 12.597 78.19 12.9886 77.1779C13.795 75.0993 15.121 73.4227 16.9562 72.1548L17.7055 71.8347L17.7044 71.8374Z" fill="#E0E0E0"/>
<path d="M72.529 100.21C76.1094 99.1872 79.0517 100.84 81.9775 102.505C83.3881 103.309 84.7653 104.082 86.4614 104.184C87.6442 104.254 88.4459 105.033 88.7333 106.216C89.0764 107.632 88.3884 108.71 87.3375 109.463C86.7292 109.899 85.8725 110.051 85.1034 110.178C84.5417 110.272 83.6378 111.207 83.8825 111.75C84.9837 114.195 86.1024 116.647 88.3517 118.303C89.7631 119.343 91.2958 119.573 92.9168 118.802C94.8624 117.875 95.33 115.634 93.9257 114.003C93.8351 113.897 93.6792 113.804 93.6589 113.689C93.6093 113.39 93.6195 113.082 93.6055 112.777C93.9083 112.766 94.2856 112.633 94.5006 112.766C95.9183 113.642 96.5114 116.042 95.7343 117.563C94.2322 120.506 90.4913 121.336 87.7901 119.35C85.5233 117.683 84.2658 115.297 83.0753 112.856C82.7667 112.223 82.7722 112.219 82.3031 112.384C82.9554 113.911 83.51 115.494 84.2897 116.957C85.1264 118.524 86.0841 120.046 87.1569 121.459C88.4824 123.208 90.3493 123.808 92.5104 123.398C93.4352 123.223 94.1243 122.738 94.5755 121.867C94.7011 121.624 95.1492 121.55 95.4496 121.398C95.4943 121.715 95.6778 122.098 95.5634 122.341C94.8085 123.944 93.3551 124.499 91.7333 124.579C89.7859 124.676 88.0492 124.066 86.7086 122.567C84.4633 120.056 83.0454 117.057 81.6832 114.027C81.5237 113.67 81.4365 113.27 81.2214 112.954C81.0306 112.674 80.7118 112.481 80.4483 112.251C80.3625 112.323 80.2758 112.396 80.19 112.468C80.3688 113.01 80.5208 113.561 80.7319 114.089C82.4564 118.435 84.776 122.405 88.1893 125.662C88.5489 126.006 89.0439 126.224 89.3553 126.599C89.5495 126.833 89.5171 127.255 89.5862 127.591C89.2633 127.601 88.8236 127.75 88.6353 127.595C87.6956 126.817 86.7212 126.042 85.9408 125.114C83.2348 121.891 81.026 118.355 79.5981 114.367C79.5238 114.159 79.3937 113.97 79.2896 113.773C79.2046 113.803 79.1196 113.834 79.0346 113.865C79.1136 114.148 79.1587 114.445 79.2755 114.71C81.4249 119.646 83.5881 124.577 85.7314 129.516C85.944 130.005 86.4901 130.666 85.665 131.011C84.843 131.355 84.7559 130.496 84.5455 130.008C82.4161 125.063 80.3082 120.109 78.1858 115.159C78.0411 114.82 77.9758 114.272 77.2888 114.693C77.474 115.046 77.6627 115.377 77.8274 115.72C79.8358 119.875 80.8563 124.233 80.2427 128.847C80.0858 130.024 79.4895 131.152 79.0131 132.266C78.9257 132.47 78.4345 132.499 78.1283 132.608C78.0535 132.292 77.8082 131.876 77.9277 131.674C79.8875 128.373 79.3731 124.902 78.6412 121.432C78.1669 119.182 77.308 117.061 76.1455 115.072C76.0151 114.848 75.7886 114.68 75.6063 114.487C75.5415 114.531 75.4783 114.574 75.4128 114.617C75.7816 115.625 76.167 116.629 76.5182 117.642C77.3329 119.995 77.9373 122.397 78.0078 124.902C78.0785 127.471 77.2018 129.563 74.8512 130.818C73.7244 131.418 72.5062 131.729 71.2307 131.262C70.9546 131.161 70.6501 130.992 70.4901 130.763C70.364 130.582 70.3356 130.189 70.4523 130.023C70.5675 129.859 71.0015 129.717 71.1545 129.808C72.4765 130.587 73.6887 130.25 74.8387 129.483C76.168 128.594 76.7951 127.245 76.8271 125.708C76.8536 124.438 76.7418 123.134 76.4666 121.895C76.0812 120.159 75.494 118.466 74.9748 116.761C74.8555 116.372 74.6584 116.004 74.4972 115.627C74.404 115.643 74.3109 115.659 74.2186 115.672C74.2585 115.932 74.273 116.2 74.3425 116.452C74.799 118.111 75.4326 119.743 75.6931 121.433C76.0537 123.77 75.5935 125.948 73.5027 127.458C71.606 128.826 69.2209 128.763 67.4979 127.211C66.1706 126.015 65.5222 124.472 65.5221 122.672C65.5224 122.158 65.6288 121.637 66.2497 121.673C66.8924 121.709 66.9135 122.269 66.8352 122.758C66.4921 124.933 68.4104 127.21 70.5544 127.254C72.4826 127.296 74.1828 125.774 74.5281 123.663C74.8552 121.663 74.32 119.794 73.6678 117.94C73.5847 117.703 73.4581 117.479 73.3985 117.237C73.2243 116.524 72.8607 116.17 72.0584 116.275C71.6678 116.327 71.2451 116.142 70.7823 116.054C69.9428 117.395 68.6535 117.769 67.1232 117.561C65.0596 117.28 63.8526 115.097 65.1163 113.46C66.6035 111.533 67.0045 109.277 67.7483 107.108C68.0367 106.264 68.3377 105.424 68.659 104.593C69.3208 102.887 70.409 101.511 71.915 100.471L72.5299 100.208L72.529 100.21Z" fill="#F2F2F2"/>
</svg>
