<svg width="203" height="134" viewBox="0 0 203 134" fill="none" xmlns="http://www.w3.org/2000/svg">
<path d="M193.317 0.552062C193.956 2.11527 194.602 3.67191 195.232 5.23751C199.403 15.583 198.861 25.9093 194.424 35.9851C190.049 45.9121 183.555 54.2662 174.17 60.0965C164.646 66.0115 154.069 68.2661 143.024 68.724C140.563 68.8255 138.055 68.9043 135.627 68.5762C133.167 68.2482 130.698 67.6154 128.383 66.7264C125.461 65.6029 122.644 65.5029 119.648 66.2625C118.749 66.4902 117.675 66.194 116.712 65.988C114.982 65.6202 113.281 64.7967 111.557 64.7749C108.415 64.7309 107.58 65.8399 107.829 69.0548C102.845 70.8797 97.8271 72.7596 92.7811 74.5571C80.5768 78.9049 68.6477 83.8705 57.4563 90.4437C55.3261 91.6942 53.6247 90.8211 51.7208 90.0506C50.7613 89.663 49.2349 89.2464 48.6213 89.7096C47.3514 90.6619 46.6182 92.2889 47.4624 93.952C48.0384 95.0856 48.806 96.1739 49.6749 97.107C52.5476 100.188 52.5917 102.665 49.3045 105.41C47.0306 107.307 44.4643 108.862 41.9699 110.478C39.6553 111.975 37.1657 113.223 34.9251 114.822C33.0052 116.189 31.1445 116.147 28.9845 115.675C15.6056 112.759 7.90193 104.067 3.9277 91.5464C3.15673 89.1168 2.52333 86.6437 1.82093 84.1676C0.175774 87.7525 0.510932 91.5123 1.09568 95.2872C2.15348 102.123 4.18757 108.605 7.79736 114.572C10.4677 118.989 14.3039 121.607 19.349 122.625C30.1188 124.799 40.9823 124.916 51.8819 123.912C55.4067 123.59 58.8722 123.764 62.3866 123.838C72.0185 124.035 81.6886 123.741 91.3071 123.073C98.6046 122.567 105.846 121.19 113.114 120.227C113.657 120.154 114.281 120.176 114.774 120.379C117.464 121.501 120.067 121.404 122.804 120.357C124.402 119.745 126.197 119.553 127.921 119.434C128.55 119.391 129.353 119.999 129.859 120.516C133.553 124.281 137.171 128.117 140.862 131.887C141.386 132.421 142.172 132.695 142.838 133.089C142.99 132.87 143.137 132.652 143.288 132.433C140.175 129.131 137.06 125.835 133.95 122.528C133.256 121.794 132.452 121.122 131.922 120.278C131.184 119.1 130.929 118.011 132.695 117.189C133.882 116.636 134.88 115.589 135.831 114.632C137.813 112.637 139.436 110.175 141.687 108.565C155.836 98.4367 166.656 85.2534 176.808 71.4144C181.778 64.6403 186.983 58.039 191.847 51.1955C197.897 42.687 202.317 33.4477 202.659 22.8166C202.897 15.2831 201.369 8.1651 196.279 2.23357C195.587 1.42668 194.657 0.822792 193.837 0.124569C193.664 0.268461 193.49 0.40817 193.322 0.550869L193.317 0.552062Z" fill="#F2F2F2"/>
</svg>
