<svg width="172" height="130" viewBox="0 0 172 130" fill="none" xmlns="http://www.w3.org/2000/svg">
<path d="M11.1495 99.5593C10.6557 100.774 10.2068 101.52 10.0521 102.321C9.47357 105.357 8.65557 108.398 8.57577 111.454C8.50594 114.041 10.5509 115.514 13.2044 115.664C16.2669 115.833 18.9154 114.773 21.1799 112.807C24.801 109.672 26.9756 105.775 27.9433 101.018C30.0431 90.671 34.2329 81.1806 40.9115 72.9442C42.5774 70.8889 44.9166 69.2665 47.206 67.8581C50.7922 65.6484 54.6677 63.9016 58.2938 61.7418C61.6456 59.7461 61.8252 58.2531 58.9971 55.5906C55.5705 52.3658 52.0791 49.1708 48.3333 46.3341C42.4078 41.8451 35.5247 41.1036 28.447 42.5767C24.2473 43.4476 20.9803 45.8812 18.7957 49.763C16.9802 52.9928 14.9601 56.1381 12.7256 59.0942C10.8701 61.5527 8.1119 62.5331 4.99455 62.12C2.19142 61.7467 0.415777 59.7511 0.0666333 56.7203C-0.322413 53.3312 0.984383 50.813 4.19152 49.5191C3.89225 50.4448 3.74761 51.0868 3.47328 51.674C3.05431 52.5648 2.18643 53.4059 2.1615 54.2868C2.12159 55.5906 2.26125 57.2877 3.06428 58.1038C3.69274 58.7458 5.56814 58.6762 6.65049 58.278C10.6008 56.8248 13.3191 53.6846 14.9601 50.1014C19.9329 39.2224 29.5194 37.2467 39.864 36.7938C42.4876 36.6794 45.191 37.6747 47.8046 38.3664C53.2363 39.8047 58.633 41.3823 64.0497 42.8852C64.3889 42.9798 64.773 42.8952 65.2418 42.507C63.3165 41.656 61.4262 40.7204 59.461 39.9739C51.6601 36.9929 46.9616 30.9463 43.4752 23.7948C40.707 18.1214 36.1482 16.8424 30.7813 20.4455C28.9259 21.6897 27.0455 22.904 25.1002 23.9889C23.6388 24.8051 22.1525 24.8399 20.5464 22.9289C25.1751 23.0533 27.8984 20.0474 31.1504 18.0816C36.9362 14.5781 41.1559 15.4589 44.9266 21.0527C45.989 22.6303 46.9417 24.2775 47.9791 25.8701C53.6901 34.6688 62.294 38.2171 72.3095 39.2423C73.8158 39.3966 74.3994 38.9388 74.7784 37.3612C75.7361 33.3749 77.0778 29.4831 78.1651 25.5267C78.3497 24.8598 78.2898 23.8396 77.8908 23.3569C75.781 20.8088 75.4468 17.8228 75.4617 14.7274C75.4767 11.8359 75.6463 8.94449 75.5715 6.05803C75.5216 4.16193 74.9829 2.43005 72.5988 2.16629C69.6261 1.83783 67.5312 2.88293 66.7431 5.19707C66.369 6.29193 66.1645 7.44652 65.7107 8.50157C64.5635 11.189 61.3364 12.4182 58.0295 10.7859C63.5859 11.0098 64.0447 7.30219 65.172 3.91807C66.1695 0.922129 69.5862 -0.43152 73.5365 0.120888C76.4094 0.523997 78.2399 2.44001 78.5641 5.71464C78.7886 8.0039 78.7537 10.318 78.7936 12.6222C78.8185 14.2745 78.5891 15.9466 78.7936 17.569C79.1577 20.3759 81.2426 21.1472 83.5419 19.6094C90.8241 14.7522 98.8394 12.7467 107.443 14.5631C117.563 16.6981 123.055 23.5808 125.344 33.3201C125.549 34.196 125.709 35.0819 126.038 36.6993C128.148 35.2162 130.262 34.2707 131.594 32.6781C134.532 29.1646 138.243 27.0495 142.403 25.4719C144.338 24.7404 146.268 23.969 148.129 23.0732C151.785 21.3065 152.568 19.4602 151.765 15.4689C151.311 13.2145 150.847 10.9202 150.797 8.63096C150.732 5.73953 153.002 3.71901 156.259 3.82352C155.62 4.55011 155.286 5.20205 154.752 5.50065C152.578 6.7249 152.199 8.60608 152.633 10.8107C152.857 11.9404 153.146 13.0652 153.46 14.1749C154.677 18.4598 153.79 21.5155 150.149 24.1332C148.084 25.6212 145.874 27.2934 143.485 27.8757C138.901 28.9855 136.268 32.2153 133.315 35.3456C131.42 37.3562 129.04 38.9039 126.931 40.7254C126.297 41.2728 125.514 41.9795 125.389 42.7111C124.606 47.3145 122.541 51.3555 119.823 55.0233C117.878 57.646 117.693 60.0447 119.504 62.7023C120.431 64.0659 121.23 65.524 122.167 66.8876C125.02 71.0431 128.881 71.9439 133.08 69.1371C135.609 67.45 137.968 65.4444 140.168 63.3343C145.38 58.3278 149.061 57.4668 155.645 60.204C160.269 62.125 164.833 62.0006 169.421 60.1692C169.955 59.9552 170.489 59.7362 171.022 59.5371C171.077 59.5172 171.167 59.5819 172 59.8656C170.683 60.7614 169.81 61.7219 168.753 62.0105C164.284 63.2149 159.77 63.2447 155.246 62.1349C153.411 61.6821 151.51 61.2342 149.64 61.2391C147.011 61.2491 144.782 62.2992 142.827 64.2749C139.644 67.4898 136.412 70.7545 132.756 73.3772C128.158 76.6767 125.22 76.2089 120.9 72.5859C120.337 72.1131 119.763 71.6553 118.771 70.8441C120.676 78.4733 123.514 85.0275 129.2 89.9942C131.739 92.2088 135.514 92.5423 138.033 90.9696C140.802 89.2427 141.395 86.4857 140.816 83.5793C140.168 80.2997 139.136 77.0947 138.163 73.4419C138.816 74.1137 139.515 74.5467 139.789 75.1638C141.639 79.3691 142.881 83.7187 142.293 88.3768C141.849 91.8555 139.804 93.8561 136.322 94.3438C131.474 95.0256 127.429 93.2489 124.297 89.7553C121.604 86.7544 119.334 83.3703 116.895 80.1454C115.499 78.2991 114.177 76.398 112.76 74.5666C109.369 70.1672 104.954 69.4108 99.8669 71.0083C94.6248 72.6556 91.4625 76.1143 90.6196 81.5488C90.3951 83.007 90.6046 84.5299 90.4201 85.998C89.7966 90.9696 89.3677 95.9911 88.3402 100.883C87.1132 106.716 85.5869 112.464 86.4847 118.491C86.6443 119.551 86.8538 120.611 87.183 121.626C88.5995 125.985 91.3578 127.414 95.7819 126.15C99.6624 125.04 100.999 122.387 100.241 118.077C99.7622 115.345 99.418 112.514 99.6125 109.766C99.7821 107.358 101.438 106.825 103.448 108.313C99.8868 109.662 101.019 112.24 101.687 114.688C102.012 115.883 102.456 117.047 102.72 118.257C103.777 123.129 101.368 127.817 97.0638 129.374C92.3453 131.076 86.2154 129.22 84.4248 124.841C83.123 121.661 82.4346 117.978 82.5145 114.544C82.6641 108.458 83.2526 102.326 84.32 96.3345C85.3675 90.472 83.532 85.7442 80.5543 80.9367C75.1675 72.2326 67.0474 70.7694 57.7352 71.3069C48.1487 71.8593 42.4876 77.5924 38.4475 85.2913C35.6643 90.6014 33.5545 96.2797 31.3649 101.883C29.3349 107.074 27.3747 112.29 22.736 115.788C21.1898 116.953 19.3294 117.898 17.464 118.401C12.3465 119.779 7.5832 116.769 6.33127 111.638C5.28384 107.348 7.24902 101.963 11.1295 99.5942L11.1495 99.5593Z" fill="#F2F2F2"/>
</svg>
