<svg width="324" height="204" viewBox="0 0 324 204" fill="none" xmlns="http://www.w3.org/2000/svg">
<path d="M3.65714 178.65C5.56879 178.337 7.60834 178.343 9.37936 177.658C23.1767 172.321 35.1646 164.648 42.7857 151.413C45.3879 146.901 48.0924 142.447 50.848 138.025C51.7942 136.508 53.0282 135.164 54.1599 133.769C55.4578 132.169 56.9474 131.945 58.9614 132.655C84.3886 141.57 110.199 149.032 136.873 153.237C137.072 153.269 137.244 153.416 137.903 153.742C127.628 170.145 116.177 185.825 107.879 203.328C108.134 203.552 108.384 203.776 108.639 204C110.768 202.08 113.025 200.282 114.995 198.215C127.769 184.833 140.518 171.425 153.183 157.941C154.788 156.238 156.323 155.477 158.701 155.682C185.081 157.947 209.83 152.245 233.301 140.284C234.407 139.72 236.005 139.336 237.118 139.688C246.958 142.767 256.733 146.056 266.554 149.224C272.142 151.029 276.879 154.152 281.131 158.12C282.103 159.029 283.228 159.765 284.692 160.353C285.198 152.354 283.593 144.796 278.497 138.773C273.625 133.02 267.692 128.162 262.2 122.889C270.716 117.737 278.203 110.339 285.383 102.704C290.83 96.9186 295.741 90.6085 300.657 84.3495C304.25 79.78 304.883 74.7434 301.137 68.8172C302.678 67.5628 304.487 66.3852 305.932 64.8621C321.276 48.7666 325.893 29.3688 323.335 7.80791C323.239 6.97594 322.971 6.15037 322.709 5.34399C321.014 0.10896 319.448 -0.979005 314.295 0.780939C307.658 3.04007 301.239 5.91357 294.66 8.3391C280.601 13.5229 266.535 18.694 252.411 23.6858C240.475 27.9033 229.593 34.1175 219.126 41.0484C210.534 46.7379 202.247 52.8945 193.942 58.9999C192.222 60.267 191.001 60.3822 189.147 59.3775C178.572 53.624 167.224 50.7633 155.178 50.8337C153.075 50.8465 150.914 51.0769 148.9 51.6273C146.732 52.2161 146.489 53.9056 148.19 55.4096C148.893 56.0368 149.839 56.376 150.607 56.9455C154.181 59.5951 158.017 61.9822 161.188 65.0605C163.394 67.2044 165.082 70.1355 166.265 73.0154C168.489 78.4168 168.016 79.3256 163.375 82.7751C149.782 92.874 135.761 102.365 120.41 109.571C102.124 118.153 82.835 120.643 62.8295 117.526C57.5357 116.7 52.8748 114.672 48.6742 111.382C36.1172 101.558 23.5411 91.7476 10.9202 82.0007C8.48428 80.1192 5.88849 78.4296 3.22876 76.8873C2.37842 76.3945 1.08691 76.6505 0 76.5673C0.20459 77.6105 0.051178 78.9992 0.671356 79.652C12.7999 92.394 17.6143 109.526 27.2558 123.753C27.6394 124.323 28.0102 125.212 27.844 125.801C25.5423 133.961 23.4452 142.191 20.696 150.203C17.8764 158.446 12.7807 165.441 7.14163 172.027C5.65833 173.761 4.36041 175.655 2.9794 177.473C3.20319 177.87 3.43335 178.266 3.65714 178.663V178.65Z" fill="#F2F2F2"/>
</svg>
